%TF.GenerationSoftware,KiCad,Pcbnew,6.0.2+dfsg-1*%
%TF.CreationDate,2023-01-15T11:35:28-08:00*%
%TF.ProjectId,home-automation-sensor-lora,686f6d65-2d61-4757-946f-6d6174696f6e,rev?*%
%TF.SameCoordinates,Original*%
%TF.FileFunction,Copper,L1,Top*%
%TF.FilePolarity,Positive*%
%FSLAX46Y46*%
G04 Gerber Fmt 4.6, Leading zero omitted, Abs format (unit mm)*
G04 Created by KiCad (PCBNEW 6.0.2+dfsg-1) date 2023-01-15 11:35:28*
%MOMM*%
%LPD*%
G01*
G04 APERTURE LIST*
G04 Aperture macros list*
%AMRoundRect*
0 Rectangle with rounded corners*
0 $1 Rounding radius*
0 $2 $3 $4 $5 $6 $7 $8 $9 X,Y pos of 4 corners*
0 Add a 4 corners polygon primitive as box body*
4,1,4,$2,$3,$4,$5,$6,$7,$8,$9,$2,$3,0*
0 Add four circle primitives for the rounded corners*
1,1,$1+$1,$2,$3*
1,1,$1+$1,$4,$5*
1,1,$1+$1,$6,$7*
1,1,$1+$1,$8,$9*
0 Add four rect primitives between the rounded corners*
20,1,$1+$1,$2,$3,$4,$5,0*
20,1,$1+$1,$4,$5,$6,$7,0*
20,1,$1+$1,$6,$7,$8,$9,0*
20,1,$1+$1,$8,$9,$2,$3,0*%
%AMFreePoly0*
4,1,6,1.000000,0.000000,0.500000,-0.750000,-0.500000,-0.750000,-0.500000,0.750000,0.500000,0.750000,1.000000,0.000000,1.000000,0.000000,$1*%
%AMFreePoly1*
4,1,7,0.700000,0.000000,1.200000,-0.750000,-1.200000,-0.750000,-0.700000,0.000000,-1.200000,0.750000,1.200000,0.750000,0.700000,0.000000,0.700000,0.000000,$1*%
G04 Aperture macros list end*
%TA.AperFunction,SMDPad,CuDef*%
%ADD10RoundRect,0.200000X0.200000X0.275000X-0.200000X0.275000X-0.200000X-0.275000X0.200000X-0.275000X0*%
%TD*%
%TA.AperFunction,SMDPad,CuDef*%
%ADD11RoundRect,0.150000X-0.150000X0.512500X-0.150000X-0.512500X0.150000X-0.512500X0.150000X0.512500X0*%
%TD*%
%TA.AperFunction,SMDPad,CuDef*%
%ADD12R,0.650000X1.050000*%
%TD*%
%TA.AperFunction,ComponentPad*%
%ADD13R,1.700000X1.700000*%
%TD*%
%TA.AperFunction,ComponentPad*%
%ADD14O,1.700000X1.700000*%
%TD*%
%TA.AperFunction,SMDPad,CuDef*%
%ADD15RoundRect,0.200000X-0.275000X0.200000X-0.275000X-0.200000X0.275000X-0.200000X0.275000X0.200000X0*%
%TD*%
%TA.AperFunction,SMDPad,CuDef*%
%ADD16RoundRect,0.200000X-0.200000X-0.275000X0.200000X-0.275000X0.200000X0.275000X-0.200000X0.275000X0*%
%TD*%
%TA.AperFunction,SMDPad,CuDef*%
%ADD17RoundRect,0.062500X-0.375000X-0.062500X0.375000X-0.062500X0.375000X0.062500X-0.375000X0.062500X0*%
%TD*%
%TA.AperFunction,SMDPad,CuDef*%
%ADD18RoundRect,0.062500X-0.062500X-0.375000X0.062500X-0.375000X0.062500X0.375000X-0.062500X0.375000X0*%
%TD*%
%TA.AperFunction,ComponentPad*%
%ADD19C,0.500000*%
%TD*%
%TA.AperFunction,SMDPad,CuDef*%
%ADD20R,4.500000X5.200000*%
%TD*%
%TA.AperFunction,SMDPad,CuDef*%
%ADD21RoundRect,0.225000X-0.225000X-0.250000X0.225000X-0.250000X0.225000X0.250000X-0.225000X0.250000X0*%
%TD*%
%TA.AperFunction,SMDPad,CuDef*%
%ADD22R,0.600000X1.150000*%
%TD*%
%TA.AperFunction,SMDPad,CuDef*%
%ADD23R,0.300000X1.150000*%
%TD*%
%TA.AperFunction,ComponentPad*%
%ADD24O,1.050000X2.100000*%
%TD*%
%TA.AperFunction,ComponentPad*%
%ADD25O,1.000000X2.000000*%
%TD*%
%TA.AperFunction,SMDPad,CuDef*%
%ADD26RoundRect,0.225000X0.250000X-0.225000X0.250000X0.225000X-0.250000X0.225000X-0.250000X-0.225000X0*%
%TD*%
%TA.AperFunction,SMDPad,CuDef*%
%ADD27R,0.550000X0.550000*%
%TD*%
%TA.AperFunction,ComponentPad*%
%ADD28R,1.000000X1.000000*%
%TD*%
%TA.AperFunction,SMDPad,CuDef*%
%ADD29RoundRect,0.225000X0.225000X0.250000X-0.225000X0.250000X-0.225000X-0.250000X0.225000X-0.250000X0*%
%TD*%
%TA.AperFunction,SMDPad,CuDef*%
%ADD30R,1.200000X1.400000*%
%TD*%
%TA.AperFunction,SMDPad,CuDef*%
%ADD31RoundRect,0.250000X-0.625000X0.312500X-0.625000X-0.312500X0.625000X-0.312500X0.625000X0.312500X0*%
%TD*%
%TA.AperFunction,SMDPad,CuDef*%
%ADD32RoundRect,0.150000X-0.650000X-0.150000X0.650000X-0.150000X0.650000X0.150000X-0.650000X0.150000X0*%
%TD*%
%TA.AperFunction,SMDPad,CuDef*%
%ADD33RoundRect,0.200000X0.275000X-0.200000X0.275000X0.200000X-0.275000X0.200000X-0.275000X-0.200000X0*%
%TD*%
%TA.AperFunction,SMDPad,CuDef*%
%ADD34R,0.600000X0.450000*%
%TD*%
%TA.AperFunction,SMDPad,CuDef*%
%ADD35RoundRect,0.100000X0.100000X-0.300000X0.100000X0.300000X-0.100000X0.300000X-0.100000X-0.300000X0*%
%TD*%
%TA.AperFunction,SMDPad,CuDef*%
%ADD36R,2.400000X1.500000*%
%TD*%
%TA.AperFunction,SMDPad,CuDef*%
%ADD37RoundRect,0.150000X-0.150000X-0.625000X0.150000X-0.625000X0.150000X0.625000X-0.150000X0.625000X0*%
%TD*%
%TA.AperFunction,SMDPad,CuDef*%
%ADD38RoundRect,0.250000X-0.350000X-0.650000X0.350000X-0.650000X0.350000X0.650000X-0.350000X0.650000X0*%
%TD*%
%TA.AperFunction,SMDPad,CuDef*%
%ADD39RoundRect,0.150000X0.150000X-0.512500X0.150000X0.512500X-0.150000X0.512500X-0.150000X-0.512500X0*%
%TD*%
%TA.AperFunction,SMDPad,CuDef*%
%ADD40RoundRect,0.150000X-0.587500X-0.150000X0.587500X-0.150000X0.587500X0.150000X-0.587500X0.150000X0*%
%TD*%
%TA.AperFunction,SMDPad,CuDef*%
%ADD41R,1.400000X3.000000*%
%TD*%
%TA.AperFunction,SMDPad,CuDef*%
%ADD42RoundRect,0.225000X-0.250000X0.225000X-0.250000X-0.225000X0.250000X-0.225000X0.250000X0.225000X0*%
%TD*%
%TA.AperFunction,SMDPad,CuDef*%
%ADD43RoundRect,0.243750X0.456250X-0.243750X0.456250X0.243750X-0.456250X0.243750X-0.456250X-0.243750X0*%
%TD*%
%TA.AperFunction,SMDPad,CuDef*%
%ADD44R,1.050000X0.650000*%
%TD*%
%TA.AperFunction,SMDPad,CuDef*%
%ADD45FreePoly0,90.000000*%
%TD*%
%TA.AperFunction,SMDPad,CuDef*%
%ADD46FreePoly1,90.000000*%
%TD*%
%TA.AperFunction,SMDPad,CuDef*%
%ADD47FreePoly0,270.000000*%
%TD*%
%TA.AperFunction,ComponentPad*%
%ADD48RoundRect,0.500000X-0.500000X-0.500000X0.500000X-0.500000X0.500000X0.500000X-0.500000X0.500000X0*%
%TD*%
%TA.AperFunction,ComponentPad*%
%ADD49C,1.905000*%
%TD*%
%TA.AperFunction,ComponentPad*%
%ADD50C,1.778000*%
%TD*%
%TA.AperFunction,SMDPad,CuDef*%
%ADD51RoundRect,0.150000X0.587500X0.150000X-0.587500X0.150000X-0.587500X-0.150000X0.587500X-0.150000X0*%
%TD*%
%TA.AperFunction,ViaPad*%
%ADD52C,0.800000*%
%TD*%
%TA.AperFunction,Conductor*%
%ADD53C,0.381000*%
%TD*%
%TA.AperFunction,Conductor*%
%ADD54C,0.635000*%
%TD*%
%TA.AperFunction,Conductor*%
%ADD55C,0.254000*%
%TD*%
%TA.AperFunction,Conductor*%
%ADD56C,0.508000*%
%TD*%
%TA.AperFunction,Conductor*%
%ADD57C,0.250000*%
%TD*%
%TA.AperFunction,Conductor*%
%ADD58C,0.200000*%
%TD*%
%TA.AperFunction,Conductor*%
%ADD59C,0.203200*%
%TD*%
%TA.AperFunction,Conductor*%
%ADD60C,0.762000*%
%TD*%
G04 APERTURE END LIST*
D10*
X178666001Y-83853001D03*
X177016001Y-83853001D03*
D11*
X182601001Y-63411501D03*
X181651001Y-63411501D03*
X180701001Y-63411501D03*
X180701001Y-65686501D03*
X182601001Y-65686501D03*
D12*
X158958001Y-79288001D03*
X158958001Y-75022001D03*
X161164001Y-79288001D03*
X161164001Y-75022001D03*
D13*
X181397001Y-110269001D03*
D14*
X178857001Y-110269001D03*
X176317001Y-110269001D03*
X173777001Y-110269001D03*
D15*
X208321001Y-105634001D03*
X208321001Y-107284001D03*
D16*
X185906001Y-48547001D03*
X187556001Y-48547001D03*
D17*
X166791501Y-91779001D03*
X166791501Y-92279001D03*
X166791501Y-92779001D03*
X166791501Y-93279001D03*
X166791501Y-93779001D03*
X166791501Y-94279001D03*
X166791501Y-94779001D03*
X166791501Y-95279001D03*
X166791501Y-95779001D03*
X166791501Y-96279001D03*
X166791501Y-96779001D03*
X166791501Y-97279001D03*
X166791501Y-97779001D03*
X166791501Y-98279001D03*
D18*
X167479001Y-98966501D03*
X167979001Y-98966501D03*
X168479001Y-98966501D03*
X168979001Y-98966501D03*
X169479001Y-98966501D03*
X169979001Y-98966501D03*
X170479001Y-98966501D03*
X170979001Y-98966501D03*
X171479001Y-98966501D03*
X171979001Y-98966501D03*
X172479001Y-98966501D03*
X172979001Y-98966501D03*
X173479001Y-98966501D03*
X173979001Y-98966501D03*
D17*
X174666501Y-98279001D03*
X174666501Y-97779001D03*
X174666501Y-97279001D03*
X174666501Y-96779001D03*
X174666501Y-96279001D03*
X174666501Y-95779001D03*
X174666501Y-95279001D03*
X174666501Y-94779001D03*
X174666501Y-94279001D03*
X174666501Y-93779001D03*
X174666501Y-93279001D03*
X174666501Y-92779001D03*
X174666501Y-92279001D03*
X174666501Y-91779001D03*
D18*
X173979001Y-91091501D03*
X173479001Y-91091501D03*
X172979001Y-91091501D03*
X172479001Y-91091501D03*
X171979001Y-91091501D03*
X171479001Y-91091501D03*
X170979001Y-91091501D03*
X170479001Y-91091501D03*
X169979001Y-91091501D03*
X169479001Y-91091501D03*
X168979001Y-91091501D03*
X168479001Y-91091501D03*
X167979001Y-91091501D03*
X167479001Y-91091501D03*
D19*
X168729001Y-93854001D03*
X169729001Y-95029001D03*
X171729001Y-96204001D03*
X170729001Y-92679001D03*
X172729001Y-92679001D03*
D20*
X170729001Y-95029001D03*
D19*
X168729001Y-96204001D03*
X172729001Y-93854001D03*
X170729001Y-96204001D03*
X169729001Y-97379001D03*
X170729001Y-93854001D03*
X169729001Y-92679001D03*
X171729001Y-93854001D03*
X170729001Y-95029001D03*
X172729001Y-97379001D03*
X171729001Y-92679001D03*
X168729001Y-95029001D03*
X171729001Y-95029001D03*
X169729001Y-96204001D03*
X168729001Y-92679001D03*
X169729001Y-93854001D03*
X171729001Y-97379001D03*
X172729001Y-96204001D03*
X168729001Y-97379001D03*
X170729001Y-97379001D03*
X172729001Y-95029001D03*
D21*
X177066001Y-89949001D03*
X178616001Y-89949001D03*
D22*
X207711001Y-38570001D03*
X206911001Y-38570001D03*
D23*
X205761001Y-38570001D03*
X204761001Y-38570001D03*
X204261001Y-38570001D03*
X203261001Y-38570001D03*
D22*
X201311001Y-38570001D03*
X202111001Y-38570001D03*
D23*
X202761001Y-38570001D03*
X203761001Y-38570001D03*
X205261001Y-38570001D03*
X206261001Y-38570001D03*
D24*
X200191002Y-37995000D03*
D25*
X208831000Y-33815001D03*
X200191002Y-33815001D03*
D24*
X208831001Y-37995001D03*
D26*
X184191001Y-65324001D03*
X184191001Y-63774001D03*
D27*
X159774001Y-118872001D03*
X159774001Y-117922001D03*
X158824001Y-117922001D03*
X158824001Y-118872001D03*
D28*
X208321001Y-45499001D03*
D29*
X163301002Y-96288601D03*
X161751002Y-96288601D03*
D28*
X206289001Y-45499001D03*
D26*
X172126001Y-87803001D03*
X172126001Y-86253001D03*
D30*
X165229001Y-107066000D03*
X165229001Y-104866000D03*
X163529001Y-104866000D03*
X163529001Y-107066000D03*
D16*
X189716001Y-38895001D03*
X191366001Y-38895001D03*
D26*
X164913601Y-90485000D03*
X164913601Y-88935000D03*
D31*
X182413001Y-56798001D03*
X182413001Y-59723001D03*
D27*
X171204001Y-118872001D03*
X171204001Y-117922001D03*
X170254001Y-117922001D03*
X170254001Y-118872001D03*
D16*
X212449001Y-72296001D03*
X214099001Y-72296001D03*
D26*
X170602001Y-87803001D03*
X170602001Y-86253001D03*
D28*
X182159001Y-69883001D03*
D31*
X175809001Y-56798001D03*
X175809001Y-59723001D03*
D32*
X167129001Y-76106001D03*
X167129001Y-77376001D03*
X167129001Y-78646001D03*
X167129001Y-79916001D03*
X174329001Y-79916001D03*
X174329001Y-78646001D03*
X174329001Y-77376001D03*
X174329001Y-76106001D03*
D14*
X187239001Y-69380001D03*
X187239001Y-66840001D03*
D33*
X198701001Y-123426351D03*
X198701001Y-121776351D03*
D26*
X179111001Y-65324001D03*
X179111001Y-63774001D03*
D21*
X177066001Y-91473001D03*
X178616001Y-91473001D03*
D34*
X196857001Y-45499001D03*
X198957001Y-45499001D03*
D28*
X202733001Y-45499001D03*
D21*
X169954001Y-120175001D03*
X171504001Y-120175001D03*
D26*
X169078001Y-87803001D03*
X169078001Y-86253001D03*
D21*
X177066001Y-86901001D03*
X178616001Y-86901001D03*
D35*
X211385001Y-107909001D03*
X212385001Y-107909001D03*
X213385001Y-107909001D03*
X213385001Y-105009001D03*
X212385001Y-105009001D03*
X211385001Y-105009001D03*
D36*
X212385001Y-106459001D03*
D37*
X202003001Y-122352651D03*
X203003001Y-122352651D03*
X204003001Y-122352651D03*
D38*
X200703002Y-126227651D03*
D37*
X205003001Y-122352651D03*
D38*
X206303000Y-126227651D03*
D39*
X185781001Y-46636501D03*
X186731001Y-46636501D03*
X187681001Y-46636501D03*
X187681001Y-44361501D03*
X186731001Y-44361501D03*
X185781001Y-44361501D03*
D15*
X202733001Y-41880001D03*
X202733001Y-43530001D03*
D21*
X178844001Y-96934001D03*
X180394001Y-96934001D03*
D11*
X175997001Y-63411501D03*
X175047001Y-63411501D03*
X174097001Y-63411501D03*
X174097001Y-65686501D03*
X175997001Y-65686501D03*
D26*
X172507001Y-65324001D03*
X172507001Y-63774001D03*
D28*
X200701001Y-45499001D03*
D21*
X158524001Y-120175001D03*
X160074001Y-120175001D03*
D40*
X189603501Y-40612001D03*
X189603501Y-42512001D03*
X191478501Y-41562001D03*
D27*
X194064001Y-118872001D03*
X194064001Y-117922001D03*
X193114001Y-117922001D03*
X193114001Y-118872001D03*
D41*
X153700652Y-68781634D03*
X155700652Y-68781634D03*
X157700652Y-68781634D03*
X159700652Y-68781634D03*
X161700652Y-68781634D03*
X163700652Y-68781634D03*
X165700652Y-68781634D03*
X167700652Y-68781634D03*
X167700652Y-53381634D03*
X165700652Y-53381634D03*
X163700652Y-53381634D03*
X161700652Y-53381634D03*
X159700652Y-53381634D03*
X157700652Y-53381634D03*
X155700652Y-53381634D03*
X153700652Y-53381634D03*
D28*
X180127001Y-104173001D03*
D42*
X170983001Y-103680000D03*
X170983001Y-105230000D03*
D29*
X182426001Y-61501001D03*
X180876001Y-61501001D03*
D21*
X177066001Y-88425001D03*
X178616001Y-88425001D03*
D13*
X214549001Y-69121001D03*
D14*
X212009001Y-69121001D03*
D15*
X166919001Y-102601000D03*
X166919001Y-104251000D03*
D42*
X166919001Y-105699000D03*
X166919001Y-107249000D03*
D29*
X187506001Y-42451001D03*
X185956001Y-42451001D03*
X175822001Y-61501001D03*
X174272001Y-61501001D03*
D10*
X187556001Y-40673001D03*
X185906001Y-40673001D03*
D43*
X194605001Y-68534501D03*
X194605001Y-66659501D03*
D44*
X186324001Y-105276001D03*
X182058001Y-105276001D03*
X186324001Y-103070001D03*
X182058001Y-103070001D03*
D27*
X182380001Y-118872001D03*
X182380001Y-117922001D03*
X181430001Y-117922001D03*
X181430001Y-118872001D03*
D21*
X147094001Y-120175001D03*
X148644001Y-120175001D03*
D45*
X197377601Y-113258301D03*
D46*
X197377601Y-111258301D03*
D47*
X197377601Y-109258301D03*
D48*
X170729001Y-52865001D03*
D28*
X175555001Y-69883001D03*
D33*
X163135601Y-88896201D03*
X163135601Y-87246201D03*
D26*
X177587001Y-65324001D03*
X177587001Y-63774001D03*
D33*
X208353001Y-123426351D03*
X208353001Y-121776351D03*
D15*
X206289001Y-41880001D03*
X206289001Y-43530001D03*
D29*
X164900001Y-102664000D03*
X163350001Y-102664000D03*
D16*
X164088601Y-85671401D03*
X165738601Y-85671401D03*
D13*
X185964001Y-33815001D03*
D14*
X188504001Y-33815001D03*
D16*
X183366001Y-101887001D03*
X185016001Y-101887001D03*
D28*
X162601001Y-83599001D03*
D33*
X192827001Y-68422001D03*
X192827001Y-66772001D03*
X209845001Y-107284001D03*
X209845001Y-105634001D03*
D49*
X135169001Y-115666501D03*
X135169001Y-43403501D03*
D21*
X181130001Y-120175001D03*
X182680001Y-120175001D03*
D40*
X189603501Y-44549001D03*
X189603501Y-46449001D03*
X191478501Y-45499001D03*
D27*
X148344001Y-118872001D03*
X148344001Y-117922001D03*
X147394001Y-117922001D03*
X147394001Y-118872001D03*
D42*
X214925001Y-105684001D03*
X214925001Y-107234001D03*
D21*
X192814001Y-120175001D03*
X194364001Y-120175001D03*
D10*
X178666001Y-85377001D03*
X177016001Y-85377001D03*
D50*
X206289001Y-82075001D03*
X208829001Y-94775001D03*
X211369001Y-94775001D03*
X206289001Y-89695001D03*
X206289001Y-84615001D03*
X206289001Y-76995001D03*
X213909001Y-89695001D03*
X208829001Y-89695001D03*
X201209001Y-82075001D03*
X211369001Y-82075001D03*
X211369001Y-87155001D03*
X206289001Y-79535001D03*
X203749001Y-84615001D03*
X203749001Y-89695001D03*
X203749001Y-82075001D03*
X206289001Y-87155001D03*
X208829001Y-87155001D03*
X198669001Y-94775001D03*
X213909001Y-76995001D03*
X198669001Y-76995001D03*
X208829001Y-84615001D03*
X211369001Y-92235001D03*
X201209001Y-76995001D03*
X208829001Y-79535001D03*
X213909001Y-92235001D03*
X201209001Y-79535001D03*
X203749001Y-94775001D03*
X211369001Y-89695001D03*
X211369001Y-79535001D03*
X198669001Y-79535001D03*
X213909001Y-82075001D03*
X213909001Y-87155001D03*
X208829001Y-82075001D03*
X213909001Y-84615001D03*
X206289001Y-92235001D03*
X198669001Y-87155001D03*
X203749001Y-87155001D03*
X208829001Y-76995001D03*
X201209001Y-94775001D03*
X201209001Y-87155001D03*
X213909001Y-79535001D03*
X203749001Y-92235001D03*
X198669001Y-89695001D03*
X198669001Y-82075001D03*
X203749001Y-76995001D03*
X206289001Y-94775001D03*
X201209001Y-84615001D03*
X211369001Y-84615001D03*
X211369001Y-76995001D03*
X198669001Y-92235001D03*
X201209001Y-92235001D03*
X213909001Y-94775001D03*
X201209001Y-89695001D03*
X198669001Y-84615001D03*
X208829001Y-92235001D03*
X203749001Y-79535001D03*
X196129001Y-94775001D03*
X196129001Y-92235001D03*
X196129001Y-89695001D03*
X196129001Y-87155001D03*
X196129001Y-84615001D03*
X196129001Y-82075001D03*
X196129001Y-79535001D03*
X196129001Y-76995001D03*
D42*
X169459001Y-103680000D03*
X169459001Y-105230000D03*
D51*
X183858501Y-46449001D03*
X183858501Y-44549001D03*
X181983501Y-45499001D03*
D28*
X173015001Y-103680000D03*
D52*
X167756000Y-108491001D03*
X159807001Y-116873001D03*
X192573001Y-38895001D03*
X184191001Y-62517001D03*
X162168000Y-104935001D03*
X190795001Y-46515001D03*
X215941001Y-107221001D03*
X174285001Y-60231001D03*
X179619001Y-91473001D03*
X205051001Y-126411351D03*
X162168000Y-107983001D03*
X164708000Y-101379001D03*
X183683001Y-120175001D03*
X205051001Y-123617351D03*
X172507001Y-120175001D03*
X207559001Y-43467001D03*
X165780652Y-56001634D03*
X215179001Y-72296001D03*
X201545001Y-43467001D03*
X162676000Y-101379001D03*
X148377001Y-116873001D03*
X168264000Y-104935001D03*
X165724000Y-108491001D03*
X171797001Y-84884001D03*
X167685652Y-66161634D03*
X163692000Y-108491001D03*
X179111001Y-62517001D03*
X168264000Y-103919001D03*
X168264000Y-102903001D03*
X202003001Y-126411351D03*
X162168000Y-103919001D03*
X168264000Y-105951001D03*
X208067001Y-39657001D03*
X165724000Y-101379001D03*
X179619001Y-86901001D03*
X182413001Y-116873001D03*
X162168000Y-102903001D03*
X164913601Y-87932000D03*
X170527001Y-84884001D03*
X194605001Y-69883001D03*
X161814801Y-96288601D03*
X166740000Y-108491001D03*
X171237001Y-116873001D03*
X153715652Y-66161634D03*
X180889001Y-60231001D03*
X162168000Y-105951001D03*
X181397001Y-96934001D03*
X179619001Y-88425001D03*
X184191001Y-104681001D03*
X179619001Y-89949001D03*
X188763001Y-48547001D03*
X163692000Y-101379001D03*
X168443001Y-80043001D03*
X149647001Y-120175001D03*
X195367001Y-120175001D03*
X162168000Y-106967001D03*
X177587001Y-62517001D03*
X200955001Y-39657001D03*
X159299001Y-77249001D03*
X164708000Y-108491001D03*
X168264000Y-106967001D03*
X169257001Y-84884001D03*
X170245200Y-106106000D03*
X168264000Y-101887001D03*
X161077001Y-120175001D03*
X172507001Y-62517001D03*
X194097001Y-116873001D03*
X183683001Y-54958501D03*
X177079001Y-54958501D03*
X181143001Y-54958501D03*
X174539001Y-54958501D03*
X182413001Y-54958501D03*
X195367001Y-44229001D03*
X196383001Y-46769001D03*
X195367001Y-45499001D03*
X196383001Y-44229001D03*
X175809001Y-54958501D03*
X195367001Y-46769001D03*
X178095001Y-67597001D03*
X179619001Y-101887001D03*
X171543001Y-89075001D03*
X179619001Y-99601001D03*
X176063001Y-91473001D03*
X176825001Y-67597001D03*
X173777001Y-107221001D03*
X176063001Y-89949001D03*
X173015001Y-76233001D03*
X164523003Y-96279001D03*
X165618302Y-91189700D03*
X176063001Y-88425001D03*
X169459001Y-102156000D03*
X175555001Y-67597001D03*
X177841001Y-96934001D03*
X170576601Y-89060001D03*
X204511001Y-37117001D03*
X204511001Y-39911001D03*
X191811001Y-120175001D03*
X184699001Y-67597001D03*
X208321001Y-104681001D03*
X157521001Y-120175001D03*
X215941001Y-105697001D03*
X209845001Y-108237001D03*
X180127001Y-120175001D03*
X159430652Y-56001634D03*
X183429001Y-67597001D03*
X182159001Y-67597001D03*
X197377601Y-114814301D03*
X168951001Y-120175001D03*
X146091001Y-120175001D03*
X208353001Y-124633351D03*
X204035001Y-124633351D03*
X198701001Y-124633351D03*
X181651001Y-65565001D03*
X177079001Y-102141001D03*
X193081001Y-41562001D03*
X195113001Y-41562001D03*
X194097001Y-41562001D03*
X183429001Y-45499001D03*
X190033001Y-45499001D03*
X183429001Y-41181001D03*
X184699001Y-41181001D03*
X184699001Y-42451001D03*
X183429001Y-42451001D03*
D53*
X174272001Y-61501001D02*
X174272001Y-60244001D01*
X182380001Y-117922001D02*
X182380001Y-116906001D01*
X186324001Y-104782001D02*
X185969001Y-104427001D01*
X214099001Y-72296001D02*
X215179001Y-72296001D01*
X194364001Y-120175001D02*
X195367001Y-120175001D01*
X200703002Y-126227651D02*
X201819301Y-126227651D01*
X191366001Y-38895001D02*
X192573001Y-38895001D01*
X184191001Y-63774001D02*
X184191001Y-62517001D01*
X164913601Y-88935000D02*
X164913601Y-87932000D01*
X185969001Y-104427001D02*
X184445001Y-104427001D01*
D54*
X153700652Y-66176634D02*
X153715652Y-66161634D01*
D53*
X148344001Y-117922001D02*
X148344001Y-116906001D01*
D54*
X165700652Y-53381634D02*
X165700652Y-55921634D01*
D53*
X201608001Y-43530001D02*
X201545001Y-43467001D01*
X215941001Y-107221001D02*
X215928001Y-107234001D01*
X189603501Y-46449001D02*
X190729001Y-46449001D01*
X212639001Y-108745001D02*
X212369001Y-108475001D01*
X168443001Y-80043001D02*
X168316001Y-79916001D01*
X148644001Y-120175001D02*
X149647001Y-120175001D01*
X175047001Y-63411501D02*
X175047001Y-62276001D01*
X194064001Y-117922001D02*
X194064001Y-116906001D01*
X181397001Y-96934001D02*
X180394001Y-96934001D01*
X172507001Y-63774001D02*
X172507001Y-62517001D01*
X160074001Y-120175001D02*
X161077001Y-120175001D01*
X184445001Y-104427001D02*
X184191001Y-104681001D01*
X186324001Y-105276001D02*
X186324001Y-104782001D01*
X201311001Y-39301001D02*
X200955001Y-39657001D01*
X148344001Y-116906001D02*
X148377001Y-116873001D01*
X180876001Y-61501001D02*
X180876001Y-60244001D01*
D54*
X167700652Y-68781634D02*
X167700652Y-66176634D01*
D53*
X214925001Y-108237001D02*
X214417001Y-108745001D01*
X171204001Y-117160001D02*
X171237001Y-117127001D01*
D55*
X169479001Y-98966501D02*
X169479001Y-97424999D01*
D53*
X207711001Y-38570001D02*
X207711001Y-39301001D01*
X171237001Y-117127001D02*
X171237001Y-116873001D01*
D54*
X165700652Y-55921634D02*
X165780652Y-56001634D01*
D53*
X201311001Y-38570001D02*
X201311001Y-39301001D01*
X201819301Y-126227651D02*
X202003001Y-126411351D01*
X207496001Y-43530001D02*
X207559001Y-43467001D01*
X214417001Y-108745001D02*
X212639001Y-108745001D01*
X158958001Y-77590001D02*
X159299001Y-77249001D01*
X181651001Y-62276001D02*
X180876001Y-61501001D01*
X212369001Y-108475001D02*
X212369001Y-107909001D01*
X206303000Y-126227651D02*
X205234701Y-126227651D01*
X205003001Y-122352651D02*
X205003001Y-123569351D01*
X177587001Y-63774001D02*
X177587001Y-62517001D01*
X205003001Y-123569351D02*
X205051001Y-123617351D01*
X206289001Y-43530001D02*
X207496001Y-43530001D01*
X194605001Y-68534501D02*
X194605001Y-69883001D01*
X182380001Y-116906001D02*
X182413001Y-116873001D01*
X158958001Y-75022001D02*
X158958001Y-76908001D01*
X175047001Y-62276001D02*
X174272001Y-61501001D01*
X182680001Y-120175001D02*
X183683001Y-120175001D01*
X159774001Y-116906001D02*
X159807001Y-116873001D01*
X215928001Y-107234001D02*
X215415801Y-107234001D01*
X205234701Y-126227651D02*
X205051001Y-126411351D01*
X158958001Y-76908001D02*
X159299001Y-77249001D01*
X182413001Y-104427001D02*
X182058001Y-104782001D01*
X161751002Y-96288601D02*
X161814801Y-96288601D01*
X187556001Y-48547001D02*
X188763001Y-48547001D01*
X180876001Y-60244001D02*
X180889001Y-60231001D01*
X190729001Y-46449001D02*
X190795001Y-46515001D01*
X183937001Y-104427001D02*
X184191001Y-104681001D01*
X158958001Y-79288001D02*
X158958001Y-77590001D01*
X159774001Y-117922001D02*
X159774001Y-116906001D01*
X194064001Y-116906001D02*
X194097001Y-116873001D01*
X207711001Y-39301001D02*
X208067001Y-39657001D01*
X167685652Y-66161634D02*
X167700652Y-66176634D01*
D54*
X153700652Y-68781634D02*
X153700652Y-66176634D01*
D53*
X182413001Y-104427001D02*
X183937001Y-104427001D01*
X168316001Y-79916001D02*
X167129001Y-79916001D01*
X174272001Y-60244001D02*
X174285001Y-60231001D01*
X171204001Y-117922001D02*
X171204001Y-117160001D01*
X202733001Y-43530001D02*
X201608001Y-43530001D01*
X214925001Y-107234001D02*
X214925001Y-108237001D01*
X181651001Y-63411501D02*
X181651001Y-62276001D01*
X179111001Y-63774001D02*
X179111001Y-62517001D01*
X171504001Y-120175001D02*
X172507001Y-120175001D01*
X182058001Y-104782001D02*
X182058001Y-105276001D01*
D56*
X193650001Y-42512001D02*
X195367001Y-44229001D01*
X189603501Y-42512001D02*
X193650001Y-42512001D01*
D57*
X211369001Y-103157001D02*
X210607001Y-102395001D01*
X206416001Y-98204001D02*
X177770001Y-98204001D01*
X211041001Y-105009001D02*
X211385001Y-105009001D01*
X177770001Y-98204001D02*
X176345001Y-96779001D01*
X211369001Y-105009001D02*
X211369001Y-103157001D01*
X209845001Y-105634001D02*
X210416001Y-105634001D01*
X210607001Y-102395001D02*
X206416001Y-98204001D01*
X176345001Y-96779001D02*
X174666501Y-96779001D01*
X210416001Y-105634001D02*
X211041001Y-105009001D01*
X208321001Y-106713001D02*
X208575001Y-106459001D01*
X208067001Y-109253001D02*
X210607001Y-109253001D01*
X205273001Y-100617001D02*
X205273001Y-106459001D01*
X208575001Y-106459001D02*
X210353001Y-106459001D01*
X211041001Y-107909001D02*
X211385001Y-107909001D01*
X210861001Y-107729001D02*
X211041001Y-107909001D01*
X177559501Y-98839001D02*
X203495001Y-98839001D01*
X205273001Y-106459001D02*
X208067001Y-109253001D01*
X203495001Y-98839001D02*
X205273001Y-100617001D01*
X210353001Y-106459001D02*
X210861001Y-106967001D01*
X210861001Y-106967001D02*
X210861001Y-107729001D01*
X175999501Y-97279001D02*
X177559501Y-98839001D01*
X211369001Y-108491001D02*
X211369001Y-107909001D01*
X208321001Y-107284001D02*
X208321001Y-106713001D01*
X174666501Y-97279001D02*
X175999501Y-97279001D01*
X210607001Y-109253001D02*
X211369001Y-108491001D01*
X169459001Y-103680000D02*
X169459001Y-102156000D01*
X164523003Y-96279001D02*
X163310602Y-96279001D01*
X163809002Y-90485000D02*
X163135601Y-89811599D01*
D53*
X189017001Y-99601001D02*
X197377601Y-107961601D01*
X174329001Y-76106001D02*
X173142001Y-76106001D01*
D57*
X166791501Y-96279001D02*
X164523003Y-96279001D01*
D53*
X197377601Y-107961601D02*
X197377601Y-109258301D01*
X173142001Y-76106001D02*
X173015001Y-76233001D01*
D57*
X163310602Y-96279001D02*
X163301002Y-96288601D01*
X177841001Y-96934001D02*
X177186001Y-96279001D01*
X169459001Y-102156000D02*
X169459001Y-101493963D01*
D53*
X183366001Y-101887001D02*
X179619001Y-101887001D01*
D57*
X166791501Y-91779001D02*
X166207602Y-91779001D01*
X178844001Y-96934001D02*
X177841001Y-96934001D01*
D53*
X179619001Y-99601001D02*
X189017001Y-99601001D01*
D57*
X163135601Y-89811599D02*
X163135601Y-88896201D01*
X170979001Y-99973963D02*
X170979001Y-98966501D01*
X165618302Y-91189700D02*
X164913601Y-90485000D01*
X177186001Y-96279001D02*
X174666501Y-96279001D01*
X164913601Y-90485000D02*
X163809002Y-90485000D01*
X166207602Y-91779001D02*
X165618302Y-91189700D01*
X169459001Y-101493963D02*
X170979001Y-99973963D01*
D53*
X173777001Y-110269001D02*
X173777001Y-107221001D01*
D57*
X157234001Y-118872001D02*
X158184001Y-117922001D01*
X148344001Y-118872001D02*
X157234001Y-118872001D01*
X158184001Y-117922001D02*
X158824001Y-117922001D01*
X147394001Y-117922001D02*
X147394001Y-113538001D01*
X167479001Y-99549001D02*
X167479001Y-98966501D01*
X166919001Y-100109001D02*
X167479001Y-99549001D01*
X160823001Y-100109001D02*
X166919001Y-100109001D01*
X147394001Y-113538001D02*
X160823001Y-100109001D01*
D56*
X200701001Y-45499001D02*
X198957001Y-45499001D01*
X202111001Y-40279001D02*
X200701001Y-41689001D01*
X189716001Y-38895001D02*
X189716001Y-40499501D01*
X200701001Y-41689001D02*
X200701001Y-45499001D01*
X189603501Y-40612001D02*
X199624001Y-40612001D01*
X202111001Y-38570001D02*
X202111001Y-40279001D01*
X199624001Y-40612001D02*
X200701001Y-41689001D01*
D57*
X202761001Y-38570001D02*
X202761001Y-41852001D01*
X206289001Y-40927001D02*
X206289001Y-41880001D01*
X205761001Y-40399001D02*
X206289001Y-40927001D01*
X205761001Y-38570001D02*
X205761001Y-40399001D01*
D58*
X205261001Y-40685001D02*
X205261001Y-38570001D01*
X178666001Y-85377001D02*
X179203000Y-84840002D01*
X179203000Y-84840002D02*
X182506200Y-84840002D01*
X182506200Y-84840002D02*
X205019001Y-62327201D01*
X205019001Y-45626001D02*
X205019001Y-45499001D01*
X205019001Y-40927001D02*
X205261001Y-40685001D01*
X206289001Y-45499001D02*
X205146001Y-45499001D01*
X204261001Y-37367001D02*
X204511001Y-37117001D01*
X205019001Y-62327201D02*
X205019001Y-45626001D01*
X204261001Y-38570001D02*
X204261001Y-37367001D01*
X205146001Y-45499001D02*
X205019001Y-45372001D01*
X205019001Y-45499001D02*
X205019001Y-45372001D01*
X205019001Y-45372001D02*
X205019001Y-40927001D01*
X205146001Y-45499001D02*
X205019001Y-45626001D01*
X202733001Y-45499001D02*
X203876001Y-45499001D01*
X203876001Y-45499001D02*
X204003001Y-45626001D01*
X182319802Y-84390000D02*
X204003001Y-62706801D01*
X204003001Y-62706801D02*
X204003001Y-45626001D01*
X204003001Y-45626001D02*
X204003001Y-45499001D01*
X203876001Y-45499001D02*
X204003001Y-45372001D01*
X178666001Y-83853001D02*
X179203000Y-84390000D01*
X179203000Y-84390000D02*
X182319802Y-84390000D01*
X204003001Y-40935752D02*
X203761001Y-40693752D01*
X204003001Y-45499001D02*
X204003001Y-45372001D01*
X204761001Y-38570001D02*
X204761001Y-39661001D01*
X203761001Y-40693752D02*
X203761001Y-38570001D01*
X204003001Y-45372001D02*
X204003001Y-40935752D01*
X204761001Y-39661001D02*
X204511001Y-39911001D01*
D57*
X168730001Y-118872001D02*
X169680001Y-117922001D01*
X169680001Y-117922001D02*
X170254001Y-117922001D01*
X168730001Y-118872001D02*
X159774001Y-118872001D01*
X179906001Y-118872001D02*
X180856001Y-117922001D01*
X179906001Y-118872001D02*
X171204001Y-118872001D01*
X180856001Y-117922001D02*
X181430001Y-117922001D01*
X193081001Y-117889001D02*
X192272001Y-117889001D01*
X192272001Y-117889001D02*
X191289001Y-118872001D01*
X191289001Y-118872001D02*
X182380001Y-118872001D01*
X193114001Y-117922001D02*
X193081001Y-117889001D01*
D59*
X161317112Y-97061001D02*
X160058352Y-95802241D01*
X164887001Y-97061001D02*
X161317112Y-97061001D01*
X155700652Y-72634652D02*
X155700652Y-68781634D01*
X160058352Y-91221650D02*
X156314501Y-87477799D01*
X160058352Y-95802241D02*
X160058352Y-91221650D01*
X156314501Y-73248501D02*
X155700652Y-72634652D01*
X156314501Y-87477799D02*
X156314501Y-73248501D01*
X165169001Y-96779001D02*
X164887001Y-97061001D01*
X166791501Y-96779001D02*
X165169001Y-96779001D01*
X156708201Y-87314723D02*
X156708201Y-73235801D01*
X166791501Y-95779001D02*
X165172479Y-95779001D01*
X157700652Y-72243350D02*
X157700652Y-68781634D01*
X156708201Y-73235801D02*
X157700652Y-72243350D01*
X165172479Y-95779001D02*
X156708201Y-87314723D01*
X165229255Y-95279001D02*
X157101901Y-87151647D01*
X157101901Y-73604101D02*
X159700652Y-71005350D01*
X166791501Y-95279001D02*
X165229255Y-95279001D01*
X157101901Y-87151647D02*
X157101901Y-73604101D01*
X159700652Y-71005350D02*
X159700652Y-68781634D01*
X166791501Y-94779001D02*
X165286031Y-94779001D01*
X165286031Y-94779001D02*
X157495601Y-86988571D01*
X159506249Y-71864201D02*
X160873801Y-71864201D01*
X161700652Y-71037350D02*
X161700652Y-68781634D01*
X160873801Y-71864201D02*
X161700652Y-71037350D01*
X157495601Y-73874849D02*
X159506249Y-71864201D01*
X157495601Y-86988571D02*
X157495601Y-73874849D01*
X163109001Y-72257901D02*
X163700652Y-71666250D01*
X157889301Y-74037925D02*
X159669325Y-72257901D01*
X163700652Y-71666250D02*
X163700652Y-68781634D01*
X166791501Y-94279001D02*
X165342807Y-94279001D01*
X157889301Y-86825495D02*
X157889301Y-74037925D01*
X159669325Y-72257901D02*
X163109001Y-72257901D01*
X165342807Y-94279001D02*
X157889301Y-86825495D01*
X166791501Y-92779001D02*
X164956359Y-92779001D01*
X161167925Y-73045301D02*
X164518701Y-73045301D01*
X164956359Y-92779001D02*
X160153201Y-87975843D01*
X160153201Y-87975843D02*
X160153201Y-74060025D01*
X165700652Y-71863350D02*
X165700652Y-68781634D01*
X160153201Y-74060025D02*
X161167925Y-73045301D01*
X164518701Y-73045301D02*
X165700652Y-71863350D01*
D54*
X170690634Y-52826634D02*
X168320652Y-52826634D01*
X170729001Y-52865001D02*
X170690634Y-52826634D01*
D59*
X165395001Y-73439001D02*
X161331001Y-73439001D01*
X161331001Y-73439001D02*
X160546901Y-74223101D01*
X163700652Y-59509634D02*
X166692752Y-62501734D01*
X165013135Y-92279001D02*
X166791501Y-92279001D01*
X166692752Y-62501734D02*
X166692752Y-72141250D01*
X160546901Y-87812767D02*
X165013135Y-92279001D01*
X160546901Y-74223101D02*
X160546901Y-87812767D01*
X166692752Y-72141250D02*
X165395001Y-73439001D01*
X163700652Y-53381634D02*
X163700652Y-59509634D01*
X159832401Y-72651601D02*
X163642401Y-72651601D01*
X165399583Y-93779001D02*
X158283001Y-86662419D01*
X166791501Y-93779001D02*
X165399583Y-93779001D01*
X158283001Y-86662419D02*
X158283001Y-74201001D01*
X164709041Y-71584961D02*
X164709041Y-62804023D01*
X161700652Y-59795634D02*
X161700652Y-53381634D01*
X163642401Y-72651601D02*
X164709041Y-71584961D01*
X158283001Y-74201001D02*
X159832401Y-72651601D01*
X164709041Y-62804023D02*
X161700652Y-59795634D01*
X159664652Y-95965317D02*
X159664652Y-91384726D01*
X165050077Y-97454701D02*
X161154036Y-97454701D01*
X152709041Y-65771245D02*
X157700652Y-60779634D01*
X166791501Y-97279001D02*
X165225777Y-97279001D01*
X165225777Y-97279001D02*
X165050077Y-97454701D01*
X155920801Y-73774605D02*
X152709041Y-70562845D01*
X155920801Y-87640875D02*
X155920801Y-73774605D01*
X152709041Y-70562845D02*
X152709041Y-65771245D01*
X161154036Y-97454701D02*
X159664652Y-95965317D01*
X157700652Y-60779634D02*
X157700652Y-53381634D01*
X159664652Y-91384726D02*
X155920801Y-87640875D01*
X165369601Y-97848401D02*
X160990960Y-97848401D01*
X152315821Y-70725723D02*
X152315821Y-63624465D01*
X159270952Y-96128393D02*
X159270952Y-91547802D01*
X155527101Y-87803951D02*
X155527101Y-73937003D01*
X160990960Y-97848401D02*
X159270952Y-96128393D01*
X166791501Y-97779001D02*
X165439001Y-97779001D01*
X165439001Y-97779001D02*
X165369601Y-97848401D01*
X155527101Y-73937003D02*
X152315821Y-70725723D01*
X155700652Y-60239634D02*
X155700652Y-53381634D01*
X159270952Y-91547802D02*
X155527101Y-87803951D01*
X152315821Y-63624465D02*
X155700652Y-60239634D01*
X155133401Y-87967027D02*
X155133401Y-74100079D01*
X151922601Y-70889279D02*
X151922601Y-61731685D01*
X151922601Y-61731685D02*
X153700652Y-59953634D01*
X158877252Y-96291469D02*
X158877252Y-91710878D01*
X155133401Y-74100079D02*
X151922601Y-70889279D01*
X160864784Y-98279001D02*
X158877252Y-96291469D01*
X153700652Y-59953634D02*
X153700652Y-53381634D01*
X158877252Y-91710878D02*
X155133401Y-87967027D01*
X166791501Y-98279001D02*
X160864784Y-98279001D01*
D57*
X174285001Y-88933001D02*
X172979001Y-90239001D01*
X170479001Y-91091501D02*
X170479001Y-90008698D01*
X173015001Y-103680000D02*
X170996001Y-103680000D01*
X169078001Y-88607698D02*
X169078001Y-87803001D01*
X172979001Y-90239001D02*
X172979001Y-91091501D01*
X174285001Y-87409001D02*
X174285001Y-88933001D01*
X174793001Y-86901001D02*
X174285001Y-87409001D01*
X177066001Y-86901001D02*
X174793001Y-86901001D01*
X171479001Y-100375001D02*
X170983001Y-100871001D01*
X170479001Y-90008698D02*
X169078001Y-88607698D01*
X170983001Y-100871001D02*
X170983001Y-103680000D01*
X171479001Y-98966501D02*
X171479001Y-100375001D01*
D55*
X166919001Y-106220000D02*
X166919001Y-105699000D01*
X166919001Y-105699000D02*
X166919001Y-104251000D01*
X166157001Y-106728000D02*
X165567001Y-106728000D01*
X166665001Y-106474000D02*
X166919001Y-106220000D01*
X166157001Y-106728000D02*
X166411001Y-106474000D01*
X166411001Y-106474000D02*
X166665001Y-106474000D01*
D57*
X165738601Y-85671401D02*
X165218401Y-85671401D01*
X165738601Y-85671401D02*
X165738601Y-82418601D01*
X165522001Y-76106001D02*
X167129001Y-76106001D01*
X164913601Y-85976201D02*
X164913601Y-86890601D01*
X167057101Y-91091501D02*
X165738601Y-89773001D01*
X164558001Y-87246201D02*
X163135601Y-87246201D01*
X167479001Y-91091501D02*
X167057101Y-91091501D01*
X165738601Y-82418601D02*
X164633001Y-81313001D01*
X164633001Y-81313001D02*
X164633001Y-76995001D01*
X165218401Y-85671401D02*
X164913601Y-85976201D01*
X164913601Y-86890601D02*
X164558001Y-87246201D01*
X165738601Y-89773001D02*
X165738601Y-85671401D01*
X164633001Y-76995001D02*
X165522001Y-76106001D01*
X174285001Y-83599001D02*
X176825001Y-81059001D01*
X169979001Y-90130980D02*
X168230101Y-88382080D01*
X176825001Y-78265001D02*
X175936001Y-77376001D01*
X176825001Y-81059001D02*
X176825001Y-78265001D01*
X168230101Y-88382080D02*
X168230101Y-84717065D01*
X169348165Y-83599001D02*
X174285001Y-83599001D01*
X175936001Y-77376001D02*
X174329001Y-77376001D01*
X168230101Y-84717065D02*
X169348165Y-83599001D01*
X169979001Y-91091501D02*
X169979001Y-90130980D01*
X176317001Y-79281001D02*
X175682001Y-78646001D01*
X167790081Y-84534803D02*
X169233883Y-83091001D01*
X174031001Y-83091001D02*
X176317001Y-80805001D01*
X169233883Y-83091001D02*
X174031001Y-83091001D01*
X169479001Y-91091501D02*
X169479001Y-90253262D01*
X169479001Y-90253262D02*
X167790081Y-88564342D01*
X167790081Y-88564342D02*
X167790081Y-84534803D01*
X176317001Y-80805001D02*
X176317001Y-79281001D01*
X175682001Y-78646001D02*
X174329001Y-78646001D01*
X175876981Y-80110981D02*
X175682001Y-79916001D01*
X175682001Y-79916001D02*
X174329001Y-79916001D01*
X167350061Y-84183941D02*
X168951001Y-82583001D01*
X168979001Y-90375544D02*
X167350061Y-88746604D01*
X168979001Y-91091501D02*
X168979001Y-90375544D01*
X167350061Y-88746604D02*
X167350061Y-84183941D01*
X175876981Y-80483021D02*
X175876981Y-80110981D01*
X168951001Y-82583001D02*
X173777001Y-82583001D01*
X173777001Y-82583001D02*
X175876981Y-80483021D01*
X168479001Y-90497826D02*
X166910041Y-88928866D01*
X168479001Y-91091501D02*
X168479001Y-90497826D01*
X166910041Y-81812041D02*
X165649001Y-80551001D01*
X165649001Y-80551001D02*
X165649001Y-79027001D01*
X166030001Y-78646001D02*
X167129001Y-78646001D01*
X165649001Y-79027001D02*
X166030001Y-78646001D01*
X166910041Y-88928866D02*
X166910041Y-81812041D01*
X169459001Y-100109001D02*
X168005870Y-100109001D01*
X163529001Y-104035000D02*
X164900001Y-102664000D01*
X165450871Y-102664000D02*
X164900001Y-102664000D01*
X163529001Y-104866000D02*
X163529001Y-104035000D01*
X169979001Y-99589001D02*
X169459001Y-100109001D01*
X169979001Y-98966501D02*
X169979001Y-99589001D01*
X168005870Y-100109001D02*
X165450871Y-102664000D01*
X169713001Y-100617001D02*
X170479001Y-99851001D01*
X170479001Y-99851001D02*
X170479001Y-98966501D01*
X168443001Y-100617001D02*
X169713001Y-100617001D01*
X166919001Y-102601000D02*
X166919001Y-102141001D01*
X166919001Y-102141001D02*
X168443001Y-100617001D01*
D58*
X174793001Y-85377001D02*
X177016001Y-85377001D01*
X172479001Y-89977001D02*
X173777001Y-88679001D01*
X173777001Y-86393001D02*
X174793001Y-85377001D01*
X173777001Y-88679001D02*
X173777001Y-86393001D01*
X172479001Y-91091501D02*
X172479001Y-89977001D01*
X171979001Y-91091501D02*
X171979001Y-89715001D01*
X173269001Y-88425001D02*
X173269001Y-85377001D01*
X171979001Y-89715001D02*
X173269001Y-88425001D01*
X174793001Y-83853001D02*
X177016001Y-83853001D01*
X173269001Y-85377001D02*
X174793001Y-83853001D01*
D53*
X212369001Y-104443001D02*
X212369001Y-105009001D01*
X158824001Y-118872001D02*
X158524001Y-119172001D01*
D54*
X159700652Y-55731634D02*
X159700652Y-53381634D01*
D53*
X147094001Y-119172001D02*
X147094001Y-120175001D01*
X193114001Y-118872001D02*
X192814001Y-119172001D01*
X214925001Y-104681001D02*
X214417001Y-104173001D01*
X197377601Y-114814301D02*
X197377601Y-113258301D01*
X181130001Y-120175001D02*
X180127001Y-120175001D01*
X214925001Y-105684001D02*
X214925001Y-104681001D01*
X181430001Y-118872001D02*
X181130001Y-119172001D01*
X181130001Y-119172001D02*
X181130001Y-120175001D01*
X169954001Y-120175001D02*
X168951001Y-120175001D01*
X158524001Y-119172001D02*
X158524001Y-120175001D01*
X192814001Y-119172001D02*
X192814001Y-120175001D01*
X209845001Y-107284001D02*
X209845001Y-108237001D01*
X214417001Y-104173001D02*
X212639001Y-104173001D01*
X147394001Y-118872001D02*
X147094001Y-119172001D01*
X170254001Y-118872001D02*
X169954001Y-119172001D01*
X215928001Y-105684001D02*
X215415801Y-105684001D01*
X158524001Y-120175001D02*
X157521001Y-120175001D01*
D54*
X159430652Y-56001634D02*
X159700652Y-55731634D01*
D53*
X208321001Y-105634001D02*
X208321001Y-104681001D01*
X147094001Y-120175001D02*
X146091001Y-120175001D01*
X169954001Y-119172001D02*
X169954001Y-120175001D01*
X215941001Y-105697001D02*
X215928001Y-105684001D01*
X192814001Y-120175001D02*
X191811001Y-120175001D01*
X212639001Y-104173001D02*
X212369001Y-104443001D01*
D57*
X177841001Y-100871001D02*
X187752301Y-100871001D01*
X187752301Y-100871001D02*
X194859001Y-107977701D01*
X175249001Y-98279001D02*
X177841001Y-100871001D01*
X194859001Y-114587001D02*
X199431001Y-119159001D01*
X200447001Y-122207001D02*
X201857351Y-122207001D01*
X200016351Y-121776351D02*
X200447001Y-122207001D01*
X199431001Y-119159001D02*
X201463001Y-119159001D01*
X201463001Y-119159001D02*
X202003001Y-119699001D01*
X174666501Y-98279001D02*
X175249001Y-98279001D01*
X202003001Y-119699001D02*
X202003001Y-122352651D01*
X198701001Y-121776351D02*
X200016351Y-121776351D01*
X194859001Y-107977701D02*
X194859001Y-114587001D01*
X203527001Y-125395351D02*
X203003001Y-124871351D01*
X208353001Y-121776351D02*
X207654001Y-121776351D01*
X195621001Y-107469701D02*
X195621001Y-114333001D01*
X177955963Y-100363001D02*
X188514301Y-100363001D01*
X188514301Y-100363001D02*
X195621001Y-107469701D01*
X199685001Y-118397001D02*
X201717001Y-118397001D01*
X175371963Y-97779001D02*
X177955963Y-100363001D01*
X201717001Y-118397001D02*
X203003001Y-119683001D01*
X206829001Y-123363351D02*
X204797001Y-125395351D01*
X203003001Y-124871351D02*
X203003001Y-122352651D01*
X203003001Y-119683001D02*
X203003001Y-122352651D01*
X195621001Y-114333001D02*
X199685001Y-118397001D01*
X206829001Y-122601351D02*
X206829001Y-123363351D01*
X204797001Y-125395351D02*
X203527001Y-125395351D01*
X174666501Y-97779001D02*
X175371963Y-97779001D01*
X207654001Y-121776351D02*
X206829001Y-122601351D01*
X166470021Y-89111128D02*
X166470021Y-82134021D01*
X165141001Y-78011001D02*
X165776001Y-77376001D01*
X166470021Y-82134021D02*
X165141001Y-80805001D01*
X165141001Y-80805001D02*
X165141001Y-78011001D01*
X165776001Y-77376001D02*
X167129001Y-77376001D01*
X167979001Y-91091501D02*
X167979001Y-90620108D01*
X167979001Y-90620108D02*
X166470021Y-89111128D01*
X161251001Y-83599001D02*
X161164001Y-83512001D01*
X162387401Y-85671401D02*
X161164001Y-84448001D01*
X164088601Y-85671401D02*
X162387401Y-85671401D01*
X161164001Y-83512001D02*
X161164001Y-79288001D01*
X161164001Y-79288001D02*
X161164001Y-75022001D01*
X162601001Y-83599001D02*
X161251001Y-83599001D01*
X161164001Y-84448001D02*
X161164001Y-83512001D01*
X194605001Y-66659501D02*
X192939501Y-66659501D01*
X192939501Y-66659501D02*
X192827001Y-66772001D01*
D53*
X197377601Y-111258301D02*
X199404301Y-111258301D01*
X198701001Y-124633351D02*
X198701001Y-123426351D01*
X199404301Y-111258301D02*
X204003001Y-115857001D01*
X204003001Y-115857001D02*
X204003001Y-122352651D01*
X204003001Y-124601351D02*
X204035001Y-124633351D01*
X204003001Y-122352651D02*
X204003001Y-124601351D01*
X208353001Y-123426351D02*
X208353001Y-124633351D01*
D57*
X181651001Y-64803001D02*
X181651001Y-65565001D01*
X176063001Y-102141001D02*
X177079001Y-102141001D01*
X174031001Y-100109001D02*
X176063001Y-102141001D01*
X181397001Y-64549001D02*
X181651001Y-64803001D01*
X180889001Y-64549001D02*
X181397001Y-64549001D01*
X180701001Y-64361001D02*
X180889001Y-64549001D01*
X180701001Y-63411501D02*
X180701001Y-64361001D01*
X173979001Y-100057001D02*
X174031001Y-100109001D01*
X173979001Y-98966501D02*
X173979001Y-100057001D01*
X175809001Y-64549001D02*
X175997001Y-64361001D01*
X174285001Y-64549001D02*
X175809001Y-64549001D01*
D56*
X175997001Y-63411501D02*
X175997001Y-61676001D01*
X175997001Y-61676001D02*
X175822001Y-61501001D01*
D57*
X174097001Y-64361001D02*
X174285001Y-64549001D01*
X175997001Y-64361001D02*
X175997001Y-63411501D01*
X174097001Y-63411501D02*
X174097001Y-64361001D01*
D60*
X175822001Y-61501001D02*
X175822001Y-59736001D01*
D57*
X172520001Y-65311001D02*
X174031001Y-65311001D01*
X179124001Y-65311001D02*
X180635001Y-65311001D01*
D56*
X182601001Y-61676001D02*
X182426001Y-61501001D01*
X182601001Y-63411501D02*
X182601001Y-61676001D01*
D60*
X182426001Y-61501001D02*
X182426001Y-59736001D01*
D57*
X186731001Y-44361501D02*
X186731001Y-43721001D01*
X187506001Y-40723001D02*
X187556001Y-40673001D01*
X187506001Y-42946001D02*
X187506001Y-42451001D01*
X187506001Y-42451001D02*
X187506001Y-40723001D01*
X186731001Y-43721001D02*
X187506001Y-42946001D01*
X174285001Y-101887001D02*
X178857001Y-106459001D01*
X178857001Y-106459001D02*
X178857001Y-110269001D01*
X172479001Y-101097001D02*
X173269001Y-101887001D01*
X172479001Y-98966501D02*
X172479001Y-101097001D01*
X173269001Y-101887001D02*
X174285001Y-101887001D01*
X173015001Y-102395001D02*
X174031001Y-102395001D01*
X171979001Y-101359001D02*
X173015001Y-102395001D01*
X174031001Y-102395001D02*
X176317001Y-104681001D01*
X176317001Y-104681001D02*
X176317001Y-110269001D01*
X171979001Y-98966501D02*
X171979001Y-101359001D01*
X194351001Y-79535001D02*
X196129001Y-79535001D01*
X174666501Y-93279001D02*
X180607001Y-93279001D01*
X180607001Y-93279001D02*
X194351001Y-79535001D01*
X180869001Y-93779001D02*
X192573001Y-82075001D01*
X174666501Y-93779001D02*
X180869001Y-93779001D01*
X192573001Y-82075001D02*
X195875001Y-82075001D01*
X174666501Y-94279001D02*
X181131001Y-94279001D01*
X181131001Y-94279001D02*
X190795001Y-84615001D01*
X190795001Y-84615001D02*
X195875001Y-84615001D01*
X181393001Y-94779001D02*
X189017001Y-87155001D01*
X174666501Y-94779001D02*
X181393001Y-94779001D01*
X189017001Y-87155001D02*
X195875001Y-87155001D01*
X174666501Y-95279001D02*
X181655001Y-95279001D01*
X187239001Y-89695001D02*
X195875001Y-89695001D01*
X181655001Y-95279001D02*
X187239001Y-89695001D01*
X174666501Y-95779001D02*
X181777963Y-95779001D01*
X181777963Y-95779001D02*
X185321963Y-92235001D01*
X185321963Y-92235001D02*
X195875001Y-92235001D01*
X188821001Y-68422001D02*
X192827001Y-68422001D01*
X187239001Y-66840001D02*
X188821001Y-68422001D01*
D55*
X188382001Y-40292001D02*
X187874001Y-39784001D01*
X187874001Y-39784001D02*
X186096001Y-39784001D01*
X186096001Y-39784001D02*
X185906001Y-39974001D01*
X185906001Y-39974001D02*
X185906001Y-40673001D01*
X188763001Y-41562001D02*
X188382001Y-41181001D01*
X191478501Y-41562001D02*
X188763001Y-41562001D01*
X188382001Y-41181001D02*
X188382001Y-40292001D01*
D57*
X190033001Y-45499001D02*
X191478501Y-45499001D01*
X181983501Y-45499001D02*
X183429001Y-45499001D01*
X183858501Y-46449001D02*
X185593501Y-46449001D01*
X185593501Y-46449001D02*
X185781001Y-46636501D01*
X172979001Y-98966501D02*
X172979001Y-100835001D01*
X185016001Y-101887001D02*
X185715001Y-101887001D01*
X172979001Y-100835001D02*
X173523001Y-101379001D01*
X182058001Y-103564001D02*
X182058001Y-103070001D01*
X176230001Y-103070001D02*
X180214001Y-103070001D01*
X180127001Y-103157001D02*
X180214001Y-103070001D01*
X180214001Y-103070001D02*
X182058001Y-103070001D01*
X182413001Y-103919001D02*
X182058001Y-103564001D01*
X186324001Y-103564001D02*
X185969001Y-103919001D01*
X180127001Y-104173001D02*
X180127001Y-103157001D01*
X174539001Y-101379001D02*
X176230001Y-103070001D01*
X186324001Y-103070001D02*
X186324001Y-103564001D01*
X185969001Y-103919001D02*
X182413001Y-103919001D01*
X186324001Y-102496001D02*
X186324001Y-103070001D01*
X173523001Y-101379001D02*
X174539001Y-101379001D01*
X185715001Y-101887001D02*
X186324001Y-102496001D01*
X186731001Y-46636501D02*
X186731001Y-47722001D01*
X186731001Y-47722001D02*
X185906001Y-48547001D01*
X185781001Y-42626001D02*
X185956001Y-42451001D01*
D55*
X181462501Y-88105501D02*
X201971001Y-67597001D01*
X180337001Y-92279001D02*
X181462501Y-91153501D01*
X174666501Y-92279001D02*
X180337001Y-92279001D01*
X181462501Y-91153501D02*
X181462501Y-88105501D01*
X201971001Y-67597001D02*
X213025001Y-67597001D01*
X213025001Y-67597001D02*
X214549001Y-69121001D01*
D57*
X212449001Y-71471001D02*
X212004001Y-71026001D01*
X181905001Y-88298001D02*
X201082001Y-69121001D01*
X212449001Y-72296001D02*
X212449001Y-71471001D01*
X212004001Y-71026001D02*
X212009001Y-71021001D01*
X212009001Y-71021001D02*
X212009001Y-69121001D01*
X174666501Y-92779001D02*
X180484039Y-92779001D01*
X181905001Y-91358039D02*
X181905001Y-88298001D01*
X201082001Y-69121001D02*
X212009001Y-69121001D01*
X180484039Y-92779001D02*
X181905001Y-91358039D01*
X188296501Y-45203501D02*
X188296501Y-44991001D01*
X187681001Y-46636501D02*
X187681001Y-45819001D01*
X188738501Y-44549001D02*
X189603501Y-44549001D01*
X187681001Y-45819001D02*
X188296501Y-45203501D01*
X188296501Y-44991001D02*
X188738501Y-44549001D01*
%TA.AperFunction,Conductor*%
G36*
X176960189Y-54705579D02*
G01*
X177099904Y-54723973D01*
X177131677Y-54732486D01*
X177254176Y-54783227D01*
X177282660Y-54799673D01*
X177387853Y-54880391D01*
X177411111Y-54903649D01*
X177491829Y-55008842D01*
X177508276Y-55037328D01*
X177559016Y-55159826D01*
X177567529Y-55191598D01*
X177585923Y-55331313D01*
X177587001Y-55347759D01*
X177587001Y-56601243D01*
X177585923Y-56617689D01*
X177567529Y-56757404D01*
X177559016Y-56789176D01*
X177508276Y-56911674D01*
X177491829Y-56940160D01*
X177411111Y-57045353D01*
X177387855Y-57068610D01*
X177371559Y-57081115D01*
X177305340Y-57106717D01*
X177235791Y-57092454D01*
X177212341Y-57076379D01*
X177186136Y-57053672D01*
X177178453Y-57052001D01*
X174444117Y-57052001D01*
X174428879Y-57056475D01*
X174420941Y-57065636D01*
X174361215Y-57104020D01*
X174290219Y-57104020D01*
X174249009Y-57083084D01*
X174230146Y-57068609D01*
X174206891Y-57045353D01*
X174126173Y-56940160D01*
X174109726Y-56911674D01*
X174058986Y-56789176D01*
X174050473Y-56757404D01*
X174032079Y-56617689D01*
X174031001Y-56601243D01*
X174031001Y-56525886D01*
X174426001Y-56525886D01*
X174430476Y-56541125D01*
X174431866Y-56542330D01*
X174439549Y-56544001D01*
X175536886Y-56544001D01*
X175552125Y-56539526D01*
X175553330Y-56538136D01*
X175555001Y-56530453D01*
X175555001Y-56525886D01*
X176063001Y-56525886D01*
X176067476Y-56541125D01*
X176068866Y-56542330D01*
X176076549Y-56544001D01*
X177173885Y-56544001D01*
X177189124Y-56539526D01*
X177190329Y-56538136D01*
X177192000Y-56530453D01*
X177192000Y-56438406D01*
X177191663Y-56431887D01*
X177181744Y-56336295D01*
X177178852Y-56322901D01*
X177127413Y-56168717D01*
X177121240Y-56155539D01*
X177035938Y-56017694D01*
X177026902Y-56006293D01*
X176912172Y-55891762D01*
X176900761Y-55882750D01*
X176762758Y-55797685D01*
X176749577Y-55791538D01*
X176595291Y-55740363D01*
X176581915Y-55737496D01*
X176487563Y-55727829D01*
X176481146Y-55727501D01*
X176081116Y-55727501D01*
X176065877Y-55731976D01*
X176064672Y-55733366D01*
X176063001Y-55741049D01*
X176063001Y-56525886D01*
X175555001Y-56525886D01*
X175555001Y-55745617D01*
X175550526Y-55730378D01*
X175549136Y-55729173D01*
X175541453Y-55727502D01*
X175136906Y-55727502D01*
X175130387Y-55727839D01*
X175034795Y-55737758D01*
X175021401Y-55740650D01*
X174867217Y-55792089D01*
X174854039Y-55798262D01*
X174716194Y-55883564D01*
X174704793Y-55892600D01*
X174590262Y-56007330D01*
X174581250Y-56018741D01*
X174496185Y-56156744D01*
X174490038Y-56169925D01*
X174438863Y-56324211D01*
X174435996Y-56337587D01*
X174426329Y-56431939D01*
X174426001Y-56438356D01*
X174426001Y-56525886D01*
X174031001Y-56525886D01*
X174031001Y-55347759D01*
X174032079Y-55331313D01*
X174050473Y-55191598D01*
X174058986Y-55159826D01*
X174109726Y-55037328D01*
X174126173Y-55008842D01*
X174206891Y-54903649D01*
X174230149Y-54880391D01*
X174335342Y-54799673D01*
X174363826Y-54783227D01*
X174486325Y-54732486D01*
X174518098Y-54723973D01*
X174657813Y-54705579D01*
X174674259Y-54704501D01*
X176943743Y-54704501D01*
X176960189Y-54705579D01*
G37*
%TD.AperFunction*%
%TA.AperFunction,Conductor*%
G36*
X184445001Y-66263886D02*
G01*
X184449476Y-66279125D01*
X184450866Y-66280330D01*
X184458549Y-66282001D01*
X184486439Y-66282001D01*
X184492954Y-66281664D01*
X184585058Y-66272107D01*
X184598457Y-66269213D01*
X184747108Y-66219620D01*
X184760283Y-66213448D01*
X184760700Y-66213190D01*
X184761025Y-66213101D01*
X184766907Y-66210345D01*
X184767379Y-66211352D01*
X184829153Y-66194354D01*
X184896922Y-66215517D01*
X184942492Y-66269959D01*
X184953001Y-66320336D01*
X184953001Y-67725001D01*
X184932999Y-67793122D01*
X184879343Y-67839615D01*
X184827001Y-67851001D01*
X182031001Y-67851001D01*
X181962880Y-67830999D01*
X181916387Y-67777343D01*
X181905001Y-67725001D01*
X181905001Y-66861456D01*
X181925003Y-66793335D01*
X181978659Y-66746842D01*
X182048933Y-66736738D01*
X182095140Y-66753002D01*
X182180780Y-66803649D01*
X182195211Y-66809894D01*
X182329606Y-66848940D01*
X182343707Y-66848900D01*
X182347001Y-66841631D01*
X182347001Y-65956761D01*
X182355213Y-65912018D01*
X182410236Y-65767168D01*
X182412738Y-65760582D01*
X182437139Y-65586960D01*
X182437446Y-65565001D01*
X182437335Y-65564013D01*
X182453831Y-65495639D01*
X182505152Y-65446581D01*
X182563030Y-65432501D01*
X182729001Y-65432501D01*
X182797122Y-65452503D01*
X182843615Y-65506159D01*
X182855001Y-65558501D01*
X182855001Y-66835879D01*
X182858974Y-66849410D01*
X182866872Y-66850545D01*
X183006791Y-66809894D01*
X183021222Y-66803649D01*
X183150679Y-66727090D01*
X183163105Y-66717450D01*
X183269450Y-66611105D01*
X183279090Y-66598679D01*
X183355649Y-66469222D01*
X183361894Y-66454791D01*
X183404270Y-66308936D01*
X183406571Y-66296334D01*
X183406579Y-66296235D01*
X183406599Y-66296183D01*
X183407728Y-66290000D01*
X183408875Y-66290210D01*
X183431863Y-66229893D01*
X183489000Y-66187752D01*
X183559850Y-66183191D01*
X183598307Y-66198858D01*
X183622881Y-66214005D01*
X183636062Y-66220152D01*
X183784815Y-66269492D01*
X183798191Y-66272359D01*
X183889098Y-66281673D01*
X183895514Y-66282001D01*
X183918886Y-66282001D01*
X183934125Y-66277526D01*
X183935330Y-66276136D01*
X183937001Y-66268453D01*
X183937001Y-65311001D01*
X184445001Y-65311001D01*
X184445001Y-66263886D01*
G37*
%TD.AperFunction*%
%TA.AperFunction,Conductor*%
G36*
X183564189Y-54705579D02*
G01*
X183703904Y-54723973D01*
X183735677Y-54732486D01*
X183858176Y-54783227D01*
X183886660Y-54799673D01*
X183991853Y-54880391D01*
X184015111Y-54903649D01*
X184095829Y-55008842D01*
X184112276Y-55037328D01*
X184163016Y-55159826D01*
X184171529Y-55191598D01*
X184189923Y-55331313D01*
X184191001Y-55347759D01*
X184191001Y-56601243D01*
X184189923Y-56617689D01*
X184171529Y-56757404D01*
X184163016Y-56789176D01*
X184112276Y-56911674D01*
X184095829Y-56940160D01*
X184015111Y-57045353D01*
X183991855Y-57068610D01*
X183975559Y-57081115D01*
X183909340Y-57106717D01*
X183839791Y-57092454D01*
X183816341Y-57076379D01*
X183790136Y-57053672D01*
X183782453Y-57052001D01*
X181048117Y-57052001D01*
X181032879Y-57056475D01*
X181024941Y-57065636D01*
X180965215Y-57104020D01*
X180894219Y-57104020D01*
X180853009Y-57083084D01*
X180834146Y-57068609D01*
X180810891Y-57045353D01*
X180730173Y-56940160D01*
X180713726Y-56911674D01*
X180662986Y-56789176D01*
X180654473Y-56757404D01*
X180636079Y-56617689D01*
X180635001Y-56601243D01*
X180635001Y-56525886D01*
X181030001Y-56525886D01*
X181034476Y-56541125D01*
X181035866Y-56542330D01*
X181043549Y-56544001D01*
X182140886Y-56544001D01*
X182156125Y-56539526D01*
X182157330Y-56538136D01*
X182159001Y-56530453D01*
X182159001Y-56525886D01*
X182667001Y-56525886D01*
X182671476Y-56541125D01*
X182672866Y-56542330D01*
X182680549Y-56544001D01*
X183777885Y-56544001D01*
X183793124Y-56539526D01*
X183794329Y-56538136D01*
X183796000Y-56530453D01*
X183796000Y-56438406D01*
X183795663Y-56431887D01*
X183785744Y-56336295D01*
X183782852Y-56322901D01*
X183731413Y-56168717D01*
X183725240Y-56155539D01*
X183639938Y-56017694D01*
X183630902Y-56006293D01*
X183516172Y-55891762D01*
X183504761Y-55882750D01*
X183366758Y-55797685D01*
X183353577Y-55791538D01*
X183199291Y-55740363D01*
X183185915Y-55737496D01*
X183091563Y-55727829D01*
X183085146Y-55727501D01*
X182685116Y-55727501D01*
X182669877Y-55731976D01*
X182668672Y-55733366D01*
X182667001Y-55741049D01*
X182667001Y-56525886D01*
X182159001Y-56525886D01*
X182159001Y-55745617D01*
X182154526Y-55730378D01*
X182153136Y-55729173D01*
X182145453Y-55727502D01*
X181740906Y-55727502D01*
X181734387Y-55727839D01*
X181638795Y-55737758D01*
X181625401Y-55740650D01*
X181471217Y-55792089D01*
X181458039Y-55798262D01*
X181320194Y-55883564D01*
X181308793Y-55892600D01*
X181194262Y-56007330D01*
X181185250Y-56018741D01*
X181100185Y-56156744D01*
X181094038Y-56169925D01*
X181042863Y-56324211D01*
X181039996Y-56337587D01*
X181030329Y-56431939D01*
X181030001Y-56438356D01*
X181030001Y-56525886D01*
X180635001Y-56525886D01*
X180635001Y-55347759D01*
X180636079Y-55331313D01*
X180654473Y-55191598D01*
X180662986Y-55159826D01*
X180713726Y-55037328D01*
X180730173Y-55008842D01*
X180810891Y-54903649D01*
X180834149Y-54880391D01*
X180939342Y-54799673D01*
X180967826Y-54783227D01*
X181090325Y-54732486D01*
X181122098Y-54723973D01*
X181261813Y-54705579D01*
X181278259Y-54704501D01*
X183547743Y-54704501D01*
X183564189Y-54705579D01*
G37*
%TD.AperFunction*%
%TA.AperFunction,Conductor*%
G36*
X170581195Y-91110307D02*
G01*
X170599501Y-91154501D01*
X170599501Y-91503645D01*
X170605579Y-91549812D01*
X170652824Y-91651130D01*
X170731872Y-91730178D01*
X170833190Y-91777423D01*
X170858634Y-91780773D01*
X170877326Y-91783234D01*
X170877332Y-91783234D01*
X170879357Y-91783501D01*
X171078645Y-91783501D01*
X171080670Y-91783234D01*
X171080676Y-91783234D01*
X171099368Y-91780773D01*
X171124812Y-91777423D01*
X171129147Y-91775402D01*
X171129149Y-91775401D01*
X171202588Y-91741156D01*
X171250378Y-91739069D01*
X171255414Y-91741156D01*
X171328853Y-91775401D01*
X171328855Y-91775402D01*
X171333190Y-91777423D01*
X171358634Y-91780773D01*
X171377326Y-91783234D01*
X171377332Y-91783234D01*
X171379357Y-91783501D01*
X171578645Y-91783501D01*
X171580670Y-91783234D01*
X171580676Y-91783234D01*
X171599368Y-91780773D01*
X171624812Y-91777423D01*
X171629147Y-91775402D01*
X171629149Y-91775401D01*
X171702588Y-91741156D01*
X171750378Y-91739069D01*
X171755414Y-91741156D01*
X171828853Y-91775401D01*
X171828855Y-91775402D01*
X171833190Y-91777423D01*
X171858634Y-91780773D01*
X171877326Y-91783234D01*
X171877332Y-91783234D01*
X171879357Y-91783501D01*
X172078645Y-91783501D01*
X172080670Y-91783234D01*
X172080676Y-91783234D01*
X172099368Y-91780773D01*
X172124812Y-91777423D01*
X172129147Y-91775402D01*
X172129149Y-91775401D01*
X172202588Y-91741156D01*
X172250378Y-91739069D01*
X172255414Y-91741156D01*
X172328853Y-91775401D01*
X172328855Y-91775402D01*
X172333190Y-91777423D01*
X172358634Y-91780773D01*
X172377326Y-91783234D01*
X172377332Y-91783234D01*
X172379357Y-91783501D01*
X172578645Y-91783501D01*
X172580670Y-91783234D01*
X172580676Y-91783234D01*
X172599368Y-91780773D01*
X172624812Y-91777423D01*
X172726130Y-91730178D01*
X172805178Y-91651130D01*
X172852423Y-91549812D01*
X172858501Y-91503645D01*
X172858501Y-91154501D01*
X172876807Y-91110307D01*
X172921001Y-91092001D01*
X173037001Y-91092001D01*
X173081195Y-91110307D01*
X173099501Y-91154501D01*
X173099501Y-91503645D01*
X173105579Y-91549812D01*
X173152824Y-91651130D01*
X173231872Y-91730178D01*
X173333190Y-91777423D01*
X173358634Y-91780773D01*
X173377326Y-91783234D01*
X173377332Y-91783234D01*
X173379357Y-91783501D01*
X173578645Y-91783501D01*
X173580670Y-91783234D01*
X173580676Y-91783234D01*
X173599368Y-91780773D01*
X173624812Y-91777423D01*
X173688088Y-91747917D01*
X173735877Y-91745830D01*
X173771145Y-91778147D01*
X173777001Y-91804561D01*
X173777001Y-98253441D01*
X173758695Y-98297635D01*
X173714501Y-98315941D01*
X173688089Y-98310086D01*
X173624812Y-98280579D01*
X173599368Y-98277229D01*
X173580676Y-98274768D01*
X173580670Y-98274768D01*
X173578645Y-98274501D01*
X173379357Y-98274501D01*
X173377332Y-98274768D01*
X173377326Y-98274768D01*
X173358634Y-98277229D01*
X173333190Y-98280579D01*
X173328855Y-98282600D01*
X173328853Y-98282601D01*
X173255414Y-98316846D01*
X173207624Y-98318933D01*
X173202588Y-98316846D01*
X173129149Y-98282601D01*
X173129147Y-98282600D01*
X173124812Y-98280579D01*
X173099368Y-98277229D01*
X173080676Y-98274768D01*
X173080670Y-98274768D01*
X173078645Y-98274501D01*
X172879357Y-98274501D01*
X172877332Y-98274768D01*
X172877326Y-98274768D01*
X172858634Y-98277229D01*
X172833190Y-98280579D01*
X172828855Y-98282600D01*
X172828853Y-98282601D01*
X172755414Y-98316846D01*
X172707624Y-98318933D01*
X172702588Y-98316846D01*
X172629149Y-98282601D01*
X172629147Y-98282600D01*
X172624812Y-98280579D01*
X172599368Y-98277229D01*
X172580676Y-98274768D01*
X172580670Y-98274768D01*
X172578645Y-98274501D01*
X172379357Y-98274501D01*
X172377332Y-98274768D01*
X172377326Y-98274768D01*
X172358634Y-98277229D01*
X172333190Y-98280579D01*
X172328855Y-98282600D01*
X172328853Y-98282601D01*
X172255414Y-98316846D01*
X172207624Y-98318933D01*
X172202588Y-98316846D01*
X172129149Y-98282601D01*
X172129147Y-98282600D01*
X172124812Y-98280579D01*
X172099368Y-98277229D01*
X172080676Y-98274768D01*
X172080670Y-98274768D01*
X172078645Y-98274501D01*
X171879357Y-98274501D01*
X171877332Y-98274768D01*
X171877326Y-98274768D01*
X171858634Y-98277229D01*
X171833190Y-98280579D01*
X171731872Y-98327824D01*
X171652824Y-98406872D01*
X171605579Y-98508190D01*
X171599501Y-98554357D01*
X171599501Y-98882324D01*
X171581195Y-98926518D01*
X171537001Y-98944824D01*
X171502279Y-98934291D01*
X171448733Y-98898513D01*
X171431489Y-98881269D01*
X171390242Y-98819539D01*
X171380910Y-98797009D01*
X171365202Y-98718039D01*
X171364001Y-98705846D01*
X171364001Y-98083156D01*
X171365202Y-98070963D01*
X171380910Y-97991993D01*
X171390242Y-97969463D01*
X171429121Y-97911277D01*
X171468895Y-97884701D01*
X171481088Y-97883500D01*
X171721518Y-97883500D01*
X171722662Y-97883510D01*
X171791999Y-97884781D01*
X171795414Y-97883850D01*
X171801056Y-97883500D01*
X172721506Y-97883500D01*
X172722650Y-97883510D01*
X172791999Y-97884781D01*
X172795414Y-97883850D01*
X172801059Y-97883500D01*
X173004067Y-97883500D01*
X173007076Y-97882901D01*
X173007081Y-97882901D01*
X173072264Y-97869936D01*
X173078302Y-97868735D01*
X173162485Y-97812485D01*
X173218735Y-97728302D01*
X173233501Y-97654068D01*
X173233501Y-97426609D01*
X173234367Y-97416240D01*
X173238137Y-97393830D01*
X173238537Y-97391454D01*
X173238689Y-97379001D01*
X173234132Y-97347181D01*
X173233501Y-97338321D01*
X173233501Y-96251610D01*
X173234367Y-96241241D01*
X173238137Y-96218830D01*
X173238537Y-96216454D01*
X173238689Y-96204001D01*
X173234132Y-96172179D01*
X173233501Y-96163319D01*
X173233501Y-95076610D01*
X173234367Y-95066242D01*
X173238137Y-95043831D01*
X173238537Y-95041454D01*
X173238689Y-95029001D01*
X173234131Y-94997177D01*
X173233500Y-94988317D01*
X173233500Y-93901614D01*
X173234366Y-93891244D01*
X173238138Y-93868827D01*
X173238138Y-93868824D01*
X173238537Y-93866454D01*
X173238689Y-93854001D01*
X173234131Y-93822176D01*
X173233500Y-93813315D01*
X173233500Y-92726615D01*
X173234366Y-92716246D01*
X173238137Y-92693830D01*
X173238537Y-92691454D01*
X173238689Y-92679001D01*
X173234131Y-92647175D01*
X173233500Y-92638314D01*
X173233500Y-92403935D01*
X173218735Y-92329700D01*
X173162485Y-92245517D01*
X173142453Y-92232132D01*
X173083421Y-92192687D01*
X173083419Y-92192686D01*
X173078302Y-92189267D01*
X173045248Y-92182692D01*
X173007081Y-92175100D01*
X173007078Y-92175100D01*
X173004068Y-92174501D01*
X172737389Y-92174501D01*
X172737008Y-92174500D01*
X172659828Y-92174029D01*
X172658616Y-92174375D01*
X172656770Y-92174501D01*
X171737425Y-92174501D01*
X171737044Y-92174500D01*
X171659828Y-92174029D01*
X171658615Y-92174375D01*
X171656768Y-92174501D01*
X170737461Y-92174501D01*
X170737080Y-92174500D01*
X170737059Y-92174500D01*
X170659828Y-92174029D01*
X170658616Y-92174376D01*
X170656768Y-92174502D01*
X170338088Y-92174502D01*
X170293894Y-92156196D01*
X170286121Y-92146725D01*
X170247242Y-92088539D01*
X170237910Y-92066009D01*
X170222202Y-91987039D01*
X170221001Y-91974846D01*
X170221001Y-91761195D01*
X170239307Y-91717001D01*
X170305178Y-91651130D01*
X170352423Y-91549812D01*
X170358501Y-91503645D01*
X170358501Y-91166467D01*
X170376807Y-91122273D01*
X170408807Y-91105168D01*
X170468965Y-91093202D01*
X170481156Y-91092001D01*
X170537001Y-91092001D01*
X170581195Y-91110307D01*
G37*
%TD.AperFunction*%
%TA.AperFunction,Conductor*%
G36*
X196903172Y-43977422D02*
G01*
X196963623Y-43989447D01*
X197009043Y-44008261D01*
X197049767Y-44035472D01*
X197084530Y-44070235D01*
X197111741Y-44110959D01*
X197130555Y-44156379D01*
X197142580Y-44216830D01*
X197145001Y-44241412D01*
X197145001Y-44640001D01*
X197124999Y-44708122D01*
X197071343Y-44754615D01*
X197019001Y-44766001D01*
X197002116Y-44766001D01*
X196986877Y-44770476D01*
X196985672Y-44771866D01*
X196984001Y-44779549D01*
X196984001Y-46213885D01*
X196988476Y-46229124D01*
X196989866Y-46230329D01*
X196997549Y-46232000D01*
X197019001Y-46232000D01*
X197087122Y-46252002D01*
X197133615Y-46305658D01*
X197145001Y-46358000D01*
X197145001Y-46756590D01*
X197142580Y-46781172D01*
X197130555Y-46841623D01*
X197111741Y-46887043D01*
X197084530Y-46927767D01*
X197049767Y-46962530D01*
X197009043Y-46989741D01*
X196963623Y-47008555D01*
X196903172Y-47020580D01*
X196878590Y-47023001D01*
X195379412Y-47023001D01*
X195354830Y-47020580D01*
X195294379Y-47008555D01*
X195248959Y-46989741D01*
X195208235Y-46962530D01*
X195173472Y-46927767D01*
X195146261Y-46887043D01*
X195127447Y-46841623D01*
X195115422Y-46781172D01*
X195113001Y-46756590D01*
X195113001Y-45768670D01*
X196049002Y-45768670D01*
X196049372Y-45775491D01*
X196054896Y-45826353D01*
X196058522Y-45841605D01*
X196103677Y-45962055D01*
X196112215Y-45977650D01*
X196188716Y-46079725D01*
X196201277Y-46092286D01*
X196303352Y-46168787D01*
X196318947Y-46177325D01*
X196439395Y-46222479D01*
X196454650Y-46226106D01*
X196505515Y-46231632D01*
X196512329Y-46232001D01*
X196711886Y-46232001D01*
X196727125Y-46227526D01*
X196728330Y-46226136D01*
X196730001Y-46218453D01*
X196730001Y-45644116D01*
X196725526Y-45628877D01*
X196724136Y-45627672D01*
X196716453Y-45626001D01*
X196067117Y-45626001D01*
X196051878Y-45630476D01*
X196050673Y-45631866D01*
X196049002Y-45639549D01*
X196049002Y-45768670D01*
X195113001Y-45768670D01*
X195113001Y-45353886D01*
X196049001Y-45353886D01*
X196053476Y-45369125D01*
X196054866Y-45370330D01*
X196062549Y-45372001D01*
X196711886Y-45372001D01*
X196727125Y-45367526D01*
X196728330Y-45366136D01*
X196730001Y-45358453D01*
X196730001Y-44784117D01*
X196725526Y-44768878D01*
X196724136Y-44767673D01*
X196716453Y-44766002D01*
X196512332Y-44766002D01*
X196505511Y-44766372D01*
X196454649Y-44771896D01*
X196439397Y-44775522D01*
X196318947Y-44820677D01*
X196303352Y-44829215D01*
X196201277Y-44905716D01*
X196188716Y-44918277D01*
X196112215Y-45020352D01*
X196103677Y-45035947D01*
X196058523Y-45156395D01*
X196054896Y-45171650D01*
X196049370Y-45222515D01*
X196049001Y-45229329D01*
X196049001Y-45353886D01*
X195113001Y-45353886D01*
X195113001Y-44241412D01*
X195115422Y-44216830D01*
X195127447Y-44156379D01*
X195146261Y-44110959D01*
X195173472Y-44070235D01*
X195208235Y-44035472D01*
X195248959Y-44008261D01*
X195294379Y-43989447D01*
X195354830Y-43977422D01*
X195379412Y-43975001D01*
X196878590Y-43975001D01*
X196903172Y-43977422D01*
G37*
%TD.AperFunction*%
%TA.AperFunction,Conductor*%
G36*
X166306909Y-101145003D02*
G01*
X166353402Y-101198659D01*
X166363506Y-101268933D01*
X166334012Y-101333513D01*
X166327883Y-101340096D01*
X165572741Y-102095238D01*
X165510429Y-102129264D01*
X165439614Y-102124199D01*
X165394551Y-102095238D01*
X165372567Y-102073254D01*
X165255154Y-102013429D01*
X165245365Y-102011879D01*
X165245363Y-102011878D01*
X165216283Y-102007272D01*
X165157738Y-101998000D01*
X164900054Y-101998000D01*
X164642265Y-101998001D01*
X164637372Y-101998776D01*
X164637371Y-101998776D01*
X164554646Y-102011877D01*
X164554644Y-102011878D01*
X164544848Y-102013429D01*
X164427435Y-102073254D01*
X164334255Y-102166434D01*
X164274430Y-102283847D01*
X164259001Y-102381263D01*
X164259002Y-102612952D01*
X164259002Y-102805917D01*
X164239000Y-102874037D01*
X164222097Y-102895012D01*
X163319205Y-103797904D01*
X163311101Y-103805331D01*
X163283196Y-103828746D01*
X163277685Y-103838292D01*
X163264989Y-103860282D01*
X163259083Y-103869551D01*
X163244512Y-103890361D01*
X163244511Y-103890364D01*
X163238189Y-103899392D01*
X163236748Y-103904771D01*
X163192053Y-103955534D01*
X163124774Y-103975000D01*
X162910189Y-103975000D01*
X162904121Y-103976207D01*
X162866646Y-103983661D01*
X162866645Y-103983661D01*
X162854476Y-103986082D01*
X162791298Y-104028297D01*
X162749083Y-104091475D01*
X162738001Y-104147188D01*
X162738001Y-105584812D01*
X162749083Y-105640525D01*
X162791298Y-105703703D01*
X162854476Y-105745918D01*
X162866645Y-105748339D01*
X162866646Y-105748339D01*
X162904079Y-105755785D01*
X162910189Y-105757000D01*
X164147813Y-105757000D01*
X164153923Y-105755785D01*
X164191356Y-105748339D01*
X164191357Y-105748339D01*
X164203526Y-105745918D01*
X164266704Y-105703703D01*
X164308919Y-105640525D01*
X164320001Y-105584812D01*
X164320001Y-104147188D01*
X164308919Y-104091475D01*
X164266704Y-104028297D01*
X164256391Y-104021406D01*
X164256389Y-104021404D01*
X164224050Y-103999796D01*
X164178522Y-103945320D01*
X164169674Y-103874876D01*
X164204957Y-103805936D01*
X164643988Y-103366905D01*
X164706300Y-103332879D01*
X164733083Y-103330000D01*
X165116390Y-103329999D01*
X165157737Y-103329999D01*
X165162631Y-103329224D01*
X165245356Y-103316123D01*
X165245358Y-103316122D01*
X165255154Y-103314571D01*
X165372567Y-103254746D01*
X165465747Y-103161566D01*
X165525572Y-103044153D01*
X165527123Y-103034361D01*
X165530188Y-103024927D01*
X165533565Y-103026024D01*
X165556278Y-102978101D01*
X165586860Y-102955355D01*
X165586480Y-102954812D01*
X165616320Y-102933918D01*
X165625583Y-102928016D01*
X165657125Y-102909805D01*
X165664207Y-102901366D01*
X165664212Y-102901361D01*
X165680541Y-102881900D01*
X165687967Y-102873796D01*
X166037906Y-102523857D01*
X166100218Y-102489831D01*
X166171033Y-102494896D01*
X166227869Y-102537443D01*
X166252680Y-102603963D01*
X166253001Y-102612952D01*
X166253001Y-102831774D01*
X166267502Y-102923332D01*
X166323732Y-103033689D01*
X166411312Y-103121269D01*
X166490399Y-103161566D01*
X166504159Y-103168577D01*
X166521669Y-103177499D01*
X166613227Y-103192000D01*
X167224775Y-103192000D01*
X167316333Y-103177499D01*
X167333844Y-103168577D01*
X167347603Y-103161566D01*
X167426690Y-103121269D01*
X167514270Y-103033689D01*
X167570500Y-102923332D01*
X167585001Y-102831774D01*
X167585001Y-102370226D01*
X167570500Y-102278668D01*
X167514270Y-102168311D01*
X167507259Y-102161300D01*
X167502484Y-102154728D01*
X167478625Y-102087861D01*
X167494704Y-102018709D01*
X167515323Y-101991571D01*
X168208522Y-101298372D01*
X168270834Y-101264347D01*
X168341649Y-101269411D01*
X168397579Y-101310762D01*
X168439842Y-101365840D01*
X168456288Y-101394325D01*
X168494342Y-101486196D01*
X168502855Y-101517967D01*
X168516922Y-101624813D01*
X168518000Y-101641260D01*
X168518000Y-108228742D01*
X168516922Y-108245189D01*
X168502855Y-108352035D01*
X168494342Y-108383806D01*
X168456288Y-108475677D01*
X168439841Y-108504163D01*
X168379308Y-108583051D01*
X168356050Y-108606309D01*
X168277162Y-108666842D01*
X168248676Y-108683289D01*
X168156805Y-108721343D01*
X168125034Y-108729856D01*
X168018188Y-108743923D01*
X168001741Y-108745001D01*
X162430259Y-108745001D01*
X162413812Y-108743923D01*
X162306966Y-108729856D01*
X162275195Y-108721343D01*
X162183324Y-108683289D01*
X162154838Y-108666842D01*
X162075950Y-108606309D01*
X162052692Y-108583051D01*
X161992159Y-108504163D01*
X161975712Y-108475677D01*
X161937658Y-108383806D01*
X161929145Y-108352035D01*
X161915078Y-108245189D01*
X161914000Y-108228742D01*
X161914000Y-107784812D01*
X164438001Y-107784812D01*
X164449083Y-107840525D01*
X164491298Y-107903703D01*
X164554476Y-107945918D01*
X164566645Y-107948339D01*
X164566646Y-107948339D01*
X164604079Y-107955785D01*
X164610189Y-107957000D01*
X165847813Y-107957000D01*
X165853923Y-107955785D01*
X165891356Y-107948339D01*
X165891357Y-107948339D01*
X165903526Y-107945918D01*
X165966704Y-107903703D01*
X166008919Y-107840525D01*
X166020001Y-107784812D01*
X166020001Y-107172734D01*
X166040003Y-107104613D01*
X166093659Y-107058120D01*
X166156984Y-107047214D01*
X166174157Y-107048717D01*
X166174164Y-107048716D01*
X166185144Y-107049677D01*
X166198867Y-107046000D01*
X166220582Y-107040182D01*
X166231311Y-107037804D01*
X166256580Y-107033348D01*
X166256585Y-107033346D01*
X166267441Y-107031432D01*
X166276988Y-107025919D01*
X166279954Y-107024840D01*
X166282815Y-107023506D01*
X166293467Y-107020652D01*
X166323521Y-106999608D01*
X166332791Y-106993703D01*
X166355012Y-106980874D01*
X166355016Y-106980871D01*
X166364561Y-106975360D01*
X166388144Y-106947255D01*
X166395570Y-106939151D01*
X166505816Y-106828905D01*
X166568128Y-106794879D01*
X166594911Y-106792000D01*
X166645609Y-106792000D01*
X166656591Y-106792479D01*
X166693144Y-106795677D01*
X166706867Y-106792000D01*
X166728582Y-106786182D01*
X166739311Y-106783804D01*
X166764580Y-106779348D01*
X166764585Y-106779346D01*
X166775441Y-106777432D01*
X166784988Y-106771919D01*
X166787954Y-106770840D01*
X166790815Y-106769506D01*
X166801467Y-106766652D01*
X166831521Y-106745608D01*
X166840791Y-106739703D01*
X166863012Y-106726874D01*
X166863016Y-106726871D01*
X166872561Y-106721360D01*
X166896144Y-106693255D01*
X166903570Y-106685151D01*
X167130152Y-106458569D01*
X167138256Y-106451143D01*
X167157914Y-106434648D01*
X167166361Y-106427560D01*
X167171872Y-106418015D01*
X167171875Y-106418011D01*
X167184704Y-106395790D01*
X167190605Y-106386526D01*
X167195176Y-106379997D01*
X167250630Y-106335665D01*
X167278687Y-106327812D01*
X167280625Y-106327505D01*
X167289357Y-106326123D01*
X167289360Y-106326122D01*
X167299154Y-106324571D01*
X167416567Y-106264746D01*
X167509747Y-106171566D01*
X167569572Y-106054153D01*
X167585001Y-105956737D01*
X167585000Y-105441264D01*
X167569572Y-105343847D01*
X167509747Y-105226434D01*
X167416567Y-105133254D01*
X167337573Y-105093005D01*
X167305798Y-105076814D01*
X167254183Y-105028065D01*
X167237001Y-104964547D01*
X167237001Y-104943189D01*
X167257003Y-104875068D01*
X167310659Y-104828575D01*
X167311427Y-104828276D01*
X167316333Y-104827499D01*
X167426690Y-104771269D01*
X167514270Y-104683689D01*
X167570500Y-104573332D01*
X167585001Y-104481774D01*
X167585001Y-104020226D01*
X167570500Y-103928668D01*
X167562532Y-103913029D01*
X167555583Y-103899392D01*
X167514270Y-103818311D01*
X167426690Y-103730731D01*
X167316333Y-103674501D01*
X167224775Y-103660000D01*
X166613227Y-103660000D01*
X166521669Y-103674501D01*
X166411312Y-103730731D01*
X166323732Y-103818311D01*
X166282419Y-103899392D01*
X166275471Y-103913029D01*
X166267502Y-103928668D01*
X166253001Y-104020226D01*
X166253001Y-104481774D01*
X166267502Y-104573332D01*
X166323732Y-104683689D01*
X166411312Y-104771269D01*
X166515104Y-104824154D01*
X166521669Y-104827499D01*
X166521237Y-104828347D01*
X166572543Y-104863429D01*
X166600180Y-104928826D01*
X166601001Y-104943189D01*
X166601001Y-104964547D01*
X166580999Y-105032668D01*
X166532204Y-105076814D01*
X166500429Y-105093005D01*
X166421435Y-105133254D01*
X166328255Y-105226434D01*
X166268430Y-105343847D01*
X166253001Y-105441263D01*
X166253002Y-105956736D01*
X166268430Y-106054153D01*
X166272931Y-106062986D01*
X166275200Y-106069968D01*
X166277226Y-106140936D01*
X166240563Y-106201734D01*
X166218369Y-106218020D01*
X166212993Y-106221124D01*
X166212988Y-106221128D01*
X166203441Y-106226640D01*
X166196353Y-106235087D01*
X166179858Y-106254745D01*
X166172432Y-106262849D01*
X166171510Y-106263771D01*
X166109198Y-106297797D01*
X166038383Y-106292732D01*
X165977650Y-106244677D01*
X165973599Y-106238614D01*
X165973595Y-106238610D01*
X165966704Y-106228297D01*
X165903526Y-106186082D01*
X165891357Y-106183661D01*
X165891356Y-106183661D01*
X165853881Y-106176207D01*
X165847813Y-106175000D01*
X164610189Y-106175000D01*
X164604121Y-106176207D01*
X164566646Y-106183661D01*
X164566645Y-106183661D01*
X164554476Y-106186082D01*
X164491298Y-106228297D01*
X164449083Y-106291475D01*
X164438001Y-106347188D01*
X164438001Y-107784812D01*
X161914000Y-107784812D01*
X161914000Y-101641260D01*
X161915078Y-101624813D01*
X161929145Y-101517967D01*
X161937658Y-101486196D01*
X161975712Y-101394325D01*
X161992159Y-101365839D01*
X162052692Y-101286951D01*
X162075950Y-101263693D01*
X162154838Y-101203160D01*
X162183324Y-101186713D01*
X162275195Y-101148659D01*
X162306966Y-101140146D01*
X162413812Y-101126079D01*
X162430259Y-101125001D01*
X166238788Y-101125001D01*
X166306909Y-101145003D01*
G37*
%TD.AperFunction*%
%TA.AperFunction,Conductor*%
G36*
X171905961Y-84744422D02*
G01*
X171933502Y-84749900D01*
X171966411Y-84756446D01*
X172011831Y-84775260D01*
X172063081Y-84809504D01*
X172082174Y-84825174D01*
X172169828Y-84912828D01*
X172185498Y-84931921D01*
X172219742Y-84983171D01*
X172238556Y-85028592D01*
X172250580Y-85089041D01*
X172253001Y-85113622D01*
X172253001Y-86126590D01*
X172250580Y-86151172D01*
X172238555Y-86211623D01*
X172219741Y-86257043D01*
X172192530Y-86297767D01*
X172157767Y-86332530D01*
X172117043Y-86359741D01*
X172071623Y-86378555D01*
X172011172Y-86390580D01*
X171986590Y-86393001D01*
X169217412Y-86393001D01*
X169192830Y-86390580D01*
X169132379Y-86378555D01*
X169086959Y-86359741D01*
X169046235Y-86332530D01*
X169011472Y-86297767D01*
X168984261Y-86257043D01*
X168965447Y-86211623D01*
X168953422Y-86151172D01*
X168951001Y-86126590D01*
X168951001Y-85008412D01*
X168953422Y-84983830D01*
X168965447Y-84923379D01*
X168984261Y-84877959D01*
X169011472Y-84837235D01*
X169046235Y-84802472D01*
X169086959Y-84775261D01*
X169132379Y-84756447D01*
X169192830Y-84744422D01*
X169217412Y-84742001D01*
X171881380Y-84742001D01*
X171905961Y-84744422D01*
G37*
%TD.AperFunction*%
%TA.AperFunction,Conductor*%
G36*
X177841001Y-66263886D02*
G01*
X177845476Y-66279125D01*
X177846866Y-66280330D01*
X177854549Y-66282001D01*
X177882439Y-66282001D01*
X177888954Y-66281664D01*
X177981058Y-66272107D01*
X177994457Y-66269213D01*
X178143108Y-66219620D01*
X178156283Y-66213448D01*
X178156700Y-66213190D01*
X178157025Y-66213101D01*
X178162907Y-66210345D01*
X178163379Y-66211352D01*
X178225153Y-66194354D01*
X178292922Y-66215517D01*
X178338492Y-66269959D01*
X178349001Y-66320336D01*
X178349001Y-67725001D01*
X178328999Y-67793122D01*
X178275343Y-67839615D01*
X178223001Y-67851001D01*
X175427001Y-67851001D01*
X175358880Y-67830999D01*
X175312387Y-67777343D01*
X175301001Y-67725001D01*
X175301001Y-66861456D01*
X175321003Y-66793335D01*
X175374659Y-66746842D01*
X175444933Y-66736738D01*
X175491140Y-66753002D01*
X175576780Y-66803649D01*
X175591211Y-66809894D01*
X175725606Y-66848940D01*
X175739707Y-66848900D01*
X175743001Y-66841631D01*
X175743001Y-65558501D01*
X175763003Y-65490380D01*
X175816659Y-65443887D01*
X175869001Y-65432501D01*
X176125001Y-65432501D01*
X176193122Y-65452503D01*
X176239615Y-65506159D01*
X176251001Y-65558501D01*
X176251001Y-66835879D01*
X176254974Y-66849410D01*
X176262872Y-66850545D01*
X176402791Y-66809894D01*
X176417222Y-66803649D01*
X176546679Y-66727090D01*
X176559105Y-66717450D01*
X176665450Y-66611105D01*
X176675090Y-66598679D01*
X176751649Y-66469222D01*
X176757894Y-66454791D01*
X176800270Y-66308936D01*
X176802571Y-66296334D01*
X176802579Y-66296235D01*
X176802599Y-66296183D01*
X176803728Y-66290000D01*
X176804875Y-66290210D01*
X176827863Y-66229893D01*
X176885000Y-66187752D01*
X176955850Y-66183191D01*
X176994307Y-66198858D01*
X177018881Y-66214005D01*
X177032062Y-66220152D01*
X177180815Y-66269492D01*
X177194191Y-66272359D01*
X177285098Y-66281673D01*
X177291514Y-66282001D01*
X177314886Y-66282001D01*
X177330125Y-66277526D01*
X177331330Y-66276136D01*
X177333001Y-66268453D01*
X177333001Y-65311001D01*
X177841001Y-65311001D01*
X177841001Y-66263886D01*
G37*
%TD.AperFunction*%
%TA.AperFunction,Conductor*%
G36*
X177091172Y-87919422D02*
G01*
X177151623Y-87931447D01*
X177197043Y-87950261D01*
X177237767Y-87977472D01*
X177272530Y-88012235D01*
X177299741Y-88052959D01*
X177318555Y-88098379D01*
X177330580Y-88158830D01*
X177333001Y-88183412D01*
X177333001Y-91771501D01*
X177312999Y-91839622D01*
X177259343Y-91886115D01*
X177207001Y-91897501D01*
X175523691Y-91897501D01*
X175455570Y-91877499D01*
X175434596Y-91860596D01*
X175301001Y-91727001D01*
X174174592Y-91727001D01*
X174141985Y-91722709D01*
X174128111Y-91718992D01*
X174067487Y-91682043D01*
X174039011Y-91629895D01*
X174031001Y-91600001D01*
X174031001Y-91473001D01*
X173535412Y-91473001D01*
X173510830Y-91470580D01*
X173459919Y-91460453D01*
X173397010Y-91427545D01*
X173361878Y-91365850D01*
X173358501Y-91336874D01*
X173358501Y-90593128D01*
X173378503Y-90525007D01*
X173432159Y-90478514D01*
X173459919Y-90469549D01*
X173510830Y-90459422D01*
X173535412Y-90457001D01*
X175301001Y-90457001D01*
X175809001Y-89949001D01*
X175809001Y-88542622D01*
X175811422Y-88518041D01*
X175823446Y-88457592D01*
X175842260Y-88412171D01*
X175876504Y-88360921D01*
X175892174Y-88341828D01*
X176233828Y-88000174D01*
X176252921Y-87984504D01*
X176304171Y-87950260D01*
X176349591Y-87931446D01*
X176382500Y-87924900D01*
X176410041Y-87919422D01*
X176434622Y-87917001D01*
X177066590Y-87917001D01*
X177091172Y-87919422D01*
G37*
%TD.AperFunction*%
%TA.AperFunction,Conductor*%
G36*
X179706172Y-86395422D02*
G01*
X179766623Y-86407447D01*
X179812043Y-86426261D01*
X179852767Y-86453472D01*
X179887530Y-86488235D01*
X179914741Y-86528959D01*
X179933555Y-86574379D01*
X179945580Y-86634830D01*
X179948001Y-86659412D01*
X179948001Y-91771501D01*
X179927999Y-91839622D01*
X179874343Y-91886115D01*
X179822001Y-91897501D01*
X178475001Y-91897501D01*
X178406880Y-91877499D01*
X178360387Y-91823843D01*
X178349001Y-91771501D01*
X178349001Y-86659412D01*
X178351422Y-86634830D01*
X178363447Y-86574379D01*
X178382261Y-86528959D01*
X178409472Y-86488235D01*
X178444235Y-86453472D01*
X178484959Y-86426261D01*
X178530379Y-86407447D01*
X178590830Y-86395422D01*
X178615412Y-86393001D01*
X179681590Y-86393001D01*
X179706172Y-86395422D01*
G37*
%TD.AperFunction*%
%TA.AperFunction,Conductor*%
G36*
X185193623Y-40693003D02*
G01*
X185240116Y-40746659D01*
X185251502Y-40799000D01*
X185251502Y-41002315D01*
X185254508Y-41034128D01*
X185299792Y-41163077D01*
X185380991Y-41273011D01*
X185388562Y-41278603D01*
X185388565Y-41278606D01*
X185441065Y-41317383D01*
X185483976Y-41373944D01*
X185489496Y-41444725D01*
X185455872Y-41507255D01*
X185419656Y-41532835D01*
X185411721Y-41536552D01*
X185278828Y-41618789D01*
X185267427Y-41627825D01*
X185157015Y-41738430D01*
X185148003Y-41749841D01*
X185065997Y-41882881D01*
X185059850Y-41896062D01*
X185010510Y-42044815D01*
X185007643Y-42058191D01*
X184998329Y-42149098D01*
X184998001Y-42155515D01*
X184998001Y-42178886D01*
X185002476Y-42194125D01*
X185003866Y-42195330D01*
X185011549Y-42197001D01*
X185969001Y-42197001D01*
X185969001Y-42705001D01*
X185016116Y-42705001D01*
X185000877Y-42709476D01*
X184999672Y-42710866D01*
X184998001Y-42718549D01*
X184998001Y-42746439D01*
X184998338Y-42752954D01*
X185007895Y-42845058D01*
X185010789Y-42858457D01*
X185060382Y-43007108D01*
X185066556Y-43020287D01*
X185148789Y-43153174D01*
X185157825Y-43164575D01*
X185268430Y-43274987D01*
X185279841Y-43283999D01*
X185412881Y-43366005D01*
X185426062Y-43372152D01*
X185574815Y-43421492D01*
X185588191Y-43424359D01*
X185679098Y-43433673D01*
X185685514Y-43434001D01*
X185843001Y-43434001D01*
X185911122Y-43454003D01*
X185957615Y-43507659D01*
X185969001Y-43560001D01*
X185969001Y-44216590D01*
X185966580Y-44241172D01*
X185954555Y-44301623D01*
X185935741Y-44347043D01*
X185908530Y-44387767D01*
X185873767Y-44422530D01*
X185833043Y-44449741D01*
X185787623Y-44468555D01*
X185727172Y-44480580D01*
X185702590Y-44483001D01*
X185230000Y-44483001D01*
X185161879Y-44462999D01*
X185115386Y-44409343D01*
X185104000Y-44357001D01*
X185104000Y-44335018D01*
X185103806Y-44330081D01*
X185101571Y-44301665D01*
X185099271Y-44289070D01*
X185056894Y-44143211D01*
X185050649Y-44128780D01*
X184974090Y-43999323D01*
X184964450Y-43986897D01*
X184858105Y-43880552D01*
X184845679Y-43870912D01*
X184716222Y-43794353D01*
X184701791Y-43788108D01*
X184555936Y-43745732D01*
X184543334Y-43743431D01*
X184514917Y-43741194D01*
X184509987Y-43741001D01*
X184130616Y-43741001D01*
X184115377Y-43745476D01*
X184114172Y-43746866D01*
X184112501Y-43754549D01*
X184112501Y-44483001D01*
X183604501Y-44483001D01*
X183604501Y-43759117D01*
X183600026Y-43743878D01*
X183598636Y-43742673D01*
X183590953Y-43741002D01*
X183207018Y-43741002D01*
X183202081Y-43741196D01*
X183173665Y-43743431D01*
X183161070Y-43745731D01*
X183082155Y-43768659D01*
X183011159Y-43768457D01*
X182951542Y-43729903D01*
X182922233Y-43665239D01*
X182921001Y-43647662D01*
X182921001Y-40939412D01*
X182923422Y-40914830D01*
X182935447Y-40854379D01*
X182954261Y-40808959D01*
X182981472Y-40768235D01*
X183016235Y-40733472D01*
X183056959Y-40706261D01*
X183102379Y-40687447D01*
X183162830Y-40675422D01*
X183187412Y-40673001D01*
X185125502Y-40673001D01*
X185193623Y-40693003D01*
G37*
%TD.AperFunction*%
%TA.AperFunction,Conductor*%
G36*
X195299938Y-41140503D02*
G01*
X195346431Y-41194159D01*
X195356739Y-41230054D01*
X195365923Y-41299812D01*
X195367001Y-41316259D01*
X195367001Y-41807743D01*
X195365923Y-41824189D01*
X195347529Y-41963904D01*
X195339016Y-41995676D01*
X195288276Y-42118174D01*
X195271829Y-42146660D01*
X195191111Y-42251853D01*
X195167853Y-42275111D01*
X195062660Y-42355829D01*
X195034176Y-42372275D01*
X194951359Y-42406579D01*
X194911676Y-42423016D01*
X194879904Y-42431529D01*
X194740189Y-42449923D01*
X194723743Y-42451001D01*
X194360318Y-42451001D01*
X194292197Y-42430999D01*
X194271223Y-42414096D01*
X194059824Y-42202697D01*
X194052201Y-42193157D01*
X194051833Y-42193471D01*
X194046015Y-42186635D01*
X194041225Y-42179043D01*
X194000876Y-42143408D01*
X193995189Y-42138062D01*
X193983746Y-42126619D01*
X193975371Y-42120342D01*
X193967542Y-42113968D01*
X193932050Y-42082623D01*
X193923927Y-42078809D01*
X193921439Y-42077175D01*
X193906478Y-42068187D01*
X193903893Y-42066772D01*
X193896706Y-42061385D01*
X193852358Y-42044760D01*
X193843041Y-42040833D01*
X193808327Y-42024535D01*
X193800201Y-42020720D01*
X193791332Y-42019339D01*
X193788499Y-42018473D01*
X193771612Y-42014043D01*
X193768727Y-42013409D01*
X193760317Y-42010256D01*
X193731159Y-42008089D01*
X193713095Y-42006747D01*
X193703049Y-42005593D01*
X193694426Y-42004250D01*
X193694423Y-42004250D01*
X193689615Y-42003501D01*
X193674095Y-42003501D01*
X193664758Y-42003155D01*
X193647855Y-42001899D01*
X193615060Y-41999462D01*
X193606281Y-42001336D01*
X193598023Y-42001899D01*
X193582840Y-42003501D01*
X192834337Y-42003501D01*
X192766216Y-41983499D01*
X192719723Y-41929843D01*
X192709619Y-41859569D01*
X192713340Y-41842349D01*
X192715940Y-41833399D01*
X192715900Y-41819295D01*
X192708631Y-41816001D01*
X191811001Y-41816001D01*
X191811001Y-41308001D01*
X192702879Y-41308001D01*
X192716410Y-41304028D01*
X192717545Y-41296129D01*
X192713340Y-41281653D01*
X192713543Y-41210657D01*
X192752098Y-41151041D01*
X192816763Y-41121733D01*
X192834337Y-41120501D01*
X195231817Y-41120501D01*
X195299938Y-41140503D01*
G37*
%TD.AperFunction*%
%TA.AperFunction,Conductor*%
G36*
X170741172Y-105361420D02*
G01*
X170801623Y-105373445D01*
X170847043Y-105392259D01*
X170887767Y-105419470D01*
X170922530Y-105454233D01*
X170949741Y-105494957D01*
X170968555Y-105540377D01*
X170980580Y-105600828D01*
X170983001Y-105625410D01*
X170983001Y-105854588D01*
X170980580Y-105879170D01*
X170968555Y-105939621D01*
X170949741Y-105985041D01*
X170922530Y-106025765D01*
X170887767Y-106060528D01*
X170847043Y-106087739D01*
X170801623Y-106106553D01*
X170741172Y-106118578D01*
X170716590Y-106120999D01*
X169725412Y-106120999D01*
X169700830Y-106118578D01*
X169640379Y-106106553D01*
X169594959Y-106087739D01*
X169554235Y-106060528D01*
X169519472Y-106025765D01*
X169492261Y-105985041D01*
X169473447Y-105939621D01*
X169461422Y-105879170D01*
X169459001Y-105854588D01*
X169459001Y-105625410D01*
X169461422Y-105600828D01*
X169473447Y-105540377D01*
X169492261Y-105494957D01*
X169519472Y-105454233D01*
X169554235Y-105419470D01*
X169594959Y-105392259D01*
X169640379Y-105373445D01*
X169700830Y-105361420D01*
X169725412Y-105358999D01*
X170716590Y-105358999D01*
X170741172Y-105361420D01*
G37*
%TD.AperFunction*%
%TA.AperFunction,Conductor*%
G36*
X205796932Y-36121003D02*
G01*
X205817906Y-36137906D01*
X206834806Y-37154806D01*
X206868832Y-37217118D01*
X206862120Y-37292119D01*
X206848633Y-37324681D01*
X206840314Y-37344765D01*
X206839237Y-37352949D01*
X206839236Y-37352951D01*
X206833632Y-37395520D01*
X206820535Y-37495001D01*
X206840314Y-37645237D01*
X206898303Y-37785234D01*
X206990550Y-37905452D01*
X206997100Y-37910478D01*
X207001708Y-37914014D01*
X207043573Y-37971353D01*
X207051001Y-38013974D01*
X207051001Y-38261001D01*
X207030999Y-38329122D01*
X206977343Y-38375615D01*
X206925001Y-38387001D01*
X206728001Y-38387001D01*
X206659880Y-38366999D01*
X206613387Y-38313343D01*
X206602001Y-38261001D01*
X206602001Y-37976189D01*
X206590919Y-37920476D01*
X206548704Y-37857298D01*
X206485526Y-37815083D01*
X206473357Y-37812662D01*
X206473356Y-37812662D01*
X206435881Y-37805208D01*
X206429813Y-37804001D01*
X206092189Y-37804001D01*
X206036476Y-37815083D01*
X206035629Y-37810822D01*
X205988593Y-37815865D01*
X205985548Y-37814971D01*
X205985526Y-37815083D01*
X205935881Y-37805208D01*
X205929813Y-37804001D01*
X205592189Y-37804001D01*
X205536476Y-37815083D01*
X205535629Y-37810822D01*
X205488593Y-37815865D01*
X205485548Y-37814971D01*
X205485526Y-37815083D01*
X205435881Y-37805208D01*
X205429813Y-37804001D01*
X205092189Y-37804001D01*
X205036476Y-37815083D01*
X205035629Y-37810822D01*
X204988593Y-37815865D01*
X204985548Y-37814971D01*
X204985526Y-37815083D01*
X204929926Y-37804023D01*
X204867018Y-37771117D01*
X204831885Y-37709422D01*
X204835685Y-37638527D01*
X204877803Y-37580483D01*
X204932507Y-37538507D01*
X205027239Y-37415051D01*
X205086789Y-37271283D01*
X205107101Y-37117001D01*
X205086789Y-36962719D01*
X205027239Y-36818951D01*
X204932507Y-36695495D01*
X204809051Y-36600763D01*
X204665283Y-36541213D01*
X204511001Y-36520901D01*
X204356719Y-36541213D01*
X204212951Y-36600763D01*
X204089495Y-36695495D01*
X203994763Y-36818951D01*
X203935213Y-36962719D01*
X203914901Y-37117001D01*
X203935213Y-37271283D01*
X203957334Y-37324687D01*
X203965772Y-37355911D01*
X203968850Y-37378531D01*
X203970001Y-37395520D01*
X203970001Y-37678001D01*
X203949999Y-37746122D01*
X203896343Y-37792615D01*
X203844001Y-37804001D01*
X203592189Y-37804001D01*
X203536476Y-37815083D01*
X203535629Y-37810822D01*
X203488593Y-37815865D01*
X203485548Y-37814971D01*
X203485526Y-37815083D01*
X203435881Y-37805208D01*
X203429813Y-37804001D01*
X203092189Y-37804001D01*
X203036476Y-37815083D01*
X203035629Y-37810822D01*
X202988593Y-37815865D01*
X202985548Y-37814971D01*
X202985526Y-37815083D01*
X202935881Y-37805208D01*
X202929813Y-37804001D01*
X202592189Y-37804001D01*
X202586121Y-37805208D01*
X202548646Y-37812662D01*
X202548645Y-37812662D01*
X202536476Y-37815083D01*
X202473298Y-37857298D01*
X202431083Y-37920476D01*
X202420001Y-37976189D01*
X202420001Y-38261001D01*
X202399999Y-38329122D01*
X202346343Y-38375615D01*
X202294001Y-38387001D01*
X202097001Y-38387001D01*
X202028880Y-38366999D01*
X201982387Y-38313343D01*
X201971001Y-38261001D01*
X201971001Y-38013974D01*
X201991003Y-37945853D01*
X202020294Y-37914014D01*
X202024902Y-37910478D01*
X202031452Y-37905452D01*
X202123699Y-37785234D01*
X202181688Y-37645237D01*
X202201467Y-37495001D01*
X202188370Y-37395520D01*
X202182766Y-37352951D01*
X202182765Y-37352949D01*
X202181688Y-37344765D01*
X202173369Y-37324681D01*
X202159882Y-37292119D01*
X202152293Y-37221529D01*
X202187196Y-37154806D01*
X203204096Y-36137906D01*
X203266408Y-36103880D01*
X203293191Y-36101001D01*
X205728811Y-36101001D01*
X205796932Y-36121003D01*
G37*
%TD.AperFunction*%
%TA.AperFunction,Conductor*%
G36*
X172196027Y-87326606D02*
G01*
X172220178Y-87329530D01*
X172266068Y-87339656D01*
X172279484Y-87342616D01*
X172323882Y-87361942D01*
X172363626Y-87389362D01*
X172397454Y-87424006D01*
X172423916Y-87464384D01*
X172442183Y-87509236D01*
X172448622Y-87542121D01*
X172453853Y-87568835D01*
X172456201Y-87593047D01*
X172456201Y-88078780D01*
X172453780Y-88103361D01*
X172441756Y-88163810D01*
X172422942Y-88209231D01*
X172388698Y-88260481D01*
X172373028Y-88279574D01*
X171643401Y-89009201D01*
X171643401Y-89579192D01*
X171636283Y-89620940D01*
X171624951Y-89653209D01*
X171624501Y-89658405D01*
X171624501Y-89661110D01*
X171624404Y-89663366D01*
X171624261Y-89663842D01*
X171624215Y-89663840D01*
X171624202Y-89664039D01*
X171622433Y-89669956D01*
X171622842Y-89680359D01*
X171624404Y-89720125D01*
X171624501Y-89725071D01*
X171624501Y-90564678D01*
X171612697Y-90617924D01*
X171605579Y-90633190D01*
X171599501Y-90679357D01*
X171599501Y-90929882D01*
X171579499Y-90998003D01*
X171543504Y-91034646D01*
X171507443Y-91058741D01*
X171507442Y-91058742D01*
X171462023Y-91077555D01*
X171401572Y-91089580D01*
X171376990Y-91092001D01*
X171097012Y-91092001D01*
X171072430Y-91089580D01*
X171011979Y-91077555D01*
X170966559Y-91058741D01*
X170925835Y-91031530D01*
X170891073Y-90996768D01*
X170879737Y-90979803D01*
X170858501Y-90909800D01*
X170858501Y-90062618D01*
X170861050Y-90038670D01*
X170861129Y-90037005D01*
X170863321Y-90026822D01*
X170859374Y-89993475D01*
X170859024Y-89987544D01*
X170858929Y-89987552D01*
X170858501Y-89982374D01*
X170858501Y-89977174D01*
X170857647Y-89972042D01*
X170855332Y-89958133D01*
X170854495Y-89952255D01*
X170849695Y-89911697D01*
X170849695Y-89911696D01*
X170848471Y-89901357D01*
X170844508Y-89893105D01*
X170843005Y-89884072D01*
X170830601Y-89861084D01*
X170830601Y-89837001D01*
X170805527Y-89811927D01*
X170797213Y-89794613D01*
X170793781Y-89787466D01*
X170790187Y-89783190D01*
X170788247Y-89781250D01*
X170786494Y-89779339D01*
X170786445Y-89779249D01*
X170786568Y-89779137D01*
X170786096Y-89778602D01*
X170783011Y-89772884D01*
X170743414Y-89736281D01*
X170739849Y-89732852D01*
X170378795Y-89371798D01*
X170363127Y-89352707D01*
X170355858Y-89341829D01*
X170337047Y-89296413D01*
X170325022Y-89235962D01*
X170322601Y-89211380D01*
X170322601Y-87554719D01*
X170325096Y-87529770D01*
X170337478Y-87468474D01*
X170356847Y-87422489D01*
X170384817Y-87381427D01*
X170420515Y-87346568D01*
X170462235Y-87319580D01*
X170508667Y-87301312D01*
X170547199Y-87294479D01*
X170570242Y-87290393D01*
X170595242Y-87288493D01*
X172196027Y-87326606D01*
G37*
%TD.AperFunction*%
M02*
