%TF.GenerationSoftware,KiCad,Pcbnew,(7.0.0-rc2-208-g52b07b8bac)*%
%TF.CreationDate,2023-02-11T15:20:51-08:00*%
%TF.ProjectId,home-automation-sensor-lora,686f6d65-2d61-4757-946f-6d6174696f6e,rev?*%
%TF.SameCoordinates,Original*%
%TF.FileFunction,Soldermask,Top*%
%TF.FilePolarity,Negative*%
%FSLAX46Y46*%
G04 Gerber Fmt 4.6, Leading zero omitted, Abs format (unit mm)*
G04 Created by KiCad (PCBNEW (7.0.0-rc2-208-g52b07b8bac)) date 2023-02-11 15:20:51*
%MOMM*%
%LPD*%
G01*
G04 APERTURE LIST*
G04 Aperture macros list*
%AMRoundRect*
0 Rectangle with rounded corners*
0 $1 Rounding radius*
0 $2 $3 $4 $5 $6 $7 $8 $9 X,Y pos of 4 corners*
0 Add a 4 corners polygon primitive as box body*
4,1,4,$2,$3,$4,$5,$6,$7,$8,$9,$2,$3,0*
0 Add four circle primitives for the rounded corners*
1,1,$1+$1,$2,$3*
1,1,$1+$1,$4,$5*
1,1,$1+$1,$6,$7*
1,1,$1+$1,$8,$9*
0 Add four rect primitives between the rounded corners*
20,1,$1+$1,$2,$3,$4,$5,0*
20,1,$1+$1,$4,$5,$6,$7,0*
20,1,$1+$1,$6,$7,$8,$9,0*
20,1,$1+$1,$8,$9,$2,$3,0*%
%AMFreePoly0*
4,1,6,1.000000,0.000000,0.500000,-0.750000,-0.500000,-0.750000,-0.500000,0.750000,0.500000,0.750000,1.000000,0.000000,1.000000,0.000000,$1*%
G04 Aperture macros list end*
%ADD10C,2.550000*%
%ADD11C,3.500000*%
%ADD12RoundRect,0.200000X0.200000X0.275000X-0.200000X0.275000X-0.200000X-0.275000X0.200000X-0.275000X0*%
%ADD13RoundRect,0.150000X-0.150000X0.512500X-0.150000X-0.512500X0.150000X-0.512500X0.150000X0.512500X0*%
%ADD14R,0.650000X1.050000*%
%ADD15R,1.700000X1.700000*%
%ADD16O,1.700000X1.700000*%
%ADD17RoundRect,0.200000X-0.275000X0.200000X-0.275000X-0.200000X0.275000X-0.200000X0.275000X0.200000X0*%
%ADD18RoundRect,0.200000X-0.200000X-0.275000X0.200000X-0.275000X0.200000X0.275000X-0.200000X0.275000X0*%
%ADD19O,0.875000X0.200000*%
%ADD20O,0.200000X0.875000*%
%ADD21C,0.533333*%
%ADD22R,1.066666X1.073333*%
%ADD23RoundRect,0.225000X-0.225000X-0.250000X0.225000X-0.250000X0.225000X0.250000X-0.225000X0.250000X0*%
%ADD24C,0.650000*%
%ADD25R,0.600000X1.030000*%
%ADD26R,0.300000X1.150000*%
%ADD27O,1.050000X2.100000*%
%ADD28O,1.000000X2.000000*%
%ADD29RoundRect,0.225000X0.250000X-0.225000X0.250000X0.225000X-0.250000X0.225000X-0.250000X-0.225000X0*%
%ADD30R,0.550000X0.550000*%
%ADD31R,1.000000X1.000000*%
%ADD32RoundRect,0.225000X0.225000X0.250000X-0.225000X0.250000X-0.225000X-0.250000X0.225000X-0.250000X0*%
%ADD33R,1.200000X1.400000*%
%ADD34RoundRect,0.250000X-0.625000X0.312500X-0.625000X-0.312500X0.625000X-0.312500X0.625000X0.312500X0*%
%ADD35RoundRect,0.150000X-0.650000X-0.150000X0.650000X-0.150000X0.650000X0.150000X-0.650000X0.150000X0*%
%ADD36RoundRect,0.200000X0.275000X-0.200000X0.275000X0.200000X-0.275000X0.200000X-0.275000X-0.200000X0*%
%ADD37R,0.600000X0.450000*%
%ADD38RoundRect,0.100000X0.100000X-0.300000X0.100000X0.300000X-0.100000X0.300000X-0.100000X-0.300000X0*%
%ADD39R,2.400000X1.500000*%
%ADD40RoundRect,0.150000X-0.150000X-0.625000X0.150000X-0.625000X0.150000X0.625000X-0.150000X0.625000X0*%
%ADD41RoundRect,0.250000X-0.350000X-0.650000X0.350000X-0.650000X0.350000X0.650000X-0.350000X0.650000X0*%
%ADD42RoundRect,0.150000X0.150000X-0.512500X0.150000X0.512500X-0.150000X0.512500X-0.150000X-0.512500X0*%
%ADD43RoundRect,0.150000X-0.587500X-0.150000X0.587500X-0.150000X0.587500X0.150000X-0.587500X0.150000X0*%
%ADD44R,1.400000X3.000000*%
%ADD45RoundRect,0.225000X-0.250000X0.225000X-0.250000X-0.225000X0.250000X-0.225000X0.250000X0.225000X0*%
%ADD46RoundRect,0.243750X0.456250X-0.243750X0.456250X0.243750X-0.456250X0.243750X-0.456250X-0.243750X0*%
%ADD47R,1.050000X0.650000*%
%ADD48R,1.500000X1.500000*%
%ADD49FreePoly0,90.000000*%
%ADD50FreePoly0,270.000000*%
%ADD51RoundRect,0.500000X-0.500000X-0.500000X0.500000X-0.500000X0.500000X0.500000X-0.500000X0.500000X0*%
%ADD52C,1.270000*%
%ADD53C,1.905000*%
%ADD54C,1.778000*%
%ADD55RoundRect,0.150000X0.587500X0.150000X-0.587500X0.150000X-0.587500X-0.150000X0.587500X-0.150000X0*%
G04 APERTURE END LIST*
D10*
X128824001Y-122715002D02*
G75*
G03*
X128824001Y-122715002I-1275000J0D01*
G01*
X215184001Y-122715002D02*
G75*
G03*
X215184001Y-122715002I-1275000J0D01*
G01*
X215184001Y-36355002D02*
G75*
G03*
X215184001Y-36355002I-1275000J0D01*
G01*
X128824001Y-36355002D02*
G75*
G03*
X128824001Y-36355002I-1275000J0D01*
G01*
D11*
X127549001Y-122715002D03*
X213909001Y-122715002D03*
X213909001Y-36355002D03*
X127549001Y-36355002D03*
D12*
X178666001Y-83853001D03*
X177016001Y-83853001D03*
D13*
X182601001Y-63411501D03*
X181651001Y-63411501D03*
X180701001Y-63411501D03*
X180701001Y-65686501D03*
X182601001Y-65686501D03*
D14*
X158958000Y-79288000D03*
X158958000Y-75022000D03*
X161164000Y-79288000D03*
X161164000Y-75022000D03*
D15*
X181397000Y-110269000D03*
D16*
X178857000Y-110269000D03*
X176317000Y-110269000D03*
X173777000Y-110269000D03*
D17*
X208321001Y-105634001D03*
X208321001Y-107284001D03*
D18*
X185906001Y-48547001D03*
X187556001Y-48547001D03*
D19*
X167291500Y-92429000D03*
X167291500Y-92829000D03*
X167291500Y-93229000D03*
X167291500Y-93629000D03*
X167291500Y-94029000D03*
X167291500Y-94429000D03*
X167291500Y-94829000D03*
X167291500Y-95229000D03*
X167291500Y-95629000D03*
X167291500Y-96029000D03*
X167291500Y-96429000D03*
X167291500Y-96829000D03*
X167291500Y-97229000D03*
X167291500Y-97629000D03*
D20*
X168129000Y-98466500D03*
X168529000Y-98466500D03*
X168929000Y-98466500D03*
X169329000Y-98466500D03*
X169729000Y-98466500D03*
X170129000Y-98466500D03*
X170529000Y-98466500D03*
X170929000Y-98466500D03*
X171329000Y-98466500D03*
X171729000Y-98466500D03*
X172129000Y-98466500D03*
X172529000Y-98466500D03*
X172929000Y-98466500D03*
X173329000Y-98466500D03*
D19*
X174166500Y-97629000D03*
X174166500Y-97229000D03*
X174166500Y-96829000D03*
X174166500Y-96429000D03*
X174166500Y-96029000D03*
X174166500Y-95629000D03*
X174166500Y-95229000D03*
X174166500Y-94829000D03*
X174166500Y-94429000D03*
X174166500Y-94029000D03*
X174166500Y-93629000D03*
X174166500Y-93229000D03*
X174166500Y-92829000D03*
X174166500Y-92429000D03*
D20*
X173329000Y-91591500D03*
X172929000Y-91591500D03*
X172529000Y-91591500D03*
X172129000Y-91591500D03*
X171729000Y-91591500D03*
X171329000Y-91591500D03*
X170929000Y-91591500D03*
X170529000Y-91591500D03*
X170129000Y-91591500D03*
X169729000Y-91591500D03*
X169329000Y-91591500D03*
X168929000Y-91591500D03*
X168529000Y-91591500D03*
X168129000Y-91591500D03*
D21*
X169662335Y-93955668D03*
D22*
X169662334Y-93955667D03*
D21*
X169662335Y-95029001D03*
D22*
X169662334Y-95029000D03*
D21*
X169662335Y-96102334D03*
D22*
X169662334Y-96102333D03*
D21*
X170729001Y-93955668D03*
D22*
X170729000Y-93955667D03*
D21*
X170729001Y-95029001D03*
D22*
X170729000Y-95029000D03*
D21*
X170729001Y-96102334D03*
D22*
X170729000Y-96102333D03*
D21*
X171795667Y-93955668D03*
D22*
X171795666Y-93955667D03*
D21*
X171795667Y-95029001D03*
D22*
X171795666Y-95029000D03*
D21*
X171795667Y-96102334D03*
D22*
X171795666Y-96102333D03*
D23*
X177066001Y-89949001D03*
X178616001Y-89949001D03*
D24*
X207401001Y-37495001D03*
X201621001Y-37495001D03*
D25*
X207711000Y-38630000D03*
X206911000Y-38630000D03*
D26*
X205761000Y-38570000D03*
X204761000Y-38570000D03*
X204261000Y-38570000D03*
X203261000Y-38570000D03*
D25*
X201311000Y-38630000D03*
X202111000Y-38630000D03*
D26*
X202761000Y-38570000D03*
X203761000Y-38570000D03*
X205261000Y-38570000D03*
X206261000Y-38570000D03*
D27*
X208831000Y-37995000D03*
D28*
X208830999Y-33815000D03*
D27*
X200191001Y-37994999D03*
D28*
X200191001Y-33815000D03*
D29*
X184191001Y-65324001D03*
X184191001Y-63774001D03*
D30*
X159774000Y-117922000D03*
X158824000Y-117922000D03*
X158824000Y-118872000D03*
X159774000Y-118872000D03*
D31*
X208321000Y-45499000D03*
D32*
X163301002Y-96045001D03*
X161751002Y-96045001D03*
D31*
X206289000Y-45499000D03*
D29*
X172126001Y-87803001D03*
X172126001Y-86253001D03*
D33*
X165229000Y-107065999D03*
X165229000Y-104865999D03*
X163529000Y-104865999D03*
X163529000Y-107065999D03*
D18*
X189716001Y-38895001D03*
X191366001Y-38895001D03*
D29*
X164913601Y-90485000D03*
X164913601Y-88935000D03*
D34*
X182413001Y-56798001D03*
X182413001Y-59723001D03*
D30*
X171204000Y-117922000D03*
X170254000Y-117922000D03*
X170254000Y-118872000D03*
X171204000Y-118872000D03*
D18*
X212449001Y-72296001D03*
X214099001Y-72296001D03*
D29*
X170602001Y-87803001D03*
X170602001Y-86253001D03*
D31*
X182159000Y-69883000D03*
D34*
X175809001Y-56798001D03*
X175809001Y-59723001D03*
D35*
X167129001Y-76106001D03*
X167129001Y-77376001D03*
X167129001Y-78646001D03*
X167129001Y-79916001D03*
X174329001Y-79916001D03*
X174329001Y-78646001D03*
X174329001Y-77376001D03*
X174329001Y-76106001D03*
D16*
X187239000Y-69380000D03*
X187239000Y-66840000D03*
D36*
X198701001Y-123426351D03*
X198701001Y-121776351D03*
D29*
X179111001Y-65324001D03*
X179111001Y-63774001D03*
D23*
X177066001Y-91473001D03*
X178616001Y-91473001D03*
D37*
X196857000Y-45499000D03*
X198957000Y-45499000D03*
D31*
X202733000Y-45499000D03*
D23*
X169954001Y-120175001D03*
X171504001Y-120175001D03*
D29*
X169078001Y-87803001D03*
X169078001Y-86253001D03*
D23*
X177066001Y-86901001D03*
X178616001Y-86901001D03*
D38*
X211385001Y-107909001D03*
X212385001Y-107909001D03*
X213385001Y-107909001D03*
X213385001Y-105009001D03*
X212385001Y-105009001D03*
X211385001Y-105009001D03*
D39*
X212385000Y-106459000D03*
D40*
X202003001Y-122352651D03*
X203003001Y-122352651D03*
X204003001Y-122352651D03*
D41*
X200703002Y-126227651D03*
D40*
X205003001Y-122352651D03*
D41*
X206303000Y-126227651D03*
D42*
X185781001Y-46636501D03*
X186731001Y-46636501D03*
X187681001Y-46636501D03*
X187681001Y-44361501D03*
X186731001Y-44361501D03*
X185781001Y-44361501D03*
D17*
X202733001Y-41880001D03*
X202733001Y-43530001D03*
D23*
X178844001Y-96934001D03*
X180394001Y-96934001D03*
D13*
X175997001Y-63411501D03*
X175047001Y-63411501D03*
X174097001Y-63411501D03*
X174097001Y-65686501D03*
X175997001Y-65686501D03*
D29*
X172507001Y-65324001D03*
X172507001Y-63774001D03*
D31*
X200701000Y-45499000D03*
D23*
X158524001Y-120175001D03*
X160074001Y-120175001D03*
D43*
X189603501Y-40612001D03*
X189603501Y-42512001D03*
X191478501Y-41562001D03*
D30*
X194064000Y-117922000D03*
X193114000Y-117922000D03*
X193114000Y-118872000D03*
X194064000Y-118872000D03*
D44*
X153700651Y-68781633D03*
X155700651Y-68781633D03*
X157700651Y-68781633D03*
X159700651Y-68781633D03*
X161700651Y-68781633D03*
X163700651Y-68781633D03*
X165700651Y-68781633D03*
X167700651Y-68781633D03*
X167700651Y-53381633D03*
X165700651Y-53381633D03*
X163700651Y-53381633D03*
X161700651Y-53381633D03*
X159700651Y-53381633D03*
X157700651Y-53381633D03*
X155700651Y-53381633D03*
X153700651Y-53381633D03*
D31*
X180127000Y-104173000D03*
D45*
X170983001Y-103680000D03*
X170983001Y-105230000D03*
D32*
X182426001Y-61501001D03*
X180876001Y-61501001D03*
D23*
X177066001Y-88425001D03*
X178616001Y-88425001D03*
D15*
X214549000Y-69121000D03*
D16*
X212009000Y-69121000D03*
D17*
X166919001Y-102601000D03*
X166919001Y-104251000D03*
D45*
X166919001Y-105699000D03*
X166919001Y-107249000D03*
D32*
X187506001Y-42451001D03*
X185956001Y-42451001D03*
X175822001Y-61501001D03*
X174272001Y-61501001D03*
D12*
X187556001Y-40673001D03*
X185906001Y-40673001D03*
D46*
X194605001Y-68534501D03*
X194605001Y-66659501D03*
D47*
X186324000Y-105276000D03*
X182058000Y-105276000D03*
X186324000Y-103070000D03*
X182058000Y-103070000D03*
D30*
X182380000Y-117922000D03*
X181430000Y-117922000D03*
X181430000Y-118872000D03*
X182380000Y-118872000D03*
D23*
X147094001Y-120175001D03*
X148644001Y-120175001D03*
D48*
X197377600Y-112458300D03*
X197377600Y-110058300D03*
D49*
X197377601Y-113258301D03*
D50*
X197377601Y-109258301D03*
D51*
X170729001Y-52865001D03*
D31*
X175555000Y-69883000D03*
D36*
X163135601Y-88896201D03*
X163135601Y-87246201D03*
D29*
X177587001Y-65324001D03*
X177587001Y-63774001D03*
D36*
X208353001Y-123426351D03*
X208353001Y-121776351D03*
D17*
X206289001Y-41880001D03*
X206289001Y-43530001D03*
D32*
X164900001Y-102664000D03*
X163350001Y-102664000D03*
D18*
X164088601Y-85671401D03*
X165738601Y-85671401D03*
D15*
X185964000Y-33815000D03*
D16*
X188504000Y-33815000D03*
D18*
X183366001Y-101887001D03*
X185016001Y-101887001D03*
D31*
X162601000Y-83599000D03*
D36*
X192827001Y-68422001D03*
X192827001Y-66772001D03*
X209845001Y-107284001D03*
X209845001Y-105634001D03*
D52*
X143043001Y-107030501D03*
X127295001Y-51785501D03*
X143043001Y-43403501D03*
D53*
X135169001Y-115666501D03*
X135169001Y-43403501D03*
D23*
X181130001Y-120175001D03*
X182680001Y-120175001D03*
D43*
X189603501Y-44549001D03*
X189603501Y-46449001D03*
X191478501Y-45499001D03*
D30*
X148344000Y-117922000D03*
X147394000Y-117922000D03*
X147394000Y-118872000D03*
X148344000Y-118872000D03*
D45*
X214925001Y-105684001D03*
X214925001Y-107234001D03*
D23*
X192814001Y-120175001D03*
X194364001Y-120175001D03*
D12*
X178666001Y-85377001D03*
X177016001Y-85377001D03*
D54*
X198669001Y-76995001D03*
X198669001Y-79535001D03*
X198669001Y-82075001D03*
X198669001Y-84615001D03*
X198669001Y-87155001D03*
X198669001Y-89695001D03*
X198669001Y-92235001D03*
X198669001Y-94775001D03*
X201209001Y-76995001D03*
X201209001Y-79535001D03*
X201209001Y-82075001D03*
X201209001Y-84615001D03*
X201209001Y-87155001D03*
X201209001Y-89695001D03*
X201209001Y-92235001D03*
X201209001Y-94775001D03*
X203749001Y-76995001D03*
X203749001Y-79535001D03*
X203749001Y-82075001D03*
X203749001Y-84615001D03*
X203749001Y-87155001D03*
X203749001Y-89695001D03*
X203749001Y-92235001D03*
X203749001Y-94775001D03*
X206289001Y-76995001D03*
X206289001Y-79535001D03*
X206289001Y-82075001D03*
X206289001Y-84615001D03*
X206289001Y-87155001D03*
X206289001Y-89695001D03*
X206289001Y-92235001D03*
X206289001Y-94775001D03*
X208829001Y-76995001D03*
X208829001Y-79535001D03*
X208829001Y-82075001D03*
X208829001Y-84615001D03*
X208829001Y-87155001D03*
X208829001Y-89695001D03*
X208829001Y-92235001D03*
X208829001Y-94775001D03*
X211369001Y-76995001D03*
X211369001Y-79535001D03*
X211369001Y-82075001D03*
X211369001Y-84615001D03*
X211369001Y-87155001D03*
X211369001Y-89695001D03*
X211369001Y-92235001D03*
X211369001Y-94775001D03*
X213909001Y-76995001D03*
X213909001Y-79535001D03*
X213909001Y-82075001D03*
X213909001Y-84615001D03*
X213909001Y-87155001D03*
X213909001Y-89695001D03*
X213909001Y-92235001D03*
X213909001Y-94775001D03*
X196129001Y-94775001D03*
X196129001Y-92235001D03*
X196129001Y-89695001D03*
X196129001Y-87155001D03*
X196129001Y-84615001D03*
X196129001Y-82075001D03*
X196129001Y-79535001D03*
X196129001Y-76995001D03*
D45*
X169459001Y-103680000D03*
X169459001Y-105230000D03*
D55*
X183858501Y-46449001D03*
X183858501Y-44549001D03*
X181983501Y-45499001D03*
D31*
X173015000Y-103679999D03*
M02*
