%TF.GenerationSoftware,KiCad,Pcbnew,(7.0.0-rc2-208-g52b07b8bac)*%
%TF.CreationDate,2023-02-12T15:55:42-08:00*%
%TF.ProjectId,home-automation-sensor-lora,686f6d65-2d61-4757-946f-6d6174696f6e,rev?*%
%TF.SameCoordinates,Original*%
%TF.FileFunction,Soldermask,Bot*%
%TF.FilePolarity,Negative*%
%FSLAX46Y46*%
G04 Gerber Fmt 4.6, Leading zero omitted, Abs format (unit mm)*
G04 Created by KiCad (PCBNEW (7.0.0-rc2-208-g52b07b8bac)) date 2023-02-12 15:55:42*
%MOMM*%
%LPD*%
G01*
G04 APERTURE LIST*
G04 Aperture macros list*
%AMRoundRect*
0 Rectangle with rounded corners*
0 $1 Rounding radius*
0 $2 $3 $4 $5 $6 $7 $8 $9 X,Y pos of 4 corners*
0 Add a 4 corners polygon primitive as box body*
4,1,4,$2,$3,$4,$5,$6,$7,$8,$9,$2,$3,0*
0 Add four circle primitives for the rounded corners*
1,1,$1+$1,$2,$3*
1,1,$1+$1,$4,$5*
1,1,$1+$1,$6,$7*
1,1,$1+$1,$8,$9*
0 Add four rect primitives between the rounded corners*
20,1,$1+$1,$2,$3,$4,$5,0*
20,1,$1+$1,$4,$5,$6,$7,0*
20,1,$1+$1,$6,$7,$8,$9,0*
20,1,$1+$1,$8,$9,$2,$3,0*%
G04 Aperture macros list end*
%ADD10C,2.550000*%
%ADD11R,1.000000X1.000000*%
%ADD12R,1.700000X1.700000*%
%ADD13O,1.700000X1.700000*%
%ADD14C,0.533333*%
%ADD15C,0.650000*%
%ADD16O,1.050000X2.100000*%
%ADD17O,1.000000X2.000000*%
%ADD18C,3.500000*%
%ADD19RoundRect,0.500000X-0.500000X-0.500000X0.500000X-0.500000X0.500000X0.500000X-0.500000X0.500000X0*%
%ADD20C,1.270000*%
%ADD21C,2.540000*%
%ADD22C,1.778000*%
G04 APERTURE END LIST*
D10*
X128824001Y-122715002D02*
G75*
G03*
X128824001Y-122715002I-1275000J0D01*
G01*
X215184001Y-122715002D02*
G75*
G03*
X215184001Y-122715002I-1275000J0D01*
G01*
X215184001Y-36355002D02*
G75*
G03*
X215184001Y-36355002I-1275000J0D01*
G01*
X128824001Y-36355002D02*
G75*
G03*
X128824001Y-36355002I-1275000J0D01*
G01*
D11*
X191557000Y-48293000D03*
X183937000Y-48293000D03*
D12*
X181397000Y-110269000D03*
D13*
X178857000Y-110269000D03*
X176317000Y-110269000D03*
X173777000Y-110269000D03*
D11*
X189525000Y-49817000D03*
D14*
X169662335Y-93955668D03*
X169662335Y-95029001D03*
X169662335Y-96102334D03*
X170729001Y-93955668D03*
X170729001Y-95029001D03*
X170729001Y-96102334D03*
X171795667Y-93955668D03*
X171795667Y-95029001D03*
X171795667Y-96102334D03*
D15*
X207401001Y-37495001D03*
X201621001Y-37495001D03*
D16*
X208831000Y-37995000D03*
D17*
X208830999Y-33815000D03*
D16*
X200191001Y-37994999D03*
D17*
X200191001Y-33815000D03*
D11*
X208321000Y-45499000D03*
X206289000Y-45499000D03*
D18*
X127549001Y-122715002D03*
X213909001Y-122715002D03*
D11*
X182159000Y-69883000D03*
D13*
X187239000Y-69380000D03*
X187239000Y-66840000D03*
D11*
X185461000Y-53119000D03*
X202733000Y-45499000D03*
D18*
X213909001Y-36355002D03*
D11*
X200701000Y-45499000D03*
X180127000Y-104173000D03*
D12*
X214549000Y-69121000D03*
D13*
X212009000Y-69121000D03*
D11*
X180889000Y-40165000D03*
D19*
X170729001Y-52865001D03*
D11*
X175555000Y-69883000D03*
D12*
X185964000Y-33815000D03*
D13*
X188504000Y-33815000D03*
D11*
X162601000Y-83599000D03*
D18*
X127549001Y-36355002D03*
D20*
X143043001Y-107030501D03*
X127295001Y-51785501D03*
X143043001Y-43403501D03*
D21*
X135169001Y-115666501D03*
X135169001Y-43403501D03*
D22*
X198669001Y-76995001D03*
X198669001Y-79535001D03*
X198669001Y-82075001D03*
X198669001Y-84615001D03*
X198669001Y-87155001D03*
X198669001Y-89695001D03*
X198669001Y-92235001D03*
X198669001Y-94775001D03*
X201209001Y-76995001D03*
X201209001Y-79535001D03*
X201209001Y-82075001D03*
X201209001Y-84615001D03*
X201209001Y-87155001D03*
X201209001Y-89695001D03*
X201209001Y-92235001D03*
X201209001Y-94775001D03*
X203749001Y-76995001D03*
X203749001Y-79535001D03*
X203749001Y-82075001D03*
X203749001Y-84615001D03*
X203749001Y-87155001D03*
X203749001Y-89695001D03*
X203749001Y-92235001D03*
X203749001Y-94775001D03*
X206289001Y-76995001D03*
X206289001Y-79535001D03*
X206289001Y-82075001D03*
X206289001Y-84615001D03*
X206289001Y-87155001D03*
X206289001Y-89695001D03*
X206289001Y-92235001D03*
X206289001Y-94775001D03*
X208829001Y-76995001D03*
X208829001Y-79535001D03*
X208829001Y-82075001D03*
X208829001Y-84615001D03*
X208829001Y-87155001D03*
X208829001Y-89695001D03*
X208829001Y-92235001D03*
X208829001Y-94775001D03*
X211369001Y-76995001D03*
X211369001Y-79535001D03*
X211369001Y-82075001D03*
X211369001Y-84615001D03*
X211369001Y-87155001D03*
X211369001Y-89695001D03*
X211369001Y-92235001D03*
X211369001Y-94775001D03*
X213909001Y-76995001D03*
X213909001Y-79535001D03*
X213909001Y-82075001D03*
X213909001Y-84615001D03*
X213909001Y-87155001D03*
X213909001Y-89695001D03*
X213909001Y-92235001D03*
X213909001Y-94775001D03*
X196129001Y-94775001D03*
X196129001Y-92235001D03*
X196129001Y-89695001D03*
X196129001Y-87155001D03*
X196129001Y-84615001D03*
X196129001Y-82075001D03*
X196129001Y-79535001D03*
X196129001Y-76995001D03*
D11*
X173015000Y-103679999D03*
M02*
