%TF.GenerationSoftware,KiCad,Pcbnew,6.0.2+dfsg-1*%
%TF.CreationDate,2023-01-15T11:35:29-08:00*%
%TF.ProjectId,home-automation-sensor-lora,686f6d65-2d61-4757-946f-6d6174696f6e,rev?*%
%TF.SameCoordinates,Original*%
%TF.FileFunction,Legend,Bot*%
%TF.FilePolarity,Positive*%
%FSLAX46Y46*%
G04 Gerber Fmt 4.6, Leading zero omitted, Abs format (unit mm)*
G04 Created by KiCad (PCBNEW 6.0.2+dfsg-1) date 2023-01-15 11:35:29*
%MOMM*%
%LPD*%
G01*
G04 APERTURE LIST*
G04 Aperture macros list*
%AMRoundRect*
0 Rectangle with rounded corners*
0 $1 Rounding radius*
0 $2 $3 $4 $5 $6 $7 $8 $9 X,Y pos of 4 corners*
0 Add a 4 corners polygon primitive as box body*
4,1,4,$2,$3,$4,$5,$6,$7,$8,$9,$2,$3,0*
0 Add four circle primitives for the rounded corners*
1,1,$1+$1,$2,$3*
1,1,$1+$1,$4,$5*
1,1,$1+$1,$6,$7*
1,1,$1+$1,$8,$9*
0 Add four rect primitives between the rounded corners*
20,1,$1+$1,$2,$3,$4,$5,0*
20,1,$1+$1,$4,$5,$6,$7,0*
20,1,$1+$1,$6,$7,$8,$9,0*
20,1,$1+$1,$8,$9,$2,$3,0*%
G04 Aperture macros list end*
%ADD10C,0.150000*%
%ADD11C,0.120000*%
%ADD12C,2.600000*%
%ADD13R,1.700000X1.700000*%
%ADD14O,1.700000X1.700000*%
%ADD15C,0.650000*%
%ADD16O,1.050000X2.100000*%
%ADD17O,1.000000X2.000000*%
%ADD18R,1.000000X1.000000*%
%ADD19O,2.400000X2.400000*%
%ADD20RoundRect,0.500000X-0.500000X-0.500000X0.500000X-0.500000X0.500000X0.500000X-0.500000X0.500000X0*%
%ADD21C,1.270000*%
%ADD22C,1.905000*%
%ADD23C,1.778000*%
G04 APERTURE END LIST*
D10*
X147408048Y-33267381D02*
X147408048Y-33981667D01*
X147455667Y-34124524D01*
X147550905Y-34219762D01*
X147693762Y-34267381D01*
X147789001Y-34267381D01*
X146455667Y-34267381D02*
X146931858Y-34267381D01*
X146931858Y-33267381D01*
X145550905Y-34172143D02*
X145598524Y-34219762D01*
X145741381Y-34267381D01*
X145836620Y-34267381D01*
X145979477Y-34219762D01*
X146074715Y-34124524D01*
X146122334Y-34029286D01*
X146169953Y-33838810D01*
X146169953Y-33695953D01*
X146122334Y-33505477D01*
X146074715Y-33410239D01*
X145979477Y-33315001D01*
X145836620Y-33267381D01*
X145741381Y-33267381D01*
X145598524Y-33315001D01*
X145550905Y-33362620D01*
X144836620Y-33267381D02*
X144836620Y-33981667D01*
X144884239Y-34124524D01*
X144979477Y-34219762D01*
X145122334Y-34267381D01*
X145217572Y-34267381D01*
X143884239Y-34267381D02*
X144360429Y-34267381D01*
X144360429Y-33267381D01*
X142979477Y-34172143D02*
X143027096Y-34219762D01*
X143169953Y-34267381D01*
X143265191Y-34267381D01*
X143408048Y-34219762D01*
X143503286Y-34124524D01*
X143550905Y-34029286D01*
X143598524Y-33838810D01*
X143598524Y-33695953D01*
X143550905Y-33505477D01*
X143503286Y-33410239D01*
X143408048Y-33315001D01*
X143265191Y-33267381D01*
X143169953Y-33267381D01*
X143027096Y-33315001D01*
X142979477Y-33362620D01*
X142265191Y-33267381D02*
X142265191Y-33981667D01*
X142312810Y-34124524D01*
X142408048Y-34219762D01*
X142550905Y-34267381D01*
X142646143Y-34267381D01*
X141312810Y-34267381D02*
X141789001Y-34267381D01*
X141789001Y-33267381D01*
X140408048Y-34172143D02*
X140455667Y-34219762D01*
X140598524Y-34267381D01*
X140693762Y-34267381D01*
X140836620Y-34219762D01*
X140931858Y-34124524D01*
X140979477Y-34029286D01*
X141027096Y-33838810D01*
X141027096Y-33695953D01*
X140979477Y-33505477D01*
X140931858Y-33410239D01*
X140836620Y-33315001D01*
X140693762Y-33267381D01*
X140598524Y-33267381D01*
X140455667Y-33315001D01*
X140408048Y-33362620D01*
X139693762Y-33267381D02*
X139693762Y-33981667D01*
X139741381Y-34124524D01*
X139836620Y-34219762D01*
X139979477Y-34267381D01*
X140074715Y-34267381D01*
X138741381Y-34267381D02*
X139217572Y-34267381D01*
X139217572Y-33267381D01*
X137836620Y-34172143D02*
X137884239Y-34219762D01*
X138027096Y-34267381D01*
X138122334Y-34267381D01*
X138265191Y-34219762D01*
X138360429Y-34124524D01*
X138408048Y-34029286D01*
X138455667Y-33838810D01*
X138455667Y-33695953D01*
X138408048Y-33505477D01*
X138360429Y-33410239D01*
X138265191Y-33315001D01*
X138122334Y-33267381D01*
X138027096Y-33267381D01*
X137884239Y-33315001D01*
X137836620Y-33362620D01*
X150409001Y-49055001D02*
X150409001Y-99855001D01*
X150409001Y-99855001D02*
X147869001Y-102395001D01*
X147869001Y-102395001D02*
X140249001Y-102395001D01*
X140249001Y-102395001D02*
X137709001Y-99855001D01*
X137709001Y-99855001D02*
X137709001Y-49055001D01*
X137709001Y-49055001D02*
X140249001Y-46515001D01*
X140249001Y-46515001D02*
X147869001Y-46515001D01*
X147869001Y-46515001D02*
X150409001Y-49055001D01*
G36*
X150409001Y-49055001D02*
G01*
X150409001Y-99855001D01*
X147869001Y-102395001D01*
X140249001Y-102395001D01*
X137709001Y-99855001D01*
X137709001Y-49055001D01*
X140249001Y-46515001D01*
X147869001Y-46515001D01*
X150409001Y-49055001D01*
G37*
X150409001Y-49055001D02*
X150409001Y-99855001D01*
X147869001Y-102395001D01*
X140249001Y-102395001D01*
X137709001Y-99855001D01*
X137709001Y-49055001D01*
X140249001Y-46515001D01*
X147869001Y-46515001D01*
X150409001Y-49055001D01*
D11*
X173715001Y-104380000D02*
X173715001Y-102980000D01*
X173715001Y-102980000D02*
X172315001Y-102980000D01*
X172315001Y-102980000D02*
X172315001Y-104380000D01*
X172315001Y-104380000D02*
X173715001Y-104380000D01*
%LPC*%
D12*
X128849001Y-122715002D02*
G75*
G03*
X128849001Y-122715002I-1300000J0D01*
G01*
X215209001Y-122715002D02*
G75*
G03*
X215209001Y-122715002I-1300000J0D01*
G01*
X215209001Y-36355002D02*
G75*
G03*
X215209001Y-36355002I-1300000J0D01*
G01*
X128849001Y-36355002D02*
G75*
G03*
X128849001Y-36355002I-1300000J0D01*
G01*
D13*
X181397001Y-110269001D03*
D14*
X178857001Y-110269001D03*
X176317001Y-110269001D03*
X173777001Y-110269001D03*
D15*
X207401001Y-37495001D03*
X201621001Y-37495001D03*
D16*
X200191002Y-37995000D03*
D17*
X208831000Y-33815001D03*
X200191002Y-33815001D03*
D16*
X208831001Y-37995001D03*
D18*
X208321001Y-45499001D03*
X206289001Y-45499001D03*
D19*
X127549001Y-122715002D03*
X213909001Y-122715002D03*
D18*
X182159001Y-69883001D03*
D14*
X187239001Y-69380001D03*
X187239001Y-66840001D03*
D18*
X202733001Y-45499001D03*
D19*
X213909001Y-36355002D03*
D18*
X200701001Y-45499001D03*
X180127001Y-104173001D03*
D13*
X214549001Y-69121001D03*
D14*
X212009001Y-69121001D03*
D20*
X170729001Y-52865001D03*
D18*
X175555001Y-69883001D03*
D13*
X185964001Y-33815001D03*
D14*
X188504001Y-33815001D03*
D18*
X162601001Y-83599001D03*
D19*
X127549001Y-36355002D03*
D21*
X143043001Y-107030501D03*
X127295001Y-51785501D03*
X143043001Y-43403501D03*
D22*
X135169001Y-115666501D03*
X135169001Y-43403501D03*
D23*
X206289001Y-82075001D03*
X208829001Y-94775001D03*
X211369001Y-94775001D03*
X206289001Y-89695001D03*
X206289001Y-84615001D03*
X206289001Y-76995001D03*
X213909001Y-89695001D03*
X208829001Y-89695001D03*
X201209001Y-82075001D03*
X211369001Y-82075001D03*
X211369001Y-87155001D03*
X206289001Y-79535001D03*
X203749001Y-84615001D03*
X203749001Y-89695001D03*
X203749001Y-82075001D03*
X206289001Y-87155001D03*
X208829001Y-87155001D03*
X198669001Y-94775001D03*
X213909001Y-76995001D03*
X198669001Y-76995001D03*
X208829001Y-84615001D03*
X211369001Y-92235001D03*
X201209001Y-76995001D03*
X208829001Y-79535001D03*
X213909001Y-92235001D03*
X201209001Y-79535001D03*
X203749001Y-94775001D03*
X211369001Y-89695001D03*
X211369001Y-79535001D03*
X198669001Y-79535001D03*
X213909001Y-82075001D03*
X213909001Y-87155001D03*
X208829001Y-82075001D03*
X213909001Y-84615001D03*
X206289001Y-92235001D03*
X198669001Y-87155001D03*
X203749001Y-87155001D03*
X208829001Y-76995001D03*
X201209001Y-94775001D03*
X201209001Y-87155001D03*
X213909001Y-79535001D03*
X203749001Y-92235001D03*
X198669001Y-89695001D03*
X198669001Y-82075001D03*
X203749001Y-76995001D03*
X206289001Y-94775001D03*
X201209001Y-84615001D03*
X211369001Y-84615001D03*
X211369001Y-76995001D03*
X198669001Y-92235001D03*
X201209001Y-92235001D03*
X213909001Y-94775001D03*
X201209001Y-89695001D03*
X198669001Y-84615001D03*
X208829001Y-92235001D03*
X203749001Y-79535001D03*
X196129001Y-94775001D03*
X196129001Y-92235001D03*
X196129001Y-89695001D03*
X196129001Y-87155001D03*
X196129001Y-84615001D03*
X196129001Y-82075001D03*
X196129001Y-79535001D03*
X196129001Y-76995001D03*
D18*
X173015001Y-103680000D03*
M02*
