%TF.GenerationSoftware,KiCad,Pcbnew,6.0.2+dfsg-1*%
%TF.CreationDate,2023-01-15T11:35:29-08:00*%
%TF.ProjectId,home-automation-sensor-lora,686f6d65-2d61-4757-946f-6d6174696f6e,rev?*%
%TF.SameCoordinates,Original*%
%TF.FileFunction,Paste,Top*%
%TF.FilePolarity,Positive*%
%FSLAX46Y46*%
G04 Gerber Fmt 4.6, Leading zero omitted, Abs format (unit mm)*
G04 Created by KiCad (PCBNEW 6.0.2+dfsg-1) date 2023-01-15 11:35:29*
%MOMM*%
%LPD*%
G01*
G04 APERTURE LIST*
G04 Aperture macros list*
%AMRoundRect*
0 Rectangle with rounded corners*
0 $1 Rounding radius*
0 $2 $3 $4 $5 $6 $7 $8 $9 X,Y pos of 4 corners*
0 Add a 4 corners polygon primitive as box body*
4,1,4,$2,$3,$4,$5,$6,$7,$8,$9,$2,$3,0*
0 Add four circle primitives for the rounded corners*
1,1,$1+$1,$2,$3*
1,1,$1+$1,$4,$5*
1,1,$1+$1,$6,$7*
1,1,$1+$1,$8,$9*
0 Add four rect primitives between the rounded corners*
20,1,$1+$1,$2,$3,$4,$5,0*
20,1,$1+$1,$4,$5,$6,$7,0*
20,1,$1+$1,$6,$7,$8,$9,0*
20,1,$1+$1,$8,$9,$2,$3,0*%
%AMFreePoly0*
4,1,57,0.269063,0.501116,0.276645,0.502317,0.296496,0.492203,0.317682,0.485319,0.322194,0.479109,0.329034,0.475624,0.407846,0.396811,0.411331,0.389972,0.417542,0.385459,0.424426,0.364272,0.434540,0.344423,0.433339,0.336840,0.435711,0.329540,0.435711,-0.329540,0.433339,-0.336840,0.434540,-0.344423,0.424426,-0.364272,0.417542,-0.385459,0.411331,-0.389972,0.407846,-0.396811,
0.329034,-0.475624,0.322194,-0.479109,0.317682,-0.485319,0.296496,-0.492203,0.276645,-0.502317,0.269063,-0.501116,0.261763,-0.503488,-0.261763,-0.503488,-0.269063,-0.501116,-0.276646,-0.502317,-0.296495,-0.492203,-0.317682,-0.485319,-0.322195,-0.479108,-0.329034,-0.475623,-0.407847,-0.396811,-0.411332,-0.389971,-0.417542,-0.385459,-0.424426,-0.364273,-0.434540,-0.344422,-0.433339,-0.336840,
-0.435711,-0.329540,-0.435711,0.329540,-0.433339,0.336840,-0.434540,0.344422,-0.424426,0.364273,-0.417542,0.385459,-0.411332,0.389971,-0.407847,0.396811,-0.329034,0.475623,-0.322195,0.479108,-0.317682,0.485319,-0.296495,0.492203,-0.276646,0.502317,-0.269063,0.501116,-0.261763,0.503488,0.261763,0.503488,0.269063,0.501116,0.269063,0.501116,$1*%
G04 Aperture macros list end*
%ADD10RoundRect,0.200000X0.200000X0.275000X-0.200000X0.275000X-0.200000X-0.275000X0.200000X-0.275000X0*%
%ADD11RoundRect,0.150000X-0.150000X0.512500X-0.150000X-0.512500X0.150000X-0.512500X0.150000X0.512500X0*%
%ADD12R,0.650000X1.050000*%
%ADD13RoundRect,0.200000X-0.275000X0.200000X-0.275000X-0.200000X0.275000X-0.200000X0.275000X0.200000X0*%
%ADD14RoundRect,0.200000X-0.200000X-0.275000X0.200000X-0.275000X0.200000X0.275000X-0.200000X0.275000X0*%
%ADD15FreePoly0,0.000000*%
%ADD16RoundRect,0.062500X-0.375000X-0.062500X0.375000X-0.062500X0.375000X0.062500X-0.375000X0.062500X0*%
%ADD17RoundRect,0.062500X-0.062500X-0.375000X0.062500X-0.375000X0.062500X0.375000X-0.062500X0.375000X0*%
%ADD18RoundRect,0.225000X-0.225000X-0.250000X0.225000X-0.250000X0.225000X0.250000X-0.225000X0.250000X0*%
%ADD19R,0.600000X1.150000*%
%ADD20R,0.300000X1.150000*%
%ADD21RoundRect,0.225000X0.250000X-0.225000X0.250000X0.225000X-0.250000X0.225000X-0.250000X-0.225000X0*%
%ADD22R,0.550000X0.550000*%
%ADD23RoundRect,0.225000X0.225000X0.250000X-0.225000X0.250000X-0.225000X-0.250000X0.225000X-0.250000X0*%
%ADD24R,1.200000X1.400000*%
%ADD25RoundRect,0.250000X-0.625000X0.312500X-0.625000X-0.312500X0.625000X-0.312500X0.625000X0.312500X0*%
%ADD26RoundRect,0.150000X-0.650000X-0.150000X0.650000X-0.150000X0.650000X0.150000X-0.650000X0.150000X0*%
%ADD27RoundRect,0.200000X0.275000X-0.200000X0.275000X0.200000X-0.275000X0.200000X-0.275000X-0.200000X0*%
%ADD28R,0.600000X0.450000*%
%ADD29RoundRect,0.150000X0.335000X-0.150000X0.335000X0.150000X-0.335000X0.150000X-0.335000X-0.150000X0*%
%ADD30RoundRect,0.100000X0.100000X-0.300000X0.100000X0.300000X-0.100000X0.300000X-0.100000X-0.300000X0*%
%ADD31RoundRect,0.150000X-0.150000X-0.625000X0.150000X-0.625000X0.150000X0.625000X-0.150000X0.625000X0*%
%ADD32RoundRect,0.250000X-0.350000X-0.650000X0.350000X-0.650000X0.350000X0.650000X-0.350000X0.650000X0*%
%ADD33RoundRect,0.150000X0.150000X-0.512500X0.150000X0.512500X-0.150000X0.512500X-0.150000X-0.512500X0*%
%ADD34RoundRect,0.150000X-0.587500X-0.150000X0.587500X-0.150000X0.587500X0.150000X-0.587500X0.150000X0*%
%ADD35R,1.400000X3.000000*%
%ADD36RoundRect,0.225000X-0.250000X0.225000X-0.250000X-0.225000X0.250000X-0.225000X0.250000X0.225000X0*%
%ADD37RoundRect,0.243750X0.456250X-0.243750X0.456250X0.243750X-0.456250X0.243750X-0.456250X-0.243750X0*%
%ADD38R,1.050000X0.650000*%
%ADD39RoundRect,0.150000X0.587500X0.150000X-0.587500X0.150000X-0.587500X-0.150000X0.587500X-0.150000X0*%
G04 APERTURE END LIST*
D10*
X178666001Y-83853001D03*
X177016001Y-83853001D03*
D11*
X182601001Y-63411501D03*
X181651001Y-63411501D03*
X180701001Y-63411501D03*
X180701001Y-65686501D03*
X182601001Y-65686501D03*
D12*
X158958001Y-79288001D03*
X158958001Y-75022001D03*
X161164001Y-79288001D03*
X161164001Y-75022001D03*
D13*
X208321001Y-105634001D03*
X208321001Y-107284001D03*
D14*
X185906001Y-48547001D03*
X187556001Y-48547001D03*
D15*
X171229001Y-94441501D03*
X169229001Y-93266501D03*
X171229001Y-95616501D03*
X171229001Y-96791501D03*
X169229001Y-95616501D03*
X169229001Y-94441501D03*
X170229001Y-94441501D03*
X169229001Y-96791501D03*
X170229001Y-96791501D03*
X172229001Y-95616501D03*
X172229001Y-96791501D03*
X172229001Y-94441501D03*
X170229001Y-95616501D03*
X172229001Y-93266501D03*
X170229001Y-93266501D03*
X171229001Y-93266501D03*
D16*
X166791501Y-91779001D03*
X166791501Y-92279001D03*
X166791501Y-92779001D03*
X166791501Y-93279001D03*
X166791501Y-93779001D03*
X166791501Y-94279001D03*
X166791501Y-94779001D03*
X166791501Y-95279001D03*
X166791501Y-95779001D03*
X166791501Y-96279001D03*
X166791501Y-96779001D03*
X166791501Y-97279001D03*
X166791501Y-97779001D03*
X166791501Y-98279001D03*
D17*
X167479001Y-98966501D03*
X167979001Y-98966501D03*
X168479001Y-98966501D03*
X168979001Y-98966501D03*
X169479001Y-98966501D03*
X169979001Y-98966501D03*
X170479001Y-98966501D03*
X170979001Y-98966501D03*
X171479001Y-98966501D03*
X171979001Y-98966501D03*
X172479001Y-98966501D03*
X172979001Y-98966501D03*
X173479001Y-98966501D03*
X173979001Y-98966501D03*
D16*
X174666501Y-98279001D03*
X174666501Y-97779001D03*
X174666501Y-97279001D03*
X174666501Y-96779001D03*
X174666501Y-96279001D03*
X174666501Y-95779001D03*
X174666501Y-95279001D03*
X174666501Y-94779001D03*
X174666501Y-94279001D03*
X174666501Y-93779001D03*
X174666501Y-93279001D03*
X174666501Y-92779001D03*
X174666501Y-92279001D03*
X174666501Y-91779001D03*
D17*
X173979001Y-91091501D03*
X173479001Y-91091501D03*
X172979001Y-91091501D03*
X172479001Y-91091501D03*
X171979001Y-91091501D03*
X171479001Y-91091501D03*
X170979001Y-91091501D03*
X170479001Y-91091501D03*
X169979001Y-91091501D03*
X169479001Y-91091501D03*
X168979001Y-91091501D03*
X168479001Y-91091501D03*
X167979001Y-91091501D03*
X167479001Y-91091501D03*
D18*
X177066001Y-89949001D03*
X178616001Y-89949001D03*
D19*
X207711001Y-38570001D03*
X206911001Y-38570001D03*
D20*
X205761001Y-38570001D03*
X204761001Y-38570001D03*
X204261001Y-38570001D03*
X203261001Y-38570001D03*
D19*
X201311001Y-38570001D03*
X202111001Y-38570001D03*
D20*
X202761001Y-38570001D03*
X203761001Y-38570001D03*
X205261001Y-38570001D03*
X206261001Y-38570001D03*
D21*
X184191001Y-65324001D03*
X184191001Y-63774001D03*
D22*
X159774001Y-118872001D03*
X159774001Y-117922001D03*
X158824001Y-117922001D03*
X158824001Y-118872001D03*
D23*
X163301002Y-96288601D03*
X161751002Y-96288601D03*
D21*
X172126001Y-87803001D03*
X172126001Y-86253001D03*
D24*
X165229001Y-107066000D03*
X165229001Y-104866000D03*
X163529001Y-104866000D03*
X163529001Y-107066000D03*
D14*
X189716001Y-38895001D03*
X191366001Y-38895001D03*
D21*
X164913601Y-90485000D03*
X164913601Y-88935000D03*
D25*
X182413001Y-56798001D03*
X182413001Y-59723001D03*
D22*
X171204001Y-118872001D03*
X171204001Y-117922001D03*
X170254001Y-117922001D03*
X170254001Y-118872001D03*
D14*
X212449001Y-72296001D03*
X214099001Y-72296001D03*
D21*
X170602001Y-87803001D03*
X170602001Y-86253001D03*
D25*
X175809001Y-56798001D03*
X175809001Y-59723001D03*
D26*
X167129001Y-76106001D03*
X167129001Y-77376001D03*
X167129001Y-78646001D03*
X167129001Y-79916001D03*
X174329001Y-79916001D03*
X174329001Y-78646001D03*
X174329001Y-77376001D03*
X174329001Y-76106001D03*
D27*
X198701001Y-123426351D03*
X198701001Y-121776351D03*
D21*
X179111001Y-65324001D03*
X179111001Y-63774001D03*
D18*
X177066001Y-91473001D03*
X178616001Y-91473001D03*
D28*
X196857001Y-45499001D03*
X198957001Y-45499001D03*
D18*
X169954001Y-120175001D03*
X171504001Y-120175001D03*
D21*
X169078001Y-87803001D03*
X169078001Y-86253001D03*
D18*
X177066001Y-86901001D03*
X178616001Y-86901001D03*
D29*
X212985001Y-106084001D03*
X212985001Y-106834001D03*
X211785001Y-106834001D03*
X211785001Y-106084001D03*
D30*
X211385001Y-107909001D03*
X212385001Y-107909001D03*
X213385001Y-107909001D03*
X213385001Y-105009001D03*
X212385001Y-105009001D03*
X211385001Y-105009001D03*
D31*
X202003001Y-122352651D03*
X203003001Y-122352651D03*
X204003001Y-122352651D03*
D32*
X200703002Y-126227651D03*
D31*
X205003001Y-122352651D03*
D32*
X206303000Y-126227651D03*
D33*
X185781001Y-46636501D03*
X186731001Y-46636501D03*
X187681001Y-46636501D03*
X187681001Y-44361501D03*
X186731001Y-44361501D03*
X185781001Y-44361501D03*
D13*
X202733001Y-41880001D03*
X202733001Y-43530001D03*
D18*
X178844001Y-96934001D03*
X180394001Y-96934001D03*
D11*
X175997001Y-63411501D03*
X175047001Y-63411501D03*
X174097001Y-63411501D03*
X174097001Y-65686501D03*
X175997001Y-65686501D03*
D21*
X172507001Y-65324001D03*
X172507001Y-63774001D03*
D18*
X158524001Y-120175001D03*
X160074001Y-120175001D03*
D34*
X189603501Y-40612001D03*
X189603501Y-42512001D03*
X191478501Y-41562001D03*
D22*
X194064001Y-118872001D03*
X194064001Y-117922001D03*
X193114001Y-117922001D03*
X193114001Y-118872001D03*
D35*
X153700652Y-68781634D03*
X155700652Y-68781634D03*
X157700652Y-68781634D03*
X159700652Y-68781634D03*
X161700652Y-68781634D03*
X163700652Y-68781634D03*
X165700652Y-68781634D03*
X167700652Y-68781634D03*
X167700652Y-53381634D03*
X165700652Y-53381634D03*
X163700652Y-53381634D03*
X161700652Y-53381634D03*
X159700652Y-53381634D03*
X157700652Y-53381634D03*
X155700652Y-53381634D03*
X153700652Y-53381634D03*
D36*
X170983001Y-103680000D03*
X170983001Y-105230000D03*
D23*
X182426001Y-61501001D03*
X180876001Y-61501001D03*
D18*
X177066001Y-88425001D03*
X178616001Y-88425001D03*
D13*
X166919001Y-102601000D03*
X166919001Y-104251000D03*
D36*
X166919001Y-105699000D03*
X166919001Y-107249000D03*
D23*
X187506001Y-42451001D03*
X185956001Y-42451001D03*
X175822001Y-61501001D03*
X174272001Y-61501001D03*
D10*
X187556001Y-40673001D03*
X185906001Y-40673001D03*
D37*
X194605001Y-68534501D03*
X194605001Y-66659501D03*
D38*
X186324001Y-105276001D03*
X182058001Y-105276001D03*
X186324001Y-103070001D03*
X182058001Y-103070001D03*
D22*
X182380001Y-118872001D03*
X182380001Y-117922001D03*
X181430001Y-117922001D03*
X181430001Y-118872001D03*
D18*
X147094001Y-120175001D03*
X148644001Y-120175001D03*
D27*
X163135601Y-88896201D03*
X163135601Y-87246201D03*
D21*
X177587001Y-65324001D03*
X177587001Y-63774001D03*
D27*
X208353001Y-123426351D03*
X208353001Y-121776351D03*
D13*
X206289001Y-41880001D03*
X206289001Y-43530001D03*
D23*
X164900001Y-102664000D03*
X163350001Y-102664000D03*
D14*
X164088601Y-85671401D03*
X165738601Y-85671401D03*
X183366001Y-101887001D03*
X185016001Y-101887001D03*
D27*
X192827001Y-68422001D03*
X192827001Y-66772001D03*
X209845001Y-107284001D03*
X209845001Y-105634001D03*
D18*
X181130001Y-120175001D03*
X182680001Y-120175001D03*
D34*
X189603501Y-44549001D03*
X189603501Y-46449001D03*
X191478501Y-45499001D03*
D22*
X148344001Y-118872001D03*
X148344001Y-117922001D03*
X147394001Y-117922001D03*
X147394001Y-118872001D03*
D36*
X214925001Y-105684001D03*
X214925001Y-107234001D03*
D18*
X192814001Y-120175001D03*
X194364001Y-120175001D03*
D10*
X178666001Y-85377001D03*
X177016001Y-85377001D03*
D36*
X169459001Y-103680000D03*
X169459001Y-105230000D03*
D39*
X183858501Y-46449001D03*
X183858501Y-44549001D03*
X181983501Y-45499001D03*
M02*
