%TF.GenerationSoftware,KiCad,Pcbnew,(7.0.0-rc2-208-g52b07b8bac)*%
%TF.CreationDate,2023-02-12T15:55:49-08:00*%
%TF.ProjectId,home-automation-sensor-lora,686f6d65-2d61-4757-946f-6d6174696f6e,rev?*%
%TF.SameCoordinates,Original*%
%TF.FileFunction,Drillmap*%
%TF.FilePolarity,Positive*%
%FSLAX45Y45*%
G04 Gerber Fmt 4.5, Leading zero omitted, Abs format (unit mm)*
G04 Created by KiCad (PCBNEW (7.0.0-rc2-208-g52b07b8bac)) date 2023-02-12 15:55:49*
%MOMM*%
%LPD*%
G01*
G04 APERTURE LIST*
%ADD10C,0.100000*%
%ADD11C,0.200000*%
%ADD12C,0.065000*%
%ADD13C,0.238760*%
%ADD14C,0.350000*%
%ADD15C,0.355600*%
G04 APERTURE END LIST*
D10*
X21898900Y-3635500D02*
G75*
G03*
X21390900Y-3127500I-508000J0D01*
G01*
X17707900Y-3127500D02*
G75*
G03*
X17580900Y-3254500I0J-127000D01*
G01*
X17453900Y-5083300D02*
X16691900Y-5083300D01*
X12754900Y-3127500D02*
G75*
G03*
X12246900Y-3635500I0J-508000D01*
G01*
X12754900Y-12779500D02*
X21390900Y-12779500D01*
X17707900Y-3127500D02*
X21390900Y-3127500D01*
X16564900Y-3254500D02*
G75*
G03*
X16437900Y-3127500I-127000J0D01*
G01*
X12246900Y-3635500D02*
X12246900Y-12271500D01*
X17580900Y-3254500D02*
X17580900Y-4956300D01*
X16437900Y-3127500D02*
X12754900Y-3127500D01*
X16564900Y-4956300D02*
G75*
G03*
X16691900Y-5083300I127000J0D01*
G01*
X21390900Y-12779500D02*
G75*
G03*
X21898900Y-12271500I0J508000D01*
G01*
X21898900Y-12271500D02*
X21898900Y-3635500D01*
X17453900Y-5083300D02*
G75*
G03*
X17580900Y-4956300I0J127000D01*
G01*
X16564900Y-4956300D02*
X16564900Y-3254500D01*
X12246900Y-12271500D02*
G75*
G03*
X12754900Y-12779500I508000J0D01*
G01*
D11*
D12*
X20129600Y-3717000D02*
X20194600Y-3782000D01*
X20194600Y-3717000D02*
X20129600Y-3782000D01*
X20707600Y-3717000D02*
X20772600Y-3782000D01*
X20772600Y-3717000D02*
X20707600Y-3782000D01*
D13*
X14423680Y-4340350D02*
G75*
G03*
X14423680Y-4340350I-119380J0D01*
G01*
D14*
X12754900Y-3460500D02*
X12754900Y-3810500D01*
X12579900Y-3635500D02*
X12929900Y-3635500D01*
X12754900Y-12096500D02*
X12754900Y-12446500D01*
X12579900Y-12271500D02*
X12929900Y-12271500D01*
X21390900Y-3460500D02*
X21390900Y-3810500D01*
X21215900Y-3635500D02*
X21565900Y-3635500D01*
X21390900Y-12096500D02*
X21390900Y-12446500D01*
X21215900Y-12271500D02*
X21565900Y-12271500D01*
D15*
X12855225Y-5304275D02*
X12855225Y-5052825D01*
X12603775Y-5052825D01*
X12603775Y-5304275D01*
X12855225Y-5304275D01*
X14430025Y-10828775D02*
X14430025Y-10577325D01*
X14178575Y-10577325D01*
X14178575Y-10828775D01*
X14430025Y-10828775D01*
D11*
X12489519Y-13077976D02*
X12489519Y-12877976D01*
X12489519Y-12877976D02*
X12537138Y-12877976D01*
X12537138Y-12877976D02*
X12565710Y-12887500D01*
X12565710Y-12887500D02*
X12584757Y-12906548D01*
X12584757Y-12906548D02*
X12594281Y-12925595D01*
X12594281Y-12925595D02*
X12603805Y-12963691D01*
X12603805Y-12963691D02*
X12603805Y-12992262D01*
X12603805Y-12992262D02*
X12594281Y-13030357D01*
X12594281Y-13030357D02*
X12584757Y-13049405D01*
X12584757Y-13049405D02*
X12565710Y-13068452D01*
X12565710Y-13068452D02*
X12537138Y-13077976D01*
X12537138Y-13077976D02*
X12489519Y-13077976D01*
X12689519Y-13077976D02*
X12689519Y-12944643D01*
X12689519Y-12982738D02*
X12699043Y-12963691D01*
X12699043Y-12963691D02*
X12708567Y-12954167D01*
X12708567Y-12954167D02*
X12727614Y-12944643D01*
X12727614Y-12944643D02*
X12746662Y-12944643D01*
X12813329Y-13077976D02*
X12813329Y-12944643D01*
X12813329Y-12877976D02*
X12803805Y-12887500D01*
X12803805Y-12887500D02*
X12813329Y-12897024D01*
X12813329Y-12897024D02*
X12822852Y-12887500D01*
X12822852Y-12887500D02*
X12813329Y-12877976D01*
X12813329Y-12877976D02*
X12813329Y-12897024D01*
X12937138Y-13077976D02*
X12918090Y-13068452D01*
X12918090Y-13068452D02*
X12908567Y-13049405D01*
X12908567Y-13049405D02*
X12908567Y-12877976D01*
X13041900Y-13077976D02*
X13022852Y-13068452D01*
X13022852Y-13068452D02*
X13013329Y-13049405D01*
X13013329Y-13049405D02*
X13013329Y-12877976D01*
X13238090Y-13077976D02*
X13238090Y-12877976D01*
X13238090Y-12877976D02*
X13304757Y-13020833D01*
X13304757Y-13020833D02*
X13371424Y-12877976D01*
X13371424Y-12877976D02*
X13371424Y-13077976D01*
X13552376Y-13077976D02*
X13552376Y-12973214D01*
X13552376Y-12973214D02*
X13542852Y-12954167D01*
X13542852Y-12954167D02*
X13523805Y-12944643D01*
X13523805Y-12944643D02*
X13485709Y-12944643D01*
X13485709Y-12944643D02*
X13466662Y-12954167D01*
X13552376Y-13068452D02*
X13533329Y-13077976D01*
X13533329Y-13077976D02*
X13485709Y-13077976D01*
X13485709Y-13077976D02*
X13466662Y-13068452D01*
X13466662Y-13068452D02*
X13457138Y-13049405D01*
X13457138Y-13049405D02*
X13457138Y-13030357D01*
X13457138Y-13030357D02*
X13466662Y-13011310D01*
X13466662Y-13011310D02*
X13485709Y-13001786D01*
X13485709Y-13001786D02*
X13533329Y-13001786D01*
X13533329Y-13001786D02*
X13552376Y-12992262D01*
X13647614Y-12944643D02*
X13647614Y-13144643D01*
X13647614Y-12954167D02*
X13666662Y-12944643D01*
X13666662Y-12944643D02*
X13704757Y-12944643D01*
X13704757Y-12944643D02*
X13723805Y-12954167D01*
X13723805Y-12954167D02*
X13733329Y-12963691D01*
X13733329Y-12963691D02*
X13742852Y-12982738D01*
X13742852Y-12982738D02*
X13742852Y-13039881D01*
X13742852Y-13039881D02*
X13733329Y-13058929D01*
X13733329Y-13058929D02*
X13723805Y-13068452D01*
X13723805Y-13068452D02*
X13704757Y-13077976D01*
X13704757Y-13077976D02*
X13666662Y-13077976D01*
X13666662Y-13077976D02*
X13647614Y-13068452D01*
X13828567Y-13058929D02*
X13838090Y-13068452D01*
X13838090Y-13068452D02*
X13828567Y-13077976D01*
X13828567Y-13077976D02*
X13819043Y-13068452D01*
X13819043Y-13068452D02*
X13828567Y-13058929D01*
X13828567Y-13058929D02*
X13828567Y-13077976D01*
X13828567Y-12954167D02*
X13838090Y-12963691D01*
X13838090Y-12963691D02*
X13828567Y-12973214D01*
X13828567Y-12973214D02*
X13819043Y-12963691D01*
X13819043Y-12963691D02*
X13828567Y-12954167D01*
X13828567Y-12954167D02*
X13828567Y-12973214D01*
D12*
X12176900Y-13392000D02*
X12241900Y-13457000D01*
X12241900Y-13392000D02*
X12176900Y-13457000D01*
D11*
X12527614Y-13297976D02*
X12546662Y-13297976D01*
X12546662Y-13297976D02*
X12565710Y-13307500D01*
X12565710Y-13307500D02*
X12575233Y-13317024D01*
X12575233Y-13317024D02*
X12584757Y-13336072D01*
X12584757Y-13336072D02*
X12594281Y-13374167D01*
X12594281Y-13374167D02*
X12594281Y-13421786D01*
X12594281Y-13421786D02*
X12584757Y-13459881D01*
X12584757Y-13459881D02*
X12575233Y-13478929D01*
X12575233Y-13478929D02*
X12565710Y-13488452D01*
X12565710Y-13488452D02*
X12546662Y-13497976D01*
X12546662Y-13497976D02*
X12527614Y-13497976D01*
X12527614Y-13497976D02*
X12508567Y-13488452D01*
X12508567Y-13488452D02*
X12499043Y-13478929D01*
X12499043Y-13478929D02*
X12489519Y-13459881D01*
X12489519Y-13459881D02*
X12479995Y-13421786D01*
X12479995Y-13421786D02*
X12479995Y-13374167D01*
X12479995Y-13374167D02*
X12489519Y-13336072D01*
X12489519Y-13336072D02*
X12499043Y-13317024D01*
X12499043Y-13317024D02*
X12508567Y-13307500D01*
X12508567Y-13307500D02*
X12527614Y-13297976D01*
X12679995Y-13478929D02*
X12689519Y-13488452D01*
X12689519Y-13488452D02*
X12679995Y-13497976D01*
X12679995Y-13497976D02*
X12670471Y-13488452D01*
X12670471Y-13488452D02*
X12679995Y-13478929D01*
X12679995Y-13478929D02*
X12679995Y-13497976D01*
X12860948Y-13297976D02*
X12822852Y-13297976D01*
X12822852Y-13297976D02*
X12803805Y-13307500D01*
X12803805Y-13307500D02*
X12794281Y-13317024D01*
X12794281Y-13317024D02*
X12775233Y-13345595D01*
X12775233Y-13345595D02*
X12765710Y-13383691D01*
X12765710Y-13383691D02*
X12765710Y-13459881D01*
X12765710Y-13459881D02*
X12775233Y-13478929D01*
X12775233Y-13478929D02*
X12784757Y-13488452D01*
X12784757Y-13488452D02*
X12803805Y-13497976D01*
X12803805Y-13497976D02*
X12841900Y-13497976D01*
X12841900Y-13497976D02*
X12860948Y-13488452D01*
X12860948Y-13488452D02*
X12870471Y-13478929D01*
X12870471Y-13478929D02*
X12879995Y-13459881D01*
X12879995Y-13459881D02*
X12879995Y-13412262D01*
X12879995Y-13412262D02*
X12870471Y-13393214D01*
X12870471Y-13393214D02*
X12860948Y-13383691D01*
X12860948Y-13383691D02*
X12841900Y-13374167D01*
X12841900Y-13374167D02*
X12803805Y-13374167D01*
X12803805Y-13374167D02*
X12784757Y-13383691D01*
X12784757Y-13383691D02*
X12775233Y-13393214D01*
X12775233Y-13393214D02*
X12765710Y-13412262D01*
X13060948Y-13297976D02*
X12965710Y-13297976D01*
X12965710Y-13297976D02*
X12956186Y-13393214D01*
X12956186Y-13393214D02*
X12965710Y-13383691D01*
X12965710Y-13383691D02*
X12984757Y-13374167D01*
X12984757Y-13374167D02*
X13032376Y-13374167D01*
X13032376Y-13374167D02*
X13051424Y-13383691D01*
X13051424Y-13383691D02*
X13060948Y-13393214D01*
X13060948Y-13393214D02*
X13070471Y-13412262D01*
X13070471Y-13412262D02*
X13070471Y-13459881D01*
X13070471Y-13459881D02*
X13060948Y-13478929D01*
X13060948Y-13478929D02*
X13051424Y-13488452D01*
X13051424Y-13488452D02*
X13032376Y-13497976D01*
X13032376Y-13497976D02*
X12984757Y-13497976D01*
X12984757Y-13497976D02*
X12965710Y-13488452D01*
X12965710Y-13488452D02*
X12956186Y-13478929D01*
X13194281Y-13297976D02*
X13213329Y-13297976D01*
X13213329Y-13297976D02*
X13232376Y-13307500D01*
X13232376Y-13307500D02*
X13241900Y-13317024D01*
X13241900Y-13317024D02*
X13251424Y-13336072D01*
X13251424Y-13336072D02*
X13260948Y-13374167D01*
X13260948Y-13374167D02*
X13260948Y-13421786D01*
X13260948Y-13421786D02*
X13251424Y-13459881D01*
X13251424Y-13459881D02*
X13241900Y-13478929D01*
X13241900Y-13478929D02*
X13232376Y-13488452D01*
X13232376Y-13488452D02*
X13213329Y-13497976D01*
X13213329Y-13497976D02*
X13194281Y-13497976D01*
X13194281Y-13497976D02*
X13175233Y-13488452D01*
X13175233Y-13488452D02*
X13165710Y-13478929D01*
X13165710Y-13478929D02*
X13156186Y-13459881D01*
X13156186Y-13459881D02*
X13146662Y-13421786D01*
X13146662Y-13421786D02*
X13146662Y-13374167D01*
X13146662Y-13374167D02*
X13156186Y-13336072D01*
X13156186Y-13336072D02*
X13165710Y-13317024D01*
X13165710Y-13317024D02*
X13175233Y-13307500D01*
X13175233Y-13307500D02*
X13194281Y-13297976D01*
X13346662Y-13497976D02*
X13346662Y-13364643D01*
X13346662Y-13383691D02*
X13356186Y-13374167D01*
X13356186Y-13374167D02*
X13375233Y-13364643D01*
X13375233Y-13364643D02*
X13403805Y-13364643D01*
X13403805Y-13364643D02*
X13422852Y-13374167D01*
X13422852Y-13374167D02*
X13432376Y-13393214D01*
X13432376Y-13393214D02*
X13432376Y-13497976D01*
X13432376Y-13393214D02*
X13441900Y-13374167D01*
X13441900Y-13374167D02*
X13460948Y-13364643D01*
X13460948Y-13364643D02*
X13489519Y-13364643D01*
X13489519Y-13364643D02*
X13508567Y-13374167D01*
X13508567Y-13374167D02*
X13518091Y-13393214D01*
X13518091Y-13393214D02*
X13518091Y-13497976D01*
X13613329Y-13497976D02*
X13613329Y-13364643D01*
X13613329Y-13383691D02*
X13622852Y-13374167D01*
X13622852Y-13374167D02*
X13641900Y-13364643D01*
X13641900Y-13364643D02*
X13670472Y-13364643D01*
X13670472Y-13364643D02*
X13689519Y-13374167D01*
X13689519Y-13374167D02*
X13699043Y-13393214D01*
X13699043Y-13393214D02*
X13699043Y-13497976D01*
X13699043Y-13393214D02*
X13708567Y-13374167D01*
X13708567Y-13374167D02*
X13727614Y-13364643D01*
X13727614Y-13364643D02*
X13756186Y-13364643D01*
X13756186Y-13364643D02*
X13775233Y-13374167D01*
X13775233Y-13374167D02*
X13784757Y-13393214D01*
X13784757Y-13393214D02*
X13784757Y-13497976D01*
X14142852Y-13288452D02*
X13971424Y-13545595D01*
X14367614Y-13297976D02*
X14386662Y-13297976D01*
X14386662Y-13297976D02*
X14405710Y-13307500D01*
X14405710Y-13307500D02*
X14415233Y-13317024D01*
X14415233Y-13317024D02*
X14424757Y-13336072D01*
X14424757Y-13336072D02*
X14434281Y-13374167D01*
X14434281Y-13374167D02*
X14434281Y-13421786D01*
X14434281Y-13421786D02*
X14424757Y-13459881D01*
X14424757Y-13459881D02*
X14415233Y-13478929D01*
X14415233Y-13478929D02*
X14405710Y-13488452D01*
X14405710Y-13488452D02*
X14386662Y-13497976D01*
X14386662Y-13497976D02*
X14367614Y-13497976D01*
X14367614Y-13497976D02*
X14348567Y-13488452D01*
X14348567Y-13488452D02*
X14339043Y-13478929D01*
X14339043Y-13478929D02*
X14329519Y-13459881D01*
X14329519Y-13459881D02*
X14319995Y-13421786D01*
X14319995Y-13421786D02*
X14319995Y-13374167D01*
X14319995Y-13374167D02*
X14329519Y-13336072D01*
X14329519Y-13336072D02*
X14339043Y-13317024D01*
X14339043Y-13317024D02*
X14348567Y-13307500D01*
X14348567Y-13307500D02*
X14367614Y-13297976D01*
X14519995Y-13478929D02*
X14529519Y-13488452D01*
X14529519Y-13488452D02*
X14519995Y-13497976D01*
X14519995Y-13497976D02*
X14510472Y-13488452D01*
X14510472Y-13488452D02*
X14519995Y-13478929D01*
X14519995Y-13478929D02*
X14519995Y-13497976D01*
X14653329Y-13297976D02*
X14672376Y-13297976D01*
X14672376Y-13297976D02*
X14691424Y-13307500D01*
X14691424Y-13307500D02*
X14700948Y-13317024D01*
X14700948Y-13317024D02*
X14710472Y-13336072D01*
X14710472Y-13336072D02*
X14719995Y-13374167D01*
X14719995Y-13374167D02*
X14719995Y-13421786D01*
X14719995Y-13421786D02*
X14710472Y-13459881D01*
X14710472Y-13459881D02*
X14700948Y-13478929D01*
X14700948Y-13478929D02*
X14691424Y-13488452D01*
X14691424Y-13488452D02*
X14672376Y-13497976D01*
X14672376Y-13497976D02*
X14653329Y-13497976D01*
X14653329Y-13497976D02*
X14634281Y-13488452D01*
X14634281Y-13488452D02*
X14624757Y-13478929D01*
X14624757Y-13478929D02*
X14615233Y-13459881D01*
X14615233Y-13459881D02*
X14605710Y-13421786D01*
X14605710Y-13421786D02*
X14605710Y-13374167D01*
X14605710Y-13374167D02*
X14615233Y-13336072D01*
X14615233Y-13336072D02*
X14624757Y-13317024D01*
X14624757Y-13317024D02*
X14634281Y-13307500D01*
X14634281Y-13307500D02*
X14653329Y-13297976D01*
X14796186Y-13317024D02*
X14805710Y-13307500D01*
X14805710Y-13307500D02*
X14824757Y-13297976D01*
X14824757Y-13297976D02*
X14872376Y-13297976D01*
X14872376Y-13297976D02*
X14891424Y-13307500D01*
X14891424Y-13307500D02*
X14900948Y-13317024D01*
X14900948Y-13317024D02*
X14910472Y-13336072D01*
X14910472Y-13336072D02*
X14910472Y-13355119D01*
X14910472Y-13355119D02*
X14900948Y-13383691D01*
X14900948Y-13383691D02*
X14786662Y-13497976D01*
X14786662Y-13497976D02*
X14910472Y-13497976D01*
X15091424Y-13297976D02*
X14996186Y-13297976D01*
X14996186Y-13297976D02*
X14986662Y-13393214D01*
X14986662Y-13393214D02*
X14996186Y-13383691D01*
X14996186Y-13383691D02*
X15015233Y-13374167D01*
X15015233Y-13374167D02*
X15062853Y-13374167D01*
X15062853Y-13374167D02*
X15081900Y-13383691D01*
X15081900Y-13383691D02*
X15091424Y-13393214D01*
X15091424Y-13393214D02*
X15100948Y-13412262D01*
X15100948Y-13412262D02*
X15100948Y-13459881D01*
X15100948Y-13459881D02*
X15091424Y-13478929D01*
X15091424Y-13478929D02*
X15081900Y-13488452D01*
X15081900Y-13488452D02*
X15062853Y-13497976D01*
X15062853Y-13497976D02*
X15015233Y-13497976D01*
X15015233Y-13497976D02*
X14996186Y-13488452D01*
X14996186Y-13488452D02*
X14986662Y-13478929D01*
X15272376Y-13297976D02*
X15234281Y-13297976D01*
X15234281Y-13297976D02*
X15215233Y-13307500D01*
X15215233Y-13307500D02*
X15205710Y-13317024D01*
X15205710Y-13317024D02*
X15186662Y-13345595D01*
X15186662Y-13345595D02*
X15177138Y-13383691D01*
X15177138Y-13383691D02*
X15177138Y-13459881D01*
X15177138Y-13459881D02*
X15186662Y-13478929D01*
X15186662Y-13478929D02*
X15196186Y-13488452D01*
X15196186Y-13488452D02*
X15215233Y-13497976D01*
X15215233Y-13497976D02*
X15253329Y-13497976D01*
X15253329Y-13497976D02*
X15272376Y-13488452D01*
X15272376Y-13488452D02*
X15281900Y-13478929D01*
X15281900Y-13478929D02*
X15291424Y-13459881D01*
X15291424Y-13459881D02*
X15291424Y-13412262D01*
X15291424Y-13412262D02*
X15281900Y-13393214D01*
X15281900Y-13393214D02*
X15272376Y-13383691D01*
X15272376Y-13383691D02*
X15253329Y-13374167D01*
X15253329Y-13374167D02*
X15215233Y-13374167D01*
X15215233Y-13374167D02*
X15196186Y-13383691D01*
X15196186Y-13383691D02*
X15186662Y-13393214D01*
X15186662Y-13393214D02*
X15177138Y-13412262D01*
X15367614Y-13297976D02*
X15367614Y-13336072D01*
X15443805Y-13297976D02*
X15443805Y-13336072D01*
X15706662Y-13574167D02*
X15697138Y-13564643D01*
X15697138Y-13564643D02*
X15678091Y-13536072D01*
X15678091Y-13536072D02*
X15668567Y-13517024D01*
X15668567Y-13517024D02*
X15659043Y-13488452D01*
X15659043Y-13488452D02*
X15649519Y-13440833D01*
X15649519Y-13440833D02*
X15649519Y-13402738D01*
X15649519Y-13402738D02*
X15659043Y-13355119D01*
X15659043Y-13355119D02*
X15668567Y-13326548D01*
X15668567Y-13326548D02*
X15678091Y-13307500D01*
X15678091Y-13307500D02*
X15697138Y-13278929D01*
X15697138Y-13278929D02*
X15706662Y-13269405D01*
X15773329Y-13317024D02*
X15782853Y-13307500D01*
X15782853Y-13307500D02*
X15801900Y-13297976D01*
X15801900Y-13297976D02*
X15849519Y-13297976D01*
X15849519Y-13297976D02*
X15868567Y-13307500D01*
X15868567Y-13307500D02*
X15878091Y-13317024D01*
X15878091Y-13317024D02*
X15887614Y-13336072D01*
X15887614Y-13336072D02*
X15887614Y-13355119D01*
X15887614Y-13355119D02*
X15878091Y-13383691D01*
X15878091Y-13383691D02*
X15763805Y-13497976D01*
X15763805Y-13497976D02*
X15887614Y-13497976D01*
X16093329Y-13497976D02*
X16093329Y-13297976D01*
X16179043Y-13497976D02*
X16179043Y-13393214D01*
X16179043Y-13393214D02*
X16169519Y-13374167D01*
X16169519Y-13374167D02*
X16150472Y-13364643D01*
X16150472Y-13364643D02*
X16121900Y-13364643D01*
X16121900Y-13364643D02*
X16102853Y-13374167D01*
X16102853Y-13374167D02*
X16093329Y-13383691D01*
X16302853Y-13497976D02*
X16283805Y-13488452D01*
X16283805Y-13488452D02*
X16274281Y-13478929D01*
X16274281Y-13478929D02*
X16264757Y-13459881D01*
X16264757Y-13459881D02*
X16264757Y-13402738D01*
X16264757Y-13402738D02*
X16274281Y-13383691D01*
X16274281Y-13383691D02*
X16283805Y-13374167D01*
X16283805Y-13374167D02*
X16302853Y-13364643D01*
X16302853Y-13364643D02*
X16331424Y-13364643D01*
X16331424Y-13364643D02*
X16350472Y-13374167D01*
X16350472Y-13374167D02*
X16359995Y-13383691D01*
X16359995Y-13383691D02*
X16369519Y-13402738D01*
X16369519Y-13402738D02*
X16369519Y-13459881D01*
X16369519Y-13459881D02*
X16359995Y-13478929D01*
X16359995Y-13478929D02*
X16350472Y-13488452D01*
X16350472Y-13488452D02*
X16331424Y-13497976D01*
X16331424Y-13497976D02*
X16302853Y-13497976D01*
X16483805Y-13497976D02*
X16464757Y-13488452D01*
X16464757Y-13488452D02*
X16455234Y-13469405D01*
X16455234Y-13469405D02*
X16455234Y-13297976D01*
X16636186Y-13488452D02*
X16617138Y-13497976D01*
X16617138Y-13497976D02*
X16579043Y-13497976D01*
X16579043Y-13497976D02*
X16559995Y-13488452D01*
X16559995Y-13488452D02*
X16550472Y-13469405D01*
X16550472Y-13469405D02*
X16550472Y-13393214D01*
X16550472Y-13393214D02*
X16559995Y-13374167D01*
X16559995Y-13374167D02*
X16579043Y-13364643D01*
X16579043Y-13364643D02*
X16617138Y-13364643D01*
X16617138Y-13364643D02*
X16636186Y-13374167D01*
X16636186Y-13374167D02*
X16645710Y-13393214D01*
X16645710Y-13393214D02*
X16645710Y-13412262D01*
X16645710Y-13412262D02*
X16550472Y-13431310D01*
X16721900Y-13488452D02*
X16740948Y-13497976D01*
X16740948Y-13497976D02*
X16779043Y-13497976D01*
X16779043Y-13497976D02*
X16798091Y-13488452D01*
X16798091Y-13488452D02*
X16807615Y-13469405D01*
X16807615Y-13469405D02*
X16807615Y-13459881D01*
X16807615Y-13459881D02*
X16798091Y-13440833D01*
X16798091Y-13440833D02*
X16779043Y-13431310D01*
X16779043Y-13431310D02*
X16750472Y-13431310D01*
X16750472Y-13431310D02*
X16731424Y-13421786D01*
X16731424Y-13421786D02*
X16721900Y-13402738D01*
X16721900Y-13402738D02*
X16721900Y-13393214D01*
X16721900Y-13393214D02*
X16731424Y-13374167D01*
X16731424Y-13374167D02*
X16750472Y-13364643D01*
X16750472Y-13364643D02*
X16779043Y-13364643D01*
X16779043Y-13364643D02*
X16798091Y-13374167D01*
X16874281Y-13574167D02*
X16883805Y-13564643D01*
X16883805Y-13564643D02*
X16902853Y-13536072D01*
X16902853Y-13536072D02*
X16912377Y-13517024D01*
X16912377Y-13517024D02*
X16921900Y-13488452D01*
X16921900Y-13488452D02*
X16931424Y-13440833D01*
X16931424Y-13440833D02*
X16931424Y-13402738D01*
X16931424Y-13402738D02*
X16921900Y-13355119D01*
X16921900Y-13355119D02*
X16912377Y-13326548D01*
X16912377Y-13326548D02*
X16902853Y-13307500D01*
X16902853Y-13307500D02*
X16883805Y-13278929D01*
X16883805Y-13278929D02*
X16874281Y-13269405D01*
X17203805Y-13574167D02*
X17194281Y-13564643D01*
X17194281Y-13564643D02*
X17175234Y-13536072D01*
X17175234Y-13536072D02*
X17165710Y-13517024D01*
X17165710Y-13517024D02*
X17156186Y-13488452D01*
X17156186Y-13488452D02*
X17146662Y-13440833D01*
X17146662Y-13440833D02*
X17146662Y-13402738D01*
X17146662Y-13402738D02*
X17156186Y-13355119D01*
X17156186Y-13355119D02*
X17165710Y-13326548D01*
X17165710Y-13326548D02*
X17175234Y-13307500D01*
X17175234Y-13307500D02*
X17194281Y-13278929D01*
X17194281Y-13278929D02*
X17203805Y-13269405D01*
X17279996Y-13364643D02*
X17279996Y-13497976D01*
X17279996Y-13383691D02*
X17289519Y-13374167D01*
X17289519Y-13374167D02*
X17308567Y-13364643D01*
X17308567Y-13364643D02*
X17337138Y-13364643D01*
X17337138Y-13364643D02*
X17356186Y-13374167D01*
X17356186Y-13374167D02*
X17365710Y-13393214D01*
X17365710Y-13393214D02*
X17365710Y-13497976D01*
X17489519Y-13497976D02*
X17470472Y-13488452D01*
X17470472Y-13488452D02*
X17460948Y-13478929D01*
X17460948Y-13478929D02*
X17451424Y-13459881D01*
X17451424Y-13459881D02*
X17451424Y-13402738D01*
X17451424Y-13402738D02*
X17460948Y-13383691D01*
X17460948Y-13383691D02*
X17470472Y-13374167D01*
X17470472Y-13374167D02*
X17489519Y-13364643D01*
X17489519Y-13364643D02*
X17518091Y-13364643D01*
X17518091Y-13364643D02*
X17537138Y-13374167D01*
X17537138Y-13374167D02*
X17546662Y-13383691D01*
X17546662Y-13383691D02*
X17556186Y-13402738D01*
X17556186Y-13402738D02*
X17556186Y-13459881D01*
X17556186Y-13459881D02*
X17546662Y-13478929D01*
X17546662Y-13478929D02*
X17537138Y-13488452D01*
X17537138Y-13488452D02*
X17518091Y-13497976D01*
X17518091Y-13497976D02*
X17489519Y-13497976D01*
X17613329Y-13364643D02*
X17689519Y-13364643D01*
X17641900Y-13297976D02*
X17641900Y-13469405D01*
X17641900Y-13469405D02*
X17651424Y-13488452D01*
X17651424Y-13488452D02*
X17670472Y-13497976D01*
X17670472Y-13497976D02*
X17689519Y-13497976D01*
X17876186Y-13364643D02*
X17876186Y-13564643D01*
X17876186Y-13374167D02*
X17895234Y-13364643D01*
X17895234Y-13364643D02*
X17933329Y-13364643D01*
X17933329Y-13364643D02*
X17952377Y-13374167D01*
X17952377Y-13374167D02*
X17961900Y-13383691D01*
X17961900Y-13383691D02*
X17971424Y-13402738D01*
X17971424Y-13402738D02*
X17971424Y-13459881D01*
X17971424Y-13459881D02*
X17961900Y-13478929D01*
X17961900Y-13478929D02*
X17952377Y-13488452D01*
X17952377Y-13488452D02*
X17933329Y-13497976D01*
X17933329Y-13497976D02*
X17895234Y-13497976D01*
X17895234Y-13497976D02*
X17876186Y-13488452D01*
X18085710Y-13497976D02*
X18066662Y-13488452D01*
X18066662Y-13488452D02*
X18057138Y-13469405D01*
X18057138Y-13469405D02*
X18057138Y-13297976D01*
X18247615Y-13497976D02*
X18247615Y-13393214D01*
X18247615Y-13393214D02*
X18238091Y-13374167D01*
X18238091Y-13374167D02*
X18219043Y-13364643D01*
X18219043Y-13364643D02*
X18180948Y-13364643D01*
X18180948Y-13364643D02*
X18161900Y-13374167D01*
X18247615Y-13488452D02*
X18228567Y-13497976D01*
X18228567Y-13497976D02*
X18180948Y-13497976D01*
X18180948Y-13497976D02*
X18161900Y-13488452D01*
X18161900Y-13488452D02*
X18152377Y-13469405D01*
X18152377Y-13469405D02*
X18152377Y-13450357D01*
X18152377Y-13450357D02*
X18161900Y-13431310D01*
X18161900Y-13431310D02*
X18180948Y-13421786D01*
X18180948Y-13421786D02*
X18228567Y-13421786D01*
X18228567Y-13421786D02*
X18247615Y-13412262D01*
X18314281Y-13364643D02*
X18390472Y-13364643D01*
X18342853Y-13297976D02*
X18342853Y-13469405D01*
X18342853Y-13469405D02*
X18352377Y-13488452D01*
X18352377Y-13488452D02*
X18371424Y-13497976D01*
X18371424Y-13497976D02*
X18390472Y-13497976D01*
X18533329Y-13488452D02*
X18514281Y-13497976D01*
X18514281Y-13497976D02*
X18476186Y-13497976D01*
X18476186Y-13497976D02*
X18457138Y-13488452D01*
X18457138Y-13488452D02*
X18447615Y-13469405D01*
X18447615Y-13469405D02*
X18447615Y-13393214D01*
X18447615Y-13393214D02*
X18457138Y-13374167D01*
X18457138Y-13374167D02*
X18476186Y-13364643D01*
X18476186Y-13364643D02*
X18514281Y-13364643D01*
X18514281Y-13364643D02*
X18533329Y-13374167D01*
X18533329Y-13374167D02*
X18542853Y-13393214D01*
X18542853Y-13393214D02*
X18542853Y-13412262D01*
X18542853Y-13412262D02*
X18447615Y-13431310D01*
X18714281Y-13497976D02*
X18714281Y-13297976D01*
X18714281Y-13488452D02*
X18695234Y-13497976D01*
X18695234Y-13497976D02*
X18657138Y-13497976D01*
X18657138Y-13497976D02*
X18638091Y-13488452D01*
X18638091Y-13488452D02*
X18628567Y-13478929D01*
X18628567Y-13478929D02*
X18619043Y-13459881D01*
X18619043Y-13459881D02*
X18619043Y-13402738D01*
X18619043Y-13402738D02*
X18628567Y-13383691D01*
X18628567Y-13383691D02*
X18638091Y-13374167D01*
X18638091Y-13374167D02*
X18657138Y-13364643D01*
X18657138Y-13364643D02*
X18695234Y-13364643D01*
X18695234Y-13364643D02*
X18714281Y-13374167D01*
X18790472Y-13574167D02*
X18799996Y-13564643D01*
X18799996Y-13564643D02*
X18819043Y-13536072D01*
X18819043Y-13536072D02*
X18828567Y-13517024D01*
X18828567Y-13517024D02*
X18838091Y-13488452D01*
X18838091Y-13488452D02*
X18847615Y-13440833D01*
X18847615Y-13440833D02*
X18847615Y-13402738D01*
X18847615Y-13402738D02*
X18838091Y-13355119D01*
X18838091Y-13355119D02*
X18828567Y-13326548D01*
X18828567Y-13326548D02*
X18819043Y-13307500D01*
X18819043Y-13307500D02*
X18799996Y-13278929D01*
X18799996Y-13278929D02*
X18790472Y-13269405D01*
X12241900Y-13688500D02*
G75*
G03*
X12241900Y-13688500I-100000J0D01*
G01*
X12479995Y-13581024D02*
X12489519Y-13571500D01*
X12489519Y-13571500D02*
X12508567Y-13561976D01*
X12508567Y-13561976D02*
X12556186Y-13561976D01*
X12556186Y-13561976D02*
X12575233Y-13571500D01*
X12575233Y-13571500D02*
X12584757Y-13581024D01*
X12584757Y-13581024D02*
X12594281Y-13600072D01*
X12594281Y-13600072D02*
X12594281Y-13619119D01*
X12594281Y-13619119D02*
X12584757Y-13647691D01*
X12584757Y-13647691D02*
X12470471Y-13761976D01*
X12470471Y-13761976D02*
X12594281Y-13761976D01*
X12679995Y-13742929D02*
X12689519Y-13752452D01*
X12689519Y-13752452D02*
X12679995Y-13761976D01*
X12679995Y-13761976D02*
X12670471Y-13752452D01*
X12670471Y-13752452D02*
X12679995Y-13742929D01*
X12679995Y-13742929D02*
X12679995Y-13761976D01*
X12756186Y-13561976D02*
X12879995Y-13561976D01*
X12879995Y-13561976D02*
X12813329Y-13638167D01*
X12813329Y-13638167D02*
X12841900Y-13638167D01*
X12841900Y-13638167D02*
X12860948Y-13647691D01*
X12860948Y-13647691D02*
X12870471Y-13657214D01*
X12870471Y-13657214D02*
X12879995Y-13676262D01*
X12879995Y-13676262D02*
X12879995Y-13723881D01*
X12879995Y-13723881D02*
X12870471Y-13742929D01*
X12870471Y-13742929D02*
X12860948Y-13752452D01*
X12860948Y-13752452D02*
X12841900Y-13761976D01*
X12841900Y-13761976D02*
X12784757Y-13761976D01*
X12784757Y-13761976D02*
X12765710Y-13752452D01*
X12765710Y-13752452D02*
X12756186Y-13742929D01*
X12994281Y-13647691D02*
X12975233Y-13638167D01*
X12975233Y-13638167D02*
X12965710Y-13628643D01*
X12965710Y-13628643D02*
X12956186Y-13609595D01*
X12956186Y-13609595D02*
X12956186Y-13600072D01*
X12956186Y-13600072D02*
X12965710Y-13581024D01*
X12965710Y-13581024D02*
X12975233Y-13571500D01*
X12975233Y-13571500D02*
X12994281Y-13561976D01*
X12994281Y-13561976D02*
X13032376Y-13561976D01*
X13032376Y-13561976D02*
X13051424Y-13571500D01*
X13051424Y-13571500D02*
X13060948Y-13581024D01*
X13060948Y-13581024D02*
X13070471Y-13600072D01*
X13070471Y-13600072D02*
X13070471Y-13609595D01*
X13070471Y-13609595D02*
X13060948Y-13628643D01*
X13060948Y-13628643D02*
X13051424Y-13638167D01*
X13051424Y-13638167D02*
X13032376Y-13647691D01*
X13032376Y-13647691D02*
X12994281Y-13647691D01*
X12994281Y-13647691D02*
X12975233Y-13657214D01*
X12975233Y-13657214D02*
X12965710Y-13666738D01*
X12965710Y-13666738D02*
X12956186Y-13685786D01*
X12956186Y-13685786D02*
X12956186Y-13723881D01*
X12956186Y-13723881D02*
X12965710Y-13742929D01*
X12965710Y-13742929D02*
X12975233Y-13752452D01*
X12975233Y-13752452D02*
X12994281Y-13761976D01*
X12994281Y-13761976D02*
X13032376Y-13761976D01*
X13032376Y-13761976D02*
X13051424Y-13752452D01*
X13051424Y-13752452D02*
X13060948Y-13742929D01*
X13060948Y-13742929D02*
X13070471Y-13723881D01*
X13070471Y-13723881D02*
X13070471Y-13685786D01*
X13070471Y-13685786D02*
X13060948Y-13666738D01*
X13060948Y-13666738D02*
X13051424Y-13657214D01*
X13051424Y-13657214D02*
X13032376Y-13647691D01*
X13184757Y-13647691D02*
X13165710Y-13638167D01*
X13165710Y-13638167D02*
X13156186Y-13628643D01*
X13156186Y-13628643D02*
X13146662Y-13609595D01*
X13146662Y-13609595D02*
X13146662Y-13600072D01*
X13146662Y-13600072D02*
X13156186Y-13581024D01*
X13156186Y-13581024D02*
X13165710Y-13571500D01*
X13165710Y-13571500D02*
X13184757Y-13561976D01*
X13184757Y-13561976D02*
X13222852Y-13561976D01*
X13222852Y-13561976D02*
X13241900Y-13571500D01*
X13241900Y-13571500D02*
X13251424Y-13581024D01*
X13251424Y-13581024D02*
X13260948Y-13600072D01*
X13260948Y-13600072D02*
X13260948Y-13609595D01*
X13260948Y-13609595D02*
X13251424Y-13628643D01*
X13251424Y-13628643D02*
X13241900Y-13638167D01*
X13241900Y-13638167D02*
X13222852Y-13647691D01*
X13222852Y-13647691D02*
X13184757Y-13647691D01*
X13184757Y-13647691D02*
X13165710Y-13657214D01*
X13165710Y-13657214D02*
X13156186Y-13666738D01*
X13156186Y-13666738D02*
X13146662Y-13685786D01*
X13146662Y-13685786D02*
X13146662Y-13723881D01*
X13146662Y-13723881D02*
X13156186Y-13742929D01*
X13156186Y-13742929D02*
X13165710Y-13752452D01*
X13165710Y-13752452D02*
X13184757Y-13761976D01*
X13184757Y-13761976D02*
X13222852Y-13761976D01*
X13222852Y-13761976D02*
X13241900Y-13752452D01*
X13241900Y-13752452D02*
X13251424Y-13742929D01*
X13251424Y-13742929D02*
X13260948Y-13723881D01*
X13260948Y-13723881D02*
X13260948Y-13685786D01*
X13260948Y-13685786D02*
X13251424Y-13666738D01*
X13251424Y-13666738D02*
X13241900Y-13657214D01*
X13241900Y-13657214D02*
X13222852Y-13647691D01*
X13346662Y-13761976D02*
X13346662Y-13628643D01*
X13346662Y-13647691D02*
X13356186Y-13638167D01*
X13356186Y-13638167D02*
X13375233Y-13628643D01*
X13375233Y-13628643D02*
X13403805Y-13628643D01*
X13403805Y-13628643D02*
X13422852Y-13638167D01*
X13422852Y-13638167D02*
X13432376Y-13657214D01*
X13432376Y-13657214D02*
X13432376Y-13761976D01*
X13432376Y-13657214D02*
X13441900Y-13638167D01*
X13441900Y-13638167D02*
X13460948Y-13628643D01*
X13460948Y-13628643D02*
X13489519Y-13628643D01*
X13489519Y-13628643D02*
X13508567Y-13638167D01*
X13508567Y-13638167D02*
X13518091Y-13657214D01*
X13518091Y-13657214D02*
X13518091Y-13761976D01*
X13613329Y-13761976D02*
X13613329Y-13628643D01*
X13613329Y-13647691D02*
X13622852Y-13638167D01*
X13622852Y-13638167D02*
X13641900Y-13628643D01*
X13641900Y-13628643D02*
X13670472Y-13628643D01*
X13670472Y-13628643D02*
X13689519Y-13638167D01*
X13689519Y-13638167D02*
X13699043Y-13657214D01*
X13699043Y-13657214D02*
X13699043Y-13761976D01*
X13699043Y-13657214D02*
X13708567Y-13638167D01*
X13708567Y-13638167D02*
X13727614Y-13628643D01*
X13727614Y-13628643D02*
X13756186Y-13628643D01*
X13756186Y-13628643D02*
X13775233Y-13638167D01*
X13775233Y-13638167D02*
X13784757Y-13657214D01*
X13784757Y-13657214D02*
X13784757Y-13761976D01*
X14142852Y-13552452D02*
X13971424Y-13809595D01*
X14367614Y-13561976D02*
X14386662Y-13561976D01*
X14386662Y-13561976D02*
X14405710Y-13571500D01*
X14405710Y-13571500D02*
X14415233Y-13581024D01*
X14415233Y-13581024D02*
X14424757Y-13600072D01*
X14424757Y-13600072D02*
X14434281Y-13638167D01*
X14434281Y-13638167D02*
X14434281Y-13685786D01*
X14434281Y-13685786D02*
X14424757Y-13723881D01*
X14424757Y-13723881D02*
X14415233Y-13742929D01*
X14415233Y-13742929D02*
X14405710Y-13752452D01*
X14405710Y-13752452D02*
X14386662Y-13761976D01*
X14386662Y-13761976D02*
X14367614Y-13761976D01*
X14367614Y-13761976D02*
X14348567Y-13752452D01*
X14348567Y-13752452D02*
X14339043Y-13742929D01*
X14339043Y-13742929D02*
X14329519Y-13723881D01*
X14329519Y-13723881D02*
X14319995Y-13685786D01*
X14319995Y-13685786D02*
X14319995Y-13638167D01*
X14319995Y-13638167D02*
X14329519Y-13600072D01*
X14329519Y-13600072D02*
X14339043Y-13581024D01*
X14339043Y-13581024D02*
X14348567Y-13571500D01*
X14348567Y-13571500D02*
X14367614Y-13561976D01*
X14519995Y-13742929D02*
X14529519Y-13752452D01*
X14529519Y-13752452D02*
X14519995Y-13761976D01*
X14519995Y-13761976D02*
X14510472Y-13752452D01*
X14510472Y-13752452D02*
X14519995Y-13742929D01*
X14519995Y-13742929D02*
X14519995Y-13761976D01*
X14653329Y-13561976D02*
X14672376Y-13561976D01*
X14672376Y-13561976D02*
X14691424Y-13571500D01*
X14691424Y-13571500D02*
X14700948Y-13581024D01*
X14700948Y-13581024D02*
X14710472Y-13600072D01*
X14710472Y-13600072D02*
X14719995Y-13638167D01*
X14719995Y-13638167D02*
X14719995Y-13685786D01*
X14719995Y-13685786D02*
X14710472Y-13723881D01*
X14710472Y-13723881D02*
X14700948Y-13742929D01*
X14700948Y-13742929D02*
X14691424Y-13752452D01*
X14691424Y-13752452D02*
X14672376Y-13761976D01*
X14672376Y-13761976D02*
X14653329Y-13761976D01*
X14653329Y-13761976D02*
X14634281Y-13752452D01*
X14634281Y-13752452D02*
X14624757Y-13742929D01*
X14624757Y-13742929D02*
X14615233Y-13723881D01*
X14615233Y-13723881D02*
X14605710Y-13685786D01*
X14605710Y-13685786D02*
X14605710Y-13638167D01*
X14605710Y-13638167D02*
X14615233Y-13600072D01*
X14615233Y-13600072D02*
X14624757Y-13581024D01*
X14624757Y-13581024D02*
X14634281Y-13571500D01*
X14634281Y-13571500D02*
X14653329Y-13561976D01*
X14815233Y-13761976D02*
X14853329Y-13761976D01*
X14853329Y-13761976D02*
X14872376Y-13752452D01*
X14872376Y-13752452D02*
X14881900Y-13742929D01*
X14881900Y-13742929D02*
X14900948Y-13714357D01*
X14900948Y-13714357D02*
X14910472Y-13676262D01*
X14910472Y-13676262D02*
X14910472Y-13600072D01*
X14910472Y-13600072D02*
X14900948Y-13581024D01*
X14900948Y-13581024D02*
X14891424Y-13571500D01*
X14891424Y-13571500D02*
X14872376Y-13561976D01*
X14872376Y-13561976D02*
X14834281Y-13561976D01*
X14834281Y-13561976D02*
X14815233Y-13571500D01*
X14815233Y-13571500D02*
X14805710Y-13581024D01*
X14805710Y-13581024D02*
X14796186Y-13600072D01*
X14796186Y-13600072D02*
X14796186Y-13647691D01*
X14796186Y-13647691D02*
X14805710Y-13666738D01*
X14805710Y-13666738D02*
X14815233Y-13676262D01*
X14815233Y-13676262D02*
X14834281Y-13685786D01*
X14834281Y-13685786D02*
X14872376Y-13685786D01*
X14872376Y-13685786D02*
X14891424Y-13676262D01*
X14891424Y-13676262D02*
X14900948Y-13666738D01*
X14900948Y-13666738D02*
X14910472Y-13647691D01*
X15081900Y-13628643D02*
X15081900Y-13761976D01*
X15034281Y-13552452D02*
X14986662Y-13695310D01*
X14986662Y-13695310D02*
X15110472Y-13695310D01*
X15224757Y-13561976D02*
X15243805Y-13561976D01*
X15243805Y-13561976D02*
X15262853Y-13571500D01*
X15262853Y-13571500D02*
X15272376Y-13581024D01*
X15272376Y-13581024D02*
X15281900Y-13600072D01*
X15281900Y-13600072D02*
X15291424Y-13638167D01*
X15291424Y-13638167D02*
X15291424Y-13685786D01*
X15291424Y-13685786D02*
X15281900Y-13723881D01*
X15281900Y-13723881D02*
X15272376Y-13742929D01*
X15272376Y-13742929D02*
X15262853Y-13752452D01*
X15262853Y-13752452D02*
X15243805Y-13761976D01*
X15243805Y-13761976D02*
X15224757Y-13761976D01*
X15224757Y-13761976D02*
X15205710Y-13752452D01*
X15205710Y-13752452D02*
X15196186Y-13742929D01*
X15196186Y-13742929D02*
X15186662Y-13723881D01*
X15186662Y-13723881D02*
X15177138Y-13685786D01*
X15177138Y-13685786D02*
X15177138Y-13638167D01*
X15177138Y-13638167D02*
X15186662Y-13600072D01*
X15186662Y-13600072D02*
X15196186Y-13581024D01*
X15196186Y-13581024D02*
X15205710Y-13571500D01*
X15205710Y-13571500D02*
X15224757Y-13561976D01*
X15367614Y-13561976D02*
X15367614Y-13600072D01*
X15443805Y-13561976D02*
X15443805Y-13600072D01*
X15706662Y-13838167D02*
X15697138Y-13828643D01*
X15697138Y-13828643D02*
X15678091Y-13800072D01*
X15678091Y-13800072D02*
X15668567Y-13781024D01*
X15668567Y-13781024D02*
X15659043Y-13752452D01*
X15659043Y-13752452D02*
X15649519Y-13704833D01*
X15649519Y-13704833D02*
X15649519Y-13666738D01*
X15649519Y-13666738D02*
X15659043Y-13619119D01*
X15659043Y-13619119D02*
X15668567Y-13590548D01*
X15668567Y-13590548D02*
X15678091Y-13571500D01*
X15678091Y-13571500D02*
X15697138Y-13542929D01*
X15697138Y-13542929D02*
X15706662Y-13533405D01*
X15887614Y-13761976D02*
X15773329Y-13761976D01*
X15830472Y-13761976D02*
X15830472Y-13561976D01*
X15830472Y-13561976D02*
X15811424Y-13590548D01*
X15811424Y-13590548D02*
X15792376Y-13609595D01*
X15792376Y-13609595D02*
X15773329Y-13619119D01*
X16093329Y-13761976D02*
X16093329Y-13561976D01*
X16179043Y-13761976D02*
X16179043Y-13657214D01*
X16179043Y-13657214D02*
X16169519Y-13638167D01*
X16169519Y-13638167D02*
X16150472Y-13628643D01*
X16150472Y-13628643D02*
X16121900Y-13628643D01*
X16121900Y-13628643D02*
X16102853Y-13638167D01*
X16102853Y-13638167D02*
X16093329Y-13647691D01*
X16302853Y-13761976D02*
X16283805Y-13752452D01*
X16283805Y-13752452D02*
X16274281Y-13742929D01*
X16274281Y-13742929D02*
X16264757Y-13723881D01*
X16264757Y-13723881D02*
X16264757Y-13666738D01*
X16264757Y-13666738D02*
X16274281Y-13647691D01*
X16274281Y-13647691D02*
X16283805Y-13638167D01*
X16283805Y-13638167D02*
X16302853Y-13628643D01*
X16302853Y-13628643D02*
X16331424Y-13628643D01*
X16331424Y-13628643D02*
X16350472Y-13638167D01*
X16350472Y-13638167D02*
X16359995Y-13647691D01*
X16359995Y-13647691D02*
X16369519Y-13666738D01*
X16369519Y-13666738D02*
X16369519Y-13723881D01*
X16369519Y-13723881D02*
X16359995Y-13742929D01*
X16359995Y-13742929D02*
X16350472Y-13752452D01*
X16350472Y-13752452D02*
X16331424Y-13761976D01*
X16331424Y-13761976D02*
X16302853Y-13761976D01*
X16483805Y-13761976D02*
X16464757Y-13752452D01*
X16464757Y-13752452D02*
X16455234Y-13733405D01*
X16455234Y-13733405D02*
X16455234Y-13561976D01*
X16636186Y-13752452D02*
X16617138Y-13761976D01*
X16617138Y-13761976D02*
X16579043Y-13761976D01*
X16579043Y-13761976D02*
X16559995Y-13752452D01*
X16559995Y-13752452D02*
X16550472Y-13733405D01*
X16550472Y-13733405D02*
X16550472Y-13657214D01*
X16550472Y-13657214D02*
X16559995Y-13638167D01*
X16559995Y-13638167D02*
X16579043Y-13628643D01*
X16579043Y-13628643D02*
X16617138Y-13628643D01*
X16617138Y-13628643D02*
X16636186Y-13638167D01*
X16636186Y-13638167D02*
X16645710Y-13657214D01*
X16645710Y-13657214D02*
X16645710Y-13676262D01*
X16645710Y-13676262D02*
X16550472Y-13695310D01*
X16712376Y-13838167D02*
X16721900Y-13828643D01*
X16721900Y-13828643D02*
X16740948Y-13800072D01*
X16740948Y-13800072D02*
X16750472Y-13781024D01*
X16750472Y-13781024D02*
X16759995Y-13752452D01*
X16759995Y-13752452D02*
X16769519Y-13704833D01*
X16769519Y-13704833D02*
X16769519Y-13666738D01*
X16769519Y-13666738D02*
X16759995Y-13619119D01*
X16759995Y-13619119D02*
X16750472Y-13590548D01*
X16750472Y-13590548D02*
X16740948Y-13571500D01*
X16740948Y-13571500D02*
X16721900Y-13542929D01*
X16721900Y-13542929D02*
X16712376Y-13533405D01*
X17041900Y-13838167D02*
X17032376Y-13828643D01*
X17032376Y-13828643D02*
X17013329Y-13800072D01*
X17013329Y-13800072D02*
X17003805Y-13781024D01*
X17003805Y-13781024D02*
X16994281Y-13752452D01*
X16994281Y-13752452D02*
X16984757Y-13704833D01*
X16984757Y-13704833D02*
X16984757Y-13666738D01*
X16984757Y-13666738D02*
X16994281Y-13619119D01*
X16994281Y-13619119D02*
X17003805Y-13590548D01*
X17003805Y-13590548D02*
X17013329Y-13571500D01*
X17013329Y-13571500D02*
X17032376Y-13542929D01*
X17032376Y-13542929D02*
X17041900Y-13533405D01*
X17118091Y-13628643D02*
X17118091Y-13761976D01*
X17118091Y-13647691D02*
X17127615Y-13638167D01*
X17127615Y-13638167D02*
X17146662Y-13628643D01*
X17146662Y-13628643D02*
X17175234Y-13628643D01*
X17175234Y-13628643D02*
X17194281Y-13638167D01*
X17194281Y-13638167D02*
X17203805Y-13657214D01*
X17203805Y-13657214D02*
X17203805Y-13761976D01*
X17327615Y-13761976D02*
X17308567Y-13752452D01*
X17308567Y-13752452D02*
X17299043Y-13742929D01*
X17299043Y-13742929D02*
X17289519Y-13723881D01*
X17289519Y-13723881D02*
X17289519Y-13666738D01*
X17289519Y-13666738D02*
X17299043Y-13647691D01*
X17299043Y-13647691D02*
X17308567Y-13638167D01*
X17308567Y-13638167D02*
X17327615Y-13628643D01*
X17327615Y-13628643D02*
X17356186Y-13628643D01*
X17356186Y-13628643D02*
X17375234Y-13638167D01*
X17375234Y-13638167D02*
X17384757Y-13647691D01*
X17384757Y-13647691D02*
X17394281Y-13666738D01*
X17394281Y-13666738D02*
X17394281Y-13723881D01*
X17394281Y-13723881D02*
X17384757Y-13742929D01*
X17384757Y-13742929D02*
X17375234Y-13752452D01*
X17375234Y-13752452D02*
X17356186Y-13761976D01*
X17356186Y-13761976D02*
X17327615Y-13761976D01*
X17451424Y-13628643D02*
X17527615Y-13628643D01*
X17479996Y-13561976D02*
X17479996Y-13733405D01*
X17479996Y-13733405D02*
X17489519Y-13752452D01*
X17489519Y-13752452D02*
X17508567Y-13761976D01*
X17508567Y-13761976D02*
X17527615Y-13761976D01*
X17714281Y-13628643D02*
X17714281Y-13828643D01*
X17714281Y-13638167D02*
X17733329Y-13628643D01*
X17733329Y-13628643D02*
X17771424Y-13628643D01*
X17771424Y-13628643D02*
X17790472Y-13638167D01*
X17790472Y-13638167D02*
X17799996Y-13647691D01*
X17799996Y-13647691D02*
X17809519Y-13666738D01*
X17809519Y-13666738D02*
X17809519Y-13723881D01*
X17809519Y-13723881D02*
X17799996Y-13742929D01*
X17799996Y-13742929D02*
X17790472Y-13752452D01*
X17790472Y-13752452D02*
X17771424Y-13761976D01*
X17771424Y-13761976D02*
X17733329Y-13761976D01*
X17733329Y-13761976D02*
X17714281Y-13752452D01*
X17923805Y-13761976D02*
X17904757Y-13752452D01*
X17904757Y-13752452D02*
X17895234Y-13733405D01*
X17895234Y-13733405D02*
X17895234Y-13561976D01*
X18085710Y-13761976D02*
X18085710Y-13657214D01*
X18085710Y-13657214D02*
X18076186Y-13638167D01*
X18076186Y-13638167D02*
X18057138Y-13628643D01*
X18057138Y-13628643D02*
X18019043Y-13628643D01*
X18019043Y-13628643D02*
X17999996Y-13638167D01*
X18085710Y-13752452D02*
X18066662Y-13761976D01*
X18066662Y-13761976D02*
X18019043Y-13761976D01*
X18019043Y-13761976D02*
X17999996Y-13752452D01*
X17999996Y-13752452D02*
X17990472Y-13733405D01*
X17990472Y-13733405D02*
X17990472Y-13714357D01*
X17990472Y-13714357D02*
X17999996Y-13695310D01*
X17999996Y-13695310D02*
X18019043Y-13685786D01*
X18019043Y-13685786D02*
X18066662Y-13685786D01*
X18066662Y-13685786D02*
X18085710Y-13676262D01*
X18152377Y-13628643D02*
X18228567Y-13628643D01*
X18180948Y-13561976D02*
X18180948Y-13733405D01*
X18180948Y-13733405D02*
X18190472Y-13752452D01*
X18190472Y-13752452D02*
X18209519Y-13761976D01*
X18209519Y-13761976D02*
X18228567Y-13761976D01*
X18371424Y-13752452D02*
X18352377Y-13761976D01*
X18352377Y-13761976D02*
X18314281Y-13761976D01*
X18314281Y-13761976D02*
X18295234Y-13752452D01*
X18295234Y-13752452D02*
X18285710Y-13733405D01*
X18285710Y-13733405D02*
X18285710Y-13657214D01*
X18285710Y-13657214D02*
X18295234Y-13638167D01*
X18295234Y-13638167D02*
X18314281Y-13628643D01*
X18314281Y-13628643D02*
X18352377Y-13628643D01*
X18352377Y-13628643D02*
X18371424Y-13638167D01*
X18371424Y-13638167D02*
X18380948Y-13657214D01*
X18380948Y-13657214D02*
X18380948Y-13676262D01*
X18380948Y-13676262D02*
X18285710Y-13695310D01*
X18552377Y-13761976D02*
X18552377Y-13561976D01*
X18552377Y-13752452D02*
X18533329Y-13761976D01*
X18533329Y-13761976D02*
X18495234Y-13761976D01*
X18495234Y-13761976D02*
X18476186Y-13752452D01*
X18476186Y-13752452D02*
X18466662Y-13742929D01*
X18466662Y-13742929D02*
X18457138Y-13723881D01*
X18457138Y-13723881D02*
X18457138Y-13666738D01*
X18457138Y-13666738D02*
X18466662Y-13647691D01*
X18466662Y-13647691D02*
X18476186Y-13638167D01*
X18476186Y-13638167D02*
X18495234Y-13628643D01*
X18495234Y-13628643D02*
X18533329Y-13628643D01*
X18533329Y-13628643D02*
X18552377Y-13638167D01*
X18628567Y-13838167D02*
X18638091Y-13828643D01*
X18638091Y-13828643D02*
X18657138Y-13800072D01*
X18657138Y-13800072D02*
X18666662Y-13781024D01*
X18666662Y-13781024D02*
X18676186Y-13752452D01*
X18676186Y-13752452D02*
X18685710Y-13704833D01*
X18685710Y-13704833D02*
X18685710Y-13666738D01*
X18685710Y-13666738D02*
X18676186Y-13619119D01*
X18676186Y-13619119D02*
X18666662Y-13590548D01*
X18666662Y-13590548D02*
X18657138Y-13571500D01*
X18657138Y-13571500D02*
X18638091Y-13542929D01*
X18638091Y-13542929D02*
X18628567Y-13533405D01*
X12141900Y-13908500D02*
X12141900Y-14108500D01*
X12041900Y-14008500D02*
X12241900Y-14008500D01*
X12470471Y-13881976D02*
X12594281Y-13881976D01*
X12594281Y-13881976D02*
X12527614Y-13958167D01*
X12527614Y-13958167D02*
X12556186Y-13958167D01*
X12556186Y-13958167D02*
X12575233Y-13967691D01*
X12575233Y-13967691D02*
X12584757Y-13977214D01*
X12584757Y-13977214D02*
X12594281Y-13996262D01*
X12594281Y-13996262D02*
X12594281Y-14043881D01*
X12594281Y-14043881D02*
X12584757Y-14062929D01*
X12584757Y-14062929D02*
X12575233Y-14072452D01*
X12575233Y-14072452D02*
X12556186Y-14081976D01*
X12556186Y-14081976D02*
X12499043Y-14081976D01*
X12499043Y-14081976D02*
X12479995Y-14072452D01*
X12479995Y-14072452D02*
X12470471Y-14062929D01*
X12679995Y-14062929D02*
X12689519Y-14072452D01*
X12689519Y-14072452D02*
X12679995Y-14081976D01*
X12679995Y-14081976D02*
X12670471Y-14072452D01*
X12670471Y-14072452D02*
X12679995Y-14062929D01*
X12679995Y-14062929D02*
X12679995Y-14081976D01*
X12870471Y-13881976D02*
X12775233Y-13881976D01*
X12775233Y-13881976D02*
X12765710Y-13977214D01*
X12765710Y-13977214D02*
X12775233Y-13967691D01*
X12775233Y-13967691D02*
X12794281Y-13958167D01*
X12794281Y-13958167D02*
X12841900Y-13958167D01*
X12841900Y-13958167D02*
X12860948Y-13967691D01*
X12860948Y-13967691D02*
X12870471Y-13977214D01*
X12870471Y-13977214D02*
X12879995Y-13996262D01*
X12879995Y-13996262D02*
X12879995Y-14043881D01*
X12879995Y-14043881D02*
X12870471Y-14062929D01*
X12870471Y-14062929D02*
X12860948Y-14072452D01*
X12860948Y-14072452D02*
X12841900Y-14081976D01*
X12841900Y-14081976D02*
X12794281Y-14081976D01*
X12794281Y-14081976D02*
X12775233Y-14072452D01*
X12775233Y-14072452D02*
X12765710Y-14062929D01*
X13003805Y-13881976D02*
X13022852Y-13881976D01*
X13022852Y-13881976D02*
X13041900Y-13891500D01*
X13041900Y-13891500D02*
X13051424Y-13901024D01*
X13051424Y-13901024D02*
X13060948Y-13920072D01*
X13060948Y-13920072D02*
X13070471Y-13958167D01*
X13070471Y-13958167D02*
X13070471Y-14005786D01*
X13070471Y-14005786D02*
X13060948Y-14043881D01*
X13060948Y-14043881D02*
X13051424Y-14062929D01*
X13051424Y-14062929D02*
X13041900Y-14072452D01*
X13041900Y-14072452D02*
X13022852Y-14081976D01*
X13022852Y-14081976D02*
X13003805Y-14081976D01*
X13003805Y-14081976D02*
X12984757Y-14072452D01*
X12984757Y-14072452D02*
X12975233Y-14062929D01*
X12975233Y-14062929D02*
X12965710Y-14043881D01*
X12965710Y-14043881D02*
X12956186Y-14005786D01*
X12956186Y-14005786D02*
X12956186Y-13958167D01*
X12956186Y-13958167D02*
X12965710Y-13920072D01*
X12965710Y-13920072D02*
X12975233Y-13901024D01*
X12975233Y-13901024D02*
X12984757Y-13891500D01*
X12984757Y-13891500D02*
X13003805Y-13881976D01*
X13194281Y-13881976D02*
X13213329Y-13881976D01*
X13213329Y-13881976D02*
X13232376Y-13891500D01*
X13232376Y-13891500D02*
X13241900Y-13901024D01*
X13241900Y-13901024D02*
X13251424Y-13920072D01*
X13251424Y-13920072D02*
X13260948Y-13958167D01*
X13260948Y-13958167D02*
X13260948Y-14005786D01*
X13260948Y-14005786D02*
X13251424Y-14043881D01*
X13251424Y-14043881D02*
X13241900Y-14062929D01*
X13241900Y-14062929D02*
X13232376Y-14072452D01*
X13232376Y-14072452D02*
X13213329Y-14081976D01*
X13213329Y-14081976D02*
X13194281Y-14081976D01*
X13194281Y-14081976D02*
X13175233Y-14072452D01*
X13175233Y-14072452D02*
X13165710Y-14062929D01*
X13165710Y-14062929D02*
X13156186Y-14043881D01*
X13156186Y-14043881D02*
X13146662Y-14005786D01*
X13146662Y-14005786D02*
X13146662Y-13958167D01*
X13146662Y-13958167D02*
X13156186Y-13920072D01*
X13156186Y-13920072D02*
X13165710Y-13901024D01*
X13165710Y-13901024D02*
X13175233Y-13891500D01*
X13175233Y-13891500D02*
X13194281Y-13881976D01*
X13346662Y-14081976D02*
X13346662Y-13948643D01*
X13346662Y-13967691D02*
X13356186Y-13958167D01*
X13356186Y-13958167D02*
X13375233Y-13948643D01*
X13375233Y-13948643D02*
X13403805Y-13948643D01*
X13403805Y-13948643D02*
X13422852Y-13958167D01*
X13422852Y-13958167D02*
X13432376Y-13977214D01*
X13432376Y-13977214D02*
X13432376Y-14081976D01*
X13432376Y-13977214D02*
X13441900Y-13958167D01*
X13441900Y-13958167D02*
X13460948Y-13948643D01*
X13460948Y-13948643D02*
X13489519Y-13948643D01*
X13489519Y-13948643D02*
X13508567Y-13958167D01*
X13508567Y-13958167D02*
X13518091Y-13977214D01*
X13518091Y-13977214D02*
X13518091Y-14081976D01*
X13613329Y-14081976D02*
X13613329Y-13948643D01*
X13613329Y-13967691D02*
X13622852Y-13958167D01*
X13622852Y-13958167D02*
X13641900Y-13948643D01*
X13641900Y-13948643D02*
X13670472Y-13948643D01*
X13670472Y-13948643D02*
X13689519Y-13958167D01*
X13689519Y-13958167D02*
X13699043Y-13977214D01*
X13699043Y-13977214D02*
X13699043Y-14081976D01*
X13699043Y-13977214D02*
X13708567Y-13958167D01*
X13708567Y-13958167D02*
X13727614Y-13948643D01*
X13727614Y-13948643D02*
X13756186Y-13948643D01*
X13756186Y-13948643D02*
X13775233Y-13958167D01*
X13775233Y-13958167D02*
X13784757Y-13977214D01*
X13784757Y-13977214D02*
X13784757Y-14081976D01*
X14142852Y-13872452D02*
X13971424Y-14129595D01*
X14367614Y-13881976D02*
X14386662Y-13881976D01*
X14386662Y-13881976D02*
X14405710Y-13891500D01*
X14405710Y-13891500D02*
X14415233Y-13901024D01*
X14415233Y-13901024D02*
X14424757Y-13920072D01*
X14424757Y-13920072D02*
X14434281Y-13958167D01*
X14434281Y-13958167D02*
X14434281Y-14005786D01*
X14434281Y-14005786D02*
X14424757Y-14043881D01*
X14424757Y-14043881D02*
X14415233Y-14062929D01*
X14415233Y-14062929D02*
X14405710Y-14072452D01*
X14405710Y-14072452D02*
X14386662Y-14081976D01*
X14386662Y-14081976D02*
X14367614Y-14081976D01*
X14367614Y-14081976D02*
X14348567Y-14072452D01*
X14348567Y-14072452D02*
X14339043Y-14062929D01*
X14339043Y-14062929D02*
X14329519Y-14043881D01*
X14329519Y-14043881D02*
X14319995Y-14005786D01*
X14319995Y-14005786D02*
X14319995Y-13958167D01*
X14319995Y-13958167D02*
X14329519Y-13920072D01*
X14329519Y-13920072D02*
X14339043Y-13901024D01*
X14339043Y-13901024D02*
X14348567Y-13891500D01*
X14348567Y-13891500D02*
X14367614Y-13881976D01*
X14519995Y-14062929D02*
X14529519Y-14072452D01*
X14529519Y-14072452D02*
X14519995Y-14081976D01*
X14519995Y-14081976D02*
X14510472Y-14072452D01*
X14510472Y-14072452D02*
X14519995Y-14062929D01*
X14519995Y-14062929D02*
X14519995Y-14081976D01*
X14719995Y-14081976D02*
X14605710Y-14081976D01*
X14662852Y-14081976D02*
X14662852Y-13881976D01*
X14662852Y-13881976D02*
X14643805Y-13910548D01*
X14643805Y-13910548D02*
X14624757Y-13929595D01*
X14624757Y-13929595D02*
X14605710Y-13939119D01*
X14786662Y-13881976D02*
X14910472Y-13881976D01*
X14910472Y-13881976D02*
X14843805Y-13958167D01*
X14843805Y-13958167D02*
X14872376Y-13958167D01*
X14872376Y-13958167D02*
X14891424Y-13967691D01*
X14891424Y-13967691D02*
X14900948Y-13977214D01*
X14900948Y-13977214D02*
X14910472Y-13996262D01*
X14910472Y-13996262D02*
X14910472Y-14043881D01*
X14910472Y-14043881D02*
X14900948Y-14062929D01*
X14900948Y-14062929D02*
X14891424Y-14072452D01*
X14891424Y-14072452D02*
X14872376Y-14081976D01*
X14872376Y-14081976D02*
X14815233Y-14081976D01*
X14815233Y-14081976D02*
X14796186Y-14072452D01*
X14796186Y-14072452D02*
X14786662Y-14062929D01*
X14977138Y-13881976D02*
X15110472Y-13881976D01*
X15110472Y-13881976D02*
X15024757Y-14081976D01*
X15215233Y-13967691D02*
X15196186Y-13958167D01*
X15196186Y-13958167D02*
X15186662Y-13948643D01*
X15186662Y-13948643D02*
X15177138Y-13929595D01*
X15177138Y-13929595D02*
X15177138Y-13920072D01*
X15177138Y-13920072D02*
X15186662Y-13901024D01*
X15186662Y-13901024D02*
X15196186Y-13891500D01*
X15196186Y-13891500D02*
X15215233Y-13881976D01*
X15215233Y-13881976D02*
X15253329Y-13881976D01*
X15253329Y-13881976D02*
X15272376Y-13891500D01*
X15272376Y-13891500D02*
X15281900Y-13901024D01*
X15281900Y-13901024D02*
X15291424Y-13920072D01*
X15291424Y-13920072D02*
X15291424Y-13929595D01*
X15291424Y-13929595D02*
X15281900Y-13948643D01*
X15281900Y-13948643D02*
X15272376Y-13958167D01*
X15272376Y-13958167D02*
X15253329Y-13967691D01*
X15253329Y-13967691D02*
X15215233Y-13967691D01*
X15215233Y-13967691D02*
X15196186Y-13977214D01*
X15196186Y-13977214D02*
X15186662Y-13986738D01*
X15186662Y-13986738D02*
X15177138Y-14005786D01*
X15177138Y-14005786D02*
X15177138Y-14043881D01*
X15177138Y-14043881D02*
X15186662Y-14062929D01*
X15186662Y-14062929D02*
X15196186Y-14072452D01*
X15196186Y-14072452D02*
X15215233Y-14081976D01*
X15215233Y-14081976D02*
X15253329Y-14081976D01*
X15253329Y-14081976D02*
X15272376Y-14072452D01*
X15272376Y-14072452D02*
X15281900Y-14062929D01*
X15281900Y-14062929D02*
X15291424Y-14043881D01*
X15291424Y-14043881D02*
X15291424Y-14005786D01*
X15291424Y-14005786D02*
X15281900Y-13986738D01*
X15281900Y-13986738D02*
X15272376Y-13977214D01*
X15272376Y-13977214D02*
X15253329Y-13967691D01*
X15367614Y-13881976D02*
X15367614Y-13920072D01*
X15443805Y-13881976D02*
X15443805Y-13920072D01*
X15706662Y-14158167D02*
X15697138Y-14148643D01*
X15697138Y-14148643D02*
X15678091Y-14120072D01*
X15678091Y-14120072D02*
X15668567Y-14101024D01*
X15668567Y-14101024D02*
X15659043Y-14072452D01*
X15659043Y-14072452D02*
X15649519Y-14024833D01*
X15649519Y-14024833D02*
X15649519Y-13986738D01*
X15649519Y-13986738D02*
X15659043Y-13939119D01*
X15659043Y-13939119D02*
X15668567Y-13910548D01*
X15668567Y-13910548D02*
X15678091Y-13891500D01*
X15678091Y-13891500D02*
X15697138Y-13862929D01*
X15697138Y-13862929D02*
X15706662Y-13853405D01*
X15868567Y-13948643D02*
X15868567Y-14081976D01*
X15820948Y-13872452D02*
X15773329Y-14015310D01*
X15773329Y-14015310D02*
X15897138Y-14015310D01*
X16093329Y-14081976D02*
X16093329Y-13881976D01*
X16179043Y-14081976D02*
X16179043Y-13977214D01*
X16179043Y-13977214D02*
X16169519Y-13958167D01*
X16169519Y-13958167D02*
X16150472Y-13948643D01*
X16150472Y-13948643D02*
X16121900Y-13948643D01*
X16121900Y-13948643D02*
X16102853Y-13958167D01*
X16102853Y-13958167D02*
X16093329Y-13967691D01*
X16302853Y-14081976D02*
X16283805Y-14072452D01*
X16283805Y-14072452D02*
X16274281Y-14062929D01*
X16274281Y-14062929D02*
X16264757Y-14043881D01*
X16264757Y-14043881D02*
X16264757Y-13986738D01*
X16264757Y-13986738D02*
X16274281Y-13967691D01*
X16274281Y-13967691D02*
X16283805Y-13958167D01*
X16283805Y-13958167D02*
X16302853Y-13948643D01*
X16302853Y-13948643D02*
X16331424Y-13948643D01*
X16331424Y-13948643D02*
X16350472Y-13958167D01*
X16350472Y-13958167D02*
X16359995Y-13967691D01*
X16359995Y-13967691D02*
X16369519Y-13986738D01*
X16369519Y-13986738D02*
X16369519Y-14043881D01*
X16369519Y-14043881D02*
X16359995Y-14062929D01*
X16359995Y-14062929D02*
X16350472Y-14072452D01*
X16350472Y-14072452D02*
X16331424Y-14081976D01*
X16331424Y-14081976D02*
X16302853Y-14081976D01*
X16483805Y-14081976D02*
X16464757Y-14072452D01*
X16464757Y-14072452D02*
X16455234Y-14053405D01*
X16455234Y-14053405D02*
X16455234Y-13881976D01*
X16636186Y-14072452D02*
X16617138Y-14081976D01*
X16617138Y-14081976D02*
X16579043Y-14081976D01*
X16579043Y-14081976D02*
X16559995Y-14072452D01*
X16559995Y-14072452D02*
X16550472Y-14053405D01*
X16550472Y-14053405D02*
X16550472Y-13977214D01*
X16550472Y-13977214D02*
X16559995Y-13958167D01*
X16559995Y-13958167D02*
X16579043Y-13948643D01*
X16579043Y-13948643D02*
X16617138Y-13948643D01*
X16617138Y-13948643D02*
X16636186Y-13958167D01*
X16636186Y-13958167D02*
X16645710Y-13977214D01*
X16645710Y-13977214D02*
X16645710Y-13996262D01*
X16645710Y-13996262D02*
X16550472Y-14015310D01*
X16721900Y-14072452D02*
X16740948Y-14081976D01*
X16740948Y-14081976D02*
X16779043Y-14081976D01*
X16779043Y-14081976D02*
X16798091Y-14072452D01*
X16798091Y-14072452D02*
X16807615Y-14053405D01*
X16807615Y-14053405D02*
X16807615Y-14043881D01*
X16807615Y-14043881D02*
X16798091Y-14024833D01*
X16798091Y-14024833D02*
X16779043Y-14015310D01*
X16779043Y-14015310D02*
X16750472Y-14015310D01*
X16750472Y-14015310D02*
X16731424Y-14005786D01*
X16731424Y-14005786D02*
X16721900Y-13986738D01*
X16721900Y-13986738D02*
X16721900Y-13977214D01*
X16721900Y-13977214D02*
X16731424Y-13958167D01*
X16731424Y-13958167D02*
X16750472Y-13948643D01*
X16750472Y-13948643D02*
X16779043Y-13948643D01*
X16779043Y-13948643D02*
X16798091Y-13958167D01*
X16874281Y-14158167D02*
X16883805Y-14148643D01*
X16883805Y-14148643D02*
X16902853Y-14120072D01*
X16902853Y-14120072D02*
X16912377Y-14101024D01*
X16912377Y-14101024D02*
X16921900Y-14072452D01*
X16921900Y-14072452D02*
X16931424Y-14024833D01*
X16931424Y-14024833D02*
X16931424Y-13986738D01*
X16931424Y-13986738D02*
X16921900Y-13939119D01*
X16921900Y-13939119D02*
X16912377Y-13910548D01*
X16912377Y-13910548D02*
X16902853Y-13891500D01*
X16902853Y-13891500D02*
X16883805Y-13862929D01*
X16883805Y-13862929D02*
X16874281Y-13853405D01*
X17203805Y-14158167D02*
X17194281Y-14148643D01*
X17194281Y-14148643D02*
X17175234Y-14120072D01*
X17175234Y-14120072D02*
X17165710Y-14101024D01*
X17165710Y-14101024D02*
X17156186Y-14072452D01*
X17156186Y-14072452D02*
X17146662Y-14024833D01*
X17146662Y-14024833D02*
X17146662Y-13986738D01*
X17146662Y-13986738D02*
X17156186Y-13939119D01*
X17156186Y-13939119D02*
X17165710Y-13910548D01*
X17165710Y-13910548D02*
X17175234Y-13891500D01*
X17175234Y-13891500D02*
X17194281Y-13862929D01*
X17194281Y-13862929D02*
X17203805Y-13853405D01*
X17279996Y-13948643D02*
X17279996Y-14081976D01*
X17279996Y-13967691D02*
X17289519Y-13958167D01*
X17289519Y-13958167D02*
X17308567Y-13948643D01*
X17308567Y-13948643D02*
X17337138Y-13948643D01*
X17337138Y-13948643D02*
X17356186Y-13958167D01*
X17356186Y-13958167D02*
X17365710Y-13977214D01*
X17365710Y-13977214D02*
X17365710Y-14081976D01*
X17489519Y-14081976D02*
X17470472Y-14072452D01*
X17470472Y-14072452D02*
X17460948Y-14062929D01*
X17460948Y-14062929D02*
X17451424Y-14043881D01*
X17451424Y-14043881D02*
X17451424Y-13986738D01*
X17451424Y-13986738D02*
X17460948Y-13967691D01*
X17460948Y-13967691D02*
X17470472Y-13958167D01*
X17470472Y-13958167D02*
X17489519Y-13948643D01*
X17489519Y-13948643D02*
X17518091Y-13948643D01*
X17518091Y-13948643D02*
X17537138Y-13958167D01*
X17537138Y-13958167D02*
X17546662Y-13967691D01*
X17546662Y-13967691D02*
X17556186Y-13986738D01*
X17556186Y-13986738D02*
X17556186Y-14043881D01*
X17556186Y-14043881D02*
X17546662Y-14062929D01*
X17546662Y-14062929D02*
X17537138Y-14072452D01*
X17537138Y-14072452D02*
X17518091Y-14081976D01*
X17518091Y-14081976D02*
X17489519Y-14081976D01*
X17613329Y-13948643D02*
X17689519Y-13948643D01*
X17641900Y-13881976D02*
X17641900Y-14053405D01*
X17641900Y-14053405D02*
X17651424Y-14072452D01*
X17651424Y-14072452D02*
X17670472Y-14081976D01*
X17670472Y-14081976D02*
X17689519Y-14081976D01*
X17876186Y-13948643D02*
X17876186Y-14148643D01*
X17876186Y-13958167D02*
X17895234Y-13948643D01*
X17895234Y-13948643D02*
X17933329Y-13948643D01*
X17933329Y-13948643D02*
X17952377Y-13958167D01*
X17952377Y-13958167D02*
X17961900Y-13967691D01*
X17961900Y-13967691D02*
X17971424Y-13986738D01*
X17971424Y-13986738D02*
X17971424Y-14043881D01*
X17971424Y-14043881D02*
X17961900Y-14062929D01*
X17961900Y-14062929D02*
X17952377Y-14072452D01*
X17952377Y-14072452D02*
X17933329Y-14081976D01*
X17933329Y-14081976D02*
X17895234Y-14081976D01*
X17895234Y-14081976D02*
X17876186Y-14072452D01*
X18085710Y-14081976D02*
X18066662Y-14072452D01*
X18066662Y-14072452D02*
X18057138Y-14053405D01*
X18057138Y-14053405D02*
X18057138Y-13881976D01*
X18247615Y-14081976D02*
X18247615Y-13977214D01*
X18247615Y-13977214D02*
X18238091Y-13958167D01*
X18238091Y-13958167D02*
X18219043Y-13948643D01*
X18219043Y-13948643D02*
X18180948Y-13948643D01*
X18180948Y-13948643D02*
X18161900Y-13958167D01*
X18247615Y-14072452D02*
X18228567Y-14081976D01*
X18228567Y-14081976D02*
X18180948Y-14081976D01*
X18180948Y-14081976D02*
X18161900Y-14072452D01*
X18161900Y-14072452D02*
X18152377Y-14053405D01*
X18152377Y-14053405D02*
X18152377Y-14034357D01*
X18152377Y-14034357D02*
X18161900Y-14015310D01*
X18161900Y-14015310D02*
X18180948Y-14005786D01*
X18180948Y-14005786D02*
X18228567Y-14005786D01*
X18228567Y-14005786D02*
X18247615Y-13996262D01*
X18314281Y-13948643D02*
X18390472Y-13948643D01*
X18342853Y-13881976D02*
X18342853Y-14053405D01*
X18342853Y-14053405D02*
X18352377Y-14072452D01*
X18352377Y-14072452D02*
X18371424Y-14081976D01*
X18371424Y-14081976D02*
X18390472Y-14081976D01*
X18533329Y-14072452D02*
X18514281Y-14081976D01*
X18514281Y-14081976D02*
X18476186Y-14081976D01*
X18476186Y-14081976D02*
X18457138Y-14072452D01*
X18457138Y-14072452D02*
X18447615Y-14053405D01*
X18447615Y-14053405D02*
X18447615Y-13977214D01*
X18447615Y-13977214D02*
X18457138Y-13958167D01*
X18457138Y-13958167D02*
X18476186Y-13948643D01*
X18476186Y-13948643D02*
X18514281Y-13948643D01*
X18514281Y-13948643D02*
X18533329Y-13958167D01*
X18533329Y-13958167D02*
X18542853Y-13977214D01*
X18542853Y-13977214D02*
X18542853Y-13996262D01*
X18542853Y-13996262D02*
X18447615Y-14015310D01*
X18714281Y-14081976D02*
X18714281Y-13881976D01*
X18714281Y-14072452D02*
X18695234Y-14081976D01*
X18695234Y-14081976D02*
X18657138Y-14081976D01*
X18657138Y-14081976D02*
X18638091Y-14072452D01*
X18638091Y-14072452D02*
X18628567Y-14062929D01*
X18628567Y-14062929D02*
X18619043Y-14043881D01*
X18619043Y-14043881D02*
X18619043Y-13986738D01*
X18619043Y-13986738D02*
X18628567Y-13967691D01*
X18628567Y-13967691D02*
X18638091Y-13958167D01*
X18638091Y-13958167D02*
X18657138Y-13948643D01*
X18657138Y-13948643D02*
X18695234Y-13948643D01*
X18695234Y-13948643D02*
X18714281Y-13958167D01*
X18790472Y-14158167D02*
X18799996Y-14148643D01*
X18799996Y-14148643D02*
X18819043Y-14120072D01*
X18819043Y-14120072D02*
X18828567Y-14101024D01*
X18828567Y-14101024D02*
X18838091Y-14072452D01*
X18838091Y-14072452D02*
X18847615Y-14024833D01*
X18847615Y-14024833D02*
X18847615Y-13986738D01*
X18847615Y-13986738D02*
X18838091Y-13939119D01*
X18838091Y-13939119D02*
X18828567Y-13910548D01*
X18828567Y-13910548D02*
X18819043Y-13891500D01*
X18819043Y-13891500D02*
X18799996Y-13862929D01*
X18799996Y-13862929D02*
X18790472Y-13853405D01*
X12212611Y-14399212D02*
X12212611Y-14257789D01*
X12071189Y-14257789D01*
X12071189Y-14399212D01*
X12212611Y-14399212D01*
X12470471Y-14201976D02*
X12594281Y-14201976D01*
X12594281Y-14201976D02*
X12527614Y-14278167D01*
X12527614Y-14278167D02*
X12556186Y-14278167D01*
X12556186Y-14278167D02*
X12575233Y-14287691D01*
X12575233Y-14287691D02*
X12584757Y-14297214D01*
X12584757Y-14297214D02*
X12594281Y-14316262D01*
X12594281Y-14316262D02*
X12594281Y-14363881D01*
X12594281Y-14363881D02*
X12584757Y-14382929D01*
X12584757Y-14382929D02*
X12575233Y-14392452D01*
X12575233Y-14392452D02*
X12556186Y-14401976D01*
X12556186Y-14401976D02*
X12499043Y-14401976D01*
X12499043Y-14401976D02*
X12479995Y-14392452D01*
X12479995Y-14392452D02*
X12470471Y-14382929D01*
X12679995Y-14382929D02*
X12689519Y-14392452D01*
X12689519Y-14392452D02*
X12679995Y-14401976D01*
X12679995Y-14401976D02*
X12670471Y-14392452D01*
X12670471Y-14392452D02*
X12679995Y-14382929D01*
X12679995Y-14382929D02*
X12679995Y-14401976D01*
X12870471Y-14201976D02*
X12775233Y-14201976D01*
X12775233Y-14201976D02*
X12765710Y-14297214D01*
X12765710Y-14297214D02*
X12775233Y-14287691D01*
X12775233Y-14287691D02*
X12794281Y-14278167D01*
X12794281Y-14278167D02*
X12841900Y-14278167D01*
X12841900Y-14278167D02*
X12860948Y-14287691D01*
X12860948Y-14287691D02*
X12870471Y-14297214D01*
X12870471Y-14297214D02*
X12879995Y-14316262D01*
X12879995Y-14316262D02*
X12879995Y-14363881D01*
X12879995Y-14363881D02*
X12870471Y-14382929D01*
X12870471Y-14382929D02*
X12860948Y-14392452D01*
X12860948Y-14392452D02*
X12841900Y-14401976D01*
X12841900Y-14401976D02*
X12794281Y-14401976D01*
X12794281Y-14401976D02*
X12775233Y-14392452D01*
X12775233Y-14392452D02*
X12765710Y-14382929D01*
X13060948Y-14201976D02*
X12965710Y-14201976D01*
X12965710Y-14201976D02*
X12956186Y-14297214D01*
X12956186Y-14297214D02*
X12965710Y-14287691D01*
X12965710Y-14287691D02*
X12984757Y-14278167D01*
X12984757Y-14278167D02*
X13032376Y-14278167D01*
X13032376Y-14278167D02*
X13051424Y-14287691D01*
X13051424Y-14287691D02*
X13060948Y-14297214D01*
X13060948Y-14297214D02*
X13070471Y-14316262D01*
X13070471Y-14316262D02*
X13070471Y-14363881D01*
X13070471Y-14363881D02*
X13060948Y-14382929D01*
X13060948Y-14382929D02*
X13051424Y-14392452D01*
X13051424Y-14392452D02*
X13032376Y-14401976D01*
X13032376Y-14401976D02*
X12984757Y-14401976D01*
X12984757Y-14401976D02*
X12965710Y-14392452D01*
X12965710Y-14392452D02*
X12956186Y-14382929D01*
X13241900Y-14201976D02*
X13203805Y-14201976D01*
X13203805Y-14201976D02*
X13184757Y-14211500D01*
X13184757Y-14211500D02*
X13175233Y-14221024D01*
X13175233Y-14221024D02*
X13156186Y-14249595D01*
X13156186Y-14249595D02*
X13146662Y-14287691D01*
X13146662Y-14287691D02*
X13146662Y-14363881D01*
X13146662Y-14363881D02*
X13156186Y-14382929D01*
X13156186Y-14382929D02*
X13165710Y-14392452D01*
X13165710Y-14392452D02*
X13184757Y-14401976D01*
X13184757Y-14401976D02*
X13222852Y-14401976D01*
X13222852Y-14401976D02*
X13241900Y-14392452D01*
X13241900Y-14392452D02*
X13251424Y-14382929D01*
X13251424Y-14382929D02*
X13260948Y-14363881D01*
X13260948Y-14363881D02*
X13260948Y-14316262D01*
X13260948Y-14316262D02*
X13251424Y-14297214D01*
X13251424Y-14297214D02*
X13241900Y-14287691D01*
X13241900Y-14287691D02*
X13222852Y-14278167D01*
X13222852Y-14278167D02*
X13184757Y-14278167D01*
X13184757Y-14278167D02*
X13165710Y-14287691D01*
X13165710Y-14287691D02*
X13156186Y-14297214D01*
X13156186Y-14297214D02*
X13146662Y-14316262D01*
X13346662Y-14401976D02*
X13346662Y-14268643D01*
X13346662Y-14287691D02*
X13356186Y-14278167D01*
X13356186Y-14278167D02*
X13375233Y-14268643D01*
X13375233Y-14268643D02*
X13403805Y-14268643D01*
X13403805Y-14268643D02*
X13422852Y-14278167D01*
X13422852Y-14278167D02*
X13432376Y-14297214D01*
X13432376Y-14297214D02*
X13432376Y-14401976D01*
X13432376Y-14297214D02*
X13441900Y-14278167D01*
X13441900Y-14278167D02*
X13460948Y-14268643D01*
X13460948Y-14268643D02*
X13489519Y-14268643D01*
X13489519Y-14268643D02*
X13508567Y-14278167D01*
X13508567Y-14278167D02*
X13518091Y-14297214D01*
X13518091Y-14297214D02*
X13518091Y-14401976D01*
X13613329Y-14401976D02*
X13613329Y-14268643D01*
X13613329Y-14287691D02*
X13622852Y-14278167D01*
X13622852Y-14278167D02*
X13641900Y-14268643D01*
X13641900Y-14268643D02*
X13670472Y-14268643D01*
X13670472Y-14268643D02*
X13689519Y-14278167D01*
X13689519Y-14278167D02*
X13699043Y-14297214D01*
X13699043Y-14297214D02*
X13699043Y-14401976D01*
X13699043Y-14297214D02*
X13708567Y-14278167D01*
X13708567Y-14278167D02*
X13727614Y-14268643D01*
X13727614Y-14268643D02*
X13756186Y-14268643D01*
X13756186Y-14268643D02*
X13775233Y-14278167D01*
X13775233Y-14278167D02*
X13784757Y-14297214D01*
X13784757Y-14297214D02*
X13784757Y-14401976D01*
X14142852Y-14192452D02*
X13971424Y-14449595D01*
X14367614Y-14201976D02*
X14386662Y-14201976D01*
X14386662Y-14201976D02*
X14405710Y-14211500D01*
X14405710Y-14211500D02*
X14415233Y-14221024D01*
X14415233Y-14221024D02*
X14424757Y-14240072D01*
X14424757Y-14240072D02*
X14434281Y-14278167D01*
X14434281Y-14278167D02*
X14434281Y-14325786D01*
X14434281Y-14325786D02*
X14424757Y-14363881D01*
X14424757Y-14363881D02*
X14415233Y-14382929D01*
X14415233Y-14382929D02*
X14405710Y-14392452D01*
X14405710Y-14392452D02*
X14386662Y-14401976D01*
X14386662Y-14401976D02*
X14367614Y-14401976D01*
X14367614Y-14401976D02*
X14348567Y-14392452D01*
X14348567Y-14392452D02*
X14339043Y-14382929D01*
X14339043Y-14382929D02*
X14329519Y-14363881D01*
X14329519Y-14363881D02*
X14319995Y-14325786D01*
X14319995Y-14325786D02*
X14319995Y-14278167D01*
X14319995Y-14278167D02*
X14329519Y-14240072D01*
X14329519Y-14240072D02*
X14339043Y-14221024D01*
X14339043Y-14221024D02*
X14348567Y-14211500D01*
X14348567Y-14211500D02*
X14367614Y-14201976D01*
X14519995Y-14382929D02*
X14529519Y-14392452D01*
X14529519Y-14392452D02*
X14519995Y-14401976D01*
X14519995Y-14401976D02*
X14510472Y-14392452D01*
X14510472Y-14392452D02*
X14519995Y-14382929D01*
X14519995Y-14382929D02*
X14519995Y-14401976D01*
X14719995Y-14401976D02*
X14605710Y-14401976D01*
X14662852Y-14401976D02*
X14662852Y-14201976D01*
X14662852Y-14201976D02*
X14643805Y-14230548D01*
X14643805Y-14230548D02*
X14624757Y-14249595D01*
X14624757Y-14249595D02*
X14605710Y-14259119D01*
X14891424Y-14268643D02*
X14891424Y-14401976D01*
X14843805Y-14192452D02*
X14796186Y-14335310D01*
X14796186Y-14335310D02*
X14919995Y-14335310D01*
X15034281Y-14201976D02*
X15053329Y-14201976D01*
X15053329Y-14201976D02*
X15072376Y-14211500D01*
X15072376Y-14211500D02*
X15081900Y-14221024D01*
X15081900Y-14221024D02*
X15091424Y-14240072D01*
X15091424Y-14240072D02*
X15100948Y-14278167D01*
X15100948Y-14278167D02*
X15100948Y-14325786D01*
X15100948Y-14325786D02*
X15091424Y-14363881D01*
X15091424Y-14363881D02*
X15081900Y-14382929D01*
X15081900Y-14382929D02*
X15072376Y-14392452D01*
X15072376Y-14392452D02*
X15053329Y-14401976D01*
X15053329Y-14401976D02*
X15034281Y-14401976D01*
X15034281Y-14401976D02*
X15015233Y-14392452D01*
X15015233Y-14392452D02*
X15005710Y-14382929D01*
X15005710Y-14382929D02*
X14996186Y-14363881D01*
X14996186Y-14363881D02*
X14986662Y-14325786D01*
X14986662Y-14325786D02*
X14986662Y-14278167D01*
X14986662Y-14278167D02*
X14996186Y-14240072D01*
X14996186Y-14240072D02*
X15005710Y-14221024D01*
X15005710Y-14221024D02*
X15015233Y-14211500D01*
X15015233Y-14211500D02*
X15034281Y-14201976D01*
X15224757Y-14201976D02*
X15243805Y-14201976D01*
X15243805Y-14201976D02*
X15262853Y-14211500D01*
X15262853Y-14211500D02*
X15272376Y-14221024D01*
X15272376Y-14221024D02*
X15281900Y-14240072D01*
X15281900Y-14240072D02*
X15291424Y-14278167D01*
X15291424Y-14278167D02*
X15291424Y-14325786D01*
X15291424Y-14325786D02*
X15281900Y-14363881D01*
X15281900Y-14363881D02*
X15272376Y-14382929D01*
X15272376Y-14382929D02*
X15262853Y-14392452D01*
X15262853Y-14392452D02*
X15243805Y-14401976D01*
X15243805Y-14401976D02*
X15224757Y-14401976D01*
X15224757Y-14401976D02*
X15205710Y-14392452D01*
X15205710Y-14392452D02*
X15196186Y-14382929D01*
X15196186Y-14382929D02*
X15186662Y-14363881D01*
X15186662Y-14363881D02*
X15177138Y-14325786D01*
X15177138Y-14325786D02*
X15177138Y-14278167D01*
X15177138Y-14278167D02*
X15186662Y-14240072D01*
X15186662Y-14240072D02*
X15196186Y-14221024D01*
X15196186Y-14221024D02*
X15205710Y-14211500D01*
X15205710Y-14211500D02*
X15224757Y-14201976D01*
X15367614Y-14201976D02*
X15367614Y-14240072D01*
X15443805Y-14201976D02*
X15443805Y-14240072D01*
X15706662Y-14478167D02*
X15697138Y-14468643D01*
X15697138Y-14468643D02*
X15678091Y-14440072D01*
X15678091Y-14440072D02*
X15668567Y-14421024D01*
X15668567Y-14421024D02*
X15659043Y-14392452D01*
X15659043Y-14392452D02*
X15649519Y-14344833D01*
X15649519Y-14344833D02*
X15649519Y-14306738D01*
X15649519Y-14306738D02*
X15659043Y-14259119D01*
X15659043Y-14259119D02*
X15668567Y-14230548D01*
X15668567Y-14230548D02*
X15678091Y-14211500D01*
X15678091Y-14211500D02*
X15697138Y-14182929D01*
X15697138Y-14182929D02*
X15706662Y-14173405D01*
X15773329Y-14221024D02*
X15782853Y-14211500D01*
X15782853Y-14211500D02*
X15801900Y-14201976D01*
X15801900Y-14201976D02*
X15849519Y-14201976D01*
X15849519Y-14201976D02*
X15868567Y-14211500D01*
X15868567Y-14211500D02*
X15878091Y-14221024D01*
X15878091Y-14221024D02*
X15887614Y-14240072D01*
X15887614Y-14240072D02*
X15887614Y-14259119D01*
X15887614Y-14259119D02*
X15878091Y-14287691D01*
X15878091Y-14287691D02*
X15763805Y-14401976D01*
X15763805Y-14401976D02*
X15887614Y-14401976D01*
X16093329Y-14401976D02*
X16093329Y-14201976D01*
X16179043Y-14401976D02*
X16179043Y-14297214D01*
X16179043Y-14297214D02*
X16169519Y-14278167D01*
X16169519Y-14278167D02*
X16150472Y-14268643D01*
X16150472Y-14268643D02*
X16121900Y-14268643D01*
X16121900Y-14268643D02*
X16102853Y-14278167D01*
X16102853Y-14278167D02*
X16093329Y-14287691D01*
X16302853Y-14401976D02*
X16283805Y-14392452D01*
X16283805Y-14392452D02*
X16274281Y-14382929D01*
X16274281Y-14382929D02*
X16264757Y-14363881D01*
X16264757Y-14363881D02*
X16264757Y-14306738D01*
X16264757Y-14306738D02*
X16274281Y-14287691D01*
X16274281Y-14287691D02*
X16283805Y-14278167D01*
X16283805Y-14278167D02*
X16302853Y-14268643D01*
X16302853Y-14268643D02*
X16331424Y-14268643D01*
X16331424Y-14268643D02*
X16350472Y-14278167D01*
X16350472Y-14278167D02*
X16359995Y-14287691D01*
X16359995Y-14287691D02*
X16369519Y-14306738D01*
X16369519Y-14306738D02*
X16369519Y-14363881D01*
X16369519Y-14363881D02*
X16359995Y-14382929D01*
X16359995Y-14382929D02*
X16350472Y-14392452D01*
X16350472Y-14392452D02*
X16331424Y-14401976D01*
X16331424Y-14401976D02*
X16302853Y-14401976D01*
X16483805Y-14401976D02*
X16464757Y-14392452D01*
X16464757Y-14392452D02*
X16455234Y-14373405D01*
X16455234Y-14373405D02*
X16455234Y-14201976D01*
X16636186Y-14392452D02*
X16617138Y-14401976D01*
X16617138Y-14401976D02*
X16579043Y-14401976D01*
X16579043Y-14401976D02*
X16559995Y-14392452D01*
X16559995Y-14392452D02*
X16550472Y-14373405D01*
X16550472Y-14373405D02*
X16550472Y-14297214D01*
X16550472Y-14297214D02*
X16559995Y-14278167D01*
X16559995Y-14278167D02*
X16579043Y-14268643D01*
X16579043Y-14268643D02*
X16617138Y-14268643D01*
X16617138Y-14268643D02*
X16636186Y-14278167D01*
X16636186Y-14278167D02*
X16645710Y-14297214D01*
X16645710Y-14297214D02*
X16645710Y-14316262D01*
X16645710Y-14316262D02*
X16550472Y-14335310D01*
X16721900Y-14392452D02*
X16740948Y-14401976D01*
X16740948Y-14401976D02*
X16779043Y-14401976D01*
X16779043Y-14401976D02*
X16798091Y-14392452D01*
X16798091Y-14392452D02*
X16807615Y-14373405D01*
X16807615Y-14373405D02*
X16807615Y-14363881D01*
X16807615Y-14363881D02*
X16798091Y-14344833D01*
X16798091Y-14344833D02*
X16779043Y-14335310D01*
X16779043Y-14335310D02*
X16750472Y-14335310D01*
X16750472Y-14335310D02*
X16731424Y-14325786D01*
X16731424Y-14325786D02*
X16721900Y-14306738D01*
X16721900Y-14306738D02*
X16721900Y-14297214D01*
X16721900Y-14297214D02*
X16731424Y-14278167D01*
X16731424Y-14278167D02*
X16750472Y-14268643D01*
X16750472Y-14268643D02*
X16779043Y-14268643D01*
X16779043Y-14268643D02*
X16798091Y-14278167D01*
X16874281Y-14478167D02*
X16883805Y-14468643D01*
X16883805Y-14468643D02*
X16902853Y-14440072D01*
X16902853Y-14440072D02*
X16912377Y-14421024D01*
X16912377Y-14421024D02*
X16921900Y-14392452D01*
X16921900Y-14392452D02*
X16931424Y-14344833D01*
X16931424Y-14344833D02*
X16931424Y-14306738D01*
X16931424Y-14306738D02*
X16921900Y-14259119D01*
X16921900Y-14259119D02*
X16912377Y-14230548D01*
X16912377Y-14230548D02*
X16902853Y-14211500D01*
X16902853Y-14211500D02*
X16883805Y-14182929D01*
X16883805Y-14182929D02*
X16874281Y-14173405D01*
X17203805Y-14478167D02*
X17194281Y-14468643D01*
X17194281Y-14468643D02*
X17175234Y-14440072D01*
X17175234Y-14440072D02*
X17165710Y-14421024D01*
X17165710Y-14421024D02*
X17156186Y-14392452D01*
X17156186Y-14392452D02*
X17146662Y-14344833D01*
X17146662Y-14344833D02*
X17146662Y-14306738D01*
X17146662Y-14306738D02*
X17156186Y-14259119D01*
X17156186Y-14259119D02*
X17165710Y-14230548D01*
X17165710Y-14230548D02*
X17175234Y-14211500D01*
X17175234Y-14211500D02*
X17194281Y-14182929D01*
X17194281Y-14182929D02*
X17203805Y-14173405D01*
X17279996Y-14268643D02*
X17279996Y-14401976D01*
X17279996Y-14287691D02*
X17289519Y-14278167D01*
X17289519Y-14278167D02*
X17308567Y-14268643D01*
X17308567Y-14268643D02*
X17337138Y-14268643D01*
X17337138Y-14268643D02*
X17356186Y-14278167D01*
X17356186Y-14278167D02*
X17365710Y-14297214D01*
X17365710Y-14297214D02*
X17365710Y-14401976D01*
X17489519Y-14401976D02*
X17470472Y-14392452D01*
X17470472Y-14392452D02*
X17460948Y-14382929D01*
X17460948Y-14382929D02*
X17451424Y-14363881D01*
X17451424Y-14363881D02*
X17451424Y-14306738D01*
X17451424Y-14306738D02*
X17460948Y-14287691D01*
X17460948Y-14287691D02*
X17470472Y-14278167D01*
X17470472Y-14278167D02*
X17489519Y-14268643D01*
X17489519Y-14268643D02*
X17518091Y-14268643D01*
X17518091Y-14268643D02*
X17537138Y-14278167D01*
X17537138Y-14278167D02*
X17546662Y-14287691D01*
X17546662Y-14287691D02*
X17556186Y-14306738D01*
X17556186Y-14306738D02*
X17556186Y-14363881D01*
X17556186Y-14363881D02*
X17546662Y-14382929D01*
X17546662Y-14382929D02*
X17537138Y-14392452D01*
X17537138Y-14392452D02*
X17518091Y-14401976D01*
X17518091Y-14401976D02*
X17489519Y-14401976D01*
X17613329Y-14268643D02*
X17689519Y-14268643D01*
X17641900Y-14201976D02*
X17641900Y-14373405D01*
X17641900Y-14373405D02*
X17651424Y-14392452D01*
X17651424Y-14392452D02*
X17670472Y-14401976D01*
X17670472Y-14401976D02*
X17689519Y-14401976D01*
X17876186Y-14268643D02*
X17876186Y-14468643D01*
X17876186Y-14278167D02*
X17895234Y-14268643D01*
X17895234Y-14268643D02*
X17933329Y-14268643D01*
X17933329Y-14268643D02*
X17952377Y-14278167D01*
X17952377Y-14278167D02*
X17961900Y-14287691D01*
X17961900Y-14287691D02*
X17971424Y-14306738D01*
X17971424Y-14306738D02*
X17971424Y-14363881D01*
X17971424Y-14363881D02*
X17961900Y-14382929D01*
X17961900Y-14382929D02*
X17952377Y-14392452D01*
X17952377Y-14392452D02*
X17933329Y-14401976D01*
X17933329Y-14401976D02*
X17895234Y-14401976D01*
X17895234Y-14401976D02*
X17876186Y-14392452D01*
X18085710Y-14401976D02*
X18066662Y-14392452D01*
X18066662Y-14392452D02*
X18057138Y-14373405D01*
X18057138Y-14373405D02*
X18057138Y-14201976D01*
X18247615Y-14401976D02*
X18247615Y-14297214D01*
X18247615Y-14297214D02*
X18238091Y-14278167D01*
X18238091Y-14278167D02*
X18219043Y-14268643D01*
X18219043Y-14268643D02*
X18180948Y-14268643D01*
X18180948Y-14268643D02*
X18161900Y-14278167D01*
X18247615Y-14392452D02*
X18228567Y-14401976D01*
X18228567Y-14401976D02*
X18180948Y-14401976D01*
X18180948Y-14401976D02*
X18161900Y-14392452D01*
X18161900Y-14392452D02*
X18152377Y-14373405D01*
X18152377Y-14373405D02*
X18152377Y-14354357D01*
X18152377Y-14354357D02*
X18161900Y-14335310D01*
X18161900Y-14335310D02*
X18180948Y-14325786D01*
X18180948Y-14325786D02*
X18228567Y-14325786D01*
X18228567Y-14325786D02*
X18247615Y-14316262D01*
X18314281Y-14268643D02*
X18390472Y-14268643D01*
X18342853Y-14201976D02*
X18342853Y-14373405D01*
X18342853Y-14373405D02*
X18352377Y-14392452D01*
X18352377Y-14392452D02*
X18371424Y-14401976D01*
X18371424Y-14401976D02*
X18390472Y-14401976D01*
X18533329Y-14392452D02*
X18514281Y-14401976D01*
X18514281Y-14401976D02*
X18476186Y-14401976D01*
X18476186Y-14401976D02*
X18457138Y-14392452D01*
X18457138Y-14392452D02*
X18447615Y-14373405D01*
X18447615Y-14373405D02*
X18447615Y-14297214D01*
X18447615Y-14297214D02*
X18457138Y-14278167D01*
X18457138Y-14278167D02*
X18476186Y-14268643D01*
X18476186Y-14268643D02*
X18514281Y-14268643D01*
X18514281Y-14268643D02*
X18533329Y-14278167D01*
X18533329Y-14278167D02*
X18542853Y-14297214D01*
X18542853Y-14297214D02*
X18542853Y-14316262D01*
X18542853Y-14316262D02*
X18447615Y-14335310D01*
X18714281Y-14401976D02*
X18714281Y-14201976D01*
X18714281Y-14392452D02*
X18695234Y-14401976D01*
X18695234Y-14401976D02*
X18657138Y-14401976D01*
X18657138Y-14401976D02*
X18638091Y-14392452D01*
X18638091Y-14392452D02*
X18628567Y-14382929D01*
X18628567Y-14382929D02*
X18619043Y-14363881D01*
X18619043Y-14363881D02*
X18619043Y-14306738D01*
X18619043Y-14306738D02*
X18628567Y-14287691D01*
X18628567Y-14287691D02*
X18638091Y-14278167D01*
X18638091Y-14278167D02*
X18657138Y-14268643D01*
X18657138Y-14268643D02*
X18695234Y-14268643D01*
X18695234Y-14268643D02*
X18714281Y-14278167D01*
X18790472Y-14478167D02*
X18799996Y-14468643D01*
X18799996Y-14468643D02*
X18819043Y-14440072D01*
X18819043Y-14440072D02*
X18828567Y-14421024D01*
X18828567Y-14421024D02*
X18838091Y-14392452D01*
X18838091Y-14392452D02*
X18847615Y-14344833D01*
X18847615Y-14344833D02*
X18847615Y-14306738D01*
X18847615Y-14306738D02*
X18838091Y-14259119D01*
X18838091Y-14259119D02*
X18828567Y-14230548D01*
X18828567Y-14230548D02*
X18819043Y-14211500D01*
X18819043Y-14211500D02*
X18799996Y-14182929D01*
X18799996Y-14182929D02*
X18790472Y-14173405D01*
M02*
