M48
; DRILL file {KiCad 6.0.2+dfsg-1} date Sun 15 Jan 2023 11:35:40 AM PST
; FORMAT={-:-/ absolute / metric / decimal}
; #@! TF.CreationDate,2023-01-15T11:35:40-08:00
; #@! TF.GenerationSoftware,Kicad,Pcbnew,6.0.2+dfsg-1
; #@! TF.FileFunction,Plated,1,4,PTH
FMAT,2
METRIC
; #@! TA.AperFunction,Plated,PTH,ComponentDrill
T1C0.200
; #@! TA.AperFunction,Plated,PTH,ViaDrill
T2C0.400
; #@! TA.AperFunction,Plated,PTH,ComponentDrill
T3C0.500
; #@! TA.AperFunction,Plated,PTH,ComponentDrill
T4C0.600
; #@! TA.AperFunction,Plated,PTH,ComponentDrill
T5C1.000
; #@! TA.AperFunction,Plated,PTH,ComponentDrill
T6C1.016
; #@! TA.AperFunction,Plated,PTH,ComponentDrill
T7C1.321
%
G90
G05
T1
X168.729Y-92.679
X168.729Y-93.854
X168.729Y-95.029
X168.729Y-96.204
X168.729Y-97.379
X169.729Y-92.679
X169.729Y-93.854
X169.729Y-95.029
X169.729Y-96.204
X169.729Y-97.379
X170.729Y-92.679
X170.729Y-93.854
X170.729Y-95.029
X170.729Y-96.204
X170.729Y-97.379
X171.729Y-92.679
X171.729Y-93.854
X171.729Y-95.029
X171.729Y-96.204
X171.729Y-97.379
X172.729Y-92.679
X172.729Y-93.854
X172.729Y-95.029
X172.729Y-96.204
X172.729Y-97.379
T2
X146.091Y-120.175
X148.377Y-116.873
X149.647Y-120.175
X153.716Y-66.162
X157.521Y-120.175
X159.299Y-77.249
X159.431Y-56.002
X159.807Y-116.873
X161.077Y-120.175
X161.815Y-96.289
X162.168Y-102.903
X162.168Y-103.919
X162.168Y-104.935
X162.168Y-105.951
X162.168Y-106.967
X162.168Y-107.983
X162.676Y-101.379
X163.692Y-101.379
X163.692Y-108.491
X164.523Y-96.279
X164.708Y-101.379
X164.708Y-108.491
X164.914Y-87.932
X165.618Y-91.19
X165.724Y-101.379
X165.724Y-108.491
X165.781Y-56.002
X166.74Y-108.491
X167.686Y-66.162
X167.756Y-108.491
X168.264Y-101.887
X168.264Y-102.903
X168.264Y-103.919
X168.264Y-104.935
X168.264Y-105.951
X168.264Y-106.967
X168.443Y-80.043
X168.951Y-120.175
X169.257Y-84.884
X169.459Y-102.156
X170.245Y-106.106
X170.527Y-84.884
X170.577Y-89.06
X171.237Y-116.873
X171.543Y-89.075
X171.797Y-84.884
X172.507Y-62.517
X172.507Y-120.175
X173.015Y-76.233
X173.777Y-107.221
X174.285Y-60.231
X174.539Y-54.959
X175.555Y-67.597
X175.809Y-54.959
X176.063Y-88.425
X176.063Y-89.949
X176.063Y-91.473
X176.825Y-67.597
X177.079Y-54.959
X177.079Y-102.141
X177.587Y-62.517
X177.841Y-96.934
X178.095Y-67.597
X179.111Y-62.517
X179.619Y-86.901
X179.619Y-88.425
X179.619Y-89.949
X179.619Y-91.473
X179.619Y-99.601
X179.619Y-101.887
X180.127Y-120.175
X180.889Y-60.231
X181.143Y-54.959
X181.397Y-96.934
X181.651Y-65.565
X182.159Y-67.597
X182.413Y-54.959
X182.413Y-116.873
X183.429Y-41.181
X183.429Y-42.451
X183.429Y-45.499
X183.429Y-67.597
X183.683Y-54.959
X183.683Y-120.175
X184.191Y-62.517
X184.191Y-104.681
X184.699Y-41.181
X184.699Y-42.451
X184.699Y-67.597
X188.763Y-48.547
X190.033Y-45.499
X190.795Y-46.515
X191.811Y-120.175
X192.573Y-38.895
X193.081Y-41.562
X194.097Y-41.562
X194.097Y-116.873
X194.605Y-69.883
X195.113Y-41.562
X195.367Y-44.229
X195.367Y-45.499
X195.367Y-46.769
X195.367Y-120.175
X196.383Y-44.229
X196.383Y-46.769
X197.378Y-114.814
X198.701Y-124.633
X200.955Y-39.657
X201.545Y-43.467
X202.003Y-126.411
X204.035Y-124.633
X204.511Y-37.117
X204.511Y-39.911
X205.051Y-123.617
X205.051Y-126.411
X207.559Y-43.467
X208.067Y-39.657
X208.321Y-104.681
X208.353Y-124.633
X209.845Y-108.237
X215.179Y-72.296
X215.941Y-105.697
X215.941Y-107.221
T3
X162.601Y-83.599
X173.015Y-103.68
X175.555Y-69.883
X180.127Y-104.173
X182.159Y-69.883
X200.701Y-45.499
X202.733Y-45.499
X206.289Y-45.499
X208.321Y-45.499
T5
X170.729Y-52.865
X173.777Y-110.269
X176.317Y-110.269
X178.857Y-110.269
X181.397Y-110.269
X185.964Y-33.815
X187.239Y-66.84
X187.239Y-69.38
X188.504Y-33.815
X212.009Y-69.121
X214.549Y-69.121
T6
X196.129Y-76.995
X196.129Y-79.535
X196.129Y-82.075
X196.129Y-84.615
X196.129Y-87.155
X196.129Y-89.695
X196.129Y-92.235
X196.129Y-94.775
X198.669Y-76.995
X198.669Y-79.535
X198.669Y-82.075
X198.669Y-84.615
X198.669Y-87.155
X198.669Y-89.695
X198.669Y-92.235
X198.669Y-94.775
X201.209Y-76.995
X201.209Y-79.535
X201.209Y-82.075
X201.209Y-84.615
X201.209Y-87.155
X201.209Y-89.695
X201.209Y-92.235
X201.209Y-94.775
X203.749Y-76.995
X203.749Y-79.535
X203.749Y-82.075
X203.749Y-84.615
X203.749Y-87.155
X203.749Y-89.695
X203.749Y-92.235
X203.749Y-94.775
X206.289Y-76.995
X206.289Y-79.535
X206.289Y-82.075
X206.289Y-84.615
X206.289Y-87.155
X206.289Y-89.695
X206.289Y-92.235
X206.289Y-94.775
X208.829Y-76.995
X208.829Y-79.535
X208.829Y-82.075
X208.829Y-84.615
X208.829Y-87.155
X208.829Y-89.695
X208.829Y-92.235
X208.829Y-94.775
X211.369Y-76.995
X211.369Y-79.535
X211.369Y-82.075
X211.369Y-84.615
X211.369Y-87.155
X211.369Y-89.695
X211.369Y-92.235
X211.369Y-94.775
X213.909Y-76.995
X213.909Y-79.535
X213.909Y-82.075
X213.909Y-84.615
X213.909Y-87.155
X213.909Y-89.695
X213.909Y-92.235
X213.909Y-94.775
T7
X135.169Y-43.404
X135.169Y-115.667
T4
X200.191Y-34.215G85X200.191Y-33.415
G05
X200.191Y-38.545G85X200.191Y-37.445
G05
X208.831Y-34.215G85X208.831Y-33.415
G05
X208.831Y-38.545G85X208.831Y-37.445
G05
T0
M30
