%FSLAX45Y45*%
G04 Gerber Fmt 4.5, Leading zero omitted, Abs format (unit mm)*
G04 Created by KiCad (PCBNEW 6.0.2+dfsg-1) date 2023-01-15 11:35:42*
%MOMM*%
%LPD*%
G01*
G04 APERTURE LIST*
%TA.AperFunction,Profile*%
%ADD10C,0.100000*%
%TD*%
%ADD11C,0.200000*%
%ADD12C,0.020000*%
%ADD13C,0.040000*%
%ADD14C,0.050000*%
%ADD15C,0.060000*%
%ADD16C,0.100000*%
%ADD17C,0.101600*%
%ADD18C,0.132080*%
G04 APERTURE END LIST*
D10*
X21898900Y-3635500D02*
G75*
G03*
X21390900Y-3127500I-508000J0D01*
G01*
X17707900Y-3127500D02*
G75*
G03*
X17580900Y-3254500I0J-127000D01*
G01*
X17453900Y-5083300D02*
X16691900Y-5083300D01*
X12754900Y-3127500D02*
G75*
G03*
X12246900Y-3635500I0J-508000D01*
G01*
X12754900Y-12779500D02*
X21390900Y-12779500D01*
X17707900Y-3127500D02*
X21390900Y-3127500D01*
X16564900Y-3254500D02*
G75*
G03*
X16437900Y-3127500I-127000J0D01*
G01*
X12246900Y-3635500D02*
X12246900Y-12271500D01*
X17580900Y-3254500D02*
X17580900Y-4956300D01*
X16437900Y-3127500D02*
X12754900Y-3127500D01*
X16564900Y-4956300D02*
G75*
G03*
X16691900Y-5083300I127000J0D01*
G01*
X21390900Y-12779500D02*
G75*
G03*
X21898900Y-12271500I0J508000D01*
G01*
X21898900Y-12271500D02*
X21898900Y-3635500D01*
X17453900Y-5083300D02*
G75*
G03*
X17580900Y-4956300I0J127000D01*
G01*
X16564900Y-4956300D02*
X16564900Y-3254500D01*
X12246900Y-12271500D02*
G75*
G03*
X12754900Y-12779500I508000J0D01*
G01*
D11*
D12*
X16862900Y-9257900D02*
X16882900Y-9277900D01*
X16882900Y-9257900D02*
X16862900Y-9277900D01*
X16862900Y-9375400D02*
X16882900Y-9395400D01*
X16882900Y-9375400D02*
X16862900Y-9395400D01*
X16862900Y-9492900D02*
X16882900Y-9512900D01*
X16882900Y-9492900D02*
X16862900Y-9512900D01*
X16862900Y-9610400D02*
X16882900Y-9630400D01*
X16882900Y-9610400D02*
X16862900Y-9630400D01*
X16862900Y-9727900D02*
X16882900Y-9747900D01*
X16882900Y-9727900D02*
X16862900Y-9747900D01*
X16962900Y-9257900D02*
X16982900Y-9277900D01*
X16982900Y-9257900D02*
X16962900Y-9277900D01*
X16962900Y-9375400D02*
X16982900Y-9395400D01*
X16982900Y-9375400D02*
X16962900Y-9395400D01*
X16962900Y-9492900D02*
X16982900Y-9512900D01*
X16982900Y-9492900D02*
X16962900Y-9512900D01*
X16962900Y-9610400D02*
X16982900Y-9630400D01*
X16982900Y-9610400D02*
X16962900Y-9630400D01*
X16962900Y-9727900D02*
X16982900Y-9747900D01*
X16982900Y-9727900D02*
X16962900Y-9747900D01*
X17062900Y-9257900D02*
X17082900Y-9277900D01*
X17082900Y-9257900D02*
X17062900Y-9277900D01*
X17062900Y-9375400D02*
X17082900Y-9395400D01*
X17082900Y-9375400D02*
X17062900Y-9395400D01*
X17062900Y-9492900D02*
X17082900Y-9512900D01*
X17082900Y-9492900D02*
X17062900Y-9512900D01*
X17062900Y-9610400D02*
X17082900Y-9630400D01*
X17082900Y-9610400D02*
X17062900Y-9630400D01*
X17062900Y-9727900D02*
X17082900Y-9747900D01*
X17082900Y-9727900D02*
X17062900Y-9747900D01*
X17162900Y-9257900D02*
X17182900Y-9277900D01*
X17182900Y-9257900D02*
X17162900Y-9277900D01*
X17162900Y-9375400D02*
X17182900Y-9395400D01*
X17182900Y-9375400D02*
X17162900Y-9395400D01*
X17162900Y-9492900D02*
X17182900Y-9512900D01*
X17182900Y-9492900D02*
X17162900Y-9512900D01*
X17162900Y-9610400D02*
X17182900Y-9630400D01*
X17182900Y-9610400D02*
X17162900Y-9630400D01*
X17162900Y-9727900D02*
X17182900Y-9747900D01*
X17182900Y-9727900D02*
X17162900Y-9747900D01*
X17262900Y-9257900D02*
X17282900Y-9277900D01*
X17282900Y-9257900D02*
X17262900Y-9277900D01*
X17262900Y-9375400D02*
X17282900Y-9395400D01*
X17282900Y-9375400D02*
X17262900Y-9395400D01*
X17262900Y-9492900D02*
X17282900Y-9512900D01*
X17282900Y-9492900D02*
X17262900Y-9512900D01*
X17262900Y-9610400D02*
X17282900Y-9630400D01*
X17282900Y-9610400D02*
X17262900Y-9630400D01*
X17262900Y-9727900D02*
X17282900Y-9747900D01*
X17282900Y-9727900D02*
X17262900Y-9747900D01*
D13*
X14629100Y-12017500D02*
G75*
G03*
X14629100Y-12017500I-20000J0D01*
G01*
X14857700Y-11687300D02*
G75*
G03*
X14857700Y-11687300I-20000J0D01*
G01*
X14984700Y-12017500D02*
G75*
G03*
X14984700Y-12017500I-20000J0D01*
G01*
X15391565Y-6616163D02*
G75*
G03*
X15391565Y-6616163I-20000J0D01*
G01*
X15772100Y-12017500D02*
G75*
G03*
X15772100Y-12017500I-20000J0D01*
G01*
X15949900Y-7724900D02*
G75*
G03*
X15949900Y-7724900I-20000J0D01*
G01*
X15963065Y-5600163D02*
G75*
G03*
X15963065Y-5600163I-20000J0D01*
G01*
X16000700Y-11687300D02*
G75*
G03*
X16000700Y-11687300I-20000J0D01*
G01*
X16127700Y-12017500D02*
G75*
G03*
X16127700Y-12017500I-20000J0D01*
G01*
X16201480Y-9628860D02*
G75*
G03*
X16201480Y-9628860I-20000J0D01*
G01*
X16236800Y-10290300D02*
G75*
G03*
X16236800Y-10290300I-20000J0D01*
G01*
X16236800Y-10391900D02*
G75*
G03*
X16236800Y-10391900I-20000J0D01*
G01*
X16236800Y-10493500D02*
G75*
G03*
X16236800Y-10493500I-20000J0D01*
G01*
X16236800Y-10595100D02*
G75*
G03*
X16236800Y-10595100I-20000J0D01*
G01*
X16236800Y-10696700D02*
G75*
G03*
X16236800Y-10696700I-20000J0D01*
G01*
X16236800Y-10798300D02*
G75*
G03*
X16236800Y-10798300I-20000J0D01*
G01*
X16287600Y-10137900D02*
G75*
G03*
X16287600Y-10137900I-20000J0D01*
G01*
X16389200Y-10137900D02*
G75*
G03*
X16389200Y-10137900I-20000J0D01*
G01*
X16389200Y-10849100D02*
G75*
G03*
X16389200Y-10849100I-20000J0D01*
G01*
X16472300Y-9627900D02*
G75*
G03*
X16472300Y-9627900I-20000J0D01*
G01*
X16490800Y-10137900D02*
G75*
G03*
X16490800Y-10137900I-20000J0D01*
G01*
X16490800Y-10849100D02*
G75*
G03*
X16490800Y-10849100I-20000J0D01*
G01*
X16511360Y-8793200D02*
G75*
G03*
X16511360Y-8793200I-20000J0D01*
G01*
X16581830Y-9118970D02*
G75*
G03*
X16581830Y-9118970I-20000J0D01*
G01*
X16592400Y-10137900D02*
G75*
G03*
X16592400Y-10137900I-20000J0D01*
G01*
X16592400Y-10849100D02*
G75*
G03*
X16592400Y-10849100I-20000J0D01*
G01*
X16598065Y-5600163D02*
G75*
G03*
X16598065Y-5600163I-20000J0D01*
G01*
X16694000Y-10849100D02*
G75*
G03*
X16694000Y-10849100I-20000J0D01*
G01*
X16788565Y-6616163D02*
G75*
G03*
X16788565Y-6616163I-20000J0D01*
G01*
X16795600Y-10849100D02*
G75*
G03*
X16795600Y-10849100I-20000J0D01*
G01*
X16846400Y-10188700D02*
G75*
G03*
X16846400Y-10188700I-20000J0D01*
G01*
X16846400Y-10290300D02*
G75*
G03*
X16846400Y-10290300I-20000J0D01*
G01*
X16846400Y-10391900D02*
G75*
G03*
X16846400Y-10391900I-20000J0D01*
G01*
X16846400Y-10493500D02*
G75*
G03*
X16846400Y-10493500I-20000J0D01*
G01*
X16846400Y-10595100D02*
G75*
G03*
X16846400Y-10595100I-20000J0D01*
G01*
X16846400Y-10696700D02*
G75*
G03*
X16846400Y-10696700I-20000J0D01*
G01*
X16864300Y-8004300D02*
G75*
G03*
X16864300Y-8004300I-20000J0D01*
G01*
X16915100Y-12017500D02*
G75*
G03*
X16915100Y-12017500I-20000J0D01*
G01*
X16945700Y-8488400D02*
G75*
G03*
X16945700Y-8488400I-20000J0D01*
G01*
X16965900Y-10215600D02*
G75*
G03*
X16965900Y-10215600I-20000J0D01*
G01*
X17044520Y-10610600D02*
G75*
G03*
X17044520Y-10610600I-20000J0D01*
G01*
X17072700Y-8488400D02*
G75*
G03*
X17072700Y-8488400I-20000J0D01*
G01*
X17077660Y-8906000D02*
G75*
G03*
X17077660Y-8906000I-20000J0D01*
G01*
X17143700Y-11687300D02*
G75*
G03*
X17143700Y-11687300I-20000J0D01*
G01*
X17174300Y-8907500D02*
G75*
G03*
X17174300Y-8907500I-20000J0D01*
G01*
X17199700Y-8488400D02*
G75*
G03*
X17199700Y-8488400I-20000J0D01*
G01*
X17270700Y-6251700D02*
G75*
G03*
X17270700Y-6251700I-20000J0D01*
G01*
X17270700Y-12017500D02*
G75*
G03*
X17270700Y-12017500I-20000J0D01*
G01*
X17321500Y-7623300D02*
G75*
G03*
X17321500Y-7623300I-20000J0D01*
G01*
X17397700Y-10722100D02*
G75*
G03*
X17397700Y-10722100I-20000J0D01*
G01*
X17448500Y-6023100D02*
G75*
G03*
X17448500Y-6023100I-20000J0D01*
G01*
X17473900Y-5495850D02*
G75*
G03*
X17473900Y-5495850I-20000J0D01*
G01*
X17575500Y-6759700D02*
G75*
G03*
X17575500Y-6759700I-20000J0D01*
G01*
X17600900Y-5495850D02*
G75*
G03*
X17600900Y-5495850I-20000J0D01*
G01*
X17626300Y-8842500D02*
G75*
G03*
X17626300Y-8842500I-20000J0D01*
G01*
X17626300Y-8994900D02*
G75*
G03*
X17626300Y-8994900I-20000J0D01*
G01*
X17626300Y-9147300D02*
G75*
G03*
X17626300Y-9147300I-20000J0D01*
G01*
X17702500Y-6759700D02*
G75*
G03*
X17702500Y-6759700I-20000J0D01*
G01*
X17727900Y-5495850D02*
G75*
G03*
X17727900Y-5495850I-20000J0D01*
G01*
X17727900Y-10214100D02*
G75*
G03*
X17727900Y-10214100I-20000J0D01*
G01*
X17778700Y-6251700D02*
G75*
G03*
X17778700Y-6251700I-20000J0D01*
G01*
X17804100Y-9693400D02*
G75*
G03*
X17804100Y-9693400I-20000J0D01*
G01*
X17829500Y-6759700D02*
G75*
G03*
X17829500Y-6759700I-20000J0D01*
G01*
X17931100Y-6251700D02*
G75*
G03*
X17931100Y-6251700I-20000J0D01*
G01*
X17981900Y-8690100D02*
G75*
G03*
X17981900Y-8690100I-20000J0D01*
G01*
X17981900Y-8842500D02*
G75*
G03*
X17981900Y-8842500I-20000J0D01*
G01*
X17981900Y-8994900D02*
G75*
G03*
X17981900Y-8994900I-20000J0D01*
G01*
X17981900Y-9147300D02*
G75*
G03*
X17981900Y-9147300I-20000J0D01*
G01*
X17981900Y-9960100D02*
G75*
G03*
X17981900Y-9960100I-20000J0D01*
G01*
X17981900Y-10188700D02*
G75*
G03*
X17981900Y-10188700I-20000J0D01*
G01*
X18032700Y-12017500D02*
G75*
G03*
X18032700Y-12017500I-20000J0D01*
G01*
X18108900Y-6023100D02*
G75*
G03*
X18108900Y-6023100I-20000J0D01*
G01*
X18134300Y-5495850D02*
G75*
G03*
X18134300Y-5495850I-20000J0D01*
G01*
X18159700Y-9693400D02*
G75*
G03*
X18159700Y-9693400I-20000J0D01*
G01*
X18185100Y-6556500D02*
G75*
G03*
X18185100Y-6556500I-20000J0D01*
G01*
X18235900Y-6759700D02*
G75*
G03*
X18235900Y-6759700I-20000J0D01*
G01*
X18261300Y-5495850D02*
G75*
G03*
X18261300Y-5495850I-20000J0D01*
G01*
X18261300Y-11687300D02*
G75*
G03*
X18261300Y-11687300I-20000J0D01*
G01*
X18362900Y-4118100D02*
G75*
G03*
X18362900Y-4118100I-20000J0D01*
G01*
X18362900Y-4245100D02*
G75*
G03*
X18362900Y-4245100I-20000J0D01*
G01*
X18362900Y-4549900D02*
G75*
G03*
X18362900Y-4549900I-20000J0D01*
G01*
X18362900Y-6759700D02*
G75*
G03*
X18362900Y-6759700I-20000J0D01*
G01*
X18388300Y-5495850D02*
G75*
G03*
X18388300Y-5495850I-20000J0D01*
G01*
X18388300Y-12017500D02*
G75*
G03*
X18388300Y-12017500I-20000J0D01*
G01*
X18439100Y-6251700D02*
G75*
G03*
X18439100Y-6251700I-20000J0D01*
G01*
X18439100Y-10468100D02*
G75*
G03*
X18439100Y-10468100I-20000J0D01*
G01*
X18489900Y-4118100D02*
G75*
G03*
X18489900Y-4118100I-20000J0D01*
G01*
X18489900Y-4245100D02*
G75*
G03*
X18489900Y-4245100I-20000J0D01*
G01*
X18489900Y-6759700D02*
G75*
G03*
X18489900Y-6759700I-20000J0D01*
G01*
X18896300Y-4854700D02*
G75*
G03*
X18896300Y-4854700I-20000J0D01*
G01*
X19023300Y-4549900D02*
G75*
G03*
X19023300Y-4549900I-20000J0D01*
G01*
X19099500Y-4651500D02*
G75*
G03*
X19099500Y-4651500I-20000J0D01*
G01*
X19201100Y-12017500D02*
G75*
G03*
X19201100Y-12017500I-20000J0D01*
G01*
X19277300Y-3889500D02*
G75*
G03*
X19277300Y-3889500I-20000J0D01*
G01*
X19328100Y-4156200D02*
G75*
G03*
X19328100Y-4156200I-20000J0D01*
G01*
X19429700Y-4156200D02*
G75*
G03*
X19429700Y-4156200I-20000J0D01*
G01*
X19429700Y-11687300D02*
G75*
G03*
X19429700Y-11687300I-20000J0D01*
G01*
X19480500Y-6988300D02*
G75*
G03*
X19480500Y-6988300I-20000J0D01*
G01*
X19531300Y-4156200D02*
G75*
G03*
X19531300Y-4156200I-20000J0D01*
G01*
X19556700Y-4422900D02*
G75*
G03*
X19556700Y-4422900I-20000J0D01*
G01*
X19556700Y-4549900D02*
G75*
G03*
X19556700Y-4549900I-20000J0D01*
G01*
X19556700Y-4676900D02*
G75*
G03*
X19556700Y-4676900I-20000J0D01*
G01*
X19556700Y-12017500D02*
G75*
G03*
X19556700Y-12017500I-20000J0D01*
G01*
X19658300Y-4422900D02*
G75*
G03*
X19658300Y-4422900I-20000J0D01*
G01*
X19658300Y-4676900D02*
G75*
G03*
X19658300Y-4676900I-20000J0D01*
G01*
X19757760Y-11481430D02*
G75*
G03*
X19757760Y-11481430I-20000J0D01*
G01*
X19890100Y-12463335D02*
G75*
G03*
X19890100Y-12463335I-20000J0D01*
G01*
X20115500Y-3965700D02*
G75*
G03*
X20115500Y-3965700I-20000J0D01*
G01*
X20174500Y-4346700D02*
G75*
G03*
X20174500Y-4346700I-20000J0D01*
G01*
X20220300Y-12641135D02*
G75*
G03*
X20220300Y-12641135I-20000J0D01*
G01*
X20423500Y-12463335D02*
G75*
G03*
X20423500Y-12463335I-20000J0D01*
G01*
X20471100Y-3711700D02*
G75*
G03*
X20471100Y-3711700I-20000J0D01*
G01*
X20471100Y-3991100D02*
G75*
G03*
X20471100Y-3991100I-20000J0D01*
G01*
X20525100Y-12361735D02*
G75*
G03*
X20525100Y-12361735I-20000J0D01*
G01*
X20525100Y-12641135D02*
G75*
G03*
X20525100Y-12641135I-20000J0D01*
G01*
X20775900Y-4346700D02*
G75*
G03*
X20775900Y-4346700I-20000J0D01*
G01*
X20826700Y-3965700D02*
G75*
G03*
X20826700Y-3965700I-20000J0D01*
G01*
X20852100Y-10468100D02*
G75*
G03*
X20852100Y-10468100I-20000J0D01*
G01*
X20855300Y-12463335D02*
G75*
G03*
X20855300Y-12463335I-20000J0D01*
G01*
X21004500Y-10823700D02*
G75*
G03*
X21004500Y-10823700I-20000J0D01*
G01*
X21537900Y-7229600D02*
G75*
G03*
X21537900Y-7229600I-20000J0D01*
G01*
X21614100Y-10569700D02*
G75*
G03*
X21614100Y-10569700I-20000J0D01*
G01*
X21614100Y-10722100D02*
G75*
G03*
X21614100Y-10722100I-20000J0D01*
G01*
D14*
X16260100Y-8334900D02*
X16260100Y-8384900D01*
X16235100Y-8359900D02*
X16285100Y-8359900D01*
X17301500Y-10343000D02*
X17301500Y-10393000D01*
X17276500Y-10368000D02*
X17326500Y-10368000D01*
X17555500Y-6963300D02*
X17555500Y-7013300D01*
X17530500Y-6988300D02*
X17580500Y-6988300D01*
X18012700Y-10392300D02*
X18012700Y-10442300D01*
X17987700Y-10417300D02*
X18037700Y-10417300D01*
X18215900Y-6963300D02*
X18215900Y-7013300D01*
X18190900Y-6988300D02*
X18240900Y-6988300D01*
X20070100Y-4524900D02*
X20070100Y-4574900D01*
X20045100Y-4549900D02*
X20095100Y-4549900D01*
X20273300Y-4524900D02*
X20273300Y-4574900D01*
X20248300Y-4549900D02*
X20298300Y-4549900D01*
X20628900Y-4524900D02*
X20628900Y-4574900D01*
X20603900Y-4549900D02*
X20653900Y-4549900D01*
X20832100Y-4524900D02*
X20832100Y-4574900D01*
X20807100Y-4549900D02*
X20857100Y-4549900D01*
D15*
X20040314Y-3402713D02*
X20040314Y-3360287D01*
X19997887Y-3360287D01*
X19997887Y-3402713D01*
X20040314Y-3402713D01*
D11*
X20039100Y-3421500D02*
X20039100Y-3341500D01*
X19999100Y-3421500D02*
X19999100Y-3341500D01*
X20039100Y-3341500D02*
G75*
G03*
X19999100Y-3341500I-20000J0D01*
G01*
X19999100Y-3421500D02*
G75*
G03*
X20039100Y-3421500I20000J0D01*
G01*
D15*
X20040314Y-3820713D02*
X20040314Y-3778287D01*
X19997887Y-3778287D01*
X19997887Y-3820713D01*
X20040314Y-3820713D01*
D11*
X20039100Y-3854500D02*
X20039100Y-3744500D01*
X19999100Y-3854500D02*
X19999100Y-3744500D01*
X20039100Y-3744500D02*
G75*
G03*
X19999100Y-3744500I-20000J0D01*
G01*
X19999100Y-3854500D02*
G75*
G03*
X20039100Y-3854500I20000J0D01*
G01*
D15*
X20904313Y-3402713D02*
X20904313Y-3360287D01*
X20861887Y-3360287D01*
X20861887Y-3402713D01*
X20904313Y-3402713D01*
D11*
X20903100Y-3421500D02*
X20903100Y-3341500D01*
X20863100Y-3421500D02*
X20863100Y-3341500D01*
X20903100Y-3341500D02*
G75*
G03*
X20863100Y-3341500I-20000J0D01*
G01*
X20863100Y-3421500D02*
G75*
G03*
X20903100Y-3421500I20000J0D01*
G01*
D15*
X20904314Y-3820713D02*
X20904314Y-3778287D01*
X20861887Y-3778287D01*
X20861887Y-3820713D01*
X20904314Y-3820713D01*
D11*
X20903100Y-3854500D02*
X20903100Y-3744500D01*
X20863100Y-3854500D02*
X20863100Y-3744500D01*
X20903100Y-3744500D02*
G75*
G03*
X20863100Y-3744500I-20000J0D01*
G01*
X20863100Y-3854500D02*
G75*
G03*
X20903100Y-3854500I20000J0D01*
G01*
D16*
X17072900Y-5336500D02*
X17122900Y-5286500D01*
X17072900Y-5236500D01*
X17022900Y-5286500D01*
X17072900Y-5336500D01*
X17377700Y-11076900D02*
X17427700Y-11026900D01*
X17377700Y-10976900D01*
X17327700Y-11026900D01*
X17377700Y-11076900D01*
X17631700Y-11076900D02*
X17681700Y-11026900D01*
X17631700Y-10976900D01*
X17581700Y-11026900D01*
X17631700Y-11076900D01*
X17885700Y-11076900D02*
X17935700Y-11026900D01*
X17885700Y-10976900D01*
X17835700Y-11026900D01*
X17885700Y-11076900D01*
X18139700Y-11076900D02*
X18189700Y-11026900D01*
X18139700Y-10976900D01*
X18089700Y-11026900D01*
X18139700Y-11076900D01*
X18596400Y-3431500D02*
X18646400Y-3381500D01*
X18596400Y-3331500D01*
X18546400Y-3381500D01*
X18596400Y-3431500D01*
X18723900Y-6734000D02*
X18773900Y-6684000D01*
X18723900Y-6634000D01*
X18673900Y-6684000D01*
X18723900Y-6734000D01*
X18723900Y-6988000D02*
X18773900Y-6938000D01*
X18723900Y-6888000D01*
X18673900Y-6938000D01*
X18723900Y-6988000D01*
X18850400Y-3431500D02*
X18900400Y-3381500D01*
X18850400Y-3331500D01*
X18800400Y-3381500D01*
X18850400Y-3431500D01*
X21200900Y-6962100D02*
X21250900Y-6912100D01*
X21200900Y-6862100D01*
X21150900Y-6912100D01*
X21200900Y-6962100D01*
X21454900Y-6962100D02*
X21504900Y-6912100D01*
X21454900Y-6862100D01*
X21404900Y-6912100D01*
X21454900Y-6962100D01*
D17*
X19562100Y-7648700D02*
X19663700Y-7750300D01*
X19663700Y-7648700D02*
X19562100Y-7750300D01*
X19663700Y-7699500D02*
G75*
G03*
X19663700Y-7699500I-50800J0D01*
G01*
X19562100Y-7902700D02*
X19663700Y-8004300D01*
X19663700Y-7902700D02*
X19562100Y-8004300D01*
X19663700Y-7953500D02*
G75*
G03*
X19663700Y-7953500I-50800J0D01*
G01*
X19562100Y-8156700D02*
X19663700Y-8258300D01*
X19663700Y-8156700D02*
X19562100Y-8258300D01*
X19663700Y-8207500D02*
G75*
G03*
X19663700Y-8207500I-50800J0D01*
G01*
X19562100Y-8410700D02*
X19663700Y-8512300D01*
X19663700Y-8410700D02*
X19562100Y-8512300D01*
X19663700Y-8461500D02*
G75*
G03*
X19663700Y-8461500I-50800J0D01*
G01*
X19562100Y-8664700D02*
X19663700Y-8766300D01*
X19663700Y-8664700D02*
X19562100Y-8766300D01*
X19663700Y-8715500D02*
G75*
G03*
X19663700Y-8715500I-50800J0D01*
G01*
X19562100Y-8918700D02*
X19663700Y-9020300D01*
X19663700Y-8918700D02*
X19562100Y-9020300D01*
X19663700Y-8969500D02*
G75*
G03*
X19663700Y-8969500I-50800J0D01*
G01*
X19562100Y-9172700D02*
X19663700Y-9274300D01*
X19663700Y-9172700D02*
X19562100Y-9274300D01*
X19663700Y-9223500D02*
G75*
G03*
X19663700Y-9223500I-50800J0D01*
G01*
X19562100Y-9426700D02*
X19663700Y-9528300D01*
X19663700Y-9426700D02*
X19562100Y-9528300D01*
X19663700Y-9477500D02*
G75*
G03*
X19663700Y-9477500I-50800J0D01*
G01*
X19816100Y-7648700D02*
X19917700Y-7750300D01*
X19917700Y-7648700D02*
X19816100Y-7750300D01*
X19917700Y-7699500D02*
G75*
G03*
X19917700Y-7699500I-50800J0D01*
G01*
X19816100Y-7902700D02*
X19917700Y-8004300D01*
X19917700Y-7902700D02*
X19816100Y-8004300D01*
X19917700Y-7953500D02*
G75*
G03*
X19917700Y-7953500I-50800J0D01*
G01*
X19816100Y-8156700D02*
X19917700Y-8258300D01*
X19917700Y-8156700D02*
X19816100Y-8258300D01*
X19917700Y-8207500D02*
G75*
G03*
X19917700Y-8207500I-50800J0D01*
G01*
X19816100Y-8410700D02*
X19917700Y-8512300D01*
X19917700Y-8410700D02*
X19816100Y-8512300D01*
X19917700Y-8461500D02*
G75*
G03*
X19917700Y-8461500I-50800J0D01*
G01*
X19816100Y-8664700D02*
X19917700Y-8766300D01*
X19917700Y-8664700D02*
X19816100Y-8766300D01*
X19917700Y-8715500D02*
G75*
G03*
X19917700Y-8715500I-50800J0D01*
G01*
X19816100Y-8918700D02*
X19917700Y-9020300D01*
X19917700Y-8918700D02*
X19816100Y-9020300D01*
X19917700Y-8969500D02*
G75*
G03*
X19917700Y-8969500I-50800J0D01*
G01*
X19816100Y-9172700D02*
X19917700Y-9274300D01*
X19917700Y-9172700D02*
X19816100Y-9274300D01*
X19917700Y-9223500D02*
G75*
G03*
X19917700Y-9223500I-50800J0D01*
G01*
X19816100Y-9426700D02*
X19917700Y-9528300D01*
X19917700Y-9426700D02*
X19816100Y-9528300D01*
X19917700Y-9477500D02*
G75*
G03*
X19917700Y-9477500I-50800J0D01*
G01*
X20070100Y-7648700D02*
X20171700Y-7750300D01*
X20171700Y-7648700D02*
X20070100Y-7750300D01*
X20171700Y-7699500D02*
G75*
G03*
X20171700Y-7699500I-50800J0D01*
G01*
X20070100Y-7902700D02*
X20171700Y-8004300D01*
X20171700Y-7902700D02*
X20070100Y-8004300D01*
X20171700Y-7953500D02*
G75*
G03*
X20171700Y-7953500I-50800J0D01*
G01*
X20070100Y-8156700D02*
X20171700Y-8258300D01*
X20171700Y-8156700D02*
X20070100Y-8258300D01*
X20171700Y-8207500D02*
G75*
G03*
X20171700Y-8207500I-50800J0D01*
G01*
X20070100Y-8410700D02*
X20171700Y-8512300D01*
X20171700Y-8410700D02*
X20070100Y-8512300D01*
X20171700Y-8461500D02*
G75*
G03*
X20171700Y-8461500I-50800J0D01*
G01*
X20070100Y-8664700D02*
X20171700Y-8766300D01*
X20171700Y-8664700D02*
X20070100Y-8766300D01*
X20171700Y-8715500D02*
G75*
G03*
X20171700Y-8715500I-50800J0D01*
G01*
X20070100Y-8918700D02*
X20171700Y-9020300D01*
X20171700Y-8918700D02*
X20070100Y-9020300D01*
X20171700Y-8969500D02*
G75*
G03*
X20171700Y-8969500I-50800J0D01*
G01*
X20070100Y-9172700D02*
X20171700Y-9274300D01*
X20171700Y-9172700D02*
X20070100Y-9274300D01*
X20171700Y-9223500D02*
G75*
G03*
X20171700Y-9223500I-50800J0D01*
G01*
X20070100Y-9426700D02*
X20171700Y-9528300D01*
X20171700Y-9426700D02*
X20070100Y-9528300D01*
X20171700Y-9477500D02*
G75*
G03*
X20171700Y-9477500I-50800J0D01*
G01*
X20324100Y-7648700D02*
X20425700Y-7750300D01*
X20425700Y-7648700D02*
X20324100Y-7750300D01*
X20425700Y-7699500D02*
G75*
G03*
X20425700Y-7699500I-50800J0D01*
G01*
X20324100Y-7902700D02*
X20425700Y-8004300D01*
X20425700Y-7902700D02*
X20324100Y-8004300D01*
X20425700Y-7953500D02*
G75*
G03*
X20425700Y-7953500I-50800J0D01*
G01*
X20324100Y-8156700D02*
X20425700Y-8258300D01*
X20425700Y-8156700D02*
X20324100Y-8258300D01*
X20425700Y-8207500D02*
G75*
G03*
X20425700Y-8207500I-50800J0D01*
G01*
X20324100Y-8410700D02*
X20425700Y-8512300D01*
X20425700Y-8410700D02*
X20324100Y-8512300D01*
X20425700Y-8461500D02*
G75*
G03*
X20425700Y-8461500I-50800J0D01*
G01*
X20324100Y-8664700D02*
X20425700Y-8766300D01*
X20425700Y-8664700D02*
X20324100Y-8766300D01*
X20425700Y-8715500D02*
G75*
G03*
X20425700Y-8715500I-50800J0D01*
G01*
X20324100Y-8918700D02*
X20425700Y-9020300D01*
X20425700Y-8918700D02*
X20324100Y-9020300D01*
X20425700Y-8969500D02*
G75*
G03*
X20425700Y-8969500I-50800J0D01*
G01*
X20324100Y-9172700D02*
X20425700Y-9274300D01*
X20425700Y-9172700D02*
X20324100Y-9274300D01*
X20425700Y-9223500D02*
G75*
G03*
X20425700Y-9223500I-50800J0D01*
G01*
X20324100Y-9426700D02*
X20425700Y-9528300D01*
X20425700Y-9426700D02*
X20324100Y-9528300D01*
X20425700Y-9477500D02*
G75*
G03*
X20425700Y-9477500I-50800J0D01*
G01*
X20578100Y-7648700D02*
X20679700Y-7750300D01*
X20679700Y-7648700D02*
X20578100Y-7750300D01*
X20679700Y-7699500D02*
G75*
G03*
X20679700Y-7699500I-50800J0D01*
G01*
X20578100Y-7902700D02*
X20679700Y-8004300D01*
X20679700Y-7902700D02*
X20578100Y-8004300D01*
X20679700Y-7953500D02*
G75*
G03*
X20679700Y-7953500I-50800J0D01*
G01*
X20578100Y-8156700D02*
X20679700Y-8258300D01*
X20679700Y-8156700D02*
X20578100Y-8258300D01*
X20679700Y-8207500D02*
G75*
G03*
X20679700Y-8207500I-50800J0D01*
G01*
X20578100Y-8410700D02*
X20679700Y-8512300D01*
X20679700Y-8410700D02*
X20578100Y-8512300D01*
X20679700Y-8461500D02*
G75*
G03*
X20679700Y-8461500I-50800J0D01*
G01*
X20578100Y-8664700D02*
X20679700Y-8766300D01*
X20679700Y-8664700D02*
X20578100Y-8766300D01*
X20679700Y-8715500D02*
G75*
G03*
X20679700Y-8715500I-50800J0D01*
G01*
X20578100Y-8918700D02*
X20679700Y-9020300D01*
X20679700Y-8918700D02*
X20578100Y-9020300D01*
X20679700Y-8969500D02*
G75*
G03*
X20679700Y-8969500I-50800J0D01*
G01*
X20578100Y-9172700D02*
X20679700Y-9274300D01*
X20679700Y-9172700D02*
X20578100Y-9274300D01*
X20679700Y-9223500D02*
G75*
G03*
X20679700Y-9223500I-50800J0D01*
G01*
X20578100Y-9426700D02*
X20679700Y-9528300D01*
X20679700Y-9426700D02*
X20578100Y-9528300D01*
X20679700Y-9477500D02*
G75*
G03*
X20679700Y-9477500I-50800J0D01*
G01*
X20832100Y-7648700D02*
X20933700Y-7750300D01*
X20933700Y-7648700D02*
X20832100Y-7750300D01*
X20933700Y-7699500D02*
G75*
G03*
X20933700Y-7699500I-50800J0D01*
G01*
X20832100Y-7902700D02*
X20933700Y-8004300D01*
X20933700Y-7902700D02*
X20832100Y-8004300D01*
X20933700Y-7953500D02*
G75*
G03*
X20933700Y-7953500I-50800J0D01*
G01*
X20832100Y-8156700D02*
X20933700Y-8258300D01*
X20933700Y-8156700D02*
X20832100Y-8258300D01*
X20933700Y-8207500D02*
G75*
G03*
X20933700Y-8207500I-50800J0D01*
G01*
X20832100Y-8410700D02*
X20933700Y-8512300D01*
X20933700Y-8410700D02*
X20832100Y-8512300D01*
X20933700Y-8461500D02*
G75*
G03*
X20933700Y-8461500I-50800J0D01*
G01*
X20832100Y-8664700D02*
X20933700Y-8766300D01*
X20933700Y-8664700D02*
X20832100Y-8766300D01*
X20933700Y-8715500D02*
G75*
G03*
X20933700Y-8715500I-50800J0D01*
G01*
X20832100Y-8918700D02*
X20933700Y-9020300D01*
X20933700Y-8918700D02*
X20832100Y-9020300D01*
X20933700Y-8969500D02*
G75*
G03*
X20933700Y-8969500I-50800J0D01*
G01*
X20832100Y-9172700D02*
X20933700Y-9274300D01*
X20933700Y-9172700D02*
X20832100Y-9274300D01*
X20933700Y-9223500D02*
G75*
G03*
X20933700Y-9223500I-50800J0D01*
G01*
X20832100Y-9426700D02*
X20933700Y-9528300D01*
X20933700Y-9426700D02*
X20832100Y-9528300D01*
X20933700Y-9477500D02*
G75*
G03*
X20933700Y-9477500I-50800J0D01*
G01*
X21086100Y-7648700D02*
X21187700Y-7750300D01*
X21187700Y-7648700D02*
X21086100Y-7750300D01*
X21187700Y-7699500D02*
G75*
G03*
X21187700Y-7699500I-50800J0D01*
G01*
X21086100Y-7902700D02*
X21187700Y-8004300D01*
X21187700Y-7902700D02*
X21086100Y-8004300D01*
X21187700Y-7953500D02*
G75*
G03*
X21187700Y-7953500I-50800J0D01*
G01*
X21086100Y-8156700D02*
X21187700Y-8258300D01*
X21187700Y-8156700D02*
X21086100Y-8258300D01*
X21187700Y-8207500D02*
G75*
G03*
X21187700Y-8207500I-50800J0D01*
G01*
X21086100Y-8410700D02*
X21187700Y-8512300D01*
X21187700Y-8410700D02*
X21086100Y-8512300D01*
X21187700Y-8461500D02*
G75*
G03*
X21187700Y-8461500I-50800J0D01*
G01*
X21086100Y-8664700D02*
X21187700Y-8766300D01*
X21187700Y-8664700D02*
X21086100Y-8766300D01*
X21187700Y-8715500D02*
G75*
G03*
X21187700Y-8715500I-50800J0D01*
G01*
X21086100Y-8918700D02*
X21187700Y-9020300D01*
X21187700Y-8918700D02*
X21086100Y-9020300D01*
X21187700Y-8969500D02*
G75*
G03*
X21187700Y-8969500I-50800J0D01*
G01*
X21086100Y-9172700D02*
X21187700Y-9274300D01*
X21187700Y-9172700D02*
X21086100Y-9274300D01*
X21187700Y-9223500D02*
G75*
G03*
X21187700Y-9223500I-50800J0D01*
G01*
X21086100Y-9426700D02*
X21187700Y-9528300D01*
X21187700Y-9426700D02*
X21086100Y-9528300D01*
X21187700Y-9477500D02*
G75*
G03*
X21187700Y-9477500I-50800J0D01*
G01*
X21340100Y-7648700D02*
X21441700Y-7750300D01*
X21441700Y-7648700D02*
X21340100Y-7750300D01*
X21441700Y-7699500D02*
G75*
G03*
X21441700Y-7699500I-50800J0D01*
G01*
X21340100Y-7902700D02*
X21441700Y-8004300D01*
X21441700Y-7902700D02*
X21340100Y-8004300D01*
X21441700Y-7953500D02*
G75*
G03*
X21441700Y-7953500I-50800J0D01*
G01*
X21340100Y-8156700D02*
X21441700Y-8258300D01*
X21441700Y-8156700D02*
X21340100Y-8258300D01*
X21441700Y-8207500D02*
G75*
G03*
X21441700Y-8207500I-50800J0D01*
G01*
X21340100Y-8410700D02*
X21441700Y-8512300D01*
X21441700Y-8410700D02*
X21340100Y-8512300D01*
X21441700Y-8461500D02*
G75*
G03*
X21441700Y-8461500I-50800J0D01*
G01*
X21340100Y-8664700D02*
X21441700Y-8766300D01*
X21441700Y-8664700D02*
X21340100Y-8766300D01*
X21441700Y-8715500D02*
G75*
G03*
X21441700Y-8715500I-50800J0D01*
G01*
X21340100Y-8918700D02*
X21441700Y-9020300D01*
X21441700Y-8918700D02*
X21340100Y-9020300D01*
X21441700Y-8969500D02*
G75*
G03*
X21441700Y-8969500I-50800J0D01*
G01*
X21340100Y-9172700D02*
X21441700Y-9274300D01*
X21441700Y-9172700D02*
X21340100Y-9274300D01*
X21441700Y-9223500D02*
G75*
G03*
X21441700Y-9223500I-50800J0D01*
G01*
X21340100Y-9426700D02*
X21441700Y-9528300D01*
X21441700Y-9426700D02*
X21340100Y-9528300D01*
X21441700Y-9477500D02*
G75*
G03*
X21441700Y-9477500I-50800J0D01*
G01*
D18*
X13450860Y-4274310D02*
X13582940Y-4406390D01*
X13582940Y-4274310D02*
X13450860Y-4406390D01*
X13516900Y-4274310D02*
X13516900Y-4406390D01*
X13450860Y-4340350D02*
X13582940Y-4340350D01*
X13450860Y-11500610D02*
X13582940Y-11632690D01*
X13582940Y-11500610D02*
X13450860Y-11632690D01*
X13516900Y-11500610D02*
X13516900Y-11632690D01*
X13450860Y-11566650D02*
X13582940Y-11566650D01*
D11*
X12499519Y-13094976D02*
X12499519Y-12894976D01*
X12547138Y-12894976D01*
X12575710Y-12904500D01*
X12594757Y-12923548D01*
X12604281Y-12942595D01*
X12613805Y-12980691D01*
X12613805Y-13009262D01*
X12604281Y-13047357D01*
X12594757Y-13066405D01*
X12575710Y-13085452D01*
X12547138Y-13094976D01*
X12499519Y-13094976D01*
X12699519Y-13094976D02*
X12699519Y-12961643D01*
X12699519Y-12999738D02*
X12709043Y-12980691D01*
X12718567Y-12971167D01*
X12737614Y-12961643D01*
X12756662Y-12961643D01*
X12823329Y-13094976D02*
X12823329Y-12961643D01*
X12823329Y-12894976D02*
X12813805Y-12904500D01*
X12823329Y-12914024D01*
X12832852Y-12904500D01*
X12823329Y-12894976D01*
X12823329Y-12914024D01*
X12947138Y-13094976D02*
X12928090Y-13085452D01*
X12918567Y-13066405D01*
X12918567Y-12894976D01*
X13051900Y-13094976D02*
X13032852Y-13085452D01*
X13023329Y-13066405D01*
X13023329Y-12894976D01*
X13280471Y-13094976D02*
X13280471Y-12894976D01*
X13347138Y-13037833D01*
X13413805Y-12894976D01*
X13413805Y-13094976D01*
X13594757Y-13094976D02*
X13594757Y-12990214D01*
X13585233Y-12971167D01*
X13566186Y-12961643D01*
X13528090Y-12961643D01*
X13509043Y-12971167D01*
X13594757Y-13085452D02*
X13575710Y-13094976D01*
X13528090Y-13094976D01*
X13509043Y-13085452D01*
X13499519Y-13066405D01*
X13499519Y-13047357D01*
X13509043Y-13028310D01*
X13528090Y-13018786D01*
X13575710Y-13018786D01*
X13594757Y-13009262D01*
X13689995Y-12961643D02*
X13689995Y-13161643D01*
X13689995Y-12971167D02*
X13709043Y-12961643D01*
X13747138Y-12961643D01*
X13766186Y-12971167D01*
X13775710Y-12980691D01*
X13785233Y-12999738D01*
X13785233Y-13056881D01*
X13775710Y-13075929D01*
X13766186Y-13085452D01*
X13747138Y-13094976D01*
X13709043Y-13094976D01*
X13689995Y-13085452D01*
X13870948Y-13075929D02*
X13880471Y-13085452D01*
X13870948Y-13094976D01*
X13861424Y-13085452D01*
X13870948Y-13075929D01*
X13870948Y-13094976D01*
X13870948Y-12971167D02*
X13880471Y-12980691D01*
X13870948Y-12990214D01*
X13861424Y-12980691D01*
X13870948Y-12971167D01*
X13870948Y-12990214D01*
D12*
X12221900Y-13414500D02*
X12241900Y-13434500D01*
X12241900Y-13414500D02*
X12221900Y-13434500D01*
D11*
X12537614Y-13314976D02*
X12556662Y-13314976D01*
X12575710Y-13324500D01*
X12585233Y-13334024D01*
X12594757Y-13353072D01*
X12604281Y-13391167D01*
X12604281Y-13438786D01*
X12594757Y-13476881D01*
X12585233Y-13495929D01*
X12575710Y-13505452D01*
X12556662Y-13514976D01*
X12537614Y-13514976D01*
X12518567Y-13505452D01*
X12509043Y-13495929D01*
X12499519Y-13476881D01*
X12489995Y-13438786D01*
X12489995Y-13391167D01*
X12499519Y-13353072D01*
X12509043Y-13334024D01*
X12518567Y-13324500D01*
X12537614Y-13314976D01*
X12689995Y-13495929D02*
X12699519Y-13505452D01*
X12689995Y-13514976D01*
X12680471Y-13505452D01*
X12689995Y-13495929D01*
X12689995Y-13514976D01*
X12775710Y-13334024D02*
X12785233Y-13324500D01*
X12804281Y-13314976D01*
X12851900Y-13314976D01*
X12870948Y-13324500D01*
X12880471Y-13334024D01*
X12889995Y-13353072D01*
X12889995Y-13372119D01*
X12880471Y-13400691D01*
X12766186Y-13514976D01*
X12889995Y-13514976D01*
X13013805Y-13314976D02*
X13032852Y-13314976D01*
X13051900Y-13324500D01*
X13061424Y-13334024D01*
X13070948Y-13353072D01*
X13080471Y-13391167D01*
X13080471Y-13438786D01*
X13070948Y-13476881D01*
X13061424Y-13495929D01*
X13051900Y-13505452D01*
X13032852Y-13514976D01*
X13013805Y-13514976D01*
X12994757Y-13505452D01*
X12985233Y-13495929D01*
X12975710Y-13476881D01*
X12966186Y-13438786D01*
X12966186Y-13391167D01*
X12975710Y-13353072D01*
X12985233Y-13334024D01*
X12994757Y-13324500D01*
X13013805Y-13314976D01*
X13204281Y-13314976D02*
X13223329Y-13314976D01*
X13242376Y-13324500D01*
X13251900Y-13334024D01*
X13261424Y-13353072D01*
X13270948Y-13391167D01*
X13270948Y-13438786D01*
X13261424Y-13476881D01*
X13251900Y-13495929D01*
X13242376Y-13505452D01*
X13223329Y-13514976D01*
X13204281Y-13514976D01*
X13185233Y-13505452D01*
X13175710Y-13495929D01*
X13166186Y-13476881D01*
X13156662Y-13438786D01*
X13156662Y-13391167D01*
X13166186Y-13353072D01*
X13175710Y-13334024D01*
X13185233Y-13324500D01*
X13204281Y-13314976D01*
X13356662Y-13514976D02*
X13356662Y-13381643D01*
X13356662Y-13400691D02*
X13366186Y-13391167D01*
X13385233Y-13381643D01*
X13413805Y-13381643D01*
X13432852Y-13391167D01*
X13442376Y-13410214D01*
X13442376Y-13514976D01*
X13442376Y-13410214D02*
X13451900Y-13391167D01*
X13470948Y-13381643D01*
X13499519Y-13381643D01*
X13518567Y-13391167D01*
X13528090Y-13410214D01*
X13528090Y-13514976D01*
X13623329Y-13514976D02*
X13623329Y-13381643D01*
X13623329Y-13400691D02*
X13632852Y-13391167D01*
X13651900Y-13381643D01*
X13680471Y-13381643D01*
X13699519Y-13391167D01*
X13709043Y-13410214D01*
X13709043Y-13514976D01*
X13709043Y-13410214D02*
X13718567Y-13391167D01*
X13737614Y-13381643D01*
X13766186Y-13381643D01*
X13785233Y-13391167D01*
X13794757Y-13410214D01*
X13794757Y-13514976D01*
X14185233Y-13305452D02*
X14013805Y-13562595D01*
X14442376Y-13314976D02*
X14461424Y-13314976D01*
X14480471Y-13324500D01*
X14489995Y-13334024D01*
X14499519Y-13353072D01*
X14509043Y-13391167D01*
X14509043Y-13438786D01*
X14499519Y-13476881D01*
X14489995Y-13495929D01*
X14480471Y-13505452D01*
X14461424Y-13514976D01*
X14442376Y-13514976D01*
X14423329Y-13505452D01*
X14413805Y-13495929D01*
X14404281Y-13476881D01*
X14394757Y-13438786D01*
X14394757Y-13391167D01*
X14404281Y-13353072D01*
X14413805Y-13334024D01*
X14423329Y-13324500D01*
X14442376Y-13314976D01*
X14594757Y-13495929D02*
X14604281Y-13505452D01*
X14594757Y-13514976D01*
X14585233Y-13505452D01*
X14594757Y-13495929D01*
X14594757Y-13514976D01*
X14728090Y-13314976D02*
X14747138Y-13314976D01*
X14766186Y-13324500D01*
X14775710Y-13334024D01*
X14785233Y-13353072D01*
X14794757Y-13391167D01*
X14794757Y-13438786D01*
X14785233Y-13476881D01*
X14775710Y-13495929D01*
X14766186Y-13505452D01*
X14747138Y-13514976D01*
X14728090Y-13514976D01*
X14709043Y-13505452D01*
X14699519Y-13495929D01*
X14689995Y-13476881D01*
X14680471Y-13438786D01*
X14680471Y-13391167D01*
X14689995Y-13353072D01*
X14699519Y-13334024D01*
X14709043Y-13324500D01*
X14728090Y-13314976D01*
X14918567Y-13314976D02*
X14937614Y-13314976D01*
X14956662Y-13324500D01*
X14966186Y-13334024D01*
X14975710Y-13353072D01*
X14985233Y-13391167D01*
X14985233Y-13438786D01*
X14975710Y-13476881D01*
X14966186Y-13495929D01*
X14956662Y-13505452D01*
X14937614Y-13514976D01*
X14918567Y-13514976D01*
X14899519Y-13505452D01*
X14889995Y-13495929D01*
X14880471Y-13476881D01*
X14870948Y-13438786D01*
X14870948Y-13391167D01*
X14880471Y-13353072D01*
X14889995Y-13334024D01*
X14899519Y-13324500D01*
X14918567Y-13314976D01*
X15051900Y-13314976D02*
X15185233Y-13314976D01*
X15099519Y-13514976D01*
X15270948Y-13514976D02*
X15309043Y-13514976D01*
X15328090Y-13505452D01*
X15337614Y-13495929D01*
X15356662Y-13467357D01*
X15366186Y-13429262D01*
X15366186Y-13353072D01*
X15356662Y-13334024D01*
X15347138Y-13324500D01*
X15328090Y-13314976D01*
X15289995Y-13314976D01*
X15270948Y-13324500D01*
X15261424Y-13334024D01*
X15251900Y-13353072D01*
X15251900Y-13400691D01*
X15261424Y-13419738D01*
X15270948Y-13429262D01*
X15289995Y-13438786D01*
X15328090Y-13438786D01*
X15347138Y-13429262D01*
X15356662Y-13419738D01*
X15366186Y-13400691D01*
X15442376Y-13314976D02*
X15442376Y-13353072D01*
X15518567Y-13314976D02*
X15518567Y-13353072D01*
X15813805Y-13591167D02*
X15804281Y-13581643D01*
X15785233Y-13553072D01*
X15775710Y-13534024D01*
X15766186Y-13505452D01*
X15756662Y-13457833D01*
X15756662Y-13419738D01*
X15766186Y-13372119D01*
X15775710Y-13343548D01*
X15785233Y-13324500D01*
X15804281Y-13295929D01*
X15813805Y-13286405D01*
X15880471Y-13334024D02*
X15889995Y-13324500D01*
X15909043Y-13314976D01*
X15956662Y-13314976D01*
X15975710Y-13324500D01*
X15985233Y-13334024D01*
X15994757Y-13353072D01*
X15994757Y-13372119D01*
X15985233Y-13400691D01*
X15870948Y-13514976D01*
X15994757Y-13514976D01*
X16175710Y-13314976D02*
X16080471Y-13314976D01*
X16070948Y-13410214D01*
X16080471Y-13400691D01*
X16099519Y-13391167D01*
X16147138Y-13391167D01*
X16166186Y-13400691D01*
X16175710Y-13410214D01*
X16185233Y-13429262D01*
X16185233Y-13476881D01*
X16175710Y-13495929D01*
X16166186Y-13505452D01*
X16147138Y-13514976D01*
X16099519Y-13514976D01*
X16080471Y-13505452D01*
X16070948Y-13495929D01*
X16423329Y-13514976D02*
X16423329Y-13314976D01*
X16509043Y-13514976D02*
X16509043Y-13410214D01*
X16499519Y-13391167D01*
X16480471Y-13381643D01*
X16451900Y-13381643D01*
X16432852Y-13391167D01*
X16423329Y-13400691D01*
X16632852Y-13514976D02*
X16613805Y-13505452D01*
X16604281Y-13495929D01*
X16594757Y-13476881D01*
X16594757Y-13419738D01*
X16604281Y-13400691D01*
X16613805Y-13391167D01*
X16632852Y-13381643D01*
X16661424Y-13381643D01*
X16680471Y-13391167D01*
X16689995Y-13400691D01*
X16699519Y-13419738D01*
X16699519Y-13476881D01*
X16689995Y-13495929D01*
X16680471Y-13505452D01*
X16661424Y-13514976D01*
X16632852Y-13514976D01*
X16813805Y-13514976D02*
X16794757Y-13505452D01*
X16785233Y-13486405D01*
X16785233Y-13314976D01*
X16966186Y-13505452D02*
X16947138Y-13514976D01*
X16909043Y-13514976D01*
X16889995Y-13505452D01*
X16880472Y-13486405D01*
X16880472Y-13410214D01*
X16889995Y-13391167D01*
X16909043Y-13381643D01*
X16947138Y-13381643D01*
X16966186Y-13391167D01*
X16975710Y-13410214D01*
X16975710Y-13429262D01*
X16880472Y-13448310D01*
X17051900Y-13505452D02*
X17070948Y-13514976D01*
X17109043Y-13514976D01*
X17128091Y-13505452D01*
X17137614Y-13486405D01*
X17137614Y-13476881D01*
X17128091Y-13457833D01*
X17109043Y-13448310D01*
X17080472Y-13448310D01*
X17061424Y-13438786D01*
X17051900Y-13419738D01*
X17051900Y-13410214D01*
X17061424Y-13391167D01*
X17080472Y-13381643D01*
X17109043Y-13381643D01*
X17128091Y-13391167D01*
X17204281Y-13591167D02*
X17213805Y-13581643D01*
X17232852Y-13553072D01*
X17242376Y-13534024D01*
X17251900Y-13505452D01*
X17261424Y-13457833D01*
X17261424Y-13419738D01*
X17251900Y-13372119D01*
X17242376Y-13343548D01*
X17232852Y-13324500D01*
X17213805Y-13295929D01*
X17204281Y-13286405D01*
D13*
X12241900Y-13688500D02*
G75*
G03*
X12241900Y-13688500I-20000J0D01*
G01*
D11*
X12537614Y-13578976D02*
X12556662Y-13578976D01*
X12575710Y-13588500D01*
X12585233Y-13598024D01*
X12594757Y-13617072D01*
X12604281Y-13655167D01*
X12604281Y-13702786D01*
X12594757Y-13740881D01*
X12585233Y-13759929D01*
X12575710Y-13769452D01*
X12556662Y-13778976D01*
X12537614Y-13778976D01*
X12518567Y-13769452D01*
X12509043Y-13759929D01*
X12499519Y-13740881D01*
X12489995Y-13702786D01*
X12489995Y-13655167D01*
X12499519Y-13617072D01*
X12509043Y-13598024D01*
X12518567Y-13588500D01*
X12537614Y-13578976D01*
X12689995Y-13759929D02*
X12699519Y-13769452D01*
X12689995Y-13778976D01*
X12680471Y-13769452D01*
X12689995Y-13759929D01*
X12689995Y-13778976D01*
X12870948Y-13645643D02*
X12870948Y-13778976D01*
X12823329Y-13569452D02*
X12775710Y-13712310D01*
X12899519Y-13712310D01*
X13013805Y-13578976D02*
X13032852Y-13578976D01*
X13051900Y-13588500D01*
X13061424Y-13598024D01*
X13070948Y-13617072D01*
X13080471Y-13655167D01*
X13080471Y-13702786D01*
X13070948Y-13740881D01*
X13061424Y-13759929D01*
X13051900Y-13769452D01*
X13032852Y-13778976D01*
X13013805Y-13778976D01*
X12994757Y-13769452D01*
X12985233Y-13759929D01*
X12975710Y-13740881D01*
X12966186Y-13702786D01*
X12966186Y-13655167D01*
X12975710Y-13617072D01*
X12985233Y-13598024D01*
X12994757Y-13588500D01*
X13013805Y-13578976D01*
X13204281Y-13578976D02*
X13223329Y-13578976D01*
X13242376Y-13588500D01*
X13251900Y-13598024D01*
X13261424Y-13617072D01*
X13270948Y-13655167D01*
X13270948Y-13702786D01*
X13261424Y-13740881D01*
X13251900Y-13759929D01*
X13242376Y-13769452D01*
X13223329Y-13778976D01*
X13204281Y-13778976D01*
X13185233Y-13769452D01*
X13175710Y-13759929D01*
X13166186Y-13740881D01*
X13156662Y-13702786D01*
X13156662Y-13655167D01*
X13166186Y-13617072D01*
X13175710Y-13598024D01*
X13185233Y-13588500D01*
X13204281Y-13578976D01*
X13356662Y-13778976D02*
X13356662Y-13645643D01*
X13356662Y-13664691D02*
X13366186Y-13655167D01*
X13385233Y-13645643D01*
X13413805Y-13645643D01*
X13432852Y-13655167D01*
X13442376Y-13674214D01*
X13442376Y-13778976D01*
X13442376Y-13674214D02*
X13451900Y-13655167D01*
X13470948Y-13645643D01*
X13499519Y-13645643D01*
X13518567Y-13655167D01*
X13528090Y-13674214D01*
X13528090Y-13778976D01*
X13623329Y-13778976D02*
X13623329Y-13645643D01*
X13623329Y-13664691D02*
X13632852Y-13655167D01*
X13651900Y-13645643D01*
X13680471Y-13645643D01*
X13699519Y-13655167D01*
X13709043Y-13674214D01*
X13709043Y-13778976D01*
X13709043Y-13674214D02*
X13718567Y-13655167D01*
X13737614Y-13645643D01*
X13766186Y-13645643D01*
X13785233Y-13655167D01*
X13794757Y-13674214D01*
X13794757Y-13778976D01*
X14185233Y-13569452D02*
X14013805Y-13826595D01*
X14442376Y-13578976D02*
X14461424Y-13578976D01*
X14480471Y-13588500D01*
X14489995Y-13598024D01*
X14499519Y-13617072D01*
X14509043Y-13655167D01*
X14509043Y-13702786D01*
X14499519Y-13740881D01*
X14489995Y-13759929D01*
X14480471Y-13769452D01*
X14461424Y-13778976D01*
X14442376Y-13778976D01*
X14423329Y-13769452D01*
X14413805Y-13759929D01*
X14404281Y-13740881D01*
X14394757Y-13702786D01*
X14394757Y-13655167D01*
X14404281Y-13617072D01*
X14413805Y-13598024D01*
X14423329Y-13588500D01*
X14442376Y-13578976D01*
X14594757Y-13759929D02*
X14604281Y-13769452D01*
X14594757Y-13778976D01*
X14585233Y-13769452D01*
X14594757Y-13759929D01*
X14594757Y-13778976D01*
X14728090Y-13578976D02*
X14747138Y-13578976D01*
X14766186Y-13588500D01*
X14775710Y-13598024D01*
X14785233Y-13617072D01*
X14794757Y-13655167D01*
X14794757Y-13702786D01*
X14785233Y-13740881D01*
X14775710Y-13759929D01*
X14766186Y-13769452D01*
X14747138Y-13778976D01*
X14728090Y-13778976D01*
X14709043Y-13769452D01*
X14699519Y-13759929D01*
X14689995Y-13740881D01*
X14680471Y-13702786D01*
X14680471Y-13655167D01*
X14689995Y-13617072D01*
X14699519Y-13598024D01*
X14709043Y-13588500D01*
X14728090Y-13578976D01*
X14985233Y-13778976D02*
X14870948Y-13778976D01*
X14928090Y-13778976D02*
X14928090Y-13578976D01*
X14909043Y-13607548D01*
X14889995Y-13626595D01*
X14870948Y-13636119D01*
X15166186Y-13578976D02*
X15070948Y-13578976D01*
X15061424Y-13674214D01*
X15070948Y-13664691D01*
X15089995Y-13655167D01*
X15137614Y-13655167D01*
X15156662Y-13664691D01*
X15166186Y-13674214D01*
X15175710Y-13693262D01*
X15175710Y-13740881D01*
X15166186Y-13759929D01*
X15156662Y-13769452D01*
X15137614Y-13778976D01*
X15089995Y-13778976D01*
X15070948Y-13769452D01*
X15061424Y-13759929D01*
X15242376Y-13578976D02*
X15375710Y-13578976D01*
X15289995Y-13778976D01*
X15442376Y-13578976D02*
X15442376Y-13617072D01*
X15518567Y-13578976D02*
X15518567Y-13617072D01*
X15813805Y-13855167D02*
X15804281Y-13845643D01*
X15785233Y-13817072D01*
X15775710Y-13798024D01*
X15766186Y-13769452D01*
X15756662Y-13721833D01*
X15756662Y-13683738D01*
X15766186Y-13636119D01*
X15775710Y-13607548D01*
X15785233Y-13588500D01*
X15804281Y-13559929D01*
X15813805Y-13550405D01*
X15994757Y-13778976D02*
X15880471Y-13778976D01*
X15937614Y-13778976D02*
X15937614Y-13578976D01*
X15918567Y-13607548D01*
X15899519Y-13626595D01*
X15880471Y-13636119D01*
X16070948Y-13598024D02*
X16080471Y-13588500D01*
X16099519Y-13578976D01*
X16147138Y-13578976D01*
X16166186Y-13588500D01*
X16175710Y-13598024D01*
X16185233Y-13617072D01*
X16185233Y-13636119D01*
X16175710Y-13664691D01*
X16061424Y-13778976D01*
X16185233Y-13778976D01*
X16251900Y-13578976D02*
X16375710Y-13578976D01*
X16309043Y-13655167D01*
X16337614Y-13655167D01*
X16356662Y-13664691D01*
X16366186Y-13674214D01*
X16375710Y-13693262D01*
X16375710Y-13740881D01*
X16366186Y-13759929D01*
X16356662Y-13769452D01*
X16337614Y-13778976D01*
X16280471Y-13778976D01*
X16261424Y-13769452D01*
X16251900Y-13759929D01*
X16613805Y-13778976D02*
X16613805Y-13578976D01*
X16699519Y-13778976D02*
X16699519Y-13674214D01*
X16689995Y-13655167D01*
X16670948Y-13645643D01*
X16642376Y-13645643D01*
X16623329Y-13655167D01*
X16613805Y-13664691D01*
X16823329Y-13778976D02*
X16804281Y-13769452D01*
X16794757Y-13759929D01*
X16785233Y-13740881D01*
X16785233Y-13683738D01*
X16794757Y-13664691D01*
X16804281Y-13655167D01*
X16823329Y-13645643D01*
X16851900Y-13645643D01*
X16870948Y-13655167D01*
X16880472Y-13664691D01*
X16889995Y-13683738D01*
X16889995Y-13740881D01*
X16880472Y-13759929D01*
X16870948Y-13769452D01*
X16851900Y-13778976D01*
X16823329Y-13778976D01*
X17004281Y-13778976D02*
X16985233Y-13769452D01*
X16975710Y-13750405D01*
X16975710Y-13578976D01*
X17156662Y-13769452D02*
X17137614Y-13778976D01*
X17099519Y-13778976D01*
X17080472Y-13769452D01*
X17070948Y-13750405D01*
X17070948Y-13674214D01*
X17080472Y-13655167D01*
X17099519Y-13645643D01*
X17137614Y-13645643D01*
X17156662Y-13655167D01*
X17166186Y-13674214D01*
X17166186Y-13693262D01*
X17070948Y-13712310D01*
X17242376Y-13769452D02*
X17261424Y-13778976D01*
X17299519Y-13778976D01*
X17318567Y-13769452D01*
X17328091Y-13750405D01*
X17328091Y-13740881D01*
X17318567Y-13721833D01*
X17299519Y-13712310D01*
X17270948Y-13712310D01*
X17251900Y-13702786D01*
X17242376Y-13683738D01*
X17242376Y-13674214D01*
X17251900Y-13655167D01*
X17270948Y-13645643D01*
X17299519Y-13645643D01*
X17318567Y-13655167D01*
X17394757Y-13855167D02*
X17404281Y-13845643D01*
X17423329Y-13817072D01*
X17432852Y-13798024D01*
X17442376Y-13769452D01*
X17451900Y-13721833D01*
X17451900Y-13683738D01*
X17442376Y-13636119D01*
X17432852Y-13607548D01*
X17423329Y-13588500D01*
X17404281Y-13559929D01*
X17394757Y-13550405D01*
D14*
X12216900Y-13927500D02*
X12216900Y-13977500D01*
X12191900Y-13952500D02*
X12241900Y-13952500D01*
D11*
X12537614Y-13842976D02*
X12556662Y-13842976D01*
X12575710Y-13852500D01*
X12585233Y-13862024D01*
X12594757Y-13881072D01*
X12604281Y-13919167D01*
X12604281Y-13966786D01*
X12594757Y-14004881D01*
X12585233Y-14023929D01*
X12575710Y-14033452D01*
X12556662Y-14042976D01*
X12537614Y-14042976D01*
X12518567Y-14033452D01*
X12509043Y-14023929D01*
X12499519Y-14004881D01*
X12489995Y-13966786D01*
X12489995Y-13919167D01*
X12499519Y-13881072D01*
X12509043Y-13862024D01*
X12518567Y-13852500D01*
X12537614Y-13842976D01*
X12689995Y-14023929D02*
X12699519Y-14033452D01*
X12689995Y-14042976D01*
X12680471Y-14033452D01*
X12689995Y-14023929D01*
X12689995Y-14042976D01*
X12880471Y-13842976D02*
X12785233Y-13842976D01*
X12775710Y-13938214D01*
X12785233Y-13928691D01*
X12804281Y-13919167D01*
X12851900Y-13919167D01*
X12870948Y-13928691D01*
X12880471Y-13938214D01*
X12889995Y-13957262D01*
X12889995Y-14004881D01*
X12880471Y-14023929D01*
X12870948Y-14033452D01*
X12851900Y-14042976D01*
X12804281Y-14042976D01*
X12785233Y-14033452D01*
X12775710Y-14023929D01*
X13013805Y-13842976D02*
X13032852Y-13842976D01*
X13051900Y-13852500D01*
X13061424Y-13862024D01*
X13070948Y-13881072D01*
X13080471Y-13919167D01*
X13080471Y-13966786D01*
X13070948Y-14004881D01*
X13061424Y-14023929D01*
X13051900Y-14033452D01*
X13032852Y-14042976D01*
X13013805Y-14042976D01*
X12994757Y-14033452D01*
X12985233Y-14023929D01*
X12975710Y-14004881D01*
X12966186Y-13966786D01*
X12966186Y-13919167D01*
X12975710Y-13881072D01*
X12985233Y-13862024D01*
X12994757Y-13852500D01*
X13013805Y-13842976D01*
X13204281Y-13842976D02*
X13223329Y-13842976D01*
X13242376Y-13852500D01*
X13251900Y-13862024D01*
X13261424Y-13881072D01*
X13270948Y-13919167D01*
X13270948Y-13966786D01*
X13261424Y-14004881D01*
X13251900Y-14023929D01*
X13242376Y-14033452D01*
X13223329Y-14042976D01*
X13204281Y-14042976D01*
X13185233Y-14033452D01*
X13175710Y-14023929D01*
X13166186Y-14004881D01*
X13156662Y-13966786D01*
X13156662Y-13919167D01*
X13166186Y-13881072D01*
X13175710Y-13862024D01*
X13185233Y-13852500D01*
X13204281Y-13842976D01*
X13356662Y-14042976D02*
X13356662Y-13909643D01*
X13356662Y-13928691D02*
X13366186Y-13919167D01*
X13385233Y-13909643D01*
X13413805Y-13909643D01*
X13432852Y-13919167D01*
X13442376Y-13938214D01*
X13442376Y-14042976D01*
X13442376Y-13938214D02*
X13451900Y-13919167D01*
X13470948Y-13909643D01*
X13499519Y-13909643D01*
X13518567Y-13919167D01*
X13528090Y-13938214D01*
X13528090Y-14042976D01*
X13623329Y-14042976D02*
X13623329Y-13909643D01*
X13623329Y-13928691D02*
X13632852Y-13919167D01*
X13651900Y-13909643D01*
X13680471Y-13909643D01*
X13699519Y-13919167D01*
X13709043Y-13938214D01*
X13709043Y-14042976D01*
X13709043Y-13938214D02*
X13718567Y-13919167D01*
X13737614Y-13909643D01*
X13766186Y-13909643D01*
X13785233Y-13919167D01*
X13794757Y-13938214D01*
X13794757Y-14042976D01*
X14185233Y-13833452D02*
X14013805Y-14090595D01*
X14442376Y-13842976D02*
X14461424Y-13842976D01*
X14480471Y-13852500D01*
X14489995Y-13862024D01*
X14499519Y-13881072D01*
X14509043Y-13919167D01*
X14509043Y-13966786D01*
X14499519Y-14004881D01*
X14489995Y-14023929D01*
X14480471Y-14033452D01*
X14461424Y-14042976D01*
X14442376Y-14042976D01*
X14423329Y-14033452D01*
X14413805Y-14023929D01*
X14404281Y-14004881D01*
X14394757Y-13966786D01*
X14394757Y-13919167D01*
X14404281Y-13881072D01*
X14413805Y-13862024D01*
X14423329Y-13852500D01*
X14442376Y-13842976D01*
X14594757Y-14023929D02*
X14604281Y-14033452D01*
X14594757Y-14042976D01*
X14585233Y-14033452D01*
X14594757Y-14023929D01*
X14594757Y-14042976D01*
X14728090Y-13842976D02*
X14747138Y-13842976D01*
X14766186Y-13852500D01*
X14775710Y-13862024D01*
X14785233Y-13881072D01*
X14794757Y-13919167D01*
X14794757Y-13966786D01*
X14785233Y-14004881D01*
X14775710Y-14023929D01*
X14766186Y-14033452D01*
X14747138Y-14042976D01*
X14728090Y-14042976D01*
X14709043Y-14033452D01*
X14699519Y-14023929D01*
X14689995Y-14004881D01*
X14680471Y-13966786D01*
X14680471Y-13919167D01*
X14689995Y-13881072D01*
X14699519Y-13862024D01*
X14709043Y-13852500D01*
X14728090Y-13842976D01*
X14985233Y-14042976D02*
X14870948Y-14042976D01*
X14928090Y-14042976D02*
X14928090Y-13842976D01*
X14909043Y-13871548D01*
X14889995Y-13890595D01*
X14870948Y-13900119D01*
X15080471Y-14042976D02*
X15118567Y-14042976D01*
X15137614Y-14033452D01*
X15147138Y-14023929D01*
X15166186Y-13995357D01*
X15175710Y-13957262D01*
X15175710Y-13881072D01*
X15166186Y-13862024D01*
X15156662Y-13852500D01*
X15137614Y-13842976D01*
X15099519Y-13842976D01*
X15080471Y-13852500D01*
X15070948Y-13862024D01*
X15061424Y-13881072D01*
X15061424Y-13928691D01*
X15070948Y-13947738D01*
X15080471Y-13957262D01*
X15099519Y-13966786D01*
X15137614Y-13966786D01*
X15156662Y-13957262D01*
X15166186Y-13947738D01*
X15175710Y-13928691D01*
X15242376Y-13842976D02*
X15375710Y-13842976D01*
X15289995Y-14042976D01*
X15442376Y-13842976D02*
X15442376Y-13881072D01*
X15518567Y-13842976D02*
X15518567Y-13881072D01*
X15813805Y-14119167D02*
X15804281Y-14109643D01*
X15785233Y-14081072D01*
X15775710Y-14062024D01*
X15766186Y-14033452D01*
X15756662Y-13985833D01*
X15756662Y-13947738D01*
X15766186Y-13900119D01*
X15775710Y-13871548D01*
X15785233Y-13852500D01*
X15804281Y-13823929D01*
X15813805Y-13814405D01*
X15899519Y-14042976D02*
X15937614Y-14042976D01*
X15956662Y-14033452D01*
X15966186Y-14023929D01*
X15985233Y-13995357D01*
X15994757Y-13957262D01*
X15994757Y-13881072D01*
X15985233Y-13862024D01*
X15975710Y-13852500D01*
X15956662Y-13842976D01*
X15918567Y-13842976D01*
X15899519Y-13852500D01*
X15889995Y-13862024D01*
X15880471Y-13881072D01*
X15880471Y-13928691D01*
X15889995Y-13947738D01*
X15899519Y-13957262D01*
X15918567Y-13966786D01*
X15956662Y-13966786D01*
X15975710Y-13957262D01*
X15985233Y-13947738D01*
X15994757Y-13928691D01*
X16232852Y-14042976D02*
X16232852Y-13842976D01*
X16318567Y-14042976D02*
X16318567Y-13938214D01*
X16309043Y-13919167D01*
X16289995Y-13909643D01*
X16261424Y-13909643D01*
X16242376Y-13919167D01*
X16232852Y-13928691D01*
X16442376Y-14042976D02*
X16423329Y-14033452D01*
X16413805Y-14023929D01*
X16404281Y-14004881D01*
X16404281Y-13947738D01*
X16413805Y-13928691D01*
X16423329Y-13919167D01*
X16442376Y-13909643D01*
X16470948Y-13909643D01*
X16489995Y-13919167D01*
X16499519Y-13928691D01*
X16509043Y-13947738D01*
X16509043Y-14004881D01*
X16499519Y-14023929D01*
X16489995Y-14033452D01*
X16470948Y-14042976D01*
X16442376Y-14042976D01*
X16623329Y-14042976D02*
X16604281Y-14033452D01*
X16594757Y-14014405D01*
X16594757Y-13842976D01*
X16775710Y-14033452D02*
X16756662Y-14042976D01*
X16718567Y-14042976D01*
X16699519Y-14033452D01*
X16689995Y-14014405D01*
X16689995Y-13938214D01*
X16699519Y-13919167D01*
X16718567Y-13909643D01*
X16756662Y-13909643D01*
X16775710Y-13919167D01*
X16785233Y-13938214D01*
X16785233Y-13957262D01*
X16689995Y-13976310D01*
X16861424Y-14033452D02*
X16880472Y-14042976D01*
X16918567Y-14042976D01*
X16937614Y-14033452D01*
X16947138Y-14014405D01*
X16947138Y-14004881D01*
X16937614Y-13985833D01*
X16918567Y-13976310D01*
X16889995Y-13976310D01*
X16870948Y-13966786D01*
X16861424Y-13947738D01*
X16861424Y-13938214D01*
X16870948Y-13919167D01*
X16889995Y-13909643D01*
X16918567Y-13909643D01*
X16937614Y-13919167D01*
X17013805Y-14119167D02*
X17023329Y-14109643D01*
X17042376Y-14081072D01*
X17051900Y-14062024D01*
X17061424Y-14033452D01*
X17070948Y-13985833D01*
X17070948Y-13947738D01*
X17061424Y-13900119D01*
X17051900Y-13871548D01*
X17042376Y-13852500D01*
X17023329Y-13823929D01*
X17013805Y-13814405D01*
D15*
X12233113Y-14237714D02*
X12233113Y-14195287D01*
X12190687Y-14195287D01*
X12190687Y-14237714D01*
X12233113Y-14237714D01*
D11*
X12537614Y-14106976D02*
X12556662Y-14106976D01*
X12575710Y-14116500D01*
X12585233Y-14126024D01*
X12594757Y-14145072D01*
X12604281Y-14183167D01*
X12604281Y-14230786D01*
X12594757Y-14268881D01*
X12585233Y-14287929D01*
X12575710Y-14297452D01*
X12556662Y-14306976D01*
X12537614Y-14306976D01*
X12518567Y-14297452D01*
X12509043Y-14287929D01*
X12499519Y-14268881D01*
X12489995Y-14230786D01*
X12489995Y-14183167D01*
X12499519Y-14145072D01*
X12509043Y-14126024D01*
X12518567Y-14116500D01*
X12537614Y-14106976D01*
X12689995Y-14287929D02*
X12699519Y-14297452D01*
X12689995Y-14306976D01*
X12680471Y-14297452D01*
X12689995Y-14287929D01*
X12689995Y-14306976D01*
X12870948Y-14106976D02*
X12832852Y-14106976D01*
X12813805Y-14116500D01*
X12804281Y-14126024D01*
X12785233Y-14154595D01*
X12775710Y-14192691D01*
X12775710Y-14268881D01*
X12785233Y-14287929D01*
X12794757Y-14297452D01*
X12813805Y-14306976D01*
X12851900Y-14306976D01*
X12870948Y-14297452D01*
X12880471Y-14287929D01*
X12889995Y-14268881D01*
X12889995Y-14221262D01*
X12880471Y-14202214D01*
X12870948Y-14192691D01*
X12851900Y-14183167D01*
X12813805Y-14183167D01*
X12794757Y-14192691D01*
X12785233Y-14202214D01*
X12775710Y-14221262D01*
X13013805Y-14106976D02*
X13032852Y-14106976D01*
X13051900Y-14116500D01*
X13061424Y-14126024D01*
X13070948Y-14145072D01*
X13080471Y-14183167D01*
X13080471Y-14230786D01*
X13070948Y-14268881D01*
X13061424Y-14287929D01*
X13051900Y-14297452D01*
X13032852Y-14306976D01*
X13013805Y-14306976D01*
X12994757Y-14297452D01*
X12985233Y-14287929D01*
X12975710Y-14268881D01*
X12966186Y-14230786D01*
X12966186Y-14183167D01*
X12975710Y-14145072D01*
X12985233Y-14126024D01*
X12994757Y-14116500D01*
X13013805Y-14106976D01*
X13204281Y-14106976D02*
X13223329Y-14106976D01*
X13242376Y-14116500D01*
X13251900Y-14126024D01*
X13261424Y-14145072D01*
X13270948Y-14183167D01*
X13270948Y-14230786D01*
X13261424Y-14268881D01*
X13251900Y-14287929D01*
X13242376Y-14297452D01*
X13223329Y-14306976D01*
X13204281Y-14306976D01*
X13185233Y-14297452D01*
X13175710Y-14287929D01*
X13166186Y-14268881D01*
X13156662Y-14230786D01*
X13156662Y-14183167D01*
X13166186Y-14145072D01*
X13175710Y-14126024D01*
X13185233Y-14116500D01*
X13204281Y-14106976D01*
X13356662Y-14306976D02*
X13356662Y-14173643D01*
X13356662Y-14192691D02*
X13366186Y-14183167D01*
X13385233Y-14173643D01*
X13413805Y-14173643D01*
X13432852Y-14183167D01*
X13442376Y-14202214D01*
X13442376Y-14306976D01*
X13442376Y-14202214D02*
X13451900Y-14183167D01*
X13470948Y-14173643D01*
X13499519Y-14173643D01*
X13518567Y-14183167D01*
X13528090Y-14202214D01*
X13528090Y-14306976D01*
X13623329Y-14306976D02*
X13623329Y-14173643D01*
X13623329Y-14192691D02*
X13632852Y-14183167D01*
X13651900Y-14173643D01*
X13680471Y-14173643D01*
X13699519Y-14183167D01*
X13709043Y-14202214D01*
X13709043Y-14306976D01*
X13709043Y-14202214D02*
X13718567Y-14183167D01*
X13737614Y-14173643D01*
X13766186Y-14173643D01*
X13785233Y-14183167D01*
X13794757Y-14202214D01*
X13794757Y-14306976D01*
X14185233Y-14097452D02*
X14013805Y-14354595D01*
X14442376Y-14106976D02*
X14461424Y-14106976D01*
X14480471Y-14116500D01*
X14489995Y-14126024D01*
X14499519Y-14145072D01*
X14509043Y-14183167D01*
X14509043Y-14230786D01*
X14499519Y-14268881D01*
X14489995Y-14287929D01*
X14480471Y-14297452D01*
X14461424Y-14306976D01*
X14442376Y-14306976D01*
X14423329Y-14297452D01*
X14413805Y-14287929D01*
X14404281Y-14268881D01*
X14394757Y-14230786D01*
X14394757Y-14183167D01*
X14404281Y-14145072D01*
X14413805Y-14126024D01*
X14423329Y-14116500D01*
X14442376Y-14106976D01*
X14594757Y-14287929D02*
X14604281Y-14297452D01*
X14594757Y-14306976D01*
X14585233Y-14297452D01*
X14594757Y-14287929D01*
X14594757Y-14306976D01*
X14728090Y-14106976D02*
X14747138Y-14106976D01*
X14766186Y-14116500D01*
X14775710Y-14126024D01*
X14785233Y-14145072D01*
X14794757Y-14183167D01*
X14794757Y-14230786D01*
X14785233Y-14268881D01*
X14775710Y-14287929D01*
X14766186Y-14297452D01*
X14747138Y-14306976D01*
X14728090Y-14306976D01*
X14709043Y-14297452D01*
X14699519Y-14287929D01*
X14689995Y-14268881D01*
X14680471Y-14230786D01*
X14680471Y-14183167D01*
X14689995Y-14145072D01*
X14699519Y-14126024D01*
X14709043Y-14116500D01*
X14728090Y-14106976D01*
X14870948Y-14126024D02*
X14880471Y-14116500D01*
X14899519Y-14106976D01*
X14947138Y-14106976D01*
X14966186Y-14116500D01*
X14975710Y-14126024D01*
X14985233Y-14145072D01*
X14985233Y-14164119D01*
X14975710Y-14192691D01*
X14861424Y-14306976D01*
X14985233Y-14306976D01*
X15051900Y-14106976D02*
X15175710Y-14106976D01*
X15109043Y-14183167D01*
X15137614Y-14183167D01*
X15156662Y-14192691D01*
X15166186Y-14202214D01*
X15175710Y-14221262D01*
X15175710Y-14268881D01*
X15166186Y-14287929D01*
X15156662Y-14297452D01*
X15137614Y-14306976D01*
X15080471Y-14306976D01*
X15061424Y-14297452D01*
X15051900Y-14287929D01*
X15347138Y-14106976D02*
X15309043Y-14106976D01*
X15289995Y-14116500D01*
X15280471Y-14126024D01*
X15261424Y-14154595D01*
X15251900Y-14192691D01*
X15251900Y-14268881D01*
X15261424Y-14287929D01*
X15270948Y-14297452D01*
X15289995Y-14306976D01*
X15328090Y-14306976D01*
X15347138Y-14297452D01*
X15356662Y-14287929D01*
X15366186Y-14268881D01*
X15366186Y-14221262D01*
X15356662Y-14202214D01*
X15347138Y-14192691D01*
X15328090Y-14183167D01*
X15289995Y-14183167D01*
X15270948Y-14192691D01*
X15261424Y-14202214D01*
X15251900Y-14221262D01*
X15442376Y-14106976D02*
X15442376Y-14145072D01*
X15518567Y-14106976D02*
X15518567Y-14145072D01*
X15813805Y-14383167D02*
X15804281Y-14373643D01*
X15785233Y-14345072D01*
X15775710Y-14326024D01*
X15766186Y-14297452D01*
X15756662Y-14249833D01*
X15756662Y-14211738D01*
X15766186Y-14164119D01*
X15775710Y-14135548D01*
X15785233Y-14116500D01*
X15804281Y-14087929D01*
X15813805Y-14078405D01*
X15928090Y-14106976D02*
X15947138Y-14106976D01*
X15966186Y-14116500D01*
X15975710Y-14126024D01*
X15985233Y-14145072D01*
X15994757Y-14183167D01*
X15994757Y-14230786D01*
X15985233Y-14268881D01*
X15975710Y-14287929D01*
X15966186Y-14297452D01*
X15947138Y-14306976D01*
X15928090Y-14306976D01*
X15909043Y-14297452D01*
X15899519Y-14287929D01*
X15889995Y-14268881D01*
X15880471Y-14230786D01*
X15880471Y-14183167D01*
X15889995Y-14145072D01*
X15899519Y-14126024D01*
X15909043Y-14116500D01*
X15928090Y-14106976D01*
X16232852Y-14306976D02*
X16232852Y-14106976D01*
X16318567Y-14306976D02*
X16318567Y-14202214D01*
X16309043Y-14183167D01*
X16289995Y-14173643D01*
X16261424Y-14173643D01*
X16242376Y-14183167D01*
X16232852Y-14192691D01*
X16442376Y-14306976D02*
X16423329Y-14297452D01*
X16413805Y-14287929D01*
X16404281Y-14268881D01*
X16404281Y-14211738D01*
X16413805Y-14192691D01*
X16423329Y-14183167D01*
X16442376Y-14173643D01*
X16470948Y-14173643D01*
X16489995Y-14183167D01*
X16499519Y-14192691D01*
X16509043Y-14211738D01*
X16509043Y-14268881D01*
X16499519Y-14287929D01*
X16489995Y-14297452D01*
X16470948Y-14306976D01*
X16442376Y-14306976D01*
X16623329Y-14306976D02*
X16604281Y-14297452D01*
X16594757Y-14278405D01*
X16594757Y-14106976D01*
X16775710Y-14297452D02*
X16756662Y-14306976D01*
X16718567Y-14306976D01*
X16699519Y-14297452D01*
X16689995Y-14278405D01*
X16689995Y-14202214D01*
X16699519Y-14183167D01*
X16718567Y-14173643D01*
X16756662Y-14173643D01*
X16775710Y-14183167D01*
X16785233Y-14202214D01*
X16785233Y-14221262D01*
X16689995Y-14240310D01*
X16861424Y-14297452D02*
X16880472Y-14306976D01*
X16918567Y-14306976D01*
X16937614Y-14297452D01*
X16947138Y-14278405D01*
X16947138Y-14268881D01*
X16937614Y-14249833D01*
X16918567Y-14240310D01*
X16889995Y-14240310D01*
X16870948Y-14230786D01*
X16861424Y-14211738D01*
X16861424Y-14202214D01*
X16870948Y-14183167D01*
X16889995Y-14173643D01*
X16918567Y-14173643D01*
X16937614Y-14183167D01*
X17185233Y-14230786D02*
X17337614Y-14230786D01*
X17261424Y-14306976D02*
X17261424Y-14154595D01*
X17670948Y-14173643D02*
X17670948Y-14306976D01*
X17623329Y-14097452D02*
X17575710Y-14240310D01*
X17699519Y-14240310D01*
X17918567Y-14297452D02*
X17937614Y-14306976D01*
X17975710Y-14306976D01*
X17994757Y-14297452D01*
X18004281Y-14278405D01*
X18004281Y-14268881D01*
X17994757Y-14249833D01*
X17975710Y-14240310D01*
X17947138Y-14240310D01*
X17928091Y-14230786D01*
X17918567Y-14211738D01*
X17918567Y-14202214D01*
X17928091Y-14183167D01*
X17947138Y-14173643D01*
X17975710Y-14173643D01*
X17994757Y-14183167D01*
X18118567Y-14306976D02*
X18099519Y-14297452D01*
X18089995Y-14278405D01*
X18089995Y-14106976D01*
X18223329Y-14306976D02*
X18204281Y-14297452D01*
X18194757Y-14287929D01*
X18185233Y-14268881D01*
X18185233Y-14211738D01*
X18194757Y-14192691D01*
X18204281Y-14183167D01*
X18223329Y-14173643D01*
X18251900Y-14173643D01*
X18270948Y-14183167D01*
X18280472Y-14192691D01*
X18289995Y-14211738D01*
X18289995Y-14268881D01*
X18280472Y-14287929D01*
X18270948Y-14297452D01*
X18251900Y-14306976D01*
X18223329Y-14306976D01*
X18347138Y-14173643D02*
X18423329Y-14173643D01*
X18375710Y-14106976D02*
X18375710Y-14278405D01*
X18385233Y-14297452D01*
X18404281Y-14306976D01*
X18423329Y-14306976D01*
X18480472Y-14297452D02*
X18499519Y-14306976D01*
X18537614Y-14306976D01*
X18556662Y-14297452D01*
X18566186Y-14278405D01*
X18566186Y-14268881D01*
X18556662Y-14249833D01*
X18537614Y-14240310D01*
X18509043Y-14240310D01*
X18489995Y-14230786D01*
X18480472Y-14211738D01*
X18480472Y-14202214D01*
X18489995Y-14183167D01*
X18509043Y-14173643D01*
X18537614Y-14173643D01*
X18556662Y-14183167D01*
X18632852Y-14383167D02*
X18642376Y-14373643D01*
X18661424Y-14345072D01*
X18670948Y-14326024D01*
X18680472Y-14297452D01*
X18689995Y-14249833D01*
X18689995Y-14211738D01*
X18680472Y-14164119D01*
X18670948Y-14135548D01*
X18661424Y-14116500D01*
X18642376Y-14087929D01*
X18632852Y-14078405D01*
D16*
X12191900Y-14530500D02*
X12241900Y-14480500D01*
X12191900Y-14430500D01*
X12141900Y-14480500D01*
X12191900Y-14530500D01*
D11*
X12604281Y-14570976D02*
X12489995Y-14570976D01*
X12547138Y-14570976D02*
X12547138Y-14370976D01*
X12528090Y-14399548D01*
X12509043Y-14418595D01*
X12489995Y-14428119D01*
X12689995Y-14551929D02*
X12699519Y-14561452D01*
X12689995Y-14570976D01*
X12680471Y-14561452D01*
X12689995Y-14551929D01*
X12689995Y-14570976D01*
X12823329Y-14370976D02*
X12842376Y-14370976D01*
X12861424Y-14380500D01*
X12870948Y-14390024D01*
X12880471Y-14409072D01*
X12889995Y-14447167D01*
X12889995Y-14494786D01*
X12880471Y-14532881D01*
X12870948Y-14551929D01*
X12861424Y-14561452D01*
X12842376Y-14570976D01*
X12823329Y-14570976D01*
X12804281Y-14561452D01*
X12794757Y-14551929D01*
X12785233Y-14532881D01*
X12775710Y-14494786D01*
X12775710Y-14447167D01*
X12785233Y-14409072D01*
X12794757Y-14390024D01*
X12804281Y-14380500D01*
X12823329Y-14370976D01*
X13013805Y-14370976D02*
X13032852Y-14370976D01*
X13051900Y-14380500D01*
X13061424Y-14390024D01*
X13070948Y-14409072D01*
X13080471Y-14447167D01*
X13080471Y-14494786D01*
X13070948Y-14532881D01*
X13061424Y-14551929D01*
X13051900Y-14561452D01*
X13032852Y-14570976D01*
X13013805Y-14570976D01*
X12994757Y-14561452D01*
X12985233Y-14551929D01*
X12975710Y-14532881D01*
X12966186Y-14494786D01*
X12966186Y-14447167D01*
X12975710Y-14409072D01*
X12985233Y-14390024D01*
X12994757Y-14380500D01*
X13013805Y-14370976D01*
X13204281Y-14370976D02*
X13223329Y-14370976D01*
X13242376Y-14380500D01*
X13251900Y-14390024D01*
X13261424Y-14409072D01*
X13270948Y-14447167D01*
X13270948Y-14494786D01*
X13261424Y-14532881D01*
X13251900Y-14551929D01*
X13242376Y-14561452D01*
X13223329Y-14570976D01*
X13204281Y-14570976D01*
X13185233Y-14561452D01*
X13175710Y-14551929D01*
X13166186Y-14532881D01*
X13156662Y-14494786D01*
X13156662Y-14447167D01*
X13166186Y-14409072D01*
X13175710Y-14390024D01*
X13185233Y-14380500D01*
X13204281Y-14370976D01*
X13356662Y-14570976D02*
X13356662Y-14437643D01*
X13356662Y-14456691D02*
X13366186Y-14447167D01*
X13385233Y-14437643D01*
X13413805Y-14437643D01*
X13432852Y-14447167D01*
X13442376Y-14466214D01*
X13442376Y-14570976D01*
X13442376Y-14466214D02*
X13451900Y-14447167D01*
X13470948Y-14437643D01*
X13499519Y-14437643D01*
X13518567Y-14447167D01*
X13528090Y-14466214D01*
X13528090Y-14570976D01*
X13623329Y-14570976D02*
X13623329Y-14437643D01*
X13623329Y-14456691D02*
X13632852Y-14447167D01*
X13651900Y-14437643D01*
X13680471Y-14437643D01*
X13699519Y-14447167D01*
X13709043Y-14466214D01*
X13709043Y-14570976D01*
X13709043Y-14466214D02*
X13718567Y-14447167D01*
X13737614Y-14437643D01*
X13766186Y-14437643D01*
X13785233Y-14447167D01*
X13794757Y-14466214D01*
X13794757Y-14570976D01*
X14185233Y-14361452D02*
X14013805Y-14618595D01*
X14442376Y-14370976D02*
X14461424Y-14370976D01*
X14480471Y-14380500D01*
X14489995Y-14390024D01*
X14499519Y-14409072D01*
X14509043Y-14447167D01*
X14509043Y-14494786D01*
X14499519Y-14532881D01*
X14489995Y-14551929D01*
X14480471Y-14561452D01*
X14461424Y-14570976D01*
X14442376Y-14570976D01*
X14423329Y-14561452D01*
X14413805Y-14551929D01*
X14404281Y-14532881D01*
X14394757Y-14494786D01*
X14394757Y-14447167D01*
X14404281Y-14409072D01*
X14413805Y-14390024D01*
X14423329Y-14380500D01*
X14442376Y-14370976D01*
X14594757Y-14551929D02*
X14604281Y-14561452D01*
X14594757Y-14570976D01*
X14585233Y-14561452D01*
X14594757Y-14551929D01*
X14594757Y-14570976D01*
X14728090Y-14370976D02*
X14747138Y-14370976D01*
X14766186Y-14380500D01*
X14775710Y-14390024D01*
X14785233Y-14409072D01*
X14794757Y-14447167D01*
X14794757Y-14494786D01*
X14785233Y-14532881D01*
X14775710Y-14551929D01*
X14766186Y-14561452D01*
X14747138Y-14570976D01*
X14728090Y-14570976D01*
X14709043Y-14561452D01*
X14699519Y-14551929D01*
X14689995Y-14532881D01*
X14680471Y-14494786D01*
X14680471Y-14447167D01*
X14689995Y-14409072D01*
X14699519Y-14390024D01*
X14709043Y-14380500D01*
X14728090Y-14370976D01*
X14861424Y-14370976D02*
X14985233Y-14370976D01*
X14918567Y-14447167D01*
X14947138Y-14447167D01*
X14966186Y-14456691D01*
X14975710Y-14466214D01*
X14985233Y-14485262D01*
X14985233Y-14532881D01*
X14975710Y-14551929D01*
X14966186Y-14561452D01*
X14947138Y-14570976D01*
X14889995Y-14570976D01*
X14870948Y-14561452D01*
X14861424Y-14551929D01*
X15080471Y-14570976D02*
X15118567Y-14570976D01*
X15137614Y-14561452D01*
X15147138Y-14551929D01*
X15166186Y-14523357D01*
X15175710Y-14485262D01*
X15175710Y-14409072D01*
X15166186Y-14390024D01*
X15156662Y-14380500D01*
X15137614Y-14370976D01*
X15099519Y-14370976D01*
X15080471Y-14380500D01*
X15070948Y-14390024D01*
X15061424Y-14409072D01*
X15061424Y-14456691D01*
X15070948Y-14475738D01*
X15080471Y-14485262D01*
X15099519Y-14494786D01*
X15137614Y-14494786D01*
X15156662Y-14485262D01*
X15166186Y-14475738D01*
X15175710Y-14456691D01*
X15347138Y-14437643D02*
X15347138Y-14570976D01*
X15299519Y-14361452D02*
X15251900Y-14504310D01*
X15375710Y-14504310D01*
X15442376Y-14370976D02*
X15442376Y-14409072D01*
X15518567Y-14370976D02*
X15518567Y-14409072D01*
X15813805Y-14647167D02*
X15804281Y-14637643D01*
X15785233Y-14609072D01*
X15775710Y-14590024D01*
X15766186Y-14561452D01*
X15756662Y-14513833D01*
X15756662Y-14475738D01*
X15766186Y-14428119D01*
X15775710Y-14399548D01*
X15785233Y-14380500D01*
X15804281Y-14351929D01*
X15813805Y-14342405D01*
X15994757Y-14570976D02*
X15880471Y-14570976D01*
X15937614Y-14570976D02*
X15937614Y-14370976D01*
X15918567Y-14399548D01*
X15899519Y-14418595D01*
X15880471Y-14428119D01*
X16185233Y-14570976D02*
X16070948Y-14570976D01*
X16128090Y-14570976D02*
X16128090Y-14370976D01*
X16109043Y-14399548D01*
X16089995Y-14418595D01*
X16070948Y-14428119D01*
X16423329Y-14570976D02*
X16423329Y-14370976D01*
X16509043Y-14570976D02*
X16509043Y-14466214D01*
X16499519Y-14447167D01*
X16480471Y-14437643D01*
X16451900Y-14437643D01*
X16432852Y-14447167D01*
X16423329Y-14456691D01*
X16632852Y-14570976D02*
X16613805Y-14561452D01*
X16604281Y-14551929D01*
X16594757Y-14532881D01*
X16594757Y-14475738D01*
X16604281Y-14456691D01*
X16613805Y-14447167D01*
X16632852Y-14437643D01*
X16661424Y-14437643D01*
X16680471Y-14447167D01*
X16689995Y-14456691D01*
X16699519Y-14475738D01*
X16699519Y-14532881D01*
X16689995Y-14551929D01*
X16680471Y-14561452D01*
X16661424Y-14570976D01*
X16632852Y-14570976D01*
X16813805Y-14570976D02*
X16794757Y-14561452D01*
X16785233Y-14542405D01*
X16785233Y-14370976D01*
X16966186Y-14561452D02*
X16947138Y-14570976D01*
X16909043Y-14570976D01*
X16889995Y-14561452D01*
X16880472Y-14542405D01*
X16880472Y-14466214D01*
X16889995Y-14447167D01*
X16909043Y-14437643D01*
X16947138Y-14437643D01*
X16966186Y-14447167D01*
X16975710Y-14466214D01*
X16975710Y-14485262D01*
X16880472Y-14504310D01*
X17051900Y-14561452D02*
X17070948Y-14570976D01*
X17109043Y-14570976D01*
X17128091Y-14561452D01*
X17137614Y-14542405D01*
X17137614Y-14532881D01*
X17128091Y-14513833D01*
X17109043Y-14504310D01*
X17080472Y-14504310D01*
X17061424Y-14494786D01*
X17051900Y-14475738D01*
X17051900Y-14466214D01*
X17061424Y-14447167D01*
X17080472Y-14437643D01*
X17109043Y-14437643D01*
X17128091Y-14447167D01*
X17204281Y-14647167D02*
X17213805Y-14637643D01*
X17232852Y-14609072D01*
X17242376Y-14590024D01*
X17251900Y-14561452D01*
X17261424Y-14513833D01*
X17261424Y-14475738D01*
X17251900Y-14428119D01*
X17242376Y-14399548D01*
X17232852Y-14380500D01*
X17213805Y-14351929D01*
X17204281Y-14342405D01*
D17*
X12140300Y-14693700D02*
X12241900Y-14795300D01*
X12241900Y-14693700D02*
X12140300Y-14795300D01*
X12241900Y-14744500D02*
G75*
G03*
X12241900Y-14744500I-50800J0D01*
G01*
D11*
X12604281Y-14834976D02*
X12489995Y-14834976D01*
X12547138Y-14834976D02*
X12547138Y-14634976D01*
X12528090Y-14663548D01*
X12509043Y-14682595D01*
X12489995Y-14692119D01*
X12689995Y-14815929D02*
X12699519Y-14825452D01*
X12689995Y-14834976D01*
X12680471Y-14825452D01*
X12689995Y-14815929D01*
X12689995Y-14834976D01*
X12823329Y-14634976D02*
X12842376Y-14634976D01*
X12861424Y-14644500D01*
X12870948Y-14654024D01*
X12880471Y-14673072D01*
X12889995Y-14711167D01*
X12889995Y-14758786D01*
X12880471Y-14796881D01*
X12870948Y-14815929D01*
X12861424Y-14825452D01*
X12842376Y-14834976D01*
X12823329Y-14834976D01*
X12804281Y-14825452D01*
X12794757Y-14815929D01*
X12785233Y-14796881D01*
X12775710Y-14758786D01*
X12775710Y-14711167D01*
X12785233Y-14673072D01*
X12794757Y-14654024D01*
X12804281Y-14644500D01*
X12823329Y-14634976D01*
X13080471Y-14834976D02*
X12966186Y-14834976D01*
X13023329Y-14834976D02*
X13023329Y-14634976D01*
X13004281Y-14663548D01*
X12985233Y-14682595D01*
X12966186Y-14692119D01*
X13251900Y-14634976D02*
X13213805Y-14634976D01*
X13194757Y-14644500D01*
X13185233Y-14654024D01*
X13166186Y-14682595D01*
X13156662Y-14720691D01*
X13156662Y-14796881D01*
X13166186Y-14815929D01*
X13175710Y-14825452D01*
X13194757Y-14834976D01*
X13232852Y-14834976D01*
X13251900Y-14825452D01*
X13261424Y-14815929D01*
X13270948Y-14796881D01*
X13270948Y-14749262D01*
X13261424Y-14730214D01*
X13251900Y-14720691D01*
X13232852Y-14711167D01*
X13194757Y-14711167D01*
X13175710Y-14720691D01*
X13166186Y-14730214D01*
X13156662Y-14749262D01*
X13356662Y-14834976D02*
X13356662Y-14701643D01*
X13356662Y-14720691D02*
X13366186Y-14711167D01*
X13385233Y-14701643D01*
X13413805Y-14701643D01*
X13432852Y-14711167D01*
X13442376Y-14730214D01*
X13442376Y-14834976D01*
X13442376Y-14730214D02*
X13451900Y-14711167D01*
X13470948Y-14701643D01*
X13499519Y-14701643D01*
X13518567Y-14711167D01*
X13528090Y-14730214D01*
X13528090Y-14834976D01*
X13623329Y-14834976D02*
X13623329Y-14701643D01*
X13623329Y-14720691D02*
X13632852Y-14711167D01*
X13651900Y-14701643D01*
X13680471Y-14701643D01*
X13699519Y-14711167D01*
X13709043Y-14730214D01*
X13709043Y-14834976D01*
X13709043Y-14730214D02*
X13718567Y-14711167D01*
X13737614Y-14701643D01*
X13766186Y-14701643D01*
X13785233Y-14711167D01*
X13794757Y-14730214D01*
X13794757Y-14834976D01*
X14185233Y-14625452D02*
X14013805Y-14882595D01*
X14442376Y-14634976D02*
X14461424Y-14634976D01*
X14480471Y-14644500D01*
X14489995Y-14654024D01*
X14499519Y-14673072D01*
X14509043Y-14711167D01*
X14509043Y-14758786D01*
X14499519Y-14796881D01*
X14489995Y-14815929D01*
X14480471Y-14825452D01*
X14461424Y-14834976D01*
X14442376Y-14834976D01*
X14423329Y-14825452D01*
X14413805Y-14815929D01*
X14404281Y-14796881D01*
X14394757Y-14758786D01*
X14394757Y-14711167D01*
X14404281Y-14673072D01*
X14413805Y-14654024D01*
X14423329Y-14644500D01*
X14442376Y-14634976D01*
X14594757Y-14815929D02*
X14604281Y-14825452D01*
X14594757Y-14834976D01*
X14585233Y-14825452D01*
X14594757Y-14815929D01*
X14594757Y-14834976D01*
X14728090Y-14634976D02*
X14747138Y-14634976D01*
X14766186Y-14644500D01*
X14775710Y-14654024D01*
X14785233Y-14673072D01*
X14794757Y-14711167D01*
X14794757Y-14758786D01*
X14785233Y-14796881D01*
X14775710Y-14815929D01*
X14766186Y-14825452D01*
X14747138Y-14834976D01*
X14728090Y-14834976D01*
X14709043Y-14825452D01*
X14699519Y-14815929D01*
X14689995Y-14796881D01*
X14680471Y-14758786D01*
X14680471Y-14711167D01*
X14689995Y-14673072D01*
X14699519Y-14654024D01*
X14709043Y-14644500D01*
X14728090Y-14634976D01*
X14966186Y-14701643D02*
X14966186Y-14834976D01*
X14918567Y-14625452D02*
X14870948Y-14768310D01*
X14994757Y-14768310D01*
X15109043Y-14634976D02*
X15128090Y-14634976D01*
X15147138Y-14644500D01*
X15156662Y-14654024D01*
X15166186Y-14673072D01*
X15175710Y-14711167D01*
X15175710Y-14758786D01*
X15166186Y-14796881D01*
X15156662Y-14815929D01*
X15147138Y-14825452D01*
X15128090Y-14834976D01*
X15109043Y-14834976D01*
X15089995Y-14825452D01*
X15080471Y-14815929D01*
X15070948Y-14796881D01*
X15061424Y-14758786D01*
X15061424Y-14711167D01*
X15070948Y-14673072D01*
X15080471Y-14654024D01*
X15089995Y-14644500D01*
X15109043Y-14634976D01*
X15299519Y-14634976D02*
X15318567Y-14634976D01*
X15337614Y-14644500D01*
X15347138Y-14654024D01*
X15356662Y-14673072D01*
X15366186Y-14711167D01*
X15366186Y-14758786D01*
X15356662Y-14796881D01*
X15347138Y-14815929D01*
X15337614Y-14825452D01*
X15318567Y-14834976D01*
X15299519Y-14834976D01*
X15280471Y-14825452D01*
X15270948Y-14815929D01*
X15261424Y-14796881D01*
X15251900Y-14758786D01*
X15251900Y-14711167D01*
X15261424Y-14673072D01*
X15270948Y-14654024D01*
X15280471Y-14644500D01*
X15299519Y-14634976D01*
X15442376Y-14634976D02*
X15442376Y-14673072D01*
X15518567Y-14634976D02*
X15518567Y-14673072D01*
X15813805Y-14911167D02*
X15804281Y-14901643D01*
X15785233Y-14873072D01*
X15775710Y-14854024D01*
X15766186Y-14825452D01*
X15756662Y-14777833D01*
X15756662Y-14739738D01*
X15766186Y-14692119D01*
X15775710Y-14663548D01*
X15785233Y-14644500D01*
X15804281Y-14615929D01*
X15813805Y-14606405D01*
X15975710Y-14634976D02*
X15937614Y-14634976D01*
X15918567Y-14644500D01*
X15909043Y-14654024D01*
X15889995Y-14682595D01*
X15880471Y-14720691D01*
X15880471Y-14796881D01*
X15889995Y-14815929D01*
X15899519Y-14825452D01*
X15918567Y-14834976D01*
X15956662Y-14834976D01*
X15975710Y-14825452D01*
X15985233Y-14815929D01*
X15994757Y-14796881D01*
X15994757Y-14749262D01*
X15985233Y-14730214D01*
X15975710Y-14720691D01*
X15956662Y-14711167D01*
X15918567Y-14711167D01*
X15899519Y-14720691D01*
X15889995Y-14730214D01*
X15880471Y-14749262D01*
X16166186Y-14701643D02*
X16166186Y-14834976D01*
X16118567Y-14625452D02*
X16070948Y-14768310D01*
X16194757Y-14768310D01*
X16423329Y-14834976D02*
X16423329Y-14634976D01*
X16509043Y-14834976D02*
X16509043Y-14730214D01*
X16499519Y-14711167D01*
X16480471Y-14701643D01*
X16451900Y-14701643D01*
X16432852Y-14711167D01*
X16423329Y-14720691D01*
X16632852Y-14834976D02*
X16613805Y-14825452D01*
X16604281Y-14815929D01*
X16594757Y-14796881D01*
X16594757Y-14739738D01*
X16604281Y-14720691D01*
X16613805Y-14711167D01*
X16632852Y-14701643D01*
X16661424Y-14701643D01*
X16680471Y-14711167D01*
X16689995Y-14720691D01*
X16699519Y-14739738D01*
X16699519Y-14796881D01*
X16689995Y-14815929D01*
X16680471Y-14825452D01*
X16661424Y-14834976D01*
X16632852Y-14834976D01*
X16813805Y-14834976D02*
X16794757Y-14825452D01*
X16785233Y-14806405D01*
X16785233Y-14634976D01*
X16966186Y-14825452D02*
X16947138Y-14834976D01*
X16909043Y-14834976D01*
X16889995Y-14825452D01*
X16880472Y-14806405D01*
X16880472Y-14730214D01*
X16889995Y-14711167D01*
X16909043Y-14701643D01*
X16947138Y-14701643D01*
X16966186Y-14711167D01*
X16975710Y-14730214D01*
X16975710Y-14749262D01*
X16880472Y-14768310D01*
X17051900Y-14825452D02*
X17070948Y-14834976D01*
X17109043Y-14834976D01*
X17128091Y-14825452D01*
X17137614Y-14806405D01*
X17137614Y-14796881D01*
X17128091Y-14777833D01*
X17109043Y-14768310D01*
X17080472Y-14768310D01*
X17061424Y-14758786D01*
X17051900Y-14739738D01*
X17051900Y-14730214D01*
X17061424Y-14711167D01*
X17080472Y-14701643D01*
X17109043Y-14701643D01*
X17128091Y-14711167D01*
X17204281Y-14911167D02*
X17213805Y-14901643D01*
X17232852Y-14873072D01*
X17242376Y-14854024D01*
X17251900Y-14825452D01*
X17261424Y-14777833D01*
X17261424Y-14739738D01*
X17251900Y-14692119D01*
X17242376Y-14663548D01*
X17232852Y-14644500D01*
X17213805Y-14615929D01*
X17204281Y-14606405D01*
D18*
X12109820Y-14942460D02*
X12241900Y-15074540D01*
X12241900Y-14942460D02*
X12109820Y-15074540D01*
X12175860Y-14942460D02*
X12175860Y-15074540D01*
X12109820Y-15008500D02*
X12241900Y-15008500D01*
D11*
X12604281Y-15098976D02*
X12489995Y-15098976D01*
X12547138Y-15098976D02*
X12547138Y-14898976D01*
X12528090Y-14927548D01*
X12509043Y-14946595D01*
X12489995Y-14956119D01*
X12689995Y-15079929D02*
X12699519Y-15089452D01*
X12689995Y-15098976D01*
X12680471Y-15089452D01*
X12689995Y-15079929D01*
X12689995Y-15098976D01*
X12766186Y-14898976D02*
X12889995Y-14898976D01*
X12823329Y-14975167D01*
X12851900Y-14975167D01*
X12870948Y-14984691D01*
X12880471Y-14994214D01*
X12889995Y-15013262D01*
X12889995Y-15060881D01*
X12880471Y-15079929D01*
X12870948Y-15089452D01*
X12851900Y-15098976D01*
X12794757Y-15098976D01*
X12775710Y-15089452D01*
X12766186Y-15079929D01*
X12966186Y-14918024D02*
X12975710Y-14908500D01*
X12994757Y-14898976D01*
X13042376Y-14898976D01*
X13061424Y-14908500D01*
X13070948Y-14918024D01*
X13080471Y-14937072D01*
X13080471Y-14956119D01*
X13070948Y-14984691D01*
X12956662Y-15098976D01*
X13080471Y-15098976D01*
X13270948Y-15098976D02*
X13156662Y-15098976D01*
X13213805Y-15098976D02*
X13213805Y-14898976D01*
X13194757Y-14927548D01*
X13175710Y-14946595D01*
X13156662Y-14956119D01*
X13356662Y-15098976D02*
X13356662Y-14965643D01*
X13356662Y-14984691D02*
X13366186Y-14975167D01*
X13385233Y-14965643D01*
X13413805Y-14965643D01*
X13432852Y-14975167D01*
X13442376Y-14994214D01*
X13442376Y-15098976D01*
X13442376Y-14994214D02*
X13451900Y-14975167D01*
X13470948Y-14965643D01*
X13499519Y-14965643D01*
X13518567Y-14975167D01*
X13528090Y-14994214D01*
X13528090Y-15098976D01*
X13623329Y-15098976D02*
X13623329Y-14965643D01*
X13623329Y-14984691D02*
X13632852Y-14975167D01*
X13651900Y-14965643D01*
X13680471Y-14965643D01*
X13699519Y-14975167D01*
X13709043Y-14994214D01*
X13709043Y-15098976D01*
X13709043Y-14994214D02*
X13718567Y-14975167D01*
X13737614Y-14965643D01*
X13766186Y-14965643D01*
X13785233Y-14975167D01*
X13794757Y-14994214D01*
X13794757Y-15098976D01*
X14185233Y-14889452D02*
X14013805Y-15146595D01*
X14442376Y-14898976D02*
X14461424Y-14898976D01*
X14480471Y-14908500D01*
X14489995Y-14918024D01*
X14499519Y-14937072D01*
X14509043Y-14975167D01*
X14509043Y-15022786D01*
X14499519Y-15060881D01*
X14489995Y-15079929D01*
X14480471Y-15089452D01*
X14461424Y-15098976D01*
X14442376Y-15098976D01*
X14423329Y-15089452D01*
X14413805Y-15079929D01*
X14404281Y-15060881D01*
X14394757Y-15022786D01*
X14394757Y-14975167D01*
X14404281Y-14937072D01*
X14413805Y-14918024D01*
X14423329Y-14908500D01*
X14442376Y-14898976D01*
X14594757Y-15079929D02*
X14604281Y-15089452D01*
X14594757Y-15098976D01*
X14585233Y-15089452D01*
X14594757Y-15079929D01*
X14594757Y-15098976D01*
X14728090Y-14898976D02*
X14747138Y-14898976D01*
X14766186Y-14908500D01*
X14775710Y-14918024D01*
X14785233Y-14937072D01*
X14794757Y-14975167D01*
X14794757Y-15022786D01*
X14785233Y-15060881D01*
X14775710Y-15079929D01*
X14766186Y-15089452D01*
X14747138Y-15098976D01*
X14728090Y-15098976D01*
X14709043Y-15089452D01*
X14699519Y-15079929D01*
X14689995Y-15060881D01*
X14680471Y-15022786D01*
X14680471Y-14975167D01*
X14689995Y-14937072D01*
X14699519Y-14918024D01*
X14709043Y-14908500D01*
X14728090Y-14898976D01*
X14975710Y-14898976D02*
X14880471Y-14898976D01*
X14870948Y-14994214D01*
X14880471Y-14984691D01*
X14899519Y-14975167D01*
X14947138Y-14975167D01*
X14966186Y-14984691D01*
X14975710Y-14994214D01*
X14985233Y-15013262D01*
X14985233Y-15060881D01*
X14975710Y-15079929D01*
X14966186Y-15089452D01*
X14947138Y-15098976D01*
X14899519Y-15098976D01*
X14880471Y-15089452D01*
X14870948Y-15079929D01*
X15061424Y-14918024D02*
X15070948Y-14908500D01*
X15089995Y-14898976D01*
X15137614Y-14898976D01*
X15156662Y-14908500D01*
X15166186Y-14918024D01*
X15175710Y-14937072D01*
X15175710Y-14956119D01*
X15166186Y-14984691D01*
X15051900Y-15098976D01*
X15175710Y-15098976D01*
X15299519Y-14898976D02*
X15318567Y-14898976D01*
X15337614Y-14908500D01*
X15347138Y-14918024D01*
X15356662Y-14937072D01*
X15366186Y-14975167D01*
X15366186Y-15022786D01*
X15356662Y-15060881D01*
X15347138Y-15079929D01*
X15337614Y-15089452D01*
X15318567Y-15098976D01*
X15299519Y-15098976D01*
X15280471Y-15089452D01*
X15270948Y-15079929D01*
X15261424Y-15060881D01*
X15251900Y-15022786D01*
X15251900Y-14975167D01*
X15261424Y-14937072D01*
X15270948Y-14918024D01*
X15280471Y-14908500D01*
X15299519Y-14898976D01*
X15442376Y-14898976D02*
X15442376Y-14937072D01*
X15518567Y-14898976D02*
X15518567Y-14937072D01*
X15813805Y-15175167D02*
X15804281Y-15165643D01*
X15785233Y-15137072D01*
X15775710Y-15118024D01*
X15766186Y-15089452D01*
X15756662Y-15041833D01*
X15756662Y-15003738D01*
X15766186Y-14956119D01*
X15775710Y-14927548D01*
X15785233Y-14908500D01*
X15804281Y-14879929D01*
X15813805Y-14870405D01*
X15880471Y-14918024D02*
X15889995Y-14908500D01*
X15909043Y-14898976D01*
X15956662Y-14898976D01*
X15975710Y-14908500D01*
X15985233Y-14918024D01*
X15994757Y-14937072D01*
X15994757Y-14956119D01*
X15985233Y-14984691D01*
X15870948Y-15098976D01*
X15994757Y-15098976D01*
X16232852Y-15098976D02*
X16232852Y-14898976D01*
X16318567Y-15098976D02*
X16318567Y-14994214D01*
X16309043Y-14975167D01*
X16289995Y-14965643D01*
X16261424Y-14965643D01*
X16242376Y-14975167D01*
X16232852Y-14984691D01*
X16442376Y-15098976D02*
X16423329Y-15089452D01*
X16413805Y-15079929D01*
X16404281Y-15060881D01*
X16404281Y-15003738D01*
X16413805Y-14984691D01*
X16423329Y-14975167D01*
X16442376Y-14965643D01*
X16470948Y-14965643D01*
X16489995Y-14975167D01*
X16499519Y-14984691D01*
X16509043Y-15003738D01*
X16509043Y-15060881D01*
X16499519Y-15079929D01*
X16489995Y-15089452D01*
X16470948Y-15098976D01*
X16442376Y-15098976D01*
X16623329Y-15098976D02*
X16604281Y-15089452D01*
X16594757Y-15070405D01*
X16594757Y-14898976D01*
X16775710Y-15089452D02*
X16756662Y-15098976D01*
X16718567Y-15098976D01*
X16699519Y-15089452D01*
X16689995Y-15070405D01*
X16689995Y-14994214D01*
X16699519Y-14975167D01*
X16718567Y-14965643D01*
X16756662Y-14965643D01*
X16775710Y-14975167D01*
X16785233Y-14994214D01*
X16785233Y-15013262D01*
X16689995Y-15032310D01*
X16861424Y-15089452D02*
X16880472Y-15098976D01*
X16918567Y-15098976D01*
X16937614Y-15089452D01*
X16947138Y-15070405D01*
X16947138Y-15060881D01*
X16937614Y-15041833D01*
X16918567Y-15032310D01*
X16889995Y-15032310D01*
X16870948Y-15022786D01*
X16861424Y-15003738D01*
X16861424Y-14994214D01*
X16870948Y-14975167D01*
X16889995Y-14965643D01*
X16918567Y-14965643D01*
X16937614Y-14975167D01*
X17013805Y-15175167D02*
X17023329Y-15165643D01*
X17042376Y-15137072D01*
X17051900Y-15118024D01*
X17061424Y-15089452D01*
X17070948Y-15041833D01*
X17070948Y-15003738D01*
X17061424Y-14956119D01*
X17051900Y-14927548D01*
X17042376Y-14908500D01*
X17023329Y-14879929D01*
X17013805Y-14870405D01*
M02*
